<svg xmlns="http://www.w3.org/2000/svg" width="500" height="636">
  <defs>
    <marker id="arrowhead" markerWidth="10" markerHeight="7" refX="10" refY="3.5" orient="auto">
      <polygon points="0 0, 10 3.5, 0 7" fill="#333"/>
    </marker>
  </defs>
  <rect width="500" height="636" fill="white"/>
  <text x="250" y="44" text-anchor="middle" font-size="17" font-weight="bold" fill="#333">Определение благоприятных исходов для получения ровно одного орла</text>
  <line x1="250.0" y1="134.0" x2="250.0" y2="204.0" stroke="#333" stroke-width="1.5" marker-end="url(#arrowhead)"/>
  <line x1="250.0" y1="268.0" x2="250.0" y2="338.0" stroke="#333" stroke-width="1.5" marker-end="url(#arrowhead)"/>
  <line x1="250.0" y1="402.0" x2="250.0" y2="472.0" stroke="#333" stroke-width="1.5" marker-end="url(#arrowhead)"/>
  <rect x="120.0" y="70.0" width="260" height="64.0" rx="6" fill="#f5f5f5" stroke="#333333" stroke-width="1.5"/>
  <text x="250.0" y="95.5" text-anchor="middle" font-size="13" fill="#333">Определи тип исходов</text>
  <text x="250.0" y="112.5" text-anchor="middle" font-size="13" fill="#333">бросок двух монет</text>
  <rect x="120.0" y="204.0" width="260" height="64.0" rx="6" fill="#f5f5f5" stroke="#333333" stroke-width="1.5"/>
  <text x="250.0" y="229.5" text-anchor="middle" font-size="13" fill="#333">Найди благоприятные исходы</text>
  <text x="250.0" y="246.5" text-anchor="middle" font-size="13" fill="#333">О, Р и Р, О</text>
  <rect x="120.0" y="338.0" width="260" height="64.0" rx="6" fill="#f5f5f5" stroke="#333333" stroke-width="1.5"/>
  <text x="250.0" y="363.5" text-anchor="middle" font-size="13" fill="#333">Исключи неблагоприятные исходы</text>
  <text x="250.0" y="380.5" text-anchor="middle" font-size="13" fill="#333">(О, О) и (Р, Р)</text>
  <rect x="120.0" y="472.0" width="260" height="64.0" rx="6" fill="#f5f5f5" stroke="#333333" stroke-width="1.5"/>
  <text x="250.0" y="497.5" text-anchor="middle" font-size="13" fill="#333">Подсчитай благоприятные исходы</text>
  <text x="250.0" y="514.5" text-anchor="middle" font-size="13" fill="#333">m = 2</text>
</svg>