<svg xmlns="http://www.w3.org/2000/svg" width="500" height="978">
  <defs>
    <marker id="arrowhead" markerWidth="10" markerHeight="7" refX="10" refY="3.5" orient="auto">
      <polygon points="0 0, 10 3.5, 0 7" fill="#333"/>
    </marker>
  </defs>
  <rect width="500" height="978" fill="white"/>
  <text x="250" y="44" text-anchor="middle" font-size="17" font-weight="bold" fill="#333">Найдём m — пары, где a + b = 7</text>
  <line x1="250.0" y1="134.0" x2="250.0" y2="204.0" stroke="#333" stroke-width="1.5" marker-end="url(#arrowhead)"/>
  <line x1="250.0" y1="256.0" x2="250.0" y2="326.0" stroke="#333" stroke-width="1.5" marker-end="url(#arrowhead)"/>
  <line x1="250.0" y1="378.0" x2="250.0" y2="448.0" stroke="#333" stroke-width="1.5" marker-end="url(#arrowhead)"/>
  <line x1="250.0" y1="500.0" x2="250.0" y2="570.0" stroke="#333" stroke-width="1.5" marker-end="url(#arrowhead)"/>
  <line x1="250.0" y1="622.0" x2="250.0" y2="692.0" stroke="#333" stroke-width="1.5" marker-end="url(#arrowhead)"/>
  <line x1="250.0" y1="744.0" x2="250.0" y2="814.0" stroke="#333" stroke-width="1.5" marker-end="url(#arrowhead)"/>
  <rect x="120.0" y="70.0" width="260" height="64.0" rx="6" fill="#f5f5f5" stroke="#333333" stroke-width="1.5"/>
  <text x="250.0" y="95.5" text-anchor="middle" font-size="13" fill="#333">Перебираем пары</text>
  <text x="250.0" y="112.5" text-anchor="middle" font-size="13" fill="#333">(1, 6) → 1+6=7</text>
  <rect x="120.0" y="204.0" width="260" height="52.0" rx="6" fill="#f5f5f5" stroke="#333333" stroke-width="1.5"/>
  <text x="250.0" y="223.5" text-anchor="middle" font-size="13" fill="#333"></text>
  <text x="250.0" y="240.5" text-anchor="middle" font-size="13" fill="#333">(2, 5) → 2+5=7</text>
  <rect x="120.0" y="326.0" width="260" height="52.0" rx="6" fill="#f5f5f5" stroke="#333333" stroke-width="1.5"/>
  <text x="250.0" y="345.5" text-anchor="middle" font-size="13" fill="#333"></text>
  <text x="250.0" y="362.5" text-anchor="middle" font-size="13" fill="#333">(3, 4) → 3+4=7</text>
  <rect x="120.0" y="448.0" width="260" height="52.0" rx="6" fill="#f5f5f5" stroke="#333333" stroke-width="1.5"/>
  <text x="250.0" y="467.5" text-anchor="middle" font-size="13" fill="#333"></text>
  <text x="250.0" y="484.5" text-anchor="middle" font-size="13" fill="#333">(4, 3) → 4+3=7</text>
  <rect x="120.0" y="570.0" width="260" height="52.0" rx="6" fill="#f5f5f5" stroke="#333333" stroke-width="1.5"/>
  <text x="250.0" y="589.5" text-anchor="middle" font-size="13" fill="#333"></text>
  <text x="250.0" y="606.5" text-anchor="middle" font-size="13" fill="#333">(5, 2) → 5+2=7</text>
  <rect x="120.0" y="692.0" width="260" height="52.0" rx="6" fill="#f5f5f5" stroke="#333333" stroke-width="1.5"/>
  <text x="250.0" y="711.5" text-anchor="middle" font-size="13" fill="#333"></text>
  <text x="250.0" y="728.5" text-anchor="middle" font-size="13" fill="#333">(6, 1) → 6+1=7</text>
  <rect x="120.0" y="814.0" width="260" height="64.0" rx="6" fill="#f5f5f5" stroke="#333333" stroke-width="1.5"/>
  <text x="250.0" y="839.5" text-anchor="middle" font-size="13" fill="#333">Подсчитываем количество пар</text>
  <text x="250.0" y="856.5" text-anchor="middle" font-size="13" fill="#333">m = 6</text>
</svg>