<svg xmlns="http://www.w3.org/2000/svg" width="500" height="1044">
  <defs>
    <marker id="arrowhead" markerWidth="10" markerHeight="7" refX="10" refY="3.5" orient="auto">
      <polygon points="0 0, 10 3.5, 0 7" fill="#333"/>
    </marker>
  </defs>
  <rect width="500" height="1044" fill="white"/>
  <text x="250" y="44" text-anchor="middle" font-size="17" font-weight="bold" fill="#333">Алгоритм решения уравнений</text>
  <line x1="250.0" y1="154.0" x2="250.0" y2="224.0" stroke="#333" stroke-width="1.5" marker-end="url(#arrowhead)"/>
  <line x1="250.0" y1="288.0" x2="250.0" y2="358.0" stroke="#333" stroke-width="1.5" marker-end="url(#arrowhead)"/>
  <line x1="250.0" y1="542.0" x2="250.0" y2="612.0" stroke="#333" stroke-width="1.5" marker-end="url(#arrowhead)"/>
  <line x1="250.0" y1="676.0" x2="250.0" y2="746.0" stroke="#333" stroke-width="1.5" marker-end="url(#arrowhead)"/>
  <line x1="250.0" y1="810.0" x2="250.0" y2="880.0" stroke="#333" stroke-width="1.5" marker-end="url(#arrowhead)"/>
  <rect x="120.0" y="70.0" width="260" height="84.0" rx="6" fill="#f5f5f5" stroke="#333333" stroke-width="1.5"/>
  <text x="250.0" y="105.5" text-anchor="middle" font-size="13" fill="#333">Определи тип уравнения</text>
  <text x="250.0" y="122.5" text-anchor="middle" font-size="13" fill="#333">по наличию степени, логарифма, др…</text>
  <rect x="120.0" y="224.0" width="260" height="64.0" rx="6" fill="#f5f5f5" stroke="#333333" stroke-width="1.5"/>
  <text x="250.0" y="249.5" text-anchor="middle" font-size="13" fill="#333">Найди ОДЗ</text>
  <text x="250.0" y="266.5" text-anchor="middle" font-size="13" fill="#333">особенно для логарифмов и корней</text>
  <rect x="120.0" y="358.0" width="260" height="184.0" rx="6" fill="#f5f5f5" stroke="#333333" stroke-width="1.5"/>
  <text x="250.0" y="443.5" text-anchor="middle" font-size="13" fill="#333">Приведи уравнение к простому виду</text>
  <text x="250.0" y="460.5" text-anchor="middle" font-size="13" fill="#333">для показательных: основания один…</text>
  <rect x="120.0" y="612.0" width="260" height="64.0" rx="6" fill="#f5f5f5" stroke="#333333" stroke-width="1.5"/>
  <text x="250.0" y="637.5" text-anchor="middle" font-size="13" fill="#333">Реши полученное уравнение</text>
  <text x="250.0" y="654.5" text-anchor="middle" font-size="13" fill="#333">обычно линейное или квадратное</text>
  <rect x="120.0" y="746.0" width="260" height="64.0" rx="6" fill="#f5f5f5" stroke="#333333" stroke-width="1.5"/>
  <text x="250.0" y="771.5" text-anchor="middle" font-size="13" fill="#333">Проверь корни по ОДЗ</text>
  <text x="250.0" y="788.5" text-anchor="middle" font-size="13" fill="#333">отбрось те, что не подходят</text>
  <rect x="120.0" y="880.0" width="260" height="64.0" rx="6" fill="#f5f5f5" stroke="#333333" stroke-width="1.5"/>
  <text x="250.0" y="905.5" text-anchor="middle" font-size="13" fill="#333">Запиши ответ</text>
  <text x="250.0" y="922.5" text-anchor="middle" font-size="13" fill="#333">целое число или десятичная дробь</text>
</svg>