<svg xmlns="http://www.w3.org/2000/svg" width="400" height="400" overflow="hidden">
  <defs>
    <marker id="arrow_axis" markerWidth="8" markerHeight="8" refX="8" refY="4" orient="auto">
      <path d="M0,0 L8,4 L0,8 Z" fill="#888"/>
    </marker>
  </defs>
  <rect width="400" height="400" fill="white"/>
  <line x1="0.0" y1="0" x2="0.0" y2="400" stroke="#e0e0e0" stroke-width="0.5"/>
  <line x1="28.6" y1="0" x2="28.6" y2="400" stroke="#e0e0e0" stroke-width="0.5"/>
  <line x1="57.1" y1="0" x2="57.1" y2="400" stroke="#e0e0e0" stroke-width="0.5"/>
  <line x1="85.7" y1="0" x2="85.7" y2="400" stroke="#e0e0e0" stroke-width="0.5"/>
  <line x1="114.3" y1="0" x2="114.3" y2="400" stroke="#e0e0e0" stroke-width="0.5"/>
  <line x1="142.9" y1="0" x2="142.9" y2="400" stroke="#e0e0e0" stroke-width="0.5"/>
  <line x1="171.4" y1="0" x2="171.4" y2="400" stroke="#e0e0e0" stroke-width="0.5"/>
  <line x1="200.0" y1="0" x2="200.0" y2="400" stroke="#e0e0e0" stroke-width="0.5"/>
  <line x1="228.6" y1="0" x2="228.6" y2="400" stroke="#e0e0e0" stroke-width="0.5"/>
  <line x1="257.1" y1="0" x2="257.1" y2="400" stroke="#e0e0e0" stroke-width="0.5"/>
  <line x1="285.7" y1="0" x2="285.7" y2="400" stroke="#e0e0e0" stroke-width="0.5"/>
  <line x1="314.3" y1="0" x2="314.3" y2="400" stroke="#e0e0e0" stroke-width="0.5"/>
  <line x1="342.9" y1="0" x2="342.9" y2="400" stroke="#e0e0e0" stroke-width="0.5"/>
  <line x1="371.4" y1="0" x2="371.4" y2="400" stroke="#e0e0e0" stroke-width="0.5"/>
  <line x1="400.0" y1="0" x2="400.0" y2="400" stroke="#e0e0e0" stroke-width="0.5"/>
  <line x1="0" y1="400.0" x2="400" y2="400.0" stroke="#e0e0e0" stroke-width="0.5"/>
  <line x1="0" y1="371.4" x2="400" y2="371.4" stroke="#e0e0e0" stroke-width="0.5"/>
  <line x1="0" y1="342.9" x2="400" y2="342.9" stroke="#e0e0e0" stroke-width="0.5"/>
  <line x1="0" y1="314.3" x2="400" y2="314.3" stroke="#e0e0e0" stroke-width="0.5"/>
  <line x1="0" y1="285.7" x2="400" y2="285.7" stroke="#e0e0e0" stroke-width="0.5"/>
  <line x1="0" y1="257.1" x2="400" y2="257.1" stroke="#e0e0e0" stroke-width="0.5"/>
  <line x1="0" y1="228.6" x2="400" y2="228.6" stroke="#e0e0e0" stroke-width="0.5"/>
  <line x1="0" y1="200.0" x2="400" y2="200.0" stroke="#e0e0e0" stroke-width="0.5"/>
  <line x1="0" y1="171.4" x2="400" y2="171.4" stroke="#e0e0e0" stroke-width="0.5"/>
  <line x1="0" y1="142.9" x2="400" y2="142.9" stroke="#e0e0e0" stroke-width="0.5"/>
  <line x1="0" y1="114.3" x2="400" y2="114.3" stroke="#e0e0e0" stroke-width="0.5"/>
  <line x1="0" y1="85.7" x2="400" y2="85.7" stroke="#e0e0e0" stroke-width="0.5"/>
  <line x1="0" y1="57.1" x2="400" y2="57.1" stroke="#e0e0e0" stroke-width="0.5"/>
  <line x1="0" y1="28.6" x2="400" y2="28.6" stroke="#e0e0e0" stroke-width="0.5"/>
  <line x1="0" y1="0.0" x2="400" y2="0.0" stroke="#e0e0e0" stroke-width="0.5"/>
  <line x1="0" y1="200.0" x2="400" y2="200.0" stroke="#888" stroke-width="1" marker-end="url(#arrow_axis)"/>
  <line x1="200.0" y1="400" x2="200.0" y2="0" stroke="#888" stroke-width="1" marker-end="url(#arrow_axis)"/>
  <text x="0.0" y="214.0" text-anchor="middle" font-size="10" fill="#666">-7</text>
  <text x="28.6" y="214.0" text-anchor="middle" font-size="10" fill="#666">-6</text>
  <text x="57.1" y="214.0" text-anchor="middle" font-size="10" fill="#666">-5</text>
  <text x="85.7" y="214.0" text-anchor="middle" font-size="10" fill="#666">-4</text>
  <text x="114.3" y="214.0" text-anchor="middle" font-size="10" fill="#666">-3</text>
  <text x="142.9" y="214.0" text-anchor="middle" font-size="10" fill="#666">-2</text>
  <text x="171.4" y="214.0" text-anchor="middle" font-size="10" fill="#666">-1</text>
  <text x="228.6" y="214.0" text-anchor="middle" font-size="10" fill="#666">1</text>
  <text x="257.1" y="214.0" text-anchor="middle" font-size="10" fill="#666">2</text>
  <text x="285.7" y="214.0" text-anchor="middle" font-size="10" fill="#666">3</text>
  <text x="314.3" y="214.0" text-anchor="middle" font-size="10" fill="#666">4</text>
  <text x="342.9" y="214.0" text-anchor="middle" font-size="10" fill="#666">5</text>
  <text x="371.4" y="214.0" text-anchor="middle" font-size="10" fill="#666">6</text>
  <text x="400.0" y="214.0" text-anchor="middle" font-size="10" fill="#666">7</text>
  <text x="192.0" y="404.0" text-anchor="end" font-size="10" fill="#666">-7</text>
  <text x="192.0" y="375.4" text-anchor="end" font-size="10" fill="#666">-6</text>
  <text x="192.0" y="346.9" text-anchor="end" font-size="10" fill="#666">-5</text>
  <text x="192.0" y="318.3" text-anchor="end" font-size="10" fill="#666">-4</text>
  <text x="192.0" y="289.7" text-anchor="end" font-size="10" fill="#666">-3</text>
  <text x="192.0" y="261.1" text-anchor="end" font-size="10" fill="#666">-2</text>
  <text x="192.0" y="232.6" text-anchor="end" font-size="10" fill="#666">-1</text>
  <text x="192.0" y="175.4" text-anchor="end" font-size="10" fill="#666">1</text>
  <text x="192.0" y="146.9" text-anchor="end" font-size="10" fill="#666">2</text>
  <text x="192.0" y="118.3" text-anchor="end" font-size="10" fill="#666">3</text>
  <text x="192.0" y="89.7" text-anchor="end" font-size="10" fill="#666">4</text>
  <text x="192.0" y="61.1" text-anchor="end" font-size="10" fill="#666">5</text>
  <text x="192.0" y="32.6" text-anchor="end" font-size="10" fill="#666">6</text>
  <text x="192.0" y="4.0" text-anchor="end" font-size="10" fill="#666">7</text>
</svg>