<svg xmlns="http://www.w3.org/2000/svg" width="500" height="850">
  <defs>
    <marker id="arrowhead" markerWidth="10" markerHeight="7" refX="10" refY="3.5" orient="auto">
      <polygon points="0 0, 10 3.5, 0 7" fill="#333"/>
    </marker>
  </defs>
  <rect width="500" height="850" fill="white"/>
  <text x="250" y="44" text-anchor="middle" font-size="17" font-weight="bold" fill="#333">Алгоритм анализа графика производной для определения интервалов возрастания и убывания функции</text>
  <line x1="250.0" y1="154.0" x2="250.0" y2="224.0" stroke="#333" stroke-width="1.5" marker-end="url(#arrowhead)"/>
  <line x1="250.0" y1="288.0" x2="250.0" y2="358.0" stroke="#333" stroke-width="1.5" marker-end="url(#arrowhead)"/>
  <line x1="250.0" y1="442.0" x2="250.0" y2="512.0" stroke="#333" stroke-width="1.5" marker-end="url(#arrowhead)"/>
  <line x1="250.0" y1="576.0" x2="250.0" y2="646.0" stroke="#333" stroke-width="1.5" marker-end="url(#arrowhead)"/>
  <rect x="120.0" y="70.0" width="260" height="84.0" rx="6" fill="#f5f5f5" stroke="#333333" stroke-width="1.5"/>
  <text x="250.0" y="105.5" text-anchor="middle" font-size="13" fill="#333">Найди участки, где $f&#x27;(x) &gt; 0$</text>
  <text x="250.0" y="122.5" text-anchor="middle" font-size="13" fill="#333">График производной выше оси $x$</text>
  <rect x="120.0" y="224.0" width="260" height="64.0" rx="6" fill="#f5f5f5" stroke="#333333" stroke-width="1.5"/>
  <text x="250.0" y="249.5" text-anchor="middle" font-size="13" fill="#333">Запиши, где функция $f(x)$ возрас…</text>
  <text x="250.0" y="266.5" text-anchor="middle" font-size="13" fill="#333">На этих участках</text>
  <rect x="120.0" y="358.0" width="260" height="84.0" rx="6" fill="#f5f5f5" stroke="#333333" stroke-width="1.5"/>
  <text x="250.0" y="393.5" text-anchor="middle" font-size="13" fill="#333">Найди участки, где $f&#x27;(x) &lt; 0$</text>
  <text x="250.0" y="410.5" text-anchor="middle" font-size="13" fill="#333">График производной ниже оси $x$</text>
  <rect x="120.0" y="512.0" width="260" height="64.0" rx="6" fill="#f5f5f5" stroke="#333333" stroke-width="1.5"/>
  <text x="250.0" y="537.5" text-anchor="middle" font-size="13" fill="#333">Запиши, где функция $f(x)$ убывает</text>
  <text x="250.0" y="554.5" text-anchor="middle" font-size="13" fill="#333">На этих участках</text>
  <rect x="120.0" y="646.0" width="260" height="104.0" rx="6" fill="#f5f5f5" stroke="#333333" stroke-width="1.5"/>
  <text x="250.0" y="691.5" text-anchor="middle" font-size="13" fill="#333">Если нужно, посчитай количество у…</text>
  <text x="250.0" y="708.5" text-anchor="middle" font-size="13" fill="#333">Сколько участков возрастания и уб…</text>
</svg>