<svg xmlns="http://www.w3.org/2000/svg" width="400" height="400" viewBox="0 0 400 400" style="background:white;font-family:sans-serif">
  <defs>
    <marker id="ah" markerWidth="8" markerHeight="6" refX="8" refY="3" orient="auto">
      <path d="M0,0 L8,3 L0,6" fill="#555"/></marker>
  </defs>
  <line x1="0.0" y1="0" x2="0.0" y2="400" stroke="#eee" stroke-width="0.5"/>
  <line x1="66.7" y1="0" x2="66.7" y2="400" stroke="#eee" stroke-width="0.5"/>
  <line x1="133.3" y1="0" x2="133.3" y2="400" stroke="#eee" stroke-width="0.5"/>
  <line x1="200.0" y1="0" x2="200.0" y2="400" stroke="#eee" stroke-width="0.5"/>
  <line x1="266.7" y1="0" x2="266.7" y2="400" stroke="#eee" stroke-width="0.5"/>
  <line x1="333.3" y1="0" x2="333.3" y2="400" stroke="#eee" stroke-width="0.5"/>
  <line x1="400.0" y1="0" x2="400.0" y2="400" stroke="#eee" stroke-width="0.5"/>
  <line x1="0" y1="400.0" x2="400" y2="400.0" stroke="#eee" stroke-width="0.5"/>
  <line x1="0" y1="381.8" x2="400" y2="381.8" stroke="#eee" stroke-width="0.5"/>
  <line x1="0" y1="363.6" x2="400" y2="363.6" stroke="#eee" stroke-width="0.5"/>
  <line x1="0" y1="345.5" x2="400" y2="345.5" stroke="#eee" stroke-width="0.5"/>
  <line x1="0" y1="327.3" x2="400" y2="327.3" stroke="#eee" stroke-width="0.5"/>
  <line x1="0" y1="309.1" x2="400" y2="309.1" stroke="#eee" stroke-width="0.5"/>
  <line x1="0" y1="290.9" x2="400" y2="290.9" stroke="#eee" stroke-width="0.5"/>
  <line x1="0" y1="272.7" x2="400" y2="272.7" stroke="#eee" stroke-width="0.5"/>
  <line x1="0" y1="254.5" x2="400" y2="254.5" stroke="#eee" stroke-width="0.5"/>
  <line x1="0" y1="236.4" x2="400" y2="236.4" stroke="#eee" stroke-width="0.5"/>
  <line x1="0" y1="218.2" x2="400" y2="218.2" stroke="#eee" stroke-width="0.5"/>
  <line x1="0" y1="200.0" x2="400" y2="200.0" stroke="#eee" stroke-width="0.5"/>
  <line x1="0" y1="181.8" x2="400" y2="181.8" stroke="#eee" stroke-width="0.5"/>
  <line x1="0" y1="163.6" x2="400" y2="163.6" stroke="#eee" stroke-width="0.5"/>
  <line x1="0" y1="145.5" x2="400" y2="145.5" stroke="#eee" stroke-width="0.5"/>
  <line x1="0" y1="127.3" x2="400" y2="127.3" stroke="#eee" stroke-width="0.5"/>
  <line x1="0" y1="109.1" x2="400" y2="109.1" stroke="#eee" stroke-width="0.5"/>
  <line x1="0" y1="90.9" x2="400" y2="90.9" stroke="#eee" stroke-width="0.5"/>
  <line x1="0" y1="72.7" x2="400" y2="72.7" stroke="#eee" stroke-width="0.5"/>
  <line x1="0" y1="54.5" x2="400" y2="54.5" stroke="#eee" stroke-width="0.5"/>
  <line x1="0" y1="36.4" x2="400" y2="36.4" stroke="#eee" stroke-width="0.5"/>
  <line x1="0" y1="18.2" x2="400" y2="18.2" stroke="#eee" stroke-width="0.5"/>
  <line x1="0" y1="0.0" x2="400" y2="0.0" stroke="#eee" stroke-width="0.5"/>
  <line x1="0" y1="345.5" x2="400" y2="345.5" stroke="#555" stroke-width="1" marker-end="url(#ah)"/>
  <line x1="66.7" y1="400" x2="66.7" y2="0" stroke="#555" stroke-width="1" marker-end="url(#ah)"/>
  <text x="0.0" y="359.5" text-anchor="middle" font-size="10" fill="#888">-1</text>
  <text x="133.3" y="359.5" text-anchor="middle" font-size="10" fill="#888">1</text>
  <text x="200.0" y="359.5" text-anchor="middle" font-size="10" fill="#888">2</text>
  <text x="266.7" y="359.5" text-anchor="middle" font-size="10" fill="#888">3</text>
  <text x="333.3" y="359.5" text-anchor="middle" font-size="10" fill="#888">4</text>
  <text x="400.0" y="359.5" text-anchor="middle" font-size="10" fill="#888">5</text>
  <text x="60.7" y="404.0" text-anchor="end" font-size="10" fill="#888">-3</text>
  <text x="60.7" y="385.8" text-anchor="end" font-size="10" fill="#888">-2</text>
  <text x="60.7" y="367.6" text-anchor="end" font-size="10" fill="#888">-1</text>
  <text x="60.7" y="331.3" text-anchor="end" font-size="10" fill="#888">1</text>
  <text x="60.7" y="313.1" text-anchor="end" font-size="10" fill="#888">2</text>
  <text x="60.7" y="294.9" text-anchor="end" font-size="10" fill="#888">3</text>
  <text x="60.7" y="276.7" text-anchor="end" font-size="10" fill="#888">4</text>
  <text x="60.7" y="258.5" text-anchor="end" font-size="10" fill="#888">5</text>
  <text x="60.7" y="240.4" text-anchor="end" font-size="10" fill="#888">6</text>
  <text x="60.7" y="222.2" text-anchor="end" font-size="10" fill="#888">7</text>
  <text x="60.7" y="204.0" text-anchor="end" font-size="10" fill="#888">8</text>
  <text x="60.7" y="185.8" text-anchor="end" font-size="10" fill="#888">9</text>
  <text x="60.7" y="167.6" text-anchor="end" font-size="10" fill="#888">10</text>
  <text x="60.7" y="149.5" text-anchor="end" font-size="10" fill="#888">11</text>
  <text x="60.7" y="131.3" text-anchor="end" font-size="10" fill="#888">12</text>
  <text x="60.7" y="113.1" text-anchor="end" font-size="10" fill="#888">13</text>
  <text x="60.7" y="94.9" text-anchor="end" font-size="10" fill="#888">14</text>
  <text x="60.7" y="76.7" text-anchor="end" font-size="10" fill="#888">15</text>
  <text x="60.7" y="58.5" text-anchor="end" font-size="10" fill="#888">16</text>
  <text x="60.7" y="40.4" text-anchor="end" font-size="10" fill="#888">17</text>
  <text x="60.7" y="22.2" text-anchor="end" font-size="10" fill="#888">18</text>
  <text x="60.7" y="4.0" text-anchor="end" font-size="10" fill="#888">19</text>
  <text x="58.7" y="359.5" font-size="10" fill="#888">0</text>
  <polyline points="66.7,345.5 67.6,345.5 68.4,345.4 69.3,345.4 70.2,345.4 71.1,345.4 72.0,345.3 72.9,345.3 73.8,345.2 74.7,345.2 75.6,345.1 76.4,345.1 77.3,345.0 78.2,344.9 79.1,344.8 80.0,344.7 80.9,344.6 81.8,344.5 82.7,344.4 83.6,344.3 84.4,344.2 85.3,344.0 86.2,343.9 87.1,343.7 88.0,343.6 88.9,343.4 89.8,343.3 90.7,343.1 91.6,342.9 92.4,342.7 93.3,342.5 94.2,342.3 95.1,342.1 96.0,341.9 96.9,341.7 97.8,341.5 98.7,341.3 99.6,341.0 100.4,340.8 101.3,340.5 102.2,340.3 103.1,340.0 104.0,339.8 104.9,339.5 105.8,339.2 106.7,338.9 107.6,338.6 108.4,338.3 109.3,338.0 110.2,337.7 111.1,337.4 112.0,337.0 112.9,336.7 113.8,336.4 114.7,336.0 115.6,335.7 116.4,335.3 117.3,335.0 118.2,334.6 119.1,334.2 120.0,333.8 120.9,333.4 121.8,333.0 122.7,332.6 123.6,332.2 124.4,331.8 125.3,331.4 126.2,330.9 127.1,330.5 128.0,330.1 128.9,329.6 129.8,329.2 130.7,328.7 131.6,328.2 132.4,327.8 133.3,327.3 134.2,326.8 135.1,326.3 136.0,325.8 136.9,325.3 137.8,324.8 138.7,324.2 139.6,323.7 140.4,323.2 141.3,322.6 142.2,322.1 143.1,321.5 144.0,321.0 144.9,320.4 145.8,319.9 146.7,319.3 147.6,318.7 148.4,318.1 149.3,317.5 150.2,316.9 151.1,316.3 152.0,315.7 152.9,315.0 153.8,314.4 154.7,313.8 155.6,313.1 156.4,312.5 157.3,311.8 158.2,311.2 159.1,310.5 160.0,309.8 160.9,309.1 161.8,308.4 162.7,307.8 163.6,307.1 164.4,306.3 165.3,305.6 166.2,304.9 167.1,304.2 168.0,303.4 168.9,302.7 169.8,302.0 170.7,301.2 171.6,300.4 172.4,299.7 173.3,298.9 174.2,298.1 175.1,297.3 176.0,296.6 176.9,295.8 177.8,294.9 178.7,294.1 179.6,293.3 180.4,292.5 181.3,291.7 182.2,290.8 183.1,290.0 184.0,289.1 184.9,288.3 185.8,287.4 186.7,286.5 187.6,285.7 188.4,284.8 189.3,283.9 190.2,283.0 191.1,282.1 192.0,281.2 192.9,280.3 193.8,279.4 194.7,278.4 195.6,277.5 196.4,276.6 197.3,275.6 198.2,274.7 199.1,273.7 200.0,272.7 200.9,271.8 201.8,270.8 202.7,269.8 203.6,268.8 204.4,267.8 205.3,266.8 206.2,265.8 207.1,264.8 208.0,263.7 208.9,262.7 209.8,261.7 210.7,260.6 211.6,259.6 212.4,258.5 213.3,257.5 214.2,256.4 215.1,255.3 216.0,254.2 216.9,253.1 217.8,252.0 218.7,250.9 219.6,249.8 220.4,248.7 221.3,247.6 222.2,246.5 223.1,245.3 224.0,244.2 224.9,243.0 225.8,241.9 226.7,240.7 227.6,239.6 228.4,238.4 229.3,237.2 230.2,236.0 231.1,234.8 232.0,233.6 232.9,232.4 233.8,231.2 234.7,230.0 235.6,228.8 236.4,227.5 237.3,226.3 238.2,225.1 239.1,223.8 240.0,222.5 240.9,221.3 241.8,220.0 242.7,218.7 243.6,217.5 244.4,216.2 245.3,214.9 246.2,213.6 247.1,212.3 248.0,210.9 248.9,209.6 249.8,208.3 250.7,207.0 251.6,205.6 252.4,204.3 253.3,202.9 254.2,201.5 255.1,200.2 256.0,198.8 256.9,197.4 257.8,196.0 258.7,194.6 259.6,193.2 260.4,191.8 261.3,190.4 262.2,189.0 263.1,187.6 264.0,186.2 264.9,184.7 265.8,183.3 266.7,181.8 267.6,180.4 268.4,178.9 269.3,177.4 270.2,175.9 271.1,174.5 272.0,173.0 272.9,171.5 273.8,170.0 274.7,168.5 275.6,166.9 276.4,165.4 277.3,163.9 278.2,162.4 279.1,160.8 280.0,159.3 280.9,157.7 281.8,156.2 282.7,154.6 283.6,153.0 284.4,151.4 285.3,149.8 286.2,148.3 287.1,146.7 288.0,145.0 288.9,143.4 289.8,141.8 290.7,140.2 291.6,138.6 292.4,136.9 293.3,135.3 294.2,133.6 295.1,132.0 296.0,130.3 296.9,128.6 297.8,126.9 298.7,125.3 299.6,123.6 300.4,121.9 301.3,120.2 302.2,118.5 303.1,116.7 304.0,115.0 304.9,113.3 305.8,111.6 306.7,109.8 307.6,108.1 308.4,106.3 309.3,104.6 310.2,102.8 311.1,101.0 312.0,99.2 312.9,97.4 313.8,95.6 314.7,93.8 315.6,92.0 316.4,90.2 317.3,88.4 318.2,86.6 319.1,84.7 320.0,82.9 320.9,81.1 321.8,79.2 322.7,77.4 323.6,75.5 324.4,73.6 325.3,71.7 326.2,69.9 327.1,68.0 328.0,66.1 328.9,64.2 329.8,62.3 330.7,60.3 331.6,58.4 332.4,56.5 333.3,54.5" fill="none" stroke="#2980b9" stroke-width="2.5"/>
  <circle cx="200.0" cy="290.9" r="4.5" fill="#e74c3c" stroke="white" stroke-width="1.5"/>
  <text x="208.0" y="282.9" font-size="11" fill="#333">(2.0, 3.0)</text>
  <polyline points="66.7,327.3 67.6,326.8 68.4,326.3 69.3,325.8 70.2,325.3 71.1,324.8 72.0,324.4 72.9,323.9 73.8,323.4 74.7,322.9 75.6,322.4 76.4,321.9 77.3,321.5 78.2,321.0 79.1,320.5 80.0,320.0 80.9,319.5 81.8,319.0 82.7,318.5 83.6,318.1 84.4,317.6 85.3,317.1 86.2,316.6 87.1,316.1 88.0,315.6 88.9,315.2 89.8,314.7 90.7,314.2 91.6,313.7 92.4,313.2 93.3,312.7 94.2,312.2 95.1,311.8 96.0,311.3 96.9,310.8 97.8,310.3 98.7,309.8 99.6,309.3 100.4,308.8 101.3,308.4 102.2,307.9 103.1,307.4 104.0,306.9 104.9,306.4 105.8,305.9 106.7,305.5 107.6,305.0 108.4,304.5 109.3,304.0 110.2,303.5 111.1,303.0 112.0,302.5 112.9,302.1 113.8,301.6 114.7,301.1 115.6,300.6 116.4,300.1 117.3,299.6 118.2,299.2 119.1,298.7 120.0,298.2 120.9,297.7 121.8,297.2 122.7,296.7 123.6,296.2 124.4,295.8 125.3,295.3 126.2,294.8 127.1,294.3 128.0,293.8 128.9,293.3 129.8,292.8 130.7,292.4 131.6,291.9 132.4,291.4 133.3,290.9 134.2,290.4 135.1,289.9 136.0,289.5 136.9,289.0 137.8,288.5 138.7,288.0 139.6,287.5 140.4,287.0 141.3,286.5 142.2,286.1 143.1,285.6 144.0,285.1 144.9,284.6 145.8,284.1 146.7,283.6 147.6,283.2 148.4,282.7 149.3,282.2 150.2,281.7 151.1,281.2 152.0,280.7 152.9,280.2 153.8,279.8 154.7,279.3 155.6,278.8 156.4,278.3 157.3,277.8 158.2,277.3 159.1,276.8 160.0,276.4 160.9,275.9 161.8,275.4 162.7,274.9 163.6,274.4 164.4,273.9 165.3,273.5 166.2,273.0 167.1,272.5 168.0,272.0 168.9,271.5 169.8,271.0 170.7,270.5 171.6,270.1 172.4,269.6 173.3,269.1 174.2,268.6 175.1,268.1 176.0,267.6 176.9,267.2 177.8,266.7 178.7,266.2 179.6,265.7 180.4,265.2 181.3,264.7 182.2,264.2 183.1,263.8 184.0,263.3 184.9,262.8 185.8,262.3 186.7,261.8 187.6,261.3 188.4,260.8 189.3,260.4 190.2,259.9 191.1,259.4 192.0,258.9 192.9,258.4 193.8,257.9 194.7,257.5 195.6,257.0 196.4,256.5 197.3,256.0 198.2,255.5 199.1,255.0 200.0,254.5 200.9,254.1 201.8,253.6 202.7,253.1 203.6,252.6 204.4,252.1 205.3,251.6 206.2,251.2 207.1,250.7 208.0,250.2 208.9,249.7 209.8,249.2 210.7,248.7 211.6,248.2 212.4,247.8 213.3,247.3 214.2,246.8 215.1,246.3 216.0,245.8 216.9,245.3 217.8,244.8 218.7,244.4 219.6,243.9 220.4,243.4 221.3,242.9 222.2,242.4 223.1,241.9 224.0,241.5 224.9,241.0 225.8,240.5 226.7,240.0 227.6,239.5 228.4,239.0 229.3,238.5 230.2,238.1 231.1,237.6 232.0,237.1 232.9,236.6 233.8,236.1 234.7,235.6 235.6,235.2 236.4,234.7 237.3,234.2 238.2,233.7 239.1,233.2 240.0,232.7 240.9,232.2 241.8,231.8 242.7,231.3 243.6,230.8 244.4,230.3 245.3,229.8 246.2,229.3 247.1,228.8 248.0,228.4 248.9,227.9 249.8,227.4 250.7,226.9 251.6,226.4 252.4,225.9 253.3,225.5 254.2,225.0 255.1,224.5 256.0,224.0 256.9,223.5 257.8,223.0 258.7,222.5 259.6,222.1 260.4,221.6 261.3,221.1 262.2,220.6 263.1,220.1 264.0,219.6 264.9,219.2 265.8,218.7 266.7,218.2 267.6,217.7 268.4,217.2 269.3,216.7 270.2,216.2 271.1,215.8 272.0,215.3 272.9,214.8 273.8,214.3 274.7,213.8 275.6,213.3 276.4,212.8 277.3,212.4 278.2,211.9 279.1,211.4 280.0,210.9 280.9,210.4 281.8,209.9 282.7,209.5 283.6,209.0 284.4,208.5 285.3,208.0 286.2,207.5 287.1,207.0 288.0,206.5 288.9,206.1 289.8,205.6 290.7,205.1 291.6,204.6 292.4,204.1 293.3,203.6 294.2,203.2 295.1,202.7 296.0,202.2 296.9,201.7 297.8,201.2 298.7,200.7 299.6,200.2 300.4,199.8 301.3,199.3 302.2,198.8 303.1,198.3 304.0,197.8 304.9,197.3 305.8,196.8 306.7,196.4 307.6,195.9 308.4,195.4 309.3,194.9 310.2,194.4 311.1,193.9 312.0,193.5 312.9,193.0 313.8,192.5 314.7,192.0 315.6,191.5 316.4,191.0 317.3,190.5 318.2,190.1 319.1,189.6 320.0,189.1 320.9,188.6 321.8,188.1 322.7,187.6 323.6,187.2 324.4,186.7 325.3,186.2 326.2,185.7 327.1,185.2 328.0,184.7 328.9,184.2 329.8,183.8 330.7,183.3 331.6,182.8 332.4,182.3 333.3,181.8" fill="none" stroke="#e74c3c" stroke-width="2.5" stroke-dasharray="8,4"/>
</svg>