<svg xmlns="http://www.w3.org/2000/svg" width="400" height="400" viewBox="0 0 400 400" style="background:white;font-family:sans-serif">
  <defs>
    <marker id="ah" markerWidth="8" markerHeight="6" refX="8" refY="3" orient="auto">
      <path d="M0,0 L8,3 L0,6" fill="#555"/></marker>
  </defs>
  <line x1="0.0" y1="0" x2="0.0" y2="400" stroke="#eee" stroke-width="0.5"/>
  <line x1="50.0" y1="0" x2="50.0" y2="400" stroke="#eee" stroke-width="0.5"/>
  <line x1="100.0" y1="0" x2="100.0" y2="400" stroke="#eee" stroke-width="0.5"/>
  <line x1="150.0" y1="0" x2="150.0" y2="400" stroke="#eee" stroke-width="0.5"/>
  <line x1="200.0" y1="0" x2="200.0" y2="400" stroke="#eee" stroke-width="0.5"/>
  <line x1="250.0" y1="0" x2="250.0" y2="400" stroke="#eee" stroke-width="0.5"/>
  <line x1="300.0" y1="0" x2="300.0" y2="400" stroke="#eee" stroke-width="0.5"/>
  <line x1="350.0" y1="0" x2="350.0" y2="400" stroke="#eee" stroke-width="0.5"/>
  <line x1="400.0" y1="0" x2="400.0" y2="400" stroke="#eee" stroke-width="0.5"/>
  <line x1="0" y1="400.0" x2="400" y2="400.0" stroke="#eee" stroke-width="0.5"/>
  <line x1="0" y1="360.0" x2="400" y2="360.0" stroke="#eee" stroke-width="0.5"/>
  <line x1="0" y1="320.0" x2="400" y2="320.0" stroke="#eee" stroke-width="0.5"/>
  <line x1="0" y1="280.0" x2="400" y2="280.0" stroke="#eee" stroke-width="0.5"/>
  <line x1="0" y1="240.0" x2="400" y2="240.0" stroke="#eee" stroke-width="0.5"/>
  <line x1="0" y1="200.0" x2="400" y2="200.0" stroke="#eee" stroke-width="0.5"/>
  <line x1="0" y1="160.0" x2="400" y2="160.0" stroke="#eee" stroke-width="0.5"/>
  <line x1="0" y1="120.0" x2="400" y2="120.0" stroke="#eee" stroke-width="0.5"/>
  <line x1="0" y1="80.0" x2="400" y2="80.0" stroke="#eee" stroke-width="0.5"/>
  <line x1="0" y1="40.0" x2="400" y2="40.0" stroke="#eee" stroke-width="0.5"/>
  <line x1="0" y1="0.0" x2="400" y2="0.0" stroke="#eee" stroke-width="0.5"/>
  <line x1="0" y1="200.0" x2="400" y2="200.0" stroke="#555" stroke-width="1" marker-end="url(#ah)"/>
  <line x1="200.0" y1="400" x2="200.0" y2="0" stroke="#555" stroke-width="1" marker-end="url(#ah)"/>
  <text x="0.0" y="214.0" text-anchor="middle" font-size="10" fill="#888">-4</text>
  <text x="50.0" y="214.0" text-anchor="middle" font-size="10" fill="#888">-3</text>
  <text x="100.0" y="214.0" text-anchor="middle" font-size="10" fill="#888">-2</text>
  <text x="150.0" y="214.0" text-anchor="middle" font-size="10" fill="#888">-1</text>
  <text x="250.0" y="214.0" text-anchor="middle" font-size="10" fill="#888">1</text>
  <text x="300.0" y="214.0" text-anchor="middle" font-size="10" fill="#888">2</text>
  <text x="350.0" y="214.0" text-anchor="middle" font-size="10" fill="#888">3</text>
  <text x="400.0" y="214.0" text-anchor="middle" font-size="10" fill="#888">4</text>
  <text x="194.0" y="404.0" text-anchor="end" font-size="10" fill="#888">-5</text>
  <text x="194.0" y="364.0" text-anchor="end" font-size="10" fill="#888">-4</text>
  <text x="194.0" y="324.0" text-anchor="end" font-size="10" fill="#888">-3</text>
  <text x="194.0" y="284.0" text-anchor="end" font-size="10" fill="#888">-2</text>
  <text x="194.0" y="244.0" text-anchor="end" font-size="10" fill="#888">-1</text>
  <text x="194.0" y="164.0" text-anchor="end" font-size="10" fill="#888">1</text>
  <text x="194.0" y="124.0" text-anchor="end" font-size="10" fill="#888">2</text>
  <text x="194.0" y="84.0" text-anchor="end" font-size="10" fill="#888">3</text>
  <text x="194.0" y="44.0" text-anchor="end" font-size="10" fill="#888">4</text>
  <text x="194.0" y="4.0" text-anchor="end" font-size="10" fill="#888">5</text>
  <text x="192.0" y="214.0" font-size="10" fill="#888">0</text>
  <circle cx="150.0" cy="200.0" r="4.5" fill="#e74c3c" stroke="white" stroke-width="1.5"/>
  <text x="158.0" y="192.0" font-size="11" fill="#333">нуль производной</text>
  <circle cx="250.0" cy="200.0" r="4.5" fill="#e74c3c" stroke="white" stroke-width="1.5"/>
  <text x="258.0" y="192.0" font-size="11" fill="#333">нуль производной</text>
  <circle cx="305.0" cy="200.0" r="4.5" fill="#e74c3c" stroke="white" stroke-width="1.5"/>
  <text x="320.0" y="180.0" font-size="12" fill="#2c3e50" font-style="italic">y = f(x)</text>
</svg>