<svg xmlns="http://www.w3.org/2000/svg" width="500" height="400" viewBox="0 0 500 400" style="background:white;font-family:sans-serif">
  <defs>
    <marker id="ah" markerWidth="8" markerHeight="6" refX="8" refY="3" orient="auto">
      <path d="M0,0 L8,3 L0,6" fill="#555"/></marker>
  </defs>
  <line x1="22.7" y1="0" x2="22.7" y2="400" stroke="#eee" stroke-width="0.5"/>
  <line x1="68.2" y1="0" x2="68.2" y2="400" stroke="#eee" stroke-width="0.5"/>
  <line x1="113.6" y1="0" x2="113.6" y2="400" stroke="#eee" stroke-width="0.5"/>
  <line x1="159.1" y1="0" x2="159.1" y2="400" stroke="#eee" stroke-width="0.5"/>
  <line x1="204.5" y1="0" x2="204.5" y2="400" stroke="#eee" stroke-width="0.5"/>
  <line x1="250.0" y1="0" x2="250.0" y2="400" stroke="#eee" stroke-width="0.5"/>
  <line x1="295.5" y1="0" x2="295.5" y2="400" stroke="#eee" stroke-width="0.5"/>
  <line x1="340.9" y1="0" x2="340.9" y2="400" stroke="#eee" stroke-width="0.5"/>
  <line x1="386.4" y1="0" x2="386.4" y2="400" stroke="#eee" stroke-width="0.5"/>
  <line x1="431.8" y1="0" x2="431.8" y2="400" stroke="#eee" stroke-width="0.5"/>
  <line x1="477.3" y1="0" x2="477.3" y2="400" stroke="#eee" stroke-width="0.5"/>
  <line x1="0" y1="400.0" x2="500" y2="400.0" stroke="#eee" stroke-width="0.5"/>
  <line x1="0" y1="366.7" x2="500" y2="366.7" stroke="#eee" stroke-width="0.5"/>
  <line x1="0" y1="333.3" x2="500" y2="333.3" stroke="#eee" stroke-width="0.5"/>
  <line x1="0" y1="300.0" x2="500" y2="300.0" stroke="#eee" stroke-width="0.5"/>
  <line x1="0" y1="266.7" x2="500" y2="266.7" stroke="#eee" stroke-width="0.5"/>
  <line x1="0" y1="233.3" x2="500" y2="233.3" stroke="#eee" stroke-width="0.5"/>
  <line x1="0" y1="200.0" x2="500" y2="200.0" stroke="#eee" stroke-width="0.5"/>
  <line x1="0" y1="166.7" x2="500" y2="166.7" stroke="#eee" stroke-width="0.5"/>
  <line x1="0" y1="133.3" x2="500" y2="133.3" stroke="#eee" stroke-width="0.5"/>
  <line x1="0" y1="100.0" x2="500" y2="100.0" stroke="#eee" stroke-width="0.5"/>
  <line x1="0" y1="66.7" x2="500" y2="66.7" stroke="#eee" stroke-width="0.5"/>
  <line x1="0" y1="33.3" x2="500" y2="33.3" stroke="#eee" stroke-width="0.5"/>
  <line x1="0" y1="0.0" x2="500" y2="0.0" stroke="#eee" stroke-width="0.5"/>
  <line x1="0" y1="200.0" x2="500" y2="200.0" stroke="#555" stroke-width="1" marker-end="url(#ah)"/>
  <line x1="250.0" y1="400" x2="250.0" y2="0" stroke="#555" stroke-width="1" marker-end="url(#ah)"/>
  <text x="22.7" y="214.0" text-anchor="middle" font-size="10" fill="#888">-5</text>
  <text x="68.2" y="214.0" text-anchor="middle" font-size="10" fill="#888">-4</text>
  <text x="113.6" y="214.0" text-anchor="middle" font-size="10" fill="#888">-3</text>
  <text x="159.1" y="214.0" text-anchor="middle" font-size="10" fill="#888">-2</text>
  <text x="204.5" y="214.0" text-anchor="middle" font-size="10" fill="#888">-1</text>
  <text x="295.5" y="214.0" text-anchor="middle" font-size="10" fill="#888">1</text>
  <text x="340.9" y="214.0" text-anchor="middle" font-size="10" fill="#888">2</text>
  <text x="386.4" y="214.0" text-anchor="middle" font-size="10" fill="#888">3</text>
  <text x="431.8" y="214.0" text-anchor="middle" font-size="10" fill="#888">4</text>
  <text x="477.3" y="214.0" text-anchor="middle" font-size="10" fill="#888">5</text>
  <text x="244.0" y="404.0" text-anchor="end" font-size="10" fill="#888">-6</text>
  <text x="244.0" y="370.7" text-anchor="end" font-size="10" fill="#888">-5</text>
  <text x="244.0" y="337.3" text-anchor="end" font-size="10" fill="#888">-4</text>
  <text x="244.0" y="304.0" text-anchor="end" font-size="10" fill="#888">-3</text>
  <text x="244.0" y="270.7" text-anchor="end" font-size="10" fill="#888">-2</text>
  <text x="244.0" y="237.3" text-anchor="end" font-size="10" fill="#888">-1</text>
  <text x="244.0" y="170.7" text-anchor="end" font-size="10" fill="#888">1</text>
  <text x="244.0" y="137.3" text-anchor="end" font-size="10" fill="#888">2</text>
  <text x="244.0" y="104.0" text-anchor="end" font-size="10" fill="#888">3</text>
  <text x="244.0" y="70.7" text-anchor="end" font-size="10" fill="#888">4</text>
  <text x="244.0" y="37.3" text-anchor="end" font-size="10" fill="#888">5</text>
  <text x="244.0" y="4.0" text-anchor="end" font-size="10" fill="#888">6</text>
  <text x="242.0" y="214.0" font-size="10" fill="#888">0</text>
  <circle cx="159.1" cy="200.0" r="4.5" fill="#e74c3c" stroke="white" stroke-width="1.5"/>
  <text x="167.1" y="192.0" font-size="11" fill="#333">x=-2</text>
  <circle cx="295.5" cy="200.0" r="4.5" fill="#e74c3c" stroke="white" stroke-width="1.5"/>
  <text x="303.5" y="192.0" font-size="11" fill="#333">x=1</text>
</svg>