<svg xmlns="http://www.w3.org/2000/svg" width="500" height="400" viewBox="0 0 500 400" style="background:white;font-family:sans-serif">
  <defs>
    <marker id="ah" markerWidth="8" markerHeight="6" refX="8" refY="3" orient="auto">
      <path d="M0,0 L8,3 L0,6" fill="#555"/></marker>
  </defs>
  <line x1="0.0" y1="0" x2="0.0" y2="400" stroke="#eee" stroke-width="0.5"/>
  <line x1="41.7" y1="0" x2="41.7" y2="400" stroke="#eee" stroke-width="0.5"/>
  <line x1="83.3" y1="0" x2="83.3" y2="400" stroke="#eee" stroke-width="0.5"/>
  <line x1="125.0" y1="0" x2="125.0" y2="400" stroke="#eee" stroke-width="0.5"/>
  <line x1="166.7" y1="0" x2="166.7" y2="400" stroke="#eee" stroke-width="0.5"/>
  <line x1="208.3" y1="0" x2="208.3" y2="400" stroke="#eee" stroke-width="0.5"/>
  <line x1="250.0" y1="0" x2="250.0" y2="400" stroke="#eee" stroke-width="0.5"/>
  <line x1="291.7" y1="0" x2="291.7" y2="400" stroke="#eee" stroke-width="0.5"/>
  <line x1="333.3" y1="0" x2="333.3" y2="400" stroke="#eee" stroke-width="0.5"/>
  <line x1="375.0" y1="0" x2="375.0" y2="400" stroke="#eee" stroke-width="0.5"/>
  <line x1="416.7" y1="0" x2="416.7" y2="400" stroke="#eee" stroke-width="0.5"/>
  <line x1="458.3" y1="0" x2="458.3" y2="400" stroke="#eee" stroke-width="0.5"/>
  <line x1="500.0" y1="0" x2="500.0" y2="400" stroke="#eee" stroke-width="0.5"/>
  <line x1="0" y1="400.0" x2="500" y2="400.0" stroke="#eee" stroke-width="0.5"/>
  <line x1="0" y1="387.9" x2="500" y2="387.9" stroke="#eee" stroke-width="0.5"/>
  <line x1="0" y1="375.8" x2="500" y2="375.8" stroke="#eee" stroke-width="0.5"/>
  <line x1="0" y1="363.6" x2="500" y2="363.6" stroke="#eee" stroke-width="0.5"/>
  <line x1="0" y1="351.5" x2="500" y2="351.5" stroke="#eee" stroke-width="0.5"/>
  <line x1="0" y1="339.4" x2="500" y2="339.4" stroke="#eee" stroke-width="0.5"/>
  <line x1="0" y1="327.3" x2="500" y2="327.3" stroke="#eee" stroke-width="0.5"/>
  <line x1="0" y1="315.2" x2="500" y2="315.2" stroke="#eee" stroke-width="0.5"/>
  <line x1="0" y1="303.0" x2="500" y2="303.0" stroke="#eee" stroke-width="0.5"/>
  <line x1="0" y1="290.9" x2="500" y2="290.9" stroke="#eee" stroke-width="0.5"/>
  <line x1="0" y1="278.8" x2="500" y2="278.8" stroke="#eee" stroke-width="0.5"/>
  <line x1="0" y1="266.7" x2="500" y2="266.7" stroke="#eee" stroke-width="0.5"/>
  <line x1="0" y1="254.5" x2="500" y2="254.5" stroke="#eee" stroke-width="0.5"/>
  <line x1="0" y1="242.4" x2="500" y2="242.4" stroke="#eee" stroke-width="0.5"/>
  <line x1="0" y1="230.3" x2="500" y2="230.3" stroke="#eee" stroke-width="0.5"/>
  <line x1="0" y1="218.2" x2="500" y2="218.2" stroke="#eee" stroke-width="0.5"/>
  <line x1="0" y1="206.1" x2="500" y2="206.1" stroke="#eee" stroke-width="0.5"/>
  <line x1="0" y1="193.9" x2="500" y2="193.9" stroke="#eee" stroke-width="0.5"/>
  <line x1="0" y1="181.8" x2="500" y2="181.8" stroke="#eee" stroke-width="0.5"/>
  <line x1="0" y1="169.7" x2="500" y2="169.7" stroke="#eee" stroke-width="0.5"/>
  <line x1="0" y1="157.6" x2="500" y2="157.6" stroke="#eee" stroke-width="0.5"/>
  <line x1="0" y1="145.5" x2="500" y2="145.5" stroke="#eee" stroke-width="0.5"/>
  <line x1="0" y1="133.3" x2="500" y2="133.3" stroke="#eee" stroke-width="0.5"/>
  <line x1="0" y1="121.2" x2="500" y2="121.2" stroke="#eee" stroke-width="0.5"/>
  <line x1="0" y1="109.1" x2="500" y2="109.1" stroke="#eee" stroke-width="0.5"/>
  <line x1="0" y1="97.0" x2="500" y2="97.0" stroke="#eee" stroke-width="0.5"/>
  <line x1="0" y1="84.8" x2="500" y2="84.8" stroke="#eee" stroke-width="0.5"/>
  <line x1="0" y1="72.7" x2="500" y2="72.7" stroke="#eee" stroke-width="0.5"/>
  <line x1="0" y1="60.6" x2="500" y2="60.6" stroke="#eee" stroke-width="0.5"/>
  <line x1="0" y1="48.5" x2="500" y2="48.5" stroke="#eee" stroke-width="0.5"/>
  <line x1="0" y1="36.4" x2="500" y2="36.4" stroke="#eee" stroke-width="0.5"/>
  <line x1="0" y1="24.2" x2="500" y2="24.2" stroke="#eee" stroke-width="0.5"/>
  <line x1="0" y1="12.1" x2="500" y2="12.1" stroke="#eee" stroke-width="0.5"/>
  <line x1="0" y1="0.0" x2="500" y2="0.0" stroke="#eee" stroke-width="0.5"/>
  <line x1="0" y1="351.5" x2="500" y2="351.5" stroke="#555" stroke-width="1" marker-end="url(#ah)"/>
  <line x1="250.0" y1="400" x2="250.0" y2="0" stroke="#555" stroke-width="1" marker-end="url(#ah)"/>
  <text x="0.0" y="365.5" text-anchor="middle" font-size="10" fill="#888">-6</text>
  <text x="41.7" y="365.5" text-anchor="middle" font-size="10" fill="#888">-5</text>
  <text x="83.3" y="365.5" text-anchor="middle" font-size="10" fill="#888">-4</text>
  <text x="125.0" y="365.5" text-anchor="middle" font-size="10" fill="#888">-3</text>
  <text x="166.7" y="365.5" text-anchor="middle" font-size="10" fill="#888">-2</text>
  <text x="208.3" y="365.5" text-anchor="middle" font-size="10" fill="#888">-1</text>
  <text x="291.7" y="365.5" text-anchor="middle" font-size="10" fill="#888">1</text>
  <text x="333.3" y="365.5" text-anchor="middle" font-size="10" fill="#888">2</text>
  <text x="375.0" y="365.5" text-anchor="middle" font-size="10" fill="#888">3</text>
  <text x="416.7" y="365.5" text-anchor="middle" font-size="10" fill="#888">4</text>
  <text x="458.3" y="365.5" text-anchor="middle" font-size="10" fill="#888">5</text>
  <text x="500.0" y="365.5" text-anchor="middle" font-size="10" fill="#888">6</text>
  <text x="244.0" y="404.0" text-anchor="end" font-size="10" fill="#888">-4</text>
  <text x="244.0" y="391.9" text-anchor="end" font-size="10" fill="#888">-3</text>
  <text x="244.0" y="379.8" text-anchor="end" font-size="10" fill="#888">-2</text>
  <text x="244.0" y="367.6" text-anchor="end" font-size="10" fill="#888">-1</text>
  <text x="244.0" y="343.4" text-anchor="end" font-size="10" fill="#888">1</text>
  <text x="244.0" y="331.3" text-anchor="end" font-size="10" fill="#888">2</text>
  <text x="244.0" y="319.2" text-anchor="end" font-size="10" fill="#888">3</text>
  <text x="244.0" y="307.0" text-anchor="end" font-size="10" fill="#888">4</text>
  <text x="244.0" y="294.9" text-anchor="end" font-size="10" fill="#888">5</text>
  <text x="244.0" y="282.8" text-anchor="end" font-size="10" fill="#888">6</text>
  <text x="244.0" y="270.7" text-anchor="end" font-size="10" fill="#888">7</text>
  <text x="244.0" y="258.5" text-anchor="end" font-size="10" fill="#888">8</text>
  <text x="244.0" y="246.4" text-anchor="end" font-size="10" fill="#888">9</text>
  <text x="244.0" y="234.3" text-anchor="end" font-size="10" fill="#888">10</text>
  <text x="244.0" y="222.2" text-anchor="end" font-size="10" fill="#888">11</text>
  <text x="244.0" y="210.1" text-anchor="end" font-size="10" fill="#888">12</text>
  <text x="244.0" y="197.9" text-anchor="end" font-size="10" fill="#888">13</text>
  <text x="244.0" y="185.8" text-anchor="end" font-size="10" fill="#888">14</text>
  <text x="244.0" y="173.7" text-anchor="end" font-size="10" fill="#888">15</text>
  <text x="244.0" y="161.6" text-anchor="end" font-size="10" fill="#888">16</text>
  <text x="244.0" y="149.5" text-anchor="end" font-size="10" fill="#888">17</text>
  <text x="244.0" y="137.3" text-anchor="end" font-size="10" fill="#888">18</text>
  <text x="244.0" y="125.2" text-anchor="end" font-size="10" fill="#888">19</text>
  <text x="244.0" y="113.1" text-anchor="end" font-size="10" fill="#888">20</text>
  <text x="244.0" y="101.0" text-anchor="end" font-size="10" fill="#888">21</text>
  <text x="244.0" y="88.8" text-anchor="end" font-size="10" fill="#888">22</text>
  <text x="244.0" y="76.7" text-anchor="end" font-size="10" fill="#888">23</text>
  <text x="244.0" y="64.6" text-anchor="end" font-size="10" fill="#888">24</text>
  <text x="244.0" y="52.5" text-anchor="end" font-size="10" fill="#888">25</text>
  <text x="244.0" y="40.4" text-anchor="end" font-size="10" fill="#888">26</text>
  <text x="244.0" y="28.2" text-anchor="end" font-size="10" fill="#888">27</text>
  <text x="244.0" y="16.1" text-anchor="end" font-size="10" fill="#888">28</text>
  <text x="244.0" y="4.0" text-anchor="end" font-size="10" fill="#888">29</text>
  <text x="242.0" y="365.5" font-size="10" fill="#888">0</text>
  <polyline points="41.7,48.5 43.1,52.5 44.4,56.5 45.8,60.5 47.2,64.4 48.6,68.4 50.0,72.2 51.4,76.1 52.8,79.9 54.2,83.8 55.6,87.5 56.9,91.3 58.3,95.0 59.7,98.7 61.1,102.4 62.5,106.1 63.9,109.7 65.3,113.3 66.7,116.8 68.1,120.4 69.4,123.9 70.8,127.4 72.2,130.9 73.6,134.3 75.0,137.7 76.4,141.1 77.8,144.4 79.2,147.8 80.6,151.1 81.9,154.3 83.3,157.6 84.7,160.8 86.1,164.0 87.5,167.2 88.9,170.3 90.3,173.4 91.7,176.5 93.1,179.5 94.4,182.6 95.8,185.6 97.2,188.6 98.6,191.5 100.0,194.4 101.4,197.3 102.8,200.2 104.2,203.0 105.6,205.8 106.9,208.6 108.3,211.4 109.7,214.1 111.1,216.8 112.5,219.5 113.9,222.2 115.3,224.8 116.7,227.4 118.1,230.0 119.4,232.5 120.8,235.0 122.2,237.5 123.6,240.0 125.0,242.4 126.4,244.8 127.8,247.2 129.2,249.6 130.6,251.9 131.9,254.2 133.3,256.5 134.7,258.7 136.1,261.0 137.5,263.2 138.9,265.3 140.3,267.5 141.7,269.6 143.1,271.7 144.4,273.7 145.8,275.8 147.2,277.8 148.6,279.7 150.0,281.7 151.4,283.6 152.8,285.5 154.2,287.4 155.6,289.2 156.9,291.1 158.3,292.8 159.7,294.6 161.1,296.4 162.5,298.1 163.9,299.7 165.3,301.4 166.7,303.0 168.1,304.6 169.4,306.2 170.8,307.8 172.2,309.3 173.6,310.8 175.0,312.2 176.4,313.7 177.8,315.1 179.2,316.5 180.6,317.8 181.9,319.2 183.3,320.5 184.7,321.8 186.1,323.0 187.5,324.2 188.9,325.4 190.3,326.6 191.7,327.8 193.1,328.9 194.4,330.0 195.8,331.0 197.2,332.1 198.6,333.1 200.0,334.1 201.4,335.0 202.8,335.9 204.2,336.8 205.6,337.7 206.9,338.6 208.3,339.4 209.7,340.2 211.1,341.0 212.5,341.7 213.9,342.4 215.3,343.1 216.7,343.8 218.1,344.4 219.4,345.0 220.8,345.6 222.2,346.1 223.6,346.7 225.0,347.2 226.4,347.6 227.8,348.1 229.2,348.5 230.6,348.9 231.9,349.2 233.3,349.6 234.7,349.9 236.1,350.2 237.5,350.4 238.9,350.7 240.3,350.9 241.7,351.0 243.1,351.2 244.4,351.3 245.8,351.4 247.2,351.5 248.6,351.5 250.0,351.5 251.4,351.5 252.8,351.5 254.2,351.4 255.6,351.3 256.9,351.2 258.3,351.0 259.7,350.9 261.1,350.7 262.5,350.4 263.9,350.2 265.3,349.9 266.7,349.6 268.1,349.2 269.4,348.9 270.8,348.5 272.2,348.1 273.6,347.6 275.0,347.2 276.4,346.7 277.8,346.1 279.2,345.6 280.6,345.0 281.9,344.4 283.3,343.8 284.7,343.1 286.1,342.4 287.5,341.7 288.9,341.0 290.3,340.2 291.7,339.4 293.1,338.6 294.4,337.7 295.8,336.8 297.2,335.9 298.6,335.0 300.0,334.1 301.4,333.1 302.8,332.1 304.2,331.0 305.6,330.0 306.9,328.9 308.3,327.8 309.7,326.6 311.1,325.4 312.5,324.2 313.9,323.0 315.3,321.8 316.7,320.5 318.1,319.2 319.4,317.8 320.8,316.5 322.2,315.1 323.6,313.7 325.0,312.2 326.4,310.8 327.8,309.3 329.2,307.8 330.6,306.2 331.9,304.6 333.3,303.0 334.7,301.4 336.1,299.7 337.5,298.1 338.9,296.4 340.3,294.6 341.7,292.8 343.1,291.1 344.4,289.2 345.8,287.4 347.2,285.5 348.6,283.6 350.0,281.7 351.4,279.7 352.8,277.8 354.2,275.8 355.6,273.7 356.9,271.7 358.3,269.6 359.7,267.5 361.1,265.3 362.5,263.2 363.9,261.0 365.3,258.7 366.7,256.5 368.1,254.2 369.4,251.9 370.8,249.6 372.2,247.2 373.6,244.8 375.0,242.4 376.4,240.0 377.8,237.5 379.2,235.0 380.6,232.5 381.9,230.0 383.3,227.4 384.7,224.8 386.1,222.2 387.5,219.5 388.9,216.8 390.3,214.1 391.7,211.4 393.1,208.6 394.4,205.8 395.8,203.0 397.2,200.2 398.6,197.3 400.0,194.4 401.4,191.5 402.8,188.6 404.2,185.6 405.6,182.6 406.9,179.5 408.3,176.5 409.7,173.4 411.1,170.3 412.5,167.2 413.9,164.0 415.3,160.8 416.7,157.6 418.1,154.3 419.4,151.1 420.8,147.8 422.2,144.4 423.6,141.1 425.0,137.7 426.4,134.3 427.8,130.9 429.2,127.4 430.6,123.9 431.9,120.4 433.3,116.8 434.7,113.3 436.1,109.7 437.5,106.1 438.9,102.4 440.3,98.7 441.7,95.0 443.1,91.3 444.4,87.5 445.8,83.8 447.2,79.9 448.6,76.1 450.0,72.2 451.4,68.4 452.8,64.4 454.2,60.5 455.6,56.5 456.9,52.5 458.3,48.5" fill="none" stroke="#2980b9" stroke-width="2.5"/>
</svg>