<svg xmlns="http://www.w3.org/2000/svg" width="400" height="400" viewBox="0 0 400 400" style="background:white;font-family:sans-serif">
  <defs>
    <marker id="ah" markerWidth="8" markerHeight="6" refX="8" refY="3" orient="auto">
      <path d="M0,0 L8,3 L0,6" fill="#555"/></marker>
  </defs>
  <line x1="0.0" y1="0" x2="0.0" y2="400" stroke="#eee" stroke-width="0.5"/>
  <line x1="66.7" y1="0" x2="66.7" y2="400" stroke="#eee" stroke-width="0.5"/>
  <line x1="133.3" y1="0" x2="133.3" y2="400" stroke="#eee" stroke-width="0.5"/>
  <line x1="200.0" y1="0" x2="200.0" y2="400" stroke="#eee" stroke-width="0.5"/>
  <line x1="266.7" y1="0" x2="266.7" y2="400" stroke="#eee" stroke-width="0.5"/>
  <line x1="333.3" y1="0" x2="333.3" y2="400" stroke="#eee" stroke-width="0.5"/>
  <line x1="400.0" y1="0" x2="400.0" y2="400" stroke="#eee" stroke-width="0.5"/>
  <line x1="0" y1="400.0" x2="400" y2="400.0" stroke="#eee" stroke-width="0.5"/>
  <line x1="0" y1="333.3" x2="400" y2="333.3" stroke="#eee" stroke-width="0.5"/>
  <line x1="0" y1="266.7" x2="400" y2="266.7" stroke="#eee" stroke-width="0.5"/>
  <line x1="0" y1="200.0" x2="400" y2="200.0" stroke="#eee" stroke-width="0.5"/>
  <line x1="0" y1="133.3" x2="400" y2="133.3" stroke="#eee" stroke-width="0.5"/>
  <line x1="0" y1="66.7" x2="400" y2="66.7" stroke="#eee" stroke-width="0.5"/>
  <line x1="0" y1="0.0" x2="400" y2="0.0" stroke="#eee" stroke-width="0.5"/>
  <line x1="0" y1="333.3" x2="400" y2="333.3" stroke="#555" stroke-width="1" marker-end="url(#ah)"/>
  <line x1="200.0" y1="400" x2="200.0" y2="0" stroke="#555" stroke-width="1" marker-end="url(#ah)"/>
  <text x="0.0" y="347.3" text-anchor="middle" font-size="10" fill="#888">-3</text>
  <text x="66.7" y="347.3" text-anchor="middle" font-size="10" fill="#888">-2</text>
  <text x="133.3" y="347.3" text-anchor="middle" font-size="10" fill="#888">-1</text>
  <text x="266.7" y="347.3" text-anchor="middle" font-size="10" fill="#888">1</text>
  <text x="333.3" y="347.3" text-anchor="middle" font-size="10" fill="#888">2</text>
  <text x="400.0" y="347.3" text-anchor="middle" font-size="10" fill="#888">3</text>
  <text x="194.0" y="404.0" text-anchor="end" font-size="10" fill="#888">-1</text>
  <text x="194.0" y="270.7" text-anchor="end" font-size="10" fill="#888">1</text>
  <text x="194.0" y="204.0" text-anchor="end" font-size="10" fill="#888">2</text>
  <text x="194.0" y="137.3" text-anchor="end" font-size="10" fill="#888">3</text>
  <text x="194.0" y="70.7" text-anchor="end" font-size="10" fill="#888">4</text>
  <text x="194.0" y="4.0" text-anchor="end" font-size="10" fill="#888">5</text>
  <text x="192.0" y="347.3" font-size="10" fill="#888">0</text>
  <polyline points="66.7,66.7 67.6,70.2 68.4,73.7 69.3,77.2 70.2,80.7 71.1,84.1 72.0,87.6 72.9,91.0 73.8,94.4 74.7,97.7 75.6,101.0 76.4,104.3 77.3,107.6 78.2,110.9 79.1,114.1 80.0,117.3 80.9,120.5 81.8,123.7 82.7,126.8 83.6,129.9 84.4,133.0 85.3,136.1 86.2,139.2 87.1,142.2 88.0,145.2 88.9,148.1 89.8,151.1 90.7,154.0 91.6,156.9 92.4,159.8 93.3,162.7 94.2,165.5 95.1,168.3 96.0,171.1 96.9,173.9 97.8,176.6 98.7,179.3 99.6,182.0 100.4,184.7 101.3,187.3 102.2,189.9 103.1,192.5 104.0,195.1 104.9,197.6 105.8,200.2 106.7,202.7 107.6,205.1 108.4,207.6 109.3,210.0 110.2,212.4 111.1,214.8 112.0,217.2 112.9,219.5 113.8,221.8 114.7,224.1 115.6,226.4 116.4,228.6 117.3,230.8 118.2,233.0 119.1,235.2 120.0,237.3 120.9,239.5 121.8,241.6 122.7,243.6 123.6,245.7 124.4,247.7 125.3,249.7 126.2,251.7 127.1,253.6 128.0,255.6 128.9,257.5 129.8,259.4 130.7,261.2 131.6,263.1 132.4,264.9 133.3,266.7 134.2,268.4 135.1,270.2 136.0,271.9 136.9,273.6 137.8,275.3 138.7,276.9 139.6,278.5 140.4,280.1 141.3,281.7 142.2,283.3 143.1,284.8 144.0,286.3 144.9,287.8 145.8,289.2 146.7,290.7 147.6,292.1 148.4,293.5 149.3,294.8 150.2,296.2 151.1,297.5 152.0,298.8 152.9,300.0 153.8,301.3 154.7,302.5 155.6,303.7 156.4,304.9 157.3,306.0 158.2,307.2 159.1,308.3 160.0,309.3 160.9,310.4 161.8,311.4 162.7,312.4 163.6,313.4 164.4,314.4 165.3,315.3 166.2,316.2 167.1,317.1 168.0,318.0 168.9,318.8 169.8,319.6 170.7,320.4 171.6,321.2 172.4,321.9 173.3,322.7 174.2,323.4 175.1,324.0 176.0,324.7 176.9,325.3 177.8,325.9 178.7,326.5 179.6,327.1 180.4,327.6 181.3,328.1 182.2,328.6 183.1,329.1 184.0,329.5 184.9,329.9 185.8,330.3 186.7,330.7 187.6,331.0 188.4,331.3 189.3,331.6 190.2,331.9 191.1,332.1 192.0,332.4 192.9,332.6 193.8,332.8 194.7,332.9 195.6,333.0 196.4,333.1 197.3,333.2 198.2,333.3 199.1,333.3 200.0,333.3 200.9,333.3 201.8,333.3 202.7,333.2 203.6,333.1 204.4,333.0 205.3,332.9 206.2,332.8 207.1,332.6 208.0,332.4 208.9,332.1 209.8,331.9 210.7,331.6 211.6,331.3 212.4,331.0 213.3,330.7 214.2,330.3 215.1,329.9 216.0,329.5 216.9,329.1 217.8,328.6 218.7,328.1 219.6,327.6 220.4,327.1 221.3,326.5 222.2,325.9 223.1,325.3 224.0,324.7 224.9,324.0 225.8,323.4 226.7,322.7 227.6,321.9 228.4,321.2 229.3,320.4 230.2,319.6 231.1,318.8 232.0,318.0 232.9,317.1 233.8,316.2 234.7,315.3 235.6,314.4 236.4,313.4 237.3,312.4 238.2,311.4 239.1,310.4 240.0,309.3 240.9,308.3 241.8,307.2 242.7,306.0 243.6,304.9 244.4,303.7 245.3,302.5 246.2,301.3 247.1,300.0 248.0,298.8 248.9,297.5 249.8,296.2 250.7,294.8 251.6,293.5 252.4,292.1 253.3,290.7 254.2,289.2 255.1,287.8 256.0,286.3 256.9,284.8 257.8,283.3 258.7,281.7 259.6,280.1 260.4,278.5 261.3,276.9 262.2,275.3 263.1,273.6 264.0,271.9 264.9,270.2 265.8,268.4 266.7,266.7 267.6,264.9 268.4,263.1 269.3,261.2 270.2,259.4 271.1,257.5 272.0,255.6 272.9,253.6 273.8,251.7 274.7,249.7 275.6,247.7 276.4,245.7 277.3,243.6 278.2,241.6 279.1,239.5 280.0,237.3 280.9,235.2 281.8,233.0 282.7,230.8 283.6,228.6 284.4,226.4 285.3,224.1 286.2,221.8 287.1,219.5 288.0,217.2 288.9,214.8 289.8,212.4 290.7,210.0 291.6,207.6 292.4,205.1 293.3,202.7 294.2,200.2 295.1,197.6 296.0,195.1 296.9,192.5 297.8,189.9 298.7,187.3 299.6,184.7 300.4,182.0 301.3,179.3 302.2,176.6 303.1,173.9 304.0,171.1 304.9,168.3 305.8,165.5 306.7,162.7 307.6,159.8 308.4,156.9 309.3,154.0 310.2,151.1 311.1,148.1 312.0,145.2 312.9,142.2 313.8,139.2 314.7,136.1 315.6,133.0 316.4,129.9 317.3,126.8 318.2,123.7 319.1,120.5 320.0,117.3 320.9,114.1 321.8,110.9 322.7,107.6 323.6,104.3 324.4,101.0 325.3,97.7 326.2,94.4 327.1,91.0 328.0,87.6 328.9,84.1 329.8,80.7 330.7,77.2 331.6,73.7 332.4,70.2 333.3,66.7" fill="none" stroke="#2980b9" stroke-width="2.5"/>
  <circle cx="266.7" cy="266.7" r="4.5" fill="#e74c3c" stroke="white" stroke-width="1.5"/>
  <text x="274.7" y="258.7" font-size="11" fill="#333">точка касания (1,1)</text>
  <circle cx="293.3" cy="202.7" r="4.5" fill="#e74c3c" stroke="white" stroke-width="1.5"/>
  <text x="313.3" y="169.3" font-size="12" fill="#2c3e50" font-style="italic">y = x**2</text>
</svg>