<svg xmlns="http://www.w3.org/2000/svg" width="400" height="400" viewBox="0 0 400 400" style="background:white;font-family:sans-serif">
  <defs>
    <marker id="ah" markerWidth="8" markerHeight="6" refX="8" refY="3" orient="auto">
      <path d="M0,0 L8,3 L0,6" fill="#555"/></marker>
  </defs>
  <line x1="0.0" y1="0" x2="0.0" y2="400" stroke="#eee" stroke-width="0.5"/>
  <line x1="50.0" y1="0" x2="50.0" y2="400" stroke="#eee" stroke-width="0.5"/>
  <line x1="100.0" y1="0" x2="100.0" y2="400" stroke="#eee" stroke-width="0.5"/>
  <line x1="150.0" y1="0" x2="150.0" y2="400" stroke="#eee" stroke-width="0.5"/>
  <line x1="200.0" y1="0" x2="200.0" y2="400" stroke="#eee" stroke-width="0.5"/>
  <line x1="250.0" y1="0" x2="250.0" y2="400" stroke="#eee" stroke-width="0.5"/>
  <line x1="300.0" y1="0" x2="300.0" y2="400" stroke="#eee" stroke-width="0.5"/>
  <line x1="350.0" y1="0" x2="350.0" y2="400" stroke="#eee" stroke-width="0.5"/>
  <line x1="400.0" y1="0" x2="400.0" y2="400" stroke="#eee" stroke-width="0.5"/>
  <line x1="0" y1="400.0" x2="400" y2="400.0" stroke="#eee" stroke-width="0.5"/>
  <line x1="0" y1="381.8" x2="400" y2="381.8" stroke="#eee" stroke-width="0.5"/>
  <line x1="0" y1="363.6" x2="400" y2="363.6" stroke="#eee" stroke-width="0.5"/>
  <line x1="0" y1="345.5" x2="400" y2="345.5" stroke="#eee" stroke-width="0.5"/>
  <line x1="0" y1="327.3" x2="400" y2="327.3" stroke="#eee" stroke-width="0.5"/>
  <line x1="0" y1="309.1" x2="400" y2="309.1" stroke="#eee" stroke-width="0.5"/>
  <line x1="0" y1="290.9" x2="400" y2="290.9" stroke="#eee" stroke-width="0.5"/>
  <line x1="0" y1="272.7" x2="400" y2="272.7" stroke="#eee" stroke-width="0.5"/>
  <line x1="0" y1="254.5" x2="400" y2="254.5" stroke="#eee" stroke-width="0.5"/>
  <line x1="0" y1="236.4" x2="400" y2="236.4" stroke="#eee" stroke-width="0.5"/>
  <line x1="0" y1="218.2" x2="400" y2="218.2" stroke="#eee" stroke-width="0.5"/>
  <line x1="0" y1="200.0" x2="400" y2="200.0" stroke="#eee" stroke-width="0.5"/>
  <line x1="0" y1="181.8" x2="400" y2="181.8" stroke="#eee" stroke-width="0.5"/>
  <line x1="0" y1="163.6" x2="400" y2="163.6" stroke="#eee" stroke-width="0.5"/>
  <line x1="0" y1="145.5" x2="400" y2="145.5" stroke="#eee" stroke-width="0.5"/>
  <line x1="0" y1="127.3" x2="400" y2="127.3" stroke="#eee" stroke-width="0.5"/>
  <line x1="0" y1="109.1" x2="400" y2="109.1" stroke="#eee" stroke-width="0.5"/>
  <line x1="0" y1="90.9" x2="400" y2="90.9" stroke="#eee" stroke-width="0.5"/>
  <line x1="0" y1="72.7" x2="400" y2="72.7" stroke="#eee" stroke-width="0.5"/>
  <line x1="0" y1="54.5" x2="400" y2="54.5" stroke="#eee" stroke-width="0.5"/>
  <line x1="0" y1="36.4" x2="400" y2="36.4" stroke="#eee" stroke-width="0.5"/>
  <line x1="0" y1="18.2" x2="400" y2="18.2" stroke="#eee" stroke-width="0.5"/>
  <line x1="0" y1="0.0" x2="400" y2="0.0" stroke="#eee" stroke-width="0.5"/>
  <line x1="0" y1="345.5" x2="400" y2="345.5" stroke="#555" stroke-width="1" marker-end="url(#ah)"/>
  <line x1="150.0" y1="400" x2="150.0" y2="0" stroke="#555" stroke-width="1" marker-end="url(#ah)"/>
  <text x="0.0" y="359.5" text-anchor="middle" font-size="10" fill="#888">-3</text>
  <text x="50.0" y="359.5" text-anchor="middle" font-size="10" fill="#888">-2</text>
  <text x="100.0" y="359.5" text-anchor="middle" font-size="10" fill="#888">-1</text>
  <text x="200.0" y="359.5" text-anchor="middle" font-size="10" fill="#888">1</text>
  <text x="250.0" y="359.5" text-anchor="middle" font-size="10" fill="#888">2</text>
  <text x="300.0" y="359.5" text-anchor="middle" font-size="10" fill="#888">3</text>
  <text x="350.0" y="359.5" text-anchor="middle" font-size="10" fill="#888">4</text>
  <text x="400.0" y="359.5" text-anchor="middle" font-size="10" fill="#888">5</text>
  <text x="144.0" y="404.0" text-anchor="end" font-size="10" fill="#888">-3</text>
  <text x="144.0" y="385.8" text-anchor="end" font-size="10" fill="#888">-2</text>
  <text x="144.0" y="367.6" text-anchor="end" font-size="10" fill="#888">-1</text>
  <text x="144.0" y="331.3" text-anchor="end" font-size="10" fill="#888">1</text>
  <text x="144.0" y="313.1" text-anchor="end" font-size="10" fill="#888">2</text>
  <text x="144.0" y="294.9" text-anchor="end" font-size="10" fill="#888">3</text>
  <text x="144.0" y="276.7" text-anchor="end" font-size="10" fill="#888">4</text>
  <text x="144.0" y="258.5" text-anchor="end" font-size="10" fill="#888">5</text>
  <text x="144.0" y="240.4" text-anchor="end" font-size="10" fill="#888">6</text>
  <text x="144.0" y="222.2" text-anchor="end" font-size="10" fill="#888">7</text>
  <text x="144.0" y="204.0" text-anchor="end" font-size="10" fill="#888">8</text>
  <text x="144.0" y="185.8" text-anchor="end" font-size="10" fill="#888">9</text>
  <text x="144.0" y="167.6" text-anchor="end" font-size="10" fill="#888">10</text>
  <text x="144.0" y="149.5" text-anchor="end" font-size="10" fill="#888">11</text>
  <text x="144.0" y="131.3" text-anchor="end" font-size="10" fill="#888">12</text>
  <text x="144.0" y="113.1" text-anchor="end" font-size="10" fill="#888">13</text>
  <text x="144.0" y="94.9" text-anchor="end" font-size="10" fill="#888">14</text>
  <text x="144.0" y="76.7" text-anchor="end" font-size="10" fill="#888">15</text>
  <text x="144.0" y="58.5" text-anchor="end" font-size="10" fill="#888">16</text>
  <text x="144.0" y="40.4" text-anchor="end" font-size="10" fill="#888">17</text>
  <text x="144.0" y="22.2" text-anchor="end" font-size="10" fill="#888">18</text>
  <text x="144.0" y="4.0" text-anchor="end" font-size="10" fill="#888">19</text>
  <text x="142.0" y="359.5" font-size="10" fill="#888">0</text>
  <polyline points="50.0,272.7 51.0,274.2 52.0,275.6 53.0,277.0 54.0,278.4 55.0,279.8 56.0,281.2 57.0,282.6 58.0,283.9 59.0,285.2 60.0,286.5 61.0,287.8 62.0,289.1 63.0,290.4 64.0,291.7 65.0,292.9 66.0,294.1 67.0,295.4 68.0,296.6 69.0,297.7 70.0,298.9 71.0,300.1 72.0,301.2 73.0,302.3 74.0,303.4 75.0,304.5 76.0,305.6 77.0,306.7 78.0,307.8 79.0,308.8 80.0,309.8 81.0,310.8 82.0,311.8 83.0,312.8 84.0,313.8 85.0,314.7 86.0,315.7 87.0,316.6 88.0,317.5 89.0,318.4 90.0,319.3 91.0,320.1 92.0,321.0 93.0,321.8 94.0,322.6 95.0,323.5 96.0,324.2 97.0,325.0 98.0,325.8 99.0,326.5 100.0,327.3 101.0,328.0 102.0,328.7 103.0,329.4 104.0,330.1 105.0,330.7 106.0,331.4 107.0,332.0 108.0,332.6 109.0,333.2 110.0,333.8 111.0,334.4 112.0,335.0 113.0,335.5 114.0,336.0 115.0,336.5 116.0,337.0 117.0,337.5 118.0,338.0 119.0,338.5 120.0,338.9 121.0,339.3 122.0,339.8 123.0,340.2 124.0,340.5 125.0,340.9 126.0,341.3 127.0,341.6 128.0,341.9 129.0,342.2 130.0,342.5 131.0,342.8 132.0,343.1 133.0,343.4 134.0,343.6 135.0,343.8 136.0,344.0 137.0,344.2 138.0,344.4 139.0,344.6 140.0,344.7 141.0,344.9 142.0,345.0 143.0,345.1 144.0,345.2 145.0,345.3 146.0,345.3 147.0,345.4 148.0,345.4 149.0,345.4 150.0,345.5 151.0,345.4 152.0,345.4 153.0,345.4 154.0,345.3 155.0,345.3 156.0,345.2 157.0,345.1 158.0,345.0 159.0,344.9 160.0,344.7 161.0,344.6 162.0,344.4 163.0,344.2 164.0,344.0 165.0,343.8 166.0,343.6 167.0,343.4 168.0,343.1 169.0,342.8 170.0,342.5 171.0,342.2 172.0,341.9 173.0,341.6 174.0,341.3 175.0,340.9 176.0,340.5 177.0,340.2 178.0,339.8 179.0,339.3 180.0,338.9 181.0,338.5 182.0,338.0 183.0,337.5 184.0,337.0 185.0,336.5 186.0,336.0 187.0,335.5 188.0,335.0 189.0,334.4 190.0,333.8 191.0,333.2 192.0,332.6 193.0,332.0 194.0,331.4 195.0,330.7 196.0,330.1 197.0,329.4 198.0,328.7 199.0,328.0 200.0,327.3 201.0,326.5 202.0,325.8 203.0,325.0 204.0,324.2 205.0,323.5 206.0,322.6 207.0,321.8 208.0,321.0 209.0,320.1 210.0,319.3 211.0,318.4 212.0,317.5 213.0,316.6 214.0,315.7 215.0,314.7 216.0,313.8 217.0,312.8 218.0,311.8 219.0,310.8 220.0,309.8 221.0,308.8 222.0,307.8 223.0,306.7 224.0,305.6 225.0,304.5 226.0,303.4 227.0,302.3 228.0,301.2 229.0,300.1 230.0,298.9 231.0,297.7 232.0,296.6 233.0,295.4 234.0,294.1 235.0,292.9 236.0,291.7 237.0,290.4 238.0,289.1 239.0,287.8 240.0,286.5 241.0,285.2 242.0,283.9 243.0,282.6 244.0,281.2 245.0,279.8 246.0,278.4 247.0,277.0 248.0,275.6 249.0,274.2 250.0,272.7 251.0,271.3 252.0,269.8 253.0,268.3 254.0,266.8 255.0,265.3 256.0,263.7 257.0,262.2 258.0,260.6 259.0,259.0 260.0,257.5 261.0,255.8 262.0,254.2 263.0,252.6 264.0,250.9 265.0,249.3 266.0,247.6 267.0,245.9 268.0,244.2 269.0,242.5 270.0,240.7 271.0,239.0 272.0,237.2 273.0,235.4 274.0,233.6 275.0,231.8 276.0,230.0 277.0,228.2 278.0,226.3 279.0,224.4 280.0,222.5 281.0,220.6 282.0,218.7 283.0,216.8 284.0,214.9 285.0,212.9 286.0,210.9 287.0,209.0 288.0,207.0 289.0,204.9 290.0,202.9 291.0,200.9 292.0,198.8 293.0,196.7 294.0,194.6 295.0,192.5 296.0,190.4 297.0,188.3 298.0,186.2 299.0,184.0 300.0,181.8 301.0,179.6 302.0,177.4 303.0,175.2 304.0,173.0 305.0,170.7 306.0,168.5 307.0,166.2 308.0,163.9 309.0,161.6 310.0,159.3 311.0,156.9 312.0,154.6 313.0,152.2 314.0,149.8 315.0,147.5 316.0,145.0 317.0,142.6 318.0,140.2 319.0,137.7 320.0,135.3 321.0,132.8 322.0,130.3 323.0,127.8 324.0,125.3 325.0,122.7 326.0,120.2 327.0,117.6 328.0,115.0 329.0,112.4 330.0,109.8 331.0,107.2 332.0,104.6 333.0,101.9 334.0,99.2 335.0,96.5 336.0,93.8 337.0,91.1 338.0,88.4 339.0,85.7 340.0,82.9 341.0,80.1 342.0,77.4 343.0,74.6 344.0,71.7 345.0,68.9 346.0,66.1 347.0,63.2 348.0,60.3 349.0,57.4 350.0,54.5" fill="none" stroke="#2980b9" stroke-width="2.5"/>
  <circle cx="200.0" cy="327.3" r="4.5" fill="#e74c3c" stroke="white" stroke-width="1.5"/>
  <text x="208.0" y="319.3" font-size="11" fill="#333">(1.0, 1.0)</text>
  <polyline points="50.0,436.4 51.0,435.6 52.0,434.9 53.0,434.2 54.0,433.5 55.0,432.7 56.0,432.0 57.0,431.3 58.0,430.5 59.0,429.8 60.0,429.1 61.0,428.4 62.0,427.6 63.0,426.9 64.0,426.2 65.0,425.5 66.0,424.7 67.0,424.0 68.0,423.3 69.0,422.5 70.0,421.8 71.0,421.1 72.0,420.4 73.0,419.6 74.0,418.9 75.0,418.2 76.0,417.5 77.0,416.7 78.0,416.0 79.0,415.3 80.0,414.5 81.0,413.8 82.0,413.1 83.0,412.4 84.0,411.6 85.0,410.9 86.0,410.2 87.0,409.5 88.0,408.7 89.0,408.0 90.0,407.3 91.0,406.5 92.0,405.8 93.0,405.1 94.0,404.4 95.0,403.6 96.0,402.9 97.0,402.2 98.0,401.5 99.0,400.7 100.0,400.0 101.0,399.3 102.0,398.5 103.0,397.8 104.0,397.1 105.0,396.4 106.0,395.6 107.0,394.9 108.0,394.2 109.0,393.5 110.0,392.7 111.0,392.0 112.0,391.3 113.0,390.5 114.0,389.8 115.0,389.1 116.0,388.4 117.0,387.6 118.0,386.9 119.0,386.2 120.0,385.5 121.0,384.7 122.0,384.0 123.0,383.3 124.0,382.5 125.0,381.8 126.0,381.1 127.0,380.4 128.0,379.6 129.0,378.9 130.0,378.2 131.0,377.5 132.0,376.7 133.0,376.0 134.0,375.3 135.0,374.5 136.0,373.8 137.0,373.1 138.0,372.4 139.0,371.6 140.0,370.9 141.0,370.2 142.0,369.5 143.0,368.7 144.0,368.0 145.0,367.3 146.0,366.5 147.0,365.8 148.0,365.1 149.0,364.4 150.0,363.6 151.0,362.9 152.0,362.2 153.0,361.5 154.0,360.7 155.0,360.0 156.0,359.3 157.0,358.5 158.0,357.8 159.0,357.1 160.0,356.4 161.0,355.6 162.0,354.9 163.0,354.2 164.0,353.5 165.0,352.7 166.0,352.0 167.0,351.3 168.0,350.5 169.0,349.8 170.0,349.1 171.0,348.4 172.0,347.6 173.0,346.9 174.0,346.2 175.0,345.5 176.0,344.7 177.0,344.0 178.0,343.3 179.0,342.5 180.0,341.8 181.0,341.1 182.0,340.4 183.0,339.6 184.0,338.9 185.0,338.2 186.0,337.5 187.0,336.7 188.0,336.0 189.0,335.3 190.0,334.5 191.0,333.8 192.0,333.1 193.0,332.4 194.0,331.6 195.0,330.9 196.0,330.2 197.0,329.5 198.0,328.7 199.0,328.0 200.0,327.3 201.0,326.5 202.0,325.8 203.0,325.1 204.0,324.4 205.0,323.6 206.0,322.9 207.0,322.2 208.0,321.5 209.0,320.7 210.0,320.0 211.0,319.3 212.0,318.5 213.0,317.8 214.0,317.1 215.0,316.4 216.0,315.6 217.0,314.9 218.0,314.2 219.0,313.5 220.0,312.7 221.0,312.0 222.0,311.3 223.0,310.5 224.0,309.8 225.0,309.1 226.0,308.4 227.0,307.6 228.0,306.9 229.0,306.2 230.0,305.5 231.0,304.7 232.0,304.0 233.0,303.3 234.0,302.5 235.0,301.8 236.0,301.1 237.0,300.4 238.0,299.6 239.0,298.9 240.0,298.2 241.0,297.5 242.0,296.7 243.0,296.0 244.0,295.3 245.0,294.5 246.0,293.8 247.0,293.1 248.0,292.4 249.0,291.6 250.0,290.9 251.0,290.2 252.0,289.5 253.0,288.7 254.0,288.0 255.0,287.3 256.0,286.5 257.0,285.8 258.0,285.1 259.0,284.4 260.0,283.6 261.0,282.9 262.0,282.2 263.0,281.5 264.0,280.7 265.0,280.0 266.0,279.3 267.0,278.5 268.0,277.8 269.0,277.1 270.0,276.4 271.0,275.6 272.0,274.9 273.0,274.2 274.0,273.5 275.0,272.7 276.0,272.0 277.0,271.3 278.0,270.5 279.0,269.8 280.0,269.1 281.0,268.4 282.0,267.6 283.0,266.9 284.0,266.2 285.0,265.5 286.0,264.7 287.0,264.0 288.0,263.3 289.0,262.5 290.0,261.8 291.0,261.1 292.0,260.4 293.0,259.6 294.0,258.9 295.0,258.2 296.0,257.5 297.0,256.7 298.0,256.0 299.0,255.3 300.0,254.5 301.0,253.8 302.0,253.1 303.0,252.4 304.0,251.6 305.0,250.9 306.0,250.2 307.0,249.5 308.0,248.7 309.0,248.0 310.0,247.3 311.0,246.5 312.0,245.8 313.0,245.1 314.0,244.4 315.0,243.6 316.0,242.9 317.0,242.2 318.0,241.5 319.0,240.7 320.0,240.0 321.0,239.3 322.0,238.5 323.0,237.8 324.0,237.1 325.0,236.4 326.0,235.6 327.0,234.9 328.0,234.2 329.0,233.5 330.0,232.7 331.0,232.0 332.0,231.3 333.0,230.5 334.0,229.8 335.0,229.1 336.0,228.4 337.0,227.6 338.0,226.9 339.0,226.2 340.0,225.5 341.0,224.7 342.0,224.0 343.0,223.3 344.0,222.5 345.0,221.8 346.0,221.1 347.0,220.4 348.0,219.6 349.0,218.9 350.0,218.2" fill="none" stroke="#e74c3c" stroke-width="2.5" stroke-dasharray="8,4"/>
</svg>