<svg xmlns="http://www.w3.org/2000/svg" width="500" height="870">
  <defs>
    <marker id="arrowhead" markerWidth="10" markerHeight="7" refX="10" refY="3.5" orient="auto">
      <polygon points="0 0, 10 3.5, 0 7" fill="#333"/>
    </marker>
  </defs>
  <rect width="500" height="870" fill="white"/>
  <text x="250" y="44" text-anchor="middle" font-size="17" font-weight="bold" fill="#333">Алгоритм построения графика возрастания и убывания функции по её производной</text>
  <line x1="250.0" y1="154.0" x2="250.0" y2="224.0" stroke="#333" stroke-width="1.5" marker-end="url(#arrowhead)"/>
  <line x1="250.0" y1="308.0" x2="250.0" y2="378.0" stroke="#333" stroke-width="1.5" marker-end="url(#arrowhead)"/>
  <line x1="250.0" y1="462.0" x2="250.0" y2="532.0" stroke="#333" stroke-width="1.5" marker-end="url(#arrowhead)"/>
  <line x1="250.0" y1="596.0" x2="250.0" y2="666.0" stroke="#333" stroke-width="1.5" marker-end="url(#arrowhead)"/>
  <rect x="120.0" y="70.0" width="260" height="84.0" rx="6" fill="#f5f5f5" stroke="#333333" stroke-width="1.5"/>
  <text x="250.0" y="105.5" text-anchor="middle" font-size="13" fill="#333">Найди участки, где $f&#x27;(x) &gt; 0$</text>
  <text x="250.0" y="122.5" text-anchor="middle" font-size="13" fill="#333">График производной выше оси x</text>
  <rect x="120.0" y="224.0" width="260" height="84.0" rx="6" fill="#f5f5f5" stroke="#333333" stroke-width="1.5"/>
  <text x="250.0" y="259.5" text-anchor="middle" font-size="13" fill="#333">Запиши, где функция возрастает</text>
  <text x="250.0" y="276.5" text-anchor="middle" font-size="13" fill="#333">На этих участках $f(x)$ возрастает</text>
  <rect x="120.0" y="378.0" width="260" height="84.0" rx="6" fill="#f5f5f5" stroke="#333333" stroke-width="1.5"/>
  <text x="250.0" y="413.5" text-anchor="middle" font-size="13" fill="#333">Найди участки, где $f&#x27;(x) &lt; 0$</text>
  <text x="250.0" y="430.5" text-anchor="middle" font-size="13" fill="#333">График производной ниже оси x</text>
  <rect x="120.0" y="532.0" width="260" height="64.0" rx="6" fill="#f5f5f5" stroke="#333333" stroke-width="1.5"/>
  <text x="250.0" y="557.5" text-anchor="middle" font-size="13" fill="#333">Запиши, где функция убывает</text>
  <text x="250.0" y="574.5" text-anchor="middle" font-size="13" fill="#333">На этих участках $f(x)$ убывает</text>
  <rect x="120.0" y="666.0" width="260" height="104.0" rx="6" fill="#f5f5f5" stroke="#333333" stroke-width="1.5"/>
  <text x="250.0" y="711.5" text-anchor="middle" font-size="13" fill="#333">Если нужно, посчитай количество у…</text>
  <text x="250.0" y="728.5" text-anchor="middle" font-size="13" fill="#333">Подсчитай количество участков воз…</text>
</svg>