<svg xmlns="http://www.w3.org/2000/svg" width="500" height="200" overflow="hidden">
  <defs>
    <marker id="arrow_axis" markerWidth="8" markerHeight="8" refX="8" refY="4" orient="auto">
      <path d="M0,0 L8,4 L0,8 Z" fill="#888"/>
    </marker>
  </defs>
  <rect width="500" height="200" fill="white"/>
  <line x1="104.2" y1="0" x2="104.2" y2="200" stroke="#e0e0e0" stroke-width="0.5"/>
  <line x1="229.2" y1="0" x2="229.2" y2="200" stroke="#e0e0e0" stroke-width="0.5"/>
  <line x1="354.2" y1="0" x2="354.2" y2="200" stroke="#e0e0e0" stroke-width="0.5"/>
  <line x1="479.1" y1="0" x2="479.1" y2="200" stroke="#e0e0e0" stroke-width="0.5"/>
  <line x1="0" y1="200.0" x2="500" y2="200.0" stroke="#e0e0e0" stroke-width="0.5"/>
  <line x1="0" y1="150.0" x2="500" y2="150.0" stroke="#e0e0e0" stroke-width="0.5"/>
  <line x1="0" y1="100.0" x2="500" y2="100.0" stroke="#e0e0e0" stroke-width="0.5"/>
  <line x1="0" y1="50.0" x2="500" y2="50.0" stroke="#e0e0e0" stroke-width="0.5"/>
  <line x1="0" y1="0.0" x2="500" y2="0.0" stroke="#e0e0e0" stroke-width="0.5"/>
  <line x1="0" y1="100.0" x2="500" y2="100.0" stroke="#888" stroke-width="1" marker-end="url(#arrow_axis)"/>
  <line x1="229.2" y1="200" x2="229.2" y2="0" stroke="#888" stroke-width="1" marker-end="url(#arrow_axis)"/>
  <text x="104.2" y="114.0" text-anchor="middle" font-size="10" fill="#666">-1</text>
  <text x="354.2" y="114.0" text-anchor="middle" font-size="10" fill="#666">1</text>
  <text x="479.1" y="114.0" text-anchor="middle" font-size="10" fill="#666">2</text>
  <text x="221.2" y="204.0" text-anchor="end" font-size="10" fill="#666">-2</text>
  <text x="221.2" y="154.0" text-anchor="end" font-size="10" fill="#666">-1</text>
  <text x="221.2" y="54.0" text-anchor="end" font-size="10" fill="#666">1</text>
  <text x="221.2" y="4.0" text-anchor="end" font-size="10" fill="#666">2</text>
  <polyline points="0.0,100.0 2.5,100.0 5.0,100.0 7.5,100.0 10.0,100.0 12.5,100.0 15.0,100.0 17.5,100.0 20.0,100.0 22.5,100.0 25.0,100.0 27.5,100.0 30.0,100.0 32.5,100.0 35.0,100.0 37.5,100.0 40.0,100.0 42.5,100.0 45.0,100.0 47.5,100.0 50.0,100.0 52.5,100.0 55.0,100.0 57.5,100.0 60.0,100.0 62.5,100.0 65.0,100.0 67.5,100.0 70.0,100.0 72.5,100.0 75.0,100.0 77.5,100.0 80.0,100.0 82.5,100.0 85.0,100.0 87.5,100.0 90.0,100.0 92.5,100.0 95.0,100.0 97.5,100.0 100.0,100.0 102.5,100.0 105.0,100.0 107.5,100.0 110.0,100.0 112.5,100.0 115.0,100.0 117.5,100.0 120.0,100.0 122.5,100.0 125.0,100.0 127.5,100.0 130.0,100.0 132.5,100.0 135.0,100.0 137.5,100.0 140.0,100.0 142.5,100.0 145.0,100.0 147.5,100.0 150.0,100.0 152.5,100.0 155.0,100.0 157.5,100.0 160.0,100.0 162.5,100.0 165.0,100.0 167.5,100.0 170.0,100.0 172.5,100.0 175.0,100.0 177.5,100.0 180.0,100.0 182.5,100.0 185.0,100.0 187.5,100.0 190.0,100.0 192.5,100.0 195.0,100.0 197.5,100.0 200.0,100.0 202.5,100.0 205.0,100.0 207.5,100.0 210.0,100.0 212.5,100.0 215.0,100.0 217.5,100.0 220.0,100.0 222.5,100.0 225.0,100.0 227.5,100.0 230.0,100.0 232.5,100.0 235.0,100.0 237.5,100.0 240.0,100.0 242.5,100.0 245.0,100.0 247.5,100.0 250.0,100.0 252.5,100.0 255.0,100.0 257.5,100.0 260.0,100.0 262.5,100.0 265.0,100.0 267.5,100.0 270.0,100.0 272.5,100.0 275.0,100.0 277.5,100.0 280.0,100.0 282.5,100.0 285.0,100.0 287.5,100.0 290.0,100.0 292.5,100.0 295.0,100.0 297.5,100.0 300.0,100.0 302.5,100.0 305.0,100.0 307.5,100.0 310.0,100.0 312.5,100.0 315.0,100.0 317.5,100.0 320.0,100.0 322.5,100.0 325.0,100.0 327.5,100.0 330.0,100.0 332.5,100.0 335.0,100.0 337.5,100.0 340.0,100.0 342.5,100.0 345.0,100.0 347.5,100.0 350.0,100.0 352.5,100.0 355.0,100.0 357.5,100.0 360.0,100.0 362.5,100.0 365.0,100.0 367.5,100.0 370.0,100.0 372.5,100.0 375.0,100.0 377.5,100.0 380.0,100.0 382.5,100.0 385.0,100.0 387.5,100.0 390.0,100.0 392.5,100.0 395.0,100.0 397.5,100.0 400.0,100.0 402.5,100.0 405.0,100.0 407.5,100.0 410.0,100.0 412.5,100.0 415.0,100.0 417.5,100.0 420.0,100.0 422.5,100.0 425.0,100.0 427.5,100.0 430.0,100.0 432.5,100.0 435.0,100.0 437.5,100.0 440.0,100.0 442.5,100.0 445.0,100.0 447.5,100.0 450.0,100.0 452.5,100.0 455.0,100.0 457.5,100.0 460.0,100.0 462.5,100.0 465.0,100.0 467.5,100.0 470.0,100.0 472.5,100.0 475.0,100.0 477.5,100.0 480.0,100.0 482.5,100.0 485.0,100.0 487.5,100.0 490.0,100.0 492.5,100.0 495.0,100.0 497.5,100.0 500.0,100.0" fill="none" stroke="#2980b9" stroke-width="2" />
  <circle cx="249.9" cy="100.0" r="4" fill="#e74c3c" stroke="#333" stroke-width="1"/>
  <text x="257.9" y="94.0" font-size="11" fill="#333">0.166...</text>
  <circle cx="250.1" cy="100.0" r="4" fill="#e74c3c" stroke="#333" stroke-width="1"/>
  <text x="258.1" y="94.0" font-size="11" fill="#333">0.167</text>
</svg>