<svg xmlns="http://www.w3.org/2000/svg" width="500" height="1454">
  <defs>
    <marker id="arrowhead" markerWidth="10" markerHeight="7" refX="10" refY="3.5" orient="auto">
      <polygon points="0 0, 10 3.5, 0 7" fill="#333"/>
    </marker>
  </defs>
  <rect width="500" height="1454" fill="white"/>
  <text x="250" y="44" text-anchor="middle" font-size="17" font-weight="bold" fill="#333">Решение иррационального уравнения \( \sqrt{x+3} = 2 \)</text>
  <line x1="250.0" y1="122.0" x2="250.0" y2="192.0" stroke="#333" stroke-width="1.5" marker-end="url(#arrowhead)"/>
  <line x1="250.0" y1="244.0" x2="250.0" y2="314.0" stroke="#333" stroke-width="1.5" marker-end="url(#arrowhead)"/>
  <line x1="250.0" y1="366.0" x2="250.0" y2="436.0" stroke="#333" stroke-width="1.5" marker-end="url(#arrowhead)"/>
  <line x1="250.0" y1="488.0" x2="250.0" y2="558.0" stroke="#333" stroke-width="1.5" marker-end="url(#arrowhead)"/>
  <line x1="250.0" y1="610.0" x2="250.0" y2="680.0" stroke="#333" stroke-width="1.5" marker-end="url(#arrowhead)"/>
  <line x1="250.0" y1="744.0" x2="250.0" y2="814.0" stroke="#333" stroke-width="1.5" marker-end="url(#arrowhead)"/>
  <line x1="250.0" y1="866.0" x2="250.0" y2="936.0" stroke="#333" stroke-width="1.5" marker-end="url(#arrowhead)"/>
  <line x1="250.0" y1="988.0" x2="250.0" y2="1058.0" stroke="#333" stroke-width="1.5" marker-end="url(#arrowhead)"/>
  <line x1="250.0" y1="1110.0" x2="250.0" y2="1180.0" stroke="#333" stroke-width="1.5" marker-end="url(#arrowhead)"/>
  <line x1="250.0" y1="1232.0" x2="250.0" y2="1302.0" stroke="#333" stroke-width="1.5" marker-end="url(#arrowhead)"/>
  <rect x="120.0" y="70.0" width="260" height="52.0" rx="6" fill="#fdebd0" stroke="#e67e22" stroke-width="1.5"/>
  <text x="250.0" y="98.0" text-anchor="middle" font-size="13" fill="#333">Задача: Решите уравнение \( \sqrt…</text>
  <rect x="120.0" y="314.0" width="260" height="52.0" rx="6" fill="#f5f5f5" stroke="#333333" stroke-width="1.5"/>
  <text x="250.0" y="342.0" text-anchor="middle" font-size="13" fill="#333">Исходное уравнение</text>
  <rect x="120.0" y="558.0" width="260" height="52.0" rx="6" fill="#f5f5f5" stroke="#333333" stroke-width="1.5"/>
  <text x="250.0" y="586.0" text-anchor="middle" font-size="13" fill="#333">Определение области допустимых зн…</text>
  <rect x="120.0" y="814.0" width="260" height="52.0" rx="6" fill="#f5f5f5" stroke="#333333" stroke-width="1.5"/>
  <text x="250.0" y="842.0" text-anchor="middle" font-size="13" fill="#333">Возведение обеих частей уравнения…</text>
  <rect x="120.0" y="1058.0" width="260" height="52.0" rx="6" fill="#f5f5f5" stroke="#333333" stroke-width="1.5"/>
  <text x="250.0" y="1086.0" text-anchor="middle" font-size="13" fill="#333">Проверка ОДЗ</text>
  <rect x="120.0" y="1302.0" width="260" height="52.0" rx="6" fill="#f5f5f5" stroke="#333333" stroke-width="1.5"/>
  <text x="250.0" y="1330.0" text-anchor="middle" font-size="13" fill="#333">Проверка в исходном уравнении</text>
  <rect x="120.0" y="192.0" width="260" height="52.0" rx="6" fill="#f5f5f5" stroke="#333333" stroke-width="1.5"/>
  <text x="250.0" y="220.0" text-anchor="middle" font-size="13" fill="#333">$\( \sqrt{x+3} = 2 \)$</text>
  <rect x="120.0" y="436.0" width="260" height="52.0" rx="6" fill="#f5f5f5" stroke="#333333" stroke-width="1.5"/>
  <text x="250.0" y="464.0" text-anchor="middle" font-size="13" fill="#333">$\( x+3 \ge 0 \Rightarrow x \ge -…</text>
  <rect x="120.0" y="680.0" width="260" height="64.0" rx="6" fill="#f5f5f5" stroke="#333333" stroke-width="1.5"/>
  <text x="250.0" y="714.0" text-anchor="middle" font-size="13" fill="#333">$\( (\sqrt{x+3})^2 = 2^2 \Rightar…</text>
  <rect x="120.0" y="936.0" width="260" height="52.0" rx="6" fill="#f5f5f5" stroke="#333333" stroke-width="1.5"/>
  <text x="250.0" y="964.0" text-anchor="middle" font-size="13" fill="#333">$\( x = 1 \ge -3 \)$</text>
  <rect x="120.0" y="1180.0" width="260" height="52.0" rx="6" fill="#f5f5f5" stroke="#333333" stroke-width="1.5"/>
  <text x="250.0" y="1208.0" text-anchor="middle" font-size="13" fill="#333">$\( \sqrt{1+3} = \sqrt{4} = 2 \)$</text>
</svg>