<svg xmlns="http://www.w3.org/2000/svg" width="500" height="1144">
  <defs>
    <marker id="arrowhead" markerWidth="10" markerHeight="7" refX="10" refY="3.5" orient="auto">
      <polygon points="0 0, 10 3.5, 0 7" fill="#333"/>
    </marker>
  </defs>
  <rect width="500" height="1144" fill="white"/>
  <text x="250" y="44" text-anchor="middle" font-size="17" font-weight="bold" fill="#333">Определение углового коэффициента и пример его вычисления</text>
  <line x1="250.0" y1="154.0" x2="250.0" y2="224.0" stroke="#333" stroke-width="1.5" marker-end="url(#arrowhead)"/>
  <line x1="250.0" y1="276.0" x2="250.0" y2="346.0" stroke="#333" stroke-width="1.5" marker-end="url(#arrowhead)"/>
  <line x1="250.0" y1="398.0" x2="250.0" y2="468.0" stroke="#333" stroke-width="1.5" marker-end="url(#arrowhead)"/>
  <line x1="250.0" y1="520.0" x2="250.0" y2="590.0" stroke="#333" stroke-width="1.5" marker-end="url(#arrowhead)"/>
  <line x1="250.0" y1="642.0" x2="250.0" y2="712.0" stroke="#333" stroke-width="1.5" marker-end="url(#arrowhead)"/>
  <line x1="250.0" y1="776.0" x2="250.0" y2="846.0" stroke="#333" stroke-width="1.5" marker-end="url(#arrowhead)"/>
  <line x1="250.0" y1="910.0" x2="250.0" y2="980.0" stroke="#333" stroke-width="1.5" marker-end="url(#arrowhead)"/>
  <rect x="120.0" y="70.0" width="260" height="84.0" rx="6" fill="#f5f5f5" stroke="#333333" stroke-width="1.5"/>
  <text x="250.0" y="114.0" text-anchor="middle" font-size="13" fill="#333">definition: Угловой коэффициент п…</text>
  <rect x="120.0" y="224.0" width="260" height="52.0" rx="6" fill="#f5f5f5" stroke="#333333" stroke-width="1.5"/>
  <text x="250.0" y="252.0" text-anchor="middle" font-size="13" fill="#333">delta_y: 2</text>
  <rect x="120.0" y="346.0" width="260" height="52.0" rx="6" fill="#f5f5f5" stroke="#333333" stroke-width="1.5"/>
  <text x="250.0" y="374.0" text-anchor="middle" font-size="13" fill="#333">delta_x: 4</text>
  <rect x="120.0" y="468.0" width="260" height="52.0" rx="6" fill="#f5f5f5" stroke="#333333" stroke-width="1.5"/>
  <text x="250.0" y="496.0" text-anchor="middle" font-size="13" fill="#333">k: 0.5</text>
  <rect x="120.0" y="590.0" width="260" height="52.0" rx="6" fill="#f5f5f5" stroke="#333333" stroke-width="1.5"/>
  <text x="250.0" y="618.0" text-anchor="middle" font-size="13" fill="#333">slope_direction: вверх слева напр…</text>
  <rect x="120.0" y="712.0" width="260" height="64.0" rx="6" fill="#f5f5f5" stroke="#333333" stroke-width="1.5"/>
  <text x="250.0" y="737.5" text-anchor="middle" font-size="13" fill="#333">direction: вверх слева направо</text>
  <text x="250.0" y="754.5" text-anchor="middle" font-size="13" fill="#333">k_range: k &gt; 0</text>
  <rect x="120.0" y="846.0" width="260" height="64.0" rx="6" fill="#f5f5f5" stroke="#333333" stroke-width="1.5"/>
  <text x="250.0" y="871.5" text-anchor="middle" font-size="13" fill="#333">direction: вниз</text>
  <text x="250.0" y="888.5" text-anchor="middle" font-size="13" fill="#333">k_range: k &lt; 0</text>
  <rect x="120.0" y="980.0" width="260" height="64.0" rx="6" fill="#f5f5f5" stroke="#333333" stroke-width="1.5"/>
  <text x="250.0" y="1005.5" text-anchor="middle" font-size="13" fill="#333">direction: горизонтальна</text>
  <text x="250.0" y="1022.5" text-anchor="middle" font-size="13" fill="#333">k_range: k = 0</text>
</svg>