<svg xmlns="http://www.w3.org/2000/svg" width="500" height="400" overflow="hidden">
  <defs>
    <marker id="arrow_axis" markerWidth="8" markerHeight="8" refX="8" refY="4" orient="auto">
      <path d="M0,0 L8,4 L0,8 Z" fill="#888"/>
    </marker>
  </defs>
  <rect width="500" height="400" fill="white"/>
  <line x1="0.0" y1="0" x2="0.0" y2="400" stroke="#e0e0e0" stroke-width="0.5"/>
  <line x1="41.7" y1="0" x2="41.7" y2="400" stroke="#e0e0e0" stroke-width="0.5"/>
  <line x1="83.3" y1="0" x2="83.3" y2="400" stroke="#e0e0e0" stroke-width="0.5"/>
  <line x1="125.0" y1="0" x2="125.0" y2="400" stroke="#e0e0e0" stroke-width="0.5"/>
  <line x1="166.7" y1="0" x2="166.7" y2="400" stroke="#e0e0e0" stroke-width="0.5"/>
  <line x1="208.3" y1="0" x2="208.3" y2="400" stroke="#e0e0e0" stroke-width="0.5"/>
  <line x1="250.0" y1="0" x2="250.0" y2="400" stroke="#e0e0e0" stroke-width="0.5"/>
  <line x1="291.7" y1="0" x2="291.7" y2="400" stroke="#e0e0e0" stroke-width="0.5"/>
  <line x1="333.3" y1="0" x2="333.3" y2="400" stroke="#e0e0e0" stroke-width="0.5"/>
  <line x1="375.0" y1="0" x2="375.0" y2="400" stroke="#e0e0e0" stroke-width="0.5"/>
  <line x1="416.7" y1="0" x2="416.7" y2="400" stroke="#e0e0e0" stroke-width="0.5"/>
  <line x1="458.3" y1="0" x2="458.3" y2="400" stroke="#e0e0e0" stroke-width="0.5"/>
  <line x1="500.0" y1="0" x2="500.0" y2="400" stroke="#e0e0e0" stroke-width="0.5"/>
  <line x1="0" y1="400.0" x2="500" y2="400.0" stroke="#e0e0e0" stroke-width="0.5"/>
  <line x1="0" y1="387.9" x2="500" y2="387.9" stroke="#e0e0e0" stroke-width="0.5"/>
  <line x1="0" y1="375.8" x2="500" y2="375.8" stroke="#e0e0e0" stroke-width="0.5"/>
  <line x1="0" y1="363.6" x2="500" y2="363.6" stroke="#e0e0e0" stroke-width="0.5"/>
  <line x1="0" y1="351.5" x2="500" y2="351.5" stroke="#e0e0e0" stroke-width="0.5"/>
  <line x1="0" y1="339.4" x2="500" y2="339.4" stroke="#e0e0e0" stroke-width="0.5"/>
  <line x1="0" y1="327.3" x2="500" y2="327.3" stroke="#e0e0e0" stroke-width="0.5"/>
  <line x1="0" y1="315.2" x2="500" y2="315.2" stroke="#e0e0e0" stroke-width="0.5"/>
  <line x1="0" y1="303.0" x2="500" y2="303.0" stroke="#e0e0e0" stroke-width="0.5"/>
  <line x1="0" y1="290.9" x2="500" y2="290.9" stroke="#e0e0e0" stroke-width="0.5"/>
  <line x1="0" y1="278.8" x2="500" y2="278.8" stroke="#e0e0e0" stroke-width="0.5"/>
  <line x1="0" y1="266.7" x2="500" y2="266.7" stroke="#e0e0e0" stroke-width="0.5"/>
  <line x1="0" y1="254.5" x2="500" y2="254.5" stroke="#e0e0e0" stroke-width="0.5"/>
  <line x1="0" y1="242.4" x2="500" y2="242.4" stroke="#e0e0e0" stroke-width="0.5"/>
  <line x1="0" y1="230.3" x2="500" y2="230.3" stroke="#e0e0e0" stroke-width="0.5"/>
  <line x1="0" y1="218.2" x2="500" y2="218.2" stroke="#e0e0e0" stroke-width="0.5"/>
  <line x1="0" y1="206.1" x2="500" y2="206.1" stroke="#e0e0e0" stroke-width="0.5"/>
  <line x1="0" y1="193.9" x2="500" y2="193.9" stroke="#e0e0e0" stroke-width="0.5"/>
  <line x1="0" y1="181.8" x2="500" y2="181.8" stroke="#e0e0e0" stroke-width="0.5"/>
  <line x1="0" y1="169.7" x2="500" y2="169.7" stroke="#e0e0e0" stroke-width="0.5"/>
  <line x1="0" y1="157.6" x2="500" y2="157.6" stroke="#e0e0e0" stroke-width="0.5"/>
  <line x1="0" y1="145.5" x2="500" y2="145.5" stroke="#e0e0e0" stroke-width="0.5"/>
  <line x1="0" y1="133.3" x2="500" y2="133.3" stroke="#e0e0e0" stroke-width="0.5"/>
  <line x1="0" y1="121.2" x2="500" y2="121.2" stroke="#e0e0e0" stroke-width="0.5"/>
  <line x1="0" y1="109.1" x2="500" y2="109.1" stroke="#e0e0e0" stroke-width="0.5"/>
  <line x1="0" y1="97.0" x2="500" y2="97.0" stroke="#e0e0e0" stroke-width="0.5"/>
  <line x1="0" y1="84.8" x2="500" y2="84.8" stroke="#e0e0e0" stroke-width="0.5"/>
  <line x1="0" y1="72.7" x2="500" y2="72.7" stroke="#e0e0e0" stroke-width="0.5"/>
  <line x1="0" y1="60.6" x2="500" y2="60.6" stroke="#e0e0e0" stroke-width="0.5"/>
  <line x1="0" y1="48.5" x2="500" y2="48.5" stroke="#e0e0e0" stroke-width="0.5"/>
  <line x1="0" y1="36.4" x2="500" y2="36.4" stroke="#e0e0e0" stroke-width="0.5"/>
  <line x1="0" y1="24.2" x2="500" y2="24.2" stroke="#e0e0e0" stroke-width="0.5"/>
  <line x1="0" y1="12.1" x2="500" y2="12.1" stroke="#e0e0e0" stroke-width="0.5"/>
  <line x1="0" y1="0.0" x2="500" y2="0.0" stroke="#e0e0e0" stroke-width="0.5"/>
  <line x1="0" y1="351.5" x2="500" y2="351.5" stroke="#888" stroke-width="1" marker-end="url(#arrow_axis)"/>
  <line x1="250.0" y1="400" x2="250.0" y2="0" stroke="#888" stroke-width="1" marker-end="url(#arrow_axis)"/>
  <text x="0.0" y="365.5" text-anchor="middle" font-size="10" fill="#666">-6</text>
  <text x="41.7" y="365.5" text-anchor="middle" font-size="10" fill="#666">-5</text>
  <text x="83.3" y="365.5" text-anchor="middle" font-size="10" fill="#666">-4</text>
  <text x="125.0" y="365.5" text-anchor="middle" font-size="10" fill="#666">-3</text>
  <text x="166.7" y="365.5" text-anchor="middle" font-size="10" fill="#666">-2</text>
  <text x="208.3" y="365.5" text-anchor="middle" font-size="10" fill="#666">-1</text>
  <text x="291.7" y="365.5" text-anchor="middle" font-size="10" fill="#666">1</text>
  <text x="333.3" y="365.5" text-anchor="middle" font-size="10" fill="#666">2</text>
  <text x="375.0" y="365.5" text-anchor="middle" font-size="10" fill="#666">3</text>
  <text x="416.7" y="365.5" text-anchor="middle" font-size="10" fill="#666">4</text>
  <text x="458.3" y="365.5" text-anchor="middle" font-size="10" fill="#666">5</text>
  <text x="500.0" y="365.5" text-anchor="middle" font-size="10" fill="#666">6</text>
  <text x="242.0" y="404.0" text-anchor="end" font-size="10" fill="#666">-4</text>
  <text x="242.0" y="391.9" text-anchor="end" font-size="10" fill="#666">-3</text>
  <text x="242.0" y="379.8" text-anchor="end" font-size="10" fill="#666">-2</text>
  <text x="242.0" y="367.6" text-anchor="end" font-size="10" fill="#666">-1</text>
  <text x="242.0" y="343.4" text-anchor="end" font-size="10" fill="#666">1</text>
  <text x="242.0" y="331.3" text-anchor="end" font-size="10" fill="#666">2</text>
  <text x="242.0" y="319.2" text-anchor="end" font-size="10" fill="#666">3</text>
  <text x="242.0" y="307.0" text-anchor="end" font-size="10" fill="#666">4</text>
  <text x="242.0" y="294.9" text-anchor="end" font-size="10" fill="#666">5</text>
  <text x="242.0" y="282.8" text-anchor="end" font-size="10" fill="#666">6</text>
  <text x="242.0" y="270.7" text-anchor="end" font-size="10" fill="#666">7</text>
  <text x="242.0" y="258.5" text-anchor="end" font-size="10" fill="#666">8</text>
  <text x="242.0" y="246.4" text-anchor="end" font-size="10" fill="#666">9</text>
  <text x="242.0" y="234.3" text-anchor="end" font-size="10" fill="#666">10</text>
  <text x="242.0" y="222.2" text-anchor="end" font-size="10" fill="#666">11</text>
  <text x="242.0" y="210.1" text-anchor="end" font-size="10" fill="#666">12</text>
  <text x="242.0" y="197.9" text-anchor="end" font-size="10" fill="#666">13</text>
  <text x="242.0" y="185.8" text-anchor="end" font-size="10" fill="#666">14</text>
  <text x="242.0" y="173.7" text-anchor="end" font-size="10" fill="#666">15</text>
  <text x="242.0" y="161.6" text-anchor="end" font-size="10" fill="#666">16</text>
  <text x="242.0" y="149.5" text-anchor="end" font-size="10" fill="#666">17</text>
  <text x="242.0" y="137.3" text-anchor="end" font-size="10" fill="#666">18</text>
  <text x="242.0" y="125.2" text-anchor="end" font-size="10" fill="#666">19</text>
  <text x="242.0" y="113.1" text-anchor="end" font-size="10" fill="#666">20</text>
  <text x="242.0" y="101.0" text-anchor="end" font-size="10" fill="#666">21</text>
  <text x="242.0" y="88.8" text-anchor="end" font-size="10" fill="#666">22</text>
  <text x="242.0" y="76.7" text-anchor="end" font-size="10" fill="#666">23</text>
  <text x="242.0" y="64.6" text-anchor="end" font-size="10" fill="#666">24</text>
  <text x="242.0" y="52.5" text-anchor="end" font-size="10" fill="#666">25</text>
  <text x="242.0" y="40.4" text-anchor="end" font-size="10" fill="#666">26</text>
  <text x="242.0" y="28.2" text-anchor="end" font-size="10" fill="#666">27</text>
  <text x="242.0" y="16.1" text-anchor="end" font-size="10" fill="#666">28</text>
  <text x="242.0" y="4.0" text-anchor="end" font-size="10" fill="#666">29</text>
  <polyline points="41.7,48.5 43.7,54.5 45.8,60.5 47.9,66.4 50.0,72.2 52.1,78.0 54.2,83.8 56.2,89.4 58.3,95.0 60.4,100.6 62.5,106.1 64.6,111.5 66.7,116.8 68.8,122.2 70.8,127.4 72.9,132.6 75.0,137.7 77.1,142.8 79.2,147.8 81.2,152.7 83.3,157.6 85.4,162.4 87.5,167.2 89.6,171.8 91.7,176.5 93.8,181.1 95.8,185.6 97.9,190.0 100.0,194.4 102.1,198.8 104.2,203.0 106.2,207.2 108.3,211.4 110.4,215.5 112.5,219.5 114.6,223.5 116.7,227.4 118.8,231.2 120.8,235.0 122.9,238.8 125.0,242.4 127.1,246.0 129.2,249.6 131.2,253.1 133.3,256.5 135.4,259.8 137.5,263.2 139.6,266.4 141.7,269.6 143.8,272.7 145.8,275.8 147.9,278.8 150.0,281.7 152.1,284.6 154.2,287.4 156.2,290.2 158.3,292.8 160.4,295.5 162.5,298.1 164.6,300.6 166.7,303.0 168.7,305.4 170.8,307.8 172.9,310.0 175.0,312.2 177.1,314.4 179.2,316.5 181.2,318.5 183.3,320.5 185.4,322.4 187.5,324.2 189.6,326.0 191.7,327.8 193.8,329.4 195.8,331.0 197.9,332.6 200.0,334.1 202.1,335.5 204.2,336.8 206.3,338.2 208.3,339.4 210.4,340.6 212.5,341.7 214.6,342.8 216.7,343.8 218.8,344.7 220.8,345.6 222.9,346.4 225.0,347.2 227.1,347.8 229.2,348.5 231.2,349.1 233.3,349.6 235.4,350.0 237.5,350.4 239.6,350.8 241.7,351.0 243.8,351.2 245.8,351.4 247.9,351.5 250.0,351.5 252.1,351.5 254.2,351.4 256.3,351.2 258.3,351.0 260.4,350.8 262.5,350.4 264.6,350.0 266.7,349.6 268.8,349.1 270.8,348.5 272.9,347.8 275.0,347.2 277.1,346.4 279.2,345.6 281.2,344.7 283.3,343.8 285.4,342.8 287.5,341.7 289.6,340.6 291.7,339.4 293.8,338.2 295.8,336.8 297.9,335.5 300.0,334.1 302.1,332.6 304.2,331.0 306.2,329.4 308.3,327.8 310.4,326.0 312.5,324.2 314.6,322.4 316.7,320.5 318.8,318.5 320.8,316.5 322.9,314.4 325.0,312.2 327.1,310.0 329.2,307.8 331.2,305.4 333.3,303.0 335.4,300.6 337.5,298.1 339.6,295.5 341.7,292.8 343.8,290.2 345.8,287.4 347.9,284.6 350.0,281.7 352.1,278.8 354.2,275.8 356.2,272.7 358.3,269.6 360.4,266.4 362.5,263.2 364.6,259.8 366.7,256.5 368.7,253.1 370.8,249.6 372.9,246.0 375.0,242.4 377.1,238.8 379.2,235.0 381.3,231.2 383.3,227.4 385.4,223.5 387.5,219.5 389.6,215.5 391.7,211.4 393.8,207.2 395.8,203.0 397.9,198.8 400.0,194.4 402.1,190.0 404.2,185.6 406.2,181.1 408.3,176.5 410.4,171.8 412.5,167.2 414.6,162.4 416.7,157.6 418.8,152.7 420.8,147.8 422.9,142.8 425.0,137.7 427.1,132.6 429.2,127.4 431.2,122.2 433.3,116.8 435.4,111.5 437.5,106.1 439.6,100.6 441.7,95.0 443.8,89.4 445.8,83.8 447.9,78.0 450.0,72.2 452.1,66.4 454.2,60.5 456.2,54.5 458.3,48.5" fill="none" stroke="#2980b9" stroke-width="2" />
</svg>