<svg xmlns="http://www.w3.org/2000/svg" width="500" height="1942">
  <defs>
    <marker id="arrowhead" markerWidth="10" markerHeight="7" refX="10" refY="3.5" orient="auto">
      <polygon points="0 0, 10 3.5, 0 7" fill="#333"/>
    </marker>
  </defs>
  <rect width="500" height="1942" fill="white"/>
  <text x="250" y="44" text-anchor="middle" font-size="17" font-weight="bold" fill="#333">Пошаговое решение задачи нахождения значения функции в точке минимума</text>
  <line x1="250.0" y1="134.0" x2="250.0" y2="204.0" stroke="#333" stroke-width="1.5" marker-end="url(#arrowhead)"/>
  <line x1="250.0" y1="256.0" x2="250.0" y2="326.0" stroke="#333" stroke-width="1.5" marker-end="url(#arrowhead)"/>
  <line x1="250.0" y1="378.0" x2="250.0" y2="448.0" stroke="#333" stroke-width="1.5" marker-end="url(#arrowhead)"/>
  <line x1="250.0" y1="500.0" x2="250.0" y2="570.0" stroke="#333" stroke-width="1.5" marker-end="url(#arrowhead)"/>
  <line x1="250.0" y1="622.0" x2="250.0" y2="692.0" stroke="#333" stroke-width="1.5" marker-end="url(#arrowhead)"/>
  <line x1="250.0" y1="744.0" x2="250.0" y2="814.0" stroke="#333" stroke-width="1.5" marker-end="url(#arrowhead)"/>
  <line x1="250.0" y1="866.0" x2="250.0" y2="936.0" stroke="#333" stroke-width="1.5" marker-end="url(#arrowhead)"/>
  <line x1="250.0" y1="988.0" x2="250.0" y2="1058.0" stroke="#333" stroke-width="1.5" marker-end="url(#arrowhead)"/>
  <line x1="250.0" y1="1110.0" x2="250.0" y2="1180.0" stroke="#333" stroke-width="1.5" marker-end="url(#arrowhead)"/>
  <line x1="250.0" y1="1232.0" x2="250.0" y2="1302.0" stroke="#333" stroke-width="1.5" marker-end="url(#arrowhead)"/>
  <line x1="250.0" y1="1354.0" x2="250.0" y2="1424.0" stroke="#333" stroke-width="1.5" marker-end="url(#arrowhead)"/>
  <line x1="250.0" y1="1476.0" x2="250.0" y2="1546.0" stroke="#333" stroke-width="1.5" marker-end="url(#arrowhead)"/>
  <line x1="250.0" y1="1598.0" x2="250.0" y2="1668.0" stroke="#333" stroke-width="1.5" marker-end="url(#arrowhead)"/>
  <line x1="250.0" y1="1720.0" x2="250.0" y2="1790.0" stroke="#333" stroke-width="1.5" marker-end="url(#arrowhead)"/>
  <rect x="120.0" y="70.0" width="260" height="64.0" rx="6" fill="#fdebd0" stroke="#e67e22" stroke-width="1.5"/>
  <text x="250.0" y="104.0" text-anchor="middle" font-size="13" fill="#333">Задача: Найти значение функции $f…</text>
  <rect x="120.0" y="326.0" width="260" height="52.0" rx="6" fill="#f5f5f5" stroke="#333333" stroke-width="1.5"/>
  <text x="250.0" y="354.0" text-anchor="middle" font-size="13" fill="#333">Формула функции</text>
  <rect x="120.0" y="570.0" width="260" height="52.0" rx="6" fill="#f5f5f5" stroke="#333333" stroke-width="1.5"/>
  <text x="250.0" y="598.0" text-anchor="middle" font-size="13" fill="#333">Найдём производную функции</text>
  <rect x="120.0" y="814.0" width="260" height="52.0" rx="6" fill="#f5f5f5" stroke="#333333" stroke-width="1.5"/>
  <text x="250.0" y="842.0" text-anchor="middle" font-size="13" fill="#333">Найдём критические точки</text>
  <rect x="120.0" y="1058.0" width="260" height="52.0" rx="6" fill="#f5f5f5" stroke="#333333" stroke-width="1.5"/>
  <text x="250.0" y="1086.0" text-anchor="middle" font-size="13" fill="#333">Решим уравнение</text>
  <rect x="120.0" y="1302.0" width="260" height="52.0" rx="6" fill="#f5f5f5" stroke="#333333" stroke-width="1.5"/>
  <text x="250.0" y="1330.0" text-anchor="middle" font-size="13" fill="#333">Подставим x = 2 в исходную функцию</text>
  <rect x="120.0" y="1546.0" width="260" height="52.0" rx="6" fill="#f5f5f5" stroke="#333333" stroke-width="1.5"/>
  <text x="250.0" y="1574.0" text-anchor="middle" font-size="13" fill="#333">Выполним вычисления</text>
  <rect x="120.0" y="1790.0" width="260" height="52.0" rx="6" fill="#f5f5f5" stroke="#333333" stroke-width="1.5"/>
  <text x="250.0" y="1818.0" text-anchor="middle" font-size="13" fill="#333">Результат</text>
  <rect x="120.0" y="204.0" width="260" height="52.0" rx="6" fill="#f5f5f5" stroke="#333333" stroke-width="1.5"/>
  <text x="250.0" y="232.0" text-anchor="middle" font-size="13" fill="#333">$f(x) = x^2 - 4x + 3$</text>
  <rect x="120.0" y="448.0" width="260" height="52.0" rx="6" fill="#f5f5f5" stroke="#333333" stroke-width="1.5"/>
  <text x="250.0" y="476.0" text-anchor="middle" font-size="13" fill="#333">$f&#x27;(x) = 2x - 4$</text>
  <rect x="120.0" y="692.0" width="260" height="52.0" rx="6" fill="#f5f5f5" stroke="#333333" stroke-width="1.5"/>
  <text x="250.0" y="720.0" text-anchor="middle" font-size="13" fill="#333">$2x - 4 = 0$</text>
  <rect x="120.0" y="936.0" width="260" height="52.0" rx="6" fill="#f5f5f5" stroke="#333333" stroke-width="1.5"/>
  <text x="250.0" y="964.0" text-anchor="middle" font-size="13" fill="#333">$x = 2$</text>
  <rect x="120.0" y="1180.0" width="260" height="52.0" rx="6" fill="#f5f5f5" stroke="#333333" stroke-width="1.5"/>
  <text x="250.0" y="1208.0" text-anchor="middle" font-size="13" fill="#333">$f(2) = 2^2 - 4*2 + 3$</text>
  <rect x="120.0" y="1424.0" width="260" height="52.0" rx="6" fill="#f5f5f5" stroke="#333333" stroke-width="1.5"/>
  <text x="250.0" y="1452.0" text-anchor="middle" font-size="13" fill="#333">$f(2) = 4 - 8 + 3$</text>
  <rect x="120.0" y="1668.0" width="260" height="52.0" rx="6" fill="#f5f5f5" stroke="#333333" stroke-width="1.5"/>
  <text x="250.0" y="1696.0" text-anchor="middle" font-size="13" fill="#333">$f(2) = -1$</text>
</svg>