<svg xmlns="http://www.w3.org/2000/svg" width="500" height="400" viewBox="0 0 500 400" style="background:white;font-family:sans-serif">
  <defs>
    <marker id="ah" markerWidth="8" markerHeight="6" refX="8" refY="3" orient="auto">
      <path d="M0,0 L8,3 L0,6" fill="#555"/></marker>
  </defs>
  <line x1="0.0" y1="0" x2="0.0" y2="400" stroke="#eee" stroke-width="0.5"/>
  <line x1="50.0" y1="0" x2="50.0" y2="400" stroke="#eee" stroke-width="0.5"/>
  <line x1="100.0" y1="0" x2="100.0" y2="400" stroke="#eee" stroke-width="0.5"/>
  <line x1="150.0" y1="0" x2="150.0" y2="400" stroke="#eee" stroke-width="0.5"/>
  <line x1="200.0" y1="0" x2="200.0" y2="400" stroke="#eee" stroke-width="0.5"/>
  <line x1="250.0" y1="0" x2="250.0" y2="400" stroke="#eee" stroke-width="0.5"/>
  <line x1="300.0" y1="0" x2="300.0" y2="400" stroke="#eee" stroke-width="0.5"/>
  <line x1="350.0" y1="0" x2="350.0" y2="400" stroke="#eee" stroke-width="0.5"/>
  <line x1="400.0" y1="0" x2="400.0" y2="400" stroke="#eee" stroke-width="0.5"/>
  <line x1="450.0" y1="0" x2="450.0" y2="400" stroke="#eee" stroke-width="0.5"/>
  <line x1="500.0" y1="0" x2="500.0" y2="400" stroke="#eee" stroke-width="0.5"/>
  <line x1="0" y1="400.0" x2="500" y2="400.0" stroke="#eee" stroke-width="0.5"/>
  <line x1="0" y1="397.1" x2="500" y2="397.1" stroke="#eee" stroke-width="0.5"/>
  <line x1="0" y1="394.1" x2="500" y2="394.1" stroke="#eee" stroke-width="0.5"/>
  <line x1="0" y1="391.2" x2="500" y2="391.2" stroke="#eee" stroke-width="0.5"/>
  <line x1="0" y1="388.2" x2="500" y2="388.2" stroke="#eee" stroke-width="0.5"/>
  <line x1="0" y1="385.3" x2="500" y2="385.3" stroke="#eee" stroke-width="0.5"/>
  <line x1="0" y1="382.4" x2="500" y2="382.4" stroke="#eee" stroke-width="0.5"/>
  <line x1="0" y1="379.4" x2="500" y2="379.4" stroke="#eee" stroke-width="0.5"/>
  <line x1="0" y1="376.5" x2="500" y2="376.5" stroke="#eee" stroke-width="0.5"/>
  <line x1="0" y1="373.5" x2="500" y2="373.5" stroke="#eee" stroke-width="0.5"/>
  <line x1="0" y1="370.6" x2="500" y2="370.6" stroke="#eee" stroke-width="0.5"/>
  <line x1="0" y1="367.6" x2="500" y2="367.6" stroke="#eee" stroke-width="0.5"/>
  <line x1="0" y1="364.7" x2="500" y2="364.7" stroke="#eee" stroke-width="0.5"/>
  <line x1="0" y1="361.8" x2="500" y2="361.8" stroke="#eee" stroke-width="0.5"/>
  <line x1="0" y1="358.8" x2="500" y2="358.8" stroke="#eee" stroke-width="0.5"/>
  <line x1="0" y1="355.9" x2="500" y2="355.9" stroke="#eee" stroke-width="0.5"/>
  <line x1="0" y1="352.9" x2="500" y2="352.9" stroke="#eee" stroke-width="0.5"/>
  <line x1="0" y1="350.0" x2="500" y2="350.0" stroke="#eee" stroke-width="0.5"/>
  <line x1="0" y1="347.1" x2="500" y2="347.1" stroke="#eee" stroke-width="0.5"/>
  <line x1="0" y1="344.1" x2="500" y2="344.1" stroke="#eee" stroke-width="0.5"/>
  <line x1="0" y1="341.2" x2="500" y2="341.2" stroke="#eee" stroke-width="0.5"/>
  <line x1="0" y1="338.2" x2="500" y2="338.2" stroke="#eee" stroke-width="0.5"/>
  <line x1="0" y1="335.3" x2="500" y2="335.3" stroke="#eee" stroke-width="0.5"/>
  <line x1="0" y1="332.4" x2="500" y2="332.4" stroke="#eee" stroke-width="0.5"/>
  <line x1="0" y1="329.4" x2="500" y2="329.4" stroke="#eee" stroke-width="0.5"/>
  <line x1="0" y1="326.5" x2="500" y2="326.5" stroke="#eee" stroke-width="0.5"/>
  <line x1="0" y1="323.5" x2="500" y2="323.5" stroke="#eee" stroke-width="0.5"/>
  <line x1="0" y1="320.6" x2="500" y2="320.6" stroke="#eee" stroke-width="0.5"/>
  <line x1="0" y1="317.6" x2="500" y2="317.6" stroke="#eee" stroke-width="0.5"/>
  <line x1="0" y1="314.7" x2="500" y2="314.7" stroke="#eee" stroke-width="0.5"/>
  <line x1="0" y1="311.8" x2="500" y2="311.8" stroke="#eee" stroke-width="0.5"/>
  <line x1="0" y1="308.8" x2="500" y2="308.8" stroke="#eee" stroke-width="0.5"/>
  <line x1="0" y1="305.9" x2="500" y2="305.9" stroke="#eee" stroke-width="0.5"/>
  <line x1="0" y1="302.9" x2="500" y2="302.9" stroke="#eee" stroke-width="0.5"/>
  <line x1="0" y1="300.0" x2="500" y2="300.0" stroke="#eee" stroke-width="0.5"/>
  <line x1="0" y1="297.1" x2="500" y2="297.1" stroke="#eee" stroke-width="0.5"/>
  <line x1="0" y1="294.1" x2="500" y2="294.1" stroke="#eee" stroke-width="0.5"/>
  <line x1="0" y1="291.2" x2="500" y2="291.2" stroke="#eee" stroke-width="0.5"/>
  <line x1="0" y1="288.2" x2="500" y2="288.2" stroke="#eee" stroke-width="0.5"/>
  <line x1="0" y1="285.3" x2="500" y2="285.3" stroke="#eee" stroke-width="0.5"/>
  <line x1="0" y1="282.4" x2="500" y2="282.4" stroke="#eee" stroke-width="0.5"/>
  <line x1="0" y1="279.4" x2="500" y2="279.4" stroke="#eee" stroke-width="0.5"/>
  <line x1="0" y1="276.5" x2="500" y2="276.5" stroke="#eee" stroke-width="0.5"/>
  <line x1="0" y1="273.5" x2="500" y2="273.5" stroke="#eee" stroke-width="0.5"/>
  <line x1="0" y1="270.6" x2="500" y2="270.6" stroke="#eee" stroke-width="0.5"/>
  <line x1="0" y1="267.6" x2="500" y2="267.6" stroke="#eee" stroke-width="0.5"/>
  <line x1="0" y1="264.7" x2="500" y2="264.7" stroke="#eee" stroke-width="0.5"/>
  <line x1="0" y1="261.8" x2="500" y2="261.8" stroke="#eee" stroke-width="0.5"/>
  <line x1="0" y1="258.8" x2="500" y2="258.8" stroke="#eee" stroke-width="0.5"/>
  <line x1="0" y1="255.9" x2="500" y2="255.9" stroke="#eee" stroke-width="0.5"/>
  <line x1="0" y1="252.9" x2="500" y2="252.9" stroke="#eee" stroke-width="0.5"/>
  <line x1="0" y1="250.0" x2="500" y2="250.0" stroke="#eee" stroke-width="0.5"/>
  <line x1="0" y1="247.1" x2="500" y2="247.1" stroke="#eee" stroke-width="0.5"/>
  <line x1="0" y1="244.1" x2="500" y2="244.1" stroke="#eee" stroke-width="0.5"/>
  <line x1="0" y1="241.2" x2="500" y2="241.2" stroke="#eee" stroke-width="0.5"/>
  <line x1="0" y1="238.2" x2="500" y2="238.2" stroke="#eee" stroke-width="0.5"/>
  <line x1="0" y1="235.3" x2="500" y2="235.3" stroke="#eee" stroke-width="0.5"/>
  <line x1="0" y1="232.4" x2="500" y2="232.4" stroke="#eee" stroke-width="0.5"/>
  <line x1="0" y1="229.4" x2="500" y2="229.4" stroke="#eee" stroke-width="0.5"/>
  <line x1="0" y1="226.5" x2="500" y2="226.5" stroke="#eee" stroke-width="0.5"/>
  <line x1="0" y1="223.5" x2="500" y2="223.5" stroke="#eee" stroke-width="0.5"/>
  <line x1="0" y1="220.6" x2="500" y2="220.6" stroke="#eee" stroke-width="0.5"/>
  <line x1="0" y1="217.6" x2="500" y2="217.6" stroke="#eee" stroke-width="0.5"/>
  <line x1="0" y1="214.7" x2="500" y2="214.7" stroke="#eee" stroke-width="0.5"/>
  <line x1="0" y1="211.8" x2="500" y2="211.8" stroke="#eee" stroke-width="0.5"/>
  <line x1="0" y1="208.8" x2="500" y2="208.8" stroke="#eee" stroke-width="0.5"/>
  <line x1="0" y1="205.9" x2="500" y2="205.9" stroke="#eee" stroke-width="0.5"/>
  <line x1="0" y1="202.9" x2="500" y2="202.9" stroke="#eee" stroke-width="0.5"/>
  <line x1="0" y1="200.0" x2="500" y2="200.0" stroke="#eee" stroke-width="0.5"/>
  <line x1="0" y1="197.1" x2="500" y2="197.1" stroke="#eee" stroke-width="0.5"/>
  <line x1="0" y1="194.1" x2="500" y2="194.1" stroke="#eee" stroke-width="0.5"/>
  <line x1="0" y1="191.2" x2="500" y2="191.2" stroke="#eee" stroke-width="0.5"/>
  <line x1="0" y1="188.2" x2="500" y2="188.2" stroke="#eee" stroke-width="0.5"/>
  <line x1="0" y1="185.3" x2="500" y2="185.3" stroke="#eee" stroke-width="0.5"/>
  <line x1="0" y1="182.4" x2="500" y2="182.4" stroke="#eee" stroke-width="0.5"/>
  <line x1="0" y1="179.4" x2="500" y2="179.4" stroke="#eee" stroke-width="0.5"/>
  <line x1="0" y1="176.5" x2="500" y2="176.5" stroke="#eee" stroke-width="0.5"/>
  <line x1="0" y1="173.5" x2="500" y2="173.5" stroke="#eee" stroke-width="0.5"/>
  <line x1="0" y1="170.6" x2="500" y2="170.6" stroke="#eee" stroke-width="0.5"/>
  <line x1="0" y1="167.6" x2="500" y2="167.6" stroke="#eee" stroke-width="0.5"/>
  <line x1="0" y1="164.7" x2="500" y2="164.7" stroke="#eee" stroke-width="0.5"/>
  <line x1="0" y1="161.8" x2="500" y2="161.8" stroke="#eee" stroke-width="0.5"/>
  <line x1="0" y1="158.8" x2="500" y2="158.8" stroke="#eee" stroke-width="0.5"/>
  <line x1="0" y1="155.9" x2="500" y2="155.9" stroke="#eee" stroke-width="0.5"/>
  <line x1="0" y1="152.9" x2="500" y2="152.9" stroke="#eee" stroke-width="0.5"/>
  <line x1="0" y1="150.0" x2="500" y2="150.0" stroke="#eee" stroke-width="0.5"/>
  <line x1="0" y1="147.1" x2="500" y2="147.1" stroke="#eee" stroke-width="0.5"/>
  <line x1="0" y1="144.1" x2="500" y2="144.1" stroke="#eee" stroke-width="0.5"/>
  <line x1="0" y1="141.2" x2="500" y2="141.2" stroke="#eee" stroke-width="0.5"/>
  <line x1="0" y1="138.2" x2="500" y2="138.2" stroke="#eee" stroke-width="0.5"/>
  <line x1="0" y1="135.3" x2="500" y2="135.3" stroke="#eee" stroke-width="0.5"/>
  <line x1="0" y1="132.4" x2="500" y2="132.4" stroke="#eee" stroke-width="0.5"/>
  <line x1="0" y1="129.4" x2="500" y2="129.4" stroke="#eee" stroke-width="0.5"/>
  <line x1="0" y1="126.5" x2="500" y2="126.5" stroke="#eee" stroke-width="0.5"/>
  <line x1="0" y1="123.5" x2="500" y2="123.5" stroke="#eee" stroke-width="0.5"/>
  <line x1="0" y1="120.6" x2="500" y2="120.6" stroke="#eee" stroke-width="0.5"/>
  <line x1="0" y1="117.6" x2="500" y2="117.6" stroke="#eee" stroke-width="0.5"/>
  <line x1="0" y1="114.7" x2="500" y2="114.7" stroke="#eee" stroke-width="0.5"/>
  <line x1="0" y1="111.8" x2="500" y2="111.8" stroke="#eee" stroke-width="0.5"/>
  <line x1="0" y1="108.8" x2="500" y2="108.8" stroke="#eee" stroke-width="0.5"/>
  <line x1="0" y1="105.9" x2="500" y2="105.9" stroke="#eee" stroke-width="0.5"/>
  <line x1="0" y1="102.9" x2="500" y2="102.9" stroke="#eee" stroke-width="0.5"/>
  <line x1="0" y1="100.0" x2="500" y2="100.0" stroke="#eee" stroke-width="0.5"/>
  <line x1="0" y1="97.1" x2="500" y2="97.1" stroke="#eee" stroke-width="0.5"/>
  <line x1="0" y1="94.1" x2="500" y2="94.1" stroke="#eee" stroke-width="0.5"/>
  <line x1="0" y1="91.2" x2="500" y2="91.2" stroke="#eee" stroke-width="0.5"/>
  <line x1="0" y1="88.2" x2="500" y2="88.2" stroke="#eee" stroke-width="0.5"/>
  <line x1="0" y1="85.3" x2="500" y2="85.3" stroke="#eee" stroke-width="0.5"/>
  <line x1="0" y1="82.4" x2="500" y2="82.4" stroke="#eee" stroke-width="0.5"/>
  <line x1="0" y1="79.4" x2="500" y2="79.4" stroke="#eee" stroke-width="0.5"/>
  <line x1="0" y1="76.5" x2="500" y2="76.5" stroke="#eee" stroke-width="0.5"/>
  <line x1="0" y1="73.5" x2="500" y2="73.5" stroke="#eee" stroke-width="0.5"/>
  <line x1="0" y1="70.6" x2="500" y2="70.6" stroke="#eee" stroke-width="0.5"/>
  <line x1="0" y1="67.6" x2="500" y2="67.6" stroke="#eee" stroke-width="0.5"/>
  <line x1="0" y1="64.7" x2="500" y2="64.7" stroke="#eee" stroke-width="0.5"/>
  <line x1="0" y1="61.8" x2="500" y2="61.8" stroke="#eee" stroke-width="0.5"/>
  <line x1="0" y1="58.8" x2="500" y2="58.8" stroke="#eee" stroke-width="0.5"/>
  <line x1="0" y1="55.9" x2="500" y2="55.9" stroke="#eee" stroke-width="0.5"/>
  <line x1="0" y1="52.9" x2="500" y2="52.9" stroke="#eee" stroke-width="0.5"/>
  <line x1="0" y1="50.0" x2="500" y2="50.0" stroke="#eee" stroke-width="0.5"/>
  <line x1="0" y1="47.1" x2="500" y2="47.1" stroke="#eee" stroke-width="0.5"/>
  <line x1="0" y1="44.1" x2="500" y2="44.1" stroke="#eee" stroke-width="0.5"/>
  <line x1="0" y1="41.2" x2="500" y2="41.2" stroke="#eee" stroke-width="0.5"/>
  <line x1="0" y1="38.2" x2="500" y2="38.2" stroke="#eee" stroke-width="0.5"/>
  <line x1="0" y1="35.3" x2="500" y2="35.3" stroke="#eee" stroke-width="0.5"/>
  <line x1="0" y1="32.4" x2="500" y2="32.4" stroke="#eee" stroke-width="0.5"/>
  <line x1="0" y1="29.4" x2="500" y2="29.4" stroke="#eee" stroke-width="0.5"/>
  <line x1="0" y1="26.5" x2="500" y2="26.5" stroke="#eee" stroke-width="0.5"/>
  <line x1="0" y1="23.5" x2="500" y2="23.5" stroke="#eee" stroke-width="0.5"/>
  <line x1="0" y1="20.6" x2="500" y2="20.6" stroke="#eee" stroke-width="0.5"/>
  <line x1="0" y1="17.6" x2="500" y2="17.6" stroke="#eee" stroke-width="0.5"/>
  <line x1="0" y1="14.7" x2="500" y2="14.7" stroke="#eee" stroke-width="0.5"/>
  <line x1="0" y1="11.8" x2="500" y2="11.8" stroke="#eee" stroke-width="0.5"/>
  <line x1="0" y1="8.8" x2="500" y2="8.8" stroke="#eee" stroke-width="0.5"/>
  <line x1="0" y1="5.9" x2="500" y2="5.9" stroke="#eee" stroke-width="0.5"/>
  <line x1="0" y1="2.9" x2="500" y2="2.9" stroke="#eee" stroke-width="0.5"/>
  <line x1="0" y1="0.0" x2="500" y2="0.0" stroke="#eee" stroke-width="0.5"/>
  <line x1="0" y1="200.0" x2="500" y2="200.0" stroke="#555" stroke-width="1" marker-end="url(#ah)"/>
  <line x1="250.0" y1="400" x2="250.0" y2="0" stroke="#555" stroke-width="1" marker-end="url(#ah)"/>
  <text x="0.0" y="214.0" text-anchor="middle" font-size="10" fill="#888">-5</text>
  <text x="50.0" y="214.0" text-anchor="middle" font-size="10" fill="#888">-4</text>
  <text x="100.0" y="214.0" text-anchor="middle" font-size="10" fill="#888">-3</text>
  <text x="150.0" y="214.0" text-anchor="middle" font-size="10" fill="#888">-2</text>
  <text x="200.0" y="214.0" text-anchor="middle" font-size="10" fill="#888">-1</text>
  <text x="300.0" y="214.0" text-anchor="middle" font-size="10" fill="#888">1</text>
  <text x="350.0" y="214.0" text-anchor="middle" font-size="10" fill="#888">2</text>
  <text x="400.0" y="214.0" text-anchor="middle" font-size="10" fill="#888">3</text>
  <text x="450.0" y="214.0" text-anchor="middle" font-size="10" fill="#888">4</text>
  <text x="500.0" y="214.0" text-anchor="middle" font-size="10" fill="#888">5</text>
  <text x="244.0" y="404.0" text-anchor="end" font-size="10" fill="#888">-68</text>
  <text x="244.0" y="401.1" text-anchor="end" font-size="10" fill="#888">-67</text>
  <text x="244.0" y="398.1" text-anchor="end" font-size="10" fill="#888">-66</text>
  <text x="244.0" y="395.2" text-anchor="end" font-size="10" fill="#888">-65</text>
  <text x="244.0" y="392.2" text-anchor="end" font-size="10" fill="#888">-64</text>
  <text x="244.0" y="389.3" text-anchor="end" font-size="10" fill="#888">-63</text>
  <text x="244.0" y="386.4" text-anchor="end" font-size="10" fill="#888">-62</text>
  <text x="244.0" y="383.4" text-anchor="end" font-size="10" fill="#888">-61</text>
  <text x="244.0" y="380.5" text-anchor="end" font-size="10" fill="#888">-60</text>
  <text x="244.0" y="377.5" text-anchor="end" font-size="10" fill="#888">-59</text>
  <text x="244.0" y="374.6" text-anchor="end" font-size="10" fill="#888">-58</text>
  <text x="244.0" y="371.6" text-anchor="end" font-size="10" fill="#888">-57</text>
  <text x="244.0" y="368.7" text-anchor="end" font-size="10" fill="#888">-56</text>
  <text x="244.0" y="365.8" text-anchor="end" font-size="10" fill="#888">-55</text>
  <text x="244.0" y="362.8" text-anchor="end" font-size="10" fill="#888">-54</text>
  <text x="244.0" y="359.9" text-anchor="end" font-size="10" fill="#888">-53</text>
  <text x="244.0" y="356.9" text-anchor="end" font-size="10" fill="#888">-52</text>
  <text x="244.0" y="354.0" text-anchor="end" font-size="10" fill="#888">-51</text>
  <text x="244.0" y="351.1" text-anchor="end" font-size="10" fill="#888">-50</text>
  <text x="244.0" y="348.1" text-anchor="end" font-size="10" fill="#888">-49</text>
  <text x="244.0" y="345.2" text-anchor="end" font-size="10" fill="#888">-48</text>
  <text x="244.0" y="342.2" text-anchor="end" font-size="10" fill="#888">-47</text>
  <text x="244.0" y="339.3" text-anchor="end" font-size="10" fill="#888">-46</text>
  <text x="244.0" y="336.4" text-anchor="end" font-size="10" fill="#888">-45</text>
  <text x="244.0" y="333.4" text-anchor="end" font-size="10" fill="#888">-44</text>
  <text x="244.0" y="330.5" text-anchor="end" font-size="10" fill="#888">-43</text>
  <text x="244.0" y="327.5" text-anchor="end" font-size="10" fill="#888">-42</text>
  <text x="244.0" y="324.6" text-anchor="end" font-size="10" fill="#888">-41</text>
  <text x="244.0" y="321.6" text-anchor="end" font-size="10" fill="#888">-40</text>
  <text x="244.0" y="318.7" text-anchor="end" font-size="10" fill="#888">-39</text>
  <text x="244.0" y="315.8" text-anchor="end" font-size="10" fill="#888">-38</text>
  <text x="244.0" y="312.8" text-anchor="end" font-size="10" fill="#888">-37</text>
  <text x="244.0" y="309.9" text-anchor="end" font-size="10" fill="#888">-36</text>
  <text x="244.0" y="306.9" text-anchor="end" font-size="10" fill="#888">-35</text>
  <text x="244.0" y="304.0" text-anchor="end" font-size="10" fill="#888">-34</text>
  <text x="244.0" y="301.1" text-anchor="end" font-size="10" fill="#888">-33</text>
  <text x="244.0" y="298.1" text-anchor="end" font-size="10" fill="#888">-32</text>
  <text x="244.0" y="295.2" text-anchor="end" font-size="10" fill="#888">-31</text>
  <text x="244.0" y="292.2" text-anchor="end" font-size="10" fill="#888">-30</text>
  <text x="244.0" y="289.3" text-anchor="end" font-size="10" fill="#888">-29</text>
  <text x="244.0" y="286.4" text-anchor="end" font-size="10" fill="#888">-28</text>
  <text x="244.0" y="283.4" text-anchor="end" font-size="10" fill="#888">-27</text>
  <text x="244.0" y="280.5" text-anchor="end" font-size="10" fill="#888">-26</text>
  <text x="244.0" y="277.5" text-anchor="end" font-size="10" fill="#888">-25</text>
  <text x="244.0" y="274.6" text-anchor="end" font-size="10" fill="#888">-24</text>
  <text x="244.0" y="271.6" text-anchor="end" font-size="10" fill="#888">-23</text>
  <text x="244.0" y="268.7" text-anchor="end" font-size="10" fill="#888">-22</text>
  <text x="244.0" y="265.8" text-anchor="end" font-size="10" fill="#888">-21</text>
  <text x="244.0" y="262.8" text-anchor="end" font-size="10" fill="#888">-20</text>
  <text x="244.0" y="259.9" text-anchor="end" font-size="10" fill="#888">-19</text>
  <text x="244.0" y="256.9" text-anchor="end" font-size="10" fill="#888">-18</text>
  <text x="244.0" y="254.0" text-anchor="end" font-size="10" fill="#888">-17</text>
  <text x="244.0" y="251.1" text-anchor="end" font-size="10" fill="#888">-16</text>
  <text x="244.0" y="248.1" text-anchor="end" font-size="10" fill="#888">-15</text>
  <text x="244.0" y="245.2" text-anchor="end" font-size="10" fill="#888">-14</text>
  <text x="244.0" y="242.2" text-anchor="end" font-size="10" fill="#888">-13</text>
  <text x="244.0" y="239.3" text-anchor="end" font-size="10" fill="#888">-12</text>
  <text x="244.0" y="236.4" text-anchor="end" font-size="10" fill="#888">-11</text>
  <text x="244.0" y="233.4" text-anchor="end" font-size="10" fill="#888">-10</text>
  <text x="244.0" y="230.5" text-anchor="end" font-size="10" fill="#888">-9</text>
  <text x="244.0" y="227.5" text-anchor="end" font-size="10" fill="#888">-8</text>
  <text x="244.0" y="224.6" text-anchor="end" font-size="10" fill="#888">-7</text>
  <text x="244.0" y="221.6" text-anchor="end" font-size="10" fill="#888">-6</text>
  <text x="244.0" y="218.7" text-anchor="end" font-size="10" fill="#888">-5</text>
  <text x="244.0" y="215.8" text-anchor="end" font-size="10" fill="#888">-4</text>
  <text x="244.0" y="212.8" text-anchor="end" font-size="10" fill="#888">-3</text>
  <text x="244.0" y="209.9" text-anchor="end" font-size="10" fill="#888">-2</text>
  <text x="244.0" y="206.9" text-anchor="end" font-size="10" fill="#888">-1</text>
  <text x="244.0" y="201.1" text-anchor="end" font-size="10" fill="#888">1</text>
  <text x="244.0" y="198.1" text-anchor="end" font-size="10" fill="#888">2</text>
  <text x="244.0" y="195.2" text-anchor="end" font-size="10" fill="#888">3</text>
  <text x="244.0" y="192.2" text-anchor="end" font-size="10" fill="#888">4</text>
  <text x="244.0" y="189.3" text-anchor="end" font-size="10" fill="#888">5</text>
  <text x="244.0" y="186.4" text-anchor="end" font-size="10" fill="#888">6</text>
  <text x="244.0" y="183.4" text-anchor="end" font-size="10" fill="#888">7</text>
  <text x="244.0" y="180.5" text-anchor="end" font-size="10" fill="#888">8</text>
  <text x="244.0" y="177.5" text-anchor="end" font-size="10" fill="#888">9</text>
  <text x="244.0" y="174.6" text-anchor="end" font-size="10" fill="#888">10</text>
  <text x="244.0" y="171.6" text-anchor="end" font-size="10" fill="#888">11</text>
  <text x="244.0" y="168.7" text-anchor="end" font-size="10" fill="#888">12</text>
  <text x="244.0" y="165.8" text-anchor="end" font-size="10" fill="#888">13</text>
  <text x="244.0" y="162.8" text-anchor="end" font-size="10" fill="#888">14</text>
  <text x="244.0" y="159.9" text-anchor="end" font-size="10" fill="#888">15</text>
  <text x="244.0" y="156.9" text-anchor="end" font-size="10" fill="#888">16</text>
  <text x="244.0" y="154.0" text-anchor="end" font-size="10" fill="#888">17</text>
  <text x="244.0" y="151.1" text-anchor="end" font-size="10" fill="#888">18</text>
  <text x="244.0" y="148.1" text-anchor="end" font-size="10" fill="#888">19</text>
  <text x="244.0" y="145.2" text-anchor="end" font-size="10" fill="#888">20</text>
  <text x="244.0" y="142.2" text-anchor="end" font-size="10" fill="#888">21</text>
  <text x="244.0" y="139.3" text-anchor="end" font-size="10" fill="#888">22</text>
  <text x="244.0" y="136.4" text-anchor="end" font-size="10" fill="#888">23</text>
  <text x="244.0" y="133.4" text-anchor="end" font-size="10" fill="#888">24</text>
  <text x="244.0" y="130.5" text-anchor="end" font-size="10" fill="#888">25</text>
  <text x="244.0" y="127.5" text-anchor="end" font-size="10" fill="#888">26</text>
  <text x="244.0" y="124.6" text-anchor="end" font-size="10" fill="#888">27</text>
  <text x="244.0" y="121.6" text-anchor="end" font-size="10" fill="#888">28</text>
  <text x="244.0" y="118.7" text-anchor="end" font-size="10" fill="#888">29</text>
  <text x="244.0" y="115.8" text-anchor="end" font-size="10" fill="#888">30</text>
  <text x="244.0" y="112.8" text-anchor="end" font-size="10" fill="#888">31</text>
  <text x="244.0" y="109.9" text-anchor="end" font-size="10" fill="#888">32</text>
  <text x="244.0" y="106.9" text-anchor="end" font-size="10" fill="#888">33</text>
  <text x="244.0" y="104.0" text-anchor="end" font-size="10" fill="#888">34</text>
  <text x="244.0" y="101.1" text-anchor="end" font-size="10" fill="#888">35</text>
  <text x="244.0" y="98.1" text-anchor="end" font-size="10" fill="#888">36</text>
  <text x="244.0" y="95.2" text-anchor="end" font-size="10" fill="#888">37</text>
  <text x="244.0" y="92.2" text-anchor="end" font-size="10" fill="#888">38</text>
  <text x="244.0" y="89.3" text-anchor="end" font-size="10" fill="#888">39</text>
  <text x="244.0" y="86.4" text-anchor="end" font-size="10" fill="#888">40</text>
  <text x="244.0" y="83.4" text-anchor="end" font-size="10" fill="#888">41</text>
  <text x="244.0" y="80.5" text-anchor="end" font-size="10" fill="#888">42</text>
  <text x="244.0" y="77.5" text-anchor="end" font-size="10" fill="#888">43</text>
  <text x="244.0" y="74.6" text-anchor="end" font-size="10" fill="#888">44</text>
  <text x="244.0" y="71.6" text-anchor="end" font-size="10" fill="#888">45</text>
  <text x="244.0" y="68.7" text-anchor="end" font-size="10" fill="#888">46</text>
  <text x="244.0" y="65.8" text-anchor="end" font-size="10" fill="#888">47</text>
  <text x="244.0" y="62.8" text-anchor="end" font-size="10" fill="#888">48</text>
  <text x="244.0" y="59.9" text-anchor="end" font-size="10" fill="#888">49</text>
  <text x="244.0" y="56.9" text-anchor="end" font-size="10" fill="#888">50</text>
  <text x="244.0" y="54.0" text-anchor="end" font-size="10" fill="#888">51</text>
  <text x="244.0" y="51.1" text-anchor="end" font-size="10" fill="#888">52</text>
  <text x="244.0" y="48.1" text-anchor="end" font-size="10" fill="#888">53</text>
  <text x="244.0" y="45.2" text-anchor="end" font-size="10" fill="#888">54</text>
  <text x="244.0" y="42.2" text-anchor="end" font-size="10" fill="#888">55</text>
  <text x="244.0" y="39.3" text-anchor="end" font-size="10" fill="#888">56</text>
  <text x="244.0" y="36.4" text-anchor="end" font-size="10" fill="#888">57</text>
  <text x="244.0" y="33.4" text-anchor="end" font-size="10" fill="#888">58</text>
  <text x="244.0" y="30.5" text-anchor="end" font-size="10" fill="#888">59</text>
  <text x="244.0" y="27.5" text-anchor="end" font-size="10" fill="#888">60</text>
  <text x="244.0" y="24.6" text-anchor="end" font-size="10" fill="#888">61</text>
  <text x="244.0" y="21.6" text-anchor="end" font-size="10" fill="#888">62</text>
  <text x="244.0" y="18.7" text-anchor="end" font-size="10" fill="#888">63</text>
  <text x="244.0" y="15.8" text-anchor="end" font-size="10" fill="#888">64</text>
  <text x="244.0" y="12.8" text-anchor="end" font-size="10" fill="#888">65</text>
  <text x="244.0" y="9.9" text-anchor="end" font-size="10" fill="#888">66</text>
  <text x="244.0" y="6.9" text-anchor="end" font-size="10" fill="#888">67</text>
  <text x="244.0" y="4.0" text-anchor="end" font-size="10" fill="#888">68</text>
  <text x="242.0" y="214.0" font-size="10" fill="#888">0</text>
  <polyline points="50.0,352.9 51.3,349.4 52.7,346.0 54.0,342.6 55.3,339.2 56.7,335.9 58.0,332.7 59.3,329.4 60.7,326.3 62.0,323.2 63.3,320.1 64.7,317.1 66.0,314.1 67.3,311.2 68.7,308.3 70.0,305.5 71.3,302.7 72.7,299.9 74.0,297.2 75.3,294.6 76.7,291.9 78.0,289.4 79.3,286.8 80.7,284.4 82.0,281.9 83.3,279.5 84.7,277.2 86.0,274.8 87.3,272.6 88.7,270.3 90.0,268.1 91.3,266.0 92.7,263.9 94.0,261.8 95.3,259.8 96.7,257.8 98.0,255.8 99.3,253.9 100.7,252.0 102.0,250.2 103.3,248.4 104.7,246.6 106.0,244.8 107.3,243.1 108.7,241.5 110.0,239.9 111.3,238.3 112.7,236.7 114.0,235.2 115.3,233.7 116.7,232.2 118.0,230.8 119.3,229.4 120.7,228.1 122.0,226.8 123.3,225.5 124.7,224.2 126.0,223.0 127.3,221.8 128.7,220.6 130.0,219.5 131.3,218.4 132.7,217.3 134.0,216.3 135.3,215.2 136.7,214.3 138.0,213.3 139.3,212.4 140.7,211.5 142.0,210.6 143.3,209.7 144.7,208.9 146.0,208.1 147.3,207.3 148.7,206.6 150.0,205.9 151.3,205.2 152.7,204.5 154.0,203.9 155.3,203.3 156.7,202.7 158.0,202.1 159.3,201.5 160.7,201.0 162.0,200.5 163.3,200.0 164.7,199.6 166.0,199.1 167.3,198.7 168.7,198.3 170.0,197.9 171.3,197.6 172.7,197.2 174.0,196.9 175.3,196.6 176.7,196.3 178.0,196.1 179.3,195.8 180.7,195.6 182.0,195.4 183.3,195.2 184.7,195.0 186.0,194.9 187.3,194.7 188.7,194.6 190.0,194.5 191.3,194.4 192.7,194.3 194.0,194.2 195.3,194.2 196.7,194.2 198.0,194.1 199.3,194.1 200.7,194.1 202.0,194.1 203.3,194.2 204.7,194.2 206.0,194.2 207.3,194.3 208.7,194.4 210.0,194.4 211.3,194.5 212.7,194.6 214.0,194.7 215.3,194.9 216.7,195.0 218.0,195.1 219.3,195.3 220.7,195.4 222.0,195.6 223.3,195.7 224.7,195.9 226.0,196.1 227.3,196.3 228.7,196.5 230.0,196.7 231.3,196.9 232.7,197.1 234.0,197.3 235.3,197.5 236.7,197.7 238.0,197.9 239.3,198.1 240.7,198.4 242.0,198.6 243.3,198.8 244.7,199.1 246.0,199.3 247.3,199.5 248.7,199.8 250.0,200.0 251.3,200.2 252.7,200.5 254.0,200.7 255.3,200.9 256.7,201.2 258.0,201.4 259.3,201.6 260.7,201.9 262.0,202.1 263.3,202.3 264.7,202.5 266.0,202.7 267.3,202.9 268.7,203.1 270.0,203.3 271.3,203.5 272.7,203.7 274.0,203.9 275.3,204.1 276.7,204.3 278.0,204.4 279.3,204.6 280.7,204.7 282.0,204.9 283.3,205.0 284.7,205.1 286.0,205.3 287.3,205.4 288.7,205.5 290.0,205.6 291.3,205.6 292.7,205.7 294.0,205.8 295.3,205.8 296.7,205.8 298.0,205.9 299.3,205.9 300.7,205.9 302.0,205.9 303.3,205.8 304.7,205.8 306.0,205.8 307.3,205.7 308.7,205.6 310.0,205.5 311.3,205.4 312.7,205.3 314.0,205.1 315.3,205.0 316.7,204.8 318.0,204.6 319.3,204.4 320.7,204.2 322.0,203.9 323.3,203.7 324.7,203.4 326.0,203.1 327.3,202.8 328.7,202.4 330.0,202.1 331.3,201.7 332.7,201.3 334.0,200.9 335.3,200.4 336.7,200.0 338.0,199.5 339.3,199.0 340.7,198.5 342.0,197.9 343.3,197.3 344.7,196.7 346.0,196.1 347.3,195.5 348.7,194.8 350.0,194.1 351.3,193.4 352.7,192.7 354.0,191.9 355.3,191.1 356.7,190.3 358.0,189.4 359.3,188.5 360.7,187.6 362.0,186.7 363.3,185.7 364.7,184.8 366.0,183.7 367.3,182.7 368.7,181.6 370.0,180.5 371.3,179.4 372.7,178.2 374.0,177.0 375.3,175.8 376.7,174.5 378.0,173.2 379.3,171.9 380.7,170.6 382.0,169.2 383.3,167.8 384.7,166.3 386.0,164.8 387.3,163.3 388.7,161.7 390.0,160.1 391.3,158.5 392.7,156.9 394.0,155.2 395.3,153.4 396.7,151.6 398.0,149.8 399.3,148.0 400.7,146.1 402.0,144.2 403.3,142.2 404.7,140.2 406.0,138.2 407.3,136.1 408.7,134.0 410.0,131.9 411.3,129.7 412.7,127.4 414.0,125.2 415.3,122.8 416.7,120.5 418.0,118.1 419.3,115.6 420.7,113.2 422.0,110.6 423.3,108.1 424.7,105.4 426.0,102.8 427.3,100.1 428.7,97.3 430.0,94.5 431.3,91.7 432.7,88.8 434.0,85.9 435.3,82.9 436.7,79.9 438.0,76.8 439.3,73.7 440.7,70.6 442.0,67.3 443.3,64.1 444.7,60.8 446.0,57.4 447.3,54.0 448.7,50.6 450.0,47.1" fill="none" stroke="#2980b9" stroke-width="2.5"/>
  <polyline points="50.0,67.6 51.3,69.5 52.7,71.4 54.0,73.2 55.3,75.1 56.7,76.9 58.0,78.7 59.3,80.5 60.7,82.3 62.0,84.1 63.3,85.8 64.7,87.6 66.0,89.3 67.3,91.1 68.7,92.8 70.0,94.5 71.3,96.2 72.7,97.8 74.0,99.5 75.3,101.1 76.7,102.8 78.0,104.4 79.3,106.0 80.7,107.6 82.0,109.2 83.3,110.8 84.7,112.3 86.0,113.9 87.3,115.4 88.7,117.0 90.0,118.5 91.3,120.0 92.7,121.5 94.0,122.9 95.3,124.4 96.7,125.8 98.0,127.3 99.3,128.7 100.7,130.1 102.0,131.5 103.3,132.9 104.7,134.3 106.0,135.6 107.3,137.0 108.7,138.3 110.0,139.6 111.3,141.0 112.7,142.3 114.0,143.5 115.3,144.8 116.7,146.1 118.0,147.3 119.3,148.6 120.7,149.8 122.0,151.0 123.3,152.2 124.7,153.4 126.0,154.6 127.3,155.7 128.7,156.9 130.0,158.0 131.3,159.1 132.7,160.2 134.0,161.3 135.3,162.4 136.7,163.5 138.0,164.6 139.3,165.6 140.7,166.6 142.0,167.7 143.3,168.7 144.7,169.7 146.0,170.6 147.3,171.6 148.7,172.6 150.0,173.5 151.3,174.5 152.7,175.4 154.0,176.3 155.3,177.2 156.7,178.1 158.0,179.0 159.3,179.8 160.7,180.7 162.0,181.5 163.3,182.3 164.7,183.1 166.0,183.9 167.3,184.7 168.7,185.5 170.0,186.2 171.3,187.0 172.7,187.7 174.0,188.4 175.3,189.1 176.7,189.8 178.0,190.5 179.3,191.2 180.7,191.9 182.0,192.5 183.3,193.1 184.7,193.8 186.0,194.4 187.3,195.0 188.7,195.5 190.0,196.1 191.3,196.7 192.7,197.2 194.0,197.8 195.3,198.3 196.7,198.8 198.0,199.3 199.3,199.8 200.7,200.2 202.0,200.7 203.3,201.1 204.7,201.6 206.0,202.0 207.3,202.4 208.7,202.8 210.0,203.2 211.3,203.5 212.7,203.9 214.0,204.2 215.3,204.6 216.7,204.9 218.0,205.2 219.3,205.5 220.7,205.8 222.0,206.1 223.3,206.3 224.7,206.6 226.0,206.8 227.3,207.0 228.7,207.2 230.0,207.4 231.3,207.6 232.7,207.8 234.0,207.9 235.3,208.1 236.7,208.2 238.0,208.3 239.3,208.4 240.7,208.5 242.0,208.6 243.3,208.7 244.7,208.7 246.0,208.8 247.3,208.8 248.7,208.8 250.0,208.8 251.3,208.8 252.7,208.8 254.0,208.8 255.3,208.7 256.7,208.7 258.0,208.6 259.3,208.5 260.7,208.4 262.0,208.3 263.3,208.2 264.7,208.1 266.0,207.9 267.3,207.8 268.7,207.6 270.0,207.4 271.3,207.2 272.7,207.0 274.0,206.8 275.3,206.6 276.7,206.3 278.0,206.1 279.3,205.8 280.7,205.5 282.0,205.2 283.3,204.9 284.7,204.6 286.0,204.2 287.3,203.9 288.7,203.5 290.0,203.2 291.3,202.8 292.7,202.4 294.0,202.0 295.3,201.6 296.7,201.1 298.0,200.7 299.3,200.2 300.7,199.8 302.0,199.3 303.3,198.8 304.7,198.3 306.0,197.8 307.3,197.2 308.7,196.7 310.0,196.1 311.3,195.5 312.7,195.0 314.0,194.4 315.3,193.8 316.7,193.1 318.0,192.5 319.3,191.9 320.7,191.2 322.0,190.5 323.3,189.8 324.7,189.1 326.0,188.4 327.3,187.7 328.7,187.0 330.0,186.2 331.3,185.5 332.7,184.7 334.0,183.9 335.3,183.1 336.7,182.3 338.0,181.5 339.3,180.7 340.7,179.8 342.0,179.0 343.3,178.1 344.7,177.2 346.0,176.3 347.3,175.4 348.7,174.5 350.0,173.5 351.3,172.6 352.7,171.6 354.0,170.6 355.3,169.7 356.7,168.7 358.0,167.7 359.3,166.6 360.7,165.6 362.0,164.6 363.3,163.5 364.7,162.4 366.0,161.3 367.3,160.2 368.7,159.1 370.0,158.0 371.3,156.9 372.7,155.7 374.0,154.6 375.3,153.4 376.7,152.2 378.0,151.0 379.3,149.8 380.7,148.6 382.0,147.3 383.3,146.1 384.7,144.8 386.0,143.5 387.3,142.3 388.7,141.0 390.0,139.6 391.3,138.3 392.7,137.0 394.0,135.6 395.3,134.3 396.7,132.9 398.0,131.5 399.3,130.1 400.7,128.7 402.0,127.3 403.3,125.8 404.7,124.4 406.0,122.9 407.3,121.5 408.7,120.0 410.0,118.5 411.3,117.0 412.7,115.4 414.0,113.9 415.3,112.3 416.7,110.8 418.0,109.2 419.3,107.6 420.7,106.0 422.0,104.4 423.3,102.8 424.7,101.1 426.0,99.5 427.3,97.8 428.7,96.2 430.0,94.5 431.3,92.8 432.7,91.1 434.0,89.3 435.3,87.6 436.7,85.8 438.0,84.1 439.3,82.3 440.7,80.5 442.0,78.7 443.3,76.9 444.7,75.1 446.0,73.2 447.3,71.4 448.7,69.5 450.0,67.6" fill="none" stroke="#e74c3c" stroke-width="2.5" stroke-dasharray="8,4"/>
  <circle cx="200.0" cy="194.1" r="4.5" fill="#e74c3c" stroke="white" stroke-width="1.5"/>
  <text x="208.0" y="186.1" font-size="11" fill="#333">x=-1.0</text>
  <circle cx="300.0" cy="205.9" r="4.5" fill="#e74c3c" stroke="white" stroke-width="1.5"/>
  <text x="308.0" y="197.9" font-size="11" fill="#333">x=1.0</text>
  <circle cx="200.0" cy="194.1" r="4.5" fill="#e74c3c" stroke="white" stroke-width="1.5"/>
  <circle cx="300.0" cy="205.9" r="4.5" fill="#e74c3c" stroke="white" stroke-width="1.5"/>
  <text x="215.0" y="195.6" font-size="12" fill="#2c3e50" font-style="italic">макс: (-1.0, 2.0)</text>
  <text x="315.0" y="207.4" font-size="12" fill="#2c3e50" font-style="italic">мин: (1.0, -2.0)</text>
</svg>