<svg xmlns="http://www.w3.org/2000/svg" width="400" height="400" viewBox="0 0 400 400" style="background:white;font-family:sans-serif">
  <defs>
    <marker id="ah" markerWidth="8" markerHeight="6" refX="8" refY="3" orient="auto">
      <path d="M0,0 L8,3 L0,6" fill="#555"/></marker>
  </defs>
  <line x1="0.0" y1="0" x2="0.0" y2="400" stroke="#eee" stroke-width="0.5"/>
  <line x1="57.1" y1="0" x2="57.1" y2="400" stroke="#eee" stroke-width="0.5"/>
  <line x1="114.3" y1="0" x2="114.3" y2="400" stroke="#eee" stroke-width="0.5"/>
  <line x1="171.4" y1="0" x2="171.4" y2="400" stroke="#eee" stroke-width="0.5"/>
  <line x1="228.6" y1="0" x2="228.6" y2="400" stroke="#eee" stroke-width="0.5"/>
  <line x1="285.7" y1="0" x2="285.7" y2="400" stroke="#eee" stroke-width="0.5"/>
  <line x1="342.9" y1="0" x2="342.9" y2="400" stroke="#eee" stroke-width="0.5"/>
  <line x1="400.0" y1="0" x2="400.0" y2="400" stroke="#eee" stroke-width="0.5"/>
  <line x1="0" y1="400.0" x2="400" y2="400.0" stroke="#eee" stroke-width="0.5"/>
  <line x1="0" y1="369.2" x2="400" y2="369.2" stroke="#eee" stroke-width="0.5"/>
  <line x1="0" y1="338.5" x2="400" y2="338.5" stroke="#eee" stroke-width="0.5"/>
  <line x1="0" y1="307.7" x2="400" y2="307.7" stroke="#eee" stroke-width="0.5"/>
  <line x1="0" y1="276.9" x2="400" y2="276.9" stroke="#eee" stroke-width="0.5"/>
  <line x1="0" y1="246.2" x2="400" y2="246.2" stroke="#eee" stroke-width="0.5"/>
  <line x1="0" y1="215.4" x2="400" y2="215.4" stroke="#eee" stroke-width="0.5"/>
  <line x1="0" y1="184.6" x2="400" y2="184.6" stroke="#eee" stroke-width="0.5"/>
  <line x1="0" y1="153.8" x2="400" y2="153.8" stroke="#eee" stroke-width="0.5"/>
  <line x1="0" y1="123.1" x2="400" y2="123.1" stroke="#eee" stroke-width="0.5"/>
  <line x1="0" y1="92.3" x2="400" y2="92.3" stroke="#eee" stroke-width="0.5"/>
  <line x1="0" y1="61.5" x2="400" y2="61.5" stroke="#eee" stroke-width="0.5"/>
  <line x1="0" y1="30.8" x2="400" y2="30.8" stroke="#eee" stroke-width="0.5"/>
  <line x1="0" y1="0.0" x2="400" y2="0.0" stroke="#eee" stroke-width="0.5"/>
  <line x1="0" y1="184.6" x2="400" y2="184.6" stroke="#555" stroke-width="1" marker-end="url(#ah)"/>
  <line x1="57.1" y1="400" x2="57.1" y2="0" stroke="#555" stroke-width="1" marker-end="url(#ah)"/>
  <text x="0.0" y="198.6" text-anchor="middle" font-size="10" fill="#888">-1</text>
  <text x="114.3" y="198.6" text-anchor="middle" font-size="10" fill="#888">1</text>
  <text x="171.4" y="198.6" text-anchor="middle" font-size="10" fill="#888">2</text>
  <text x="228.6" y="198.6" text-anchor="middle" font-size="10" fill="#888">3</text>
  <text x="285.7" y="198.6" text-anchor="middle" font-size="10" fill="#888">4</text>
  <text x="342.9" y="198.6" text-anchor="middle" font-size="10" fill="#888">5</text>
  <text x="400.0" y="198.6" text-anchor="middle" font-size="10" fill="#888">6</text>
  <text x="51.1" y="404.0" text-anchor="end" font-size="10" fill="#888">-7</text>
  <text x="51.1" y="373.2" text-anchor="end" font-size="10" fill="#888">-6</text>
  <text x="51.1" y="342.5" text-anchor="end" font-size="10" fill="#888">-5</text>
  <text x="51.1" y="311.7" text-anchor="end" font-size="10" fill="#888">-4</text>
  <text x="51.1" y="280.9" text-anchor="end" font-size="10" fill="#888">-3</text>
  <text x="51.1" y="250.2" text-anchor="end" font-size="10" fill="#888">-2</text>
  <text x="51.1" y="219.4" text-anchor="end" font-size="10" fill="#888">-1</text>
  <text x="51.1" y="157.8" text-anchor="end" font-size="10" fill="#888">1</text>
  <text x="51.1" y="127.1" text-anchor="end" font-size="10" fill="#888">2</text>
  <text x="51.1" y="96.3" text-anchor="end" font-size="10" fill="#888">3</text>
  <text x="51.1" y="65.5" text-anchor="end" font-size="10" fill="#888">4</text>
  <text x="51.1" y="34.8" text-anchor="end" font-size="10" fill="#888">5</text>
  <text x="51.1" y="4.0" text-anchor="end" font-size="10" fill="#888">6</text>
  <text x="49.1" y="198.6" font-size="10" fill="#888">0</text>
  <polyline points="57.1,338.5 58.1,335.4 59.0,332.3 60.0,329.3 61.0,326.3 61.9,323.3 62.9,320.3 63.8,317.3 64.8,314.4 65.7,311.5 66.7,308.5 67.6,305.6 68.6,302.8 69.5,299.9 70.5,297.1 71.4,294.2 72.4,291.4 73.3,288.6 74.3,285.8 75.2,283.1 76.2,280.3 77.1,277.6 78.1,274.9 79.0,272.2 80.0,269.5 81.0,266.9 81.9,264.2 82.9,261.6 83.8,259.0 84.8,256.4 85.7,253.8 86.7,251.3 87.6,248.8 88.6,246.2 89.5,243.7 90.5,241.2 91.4,238.8 92.4,236.3 93.3,233.9 94.3,231.5 95.2,229.1 96.2,226.7 97.1,224.3 98.1,222.0 99.0,219.6 100.0,217.3 101.0,215.0 101.9,212.7 102.9,210.5 103.8,208.2 104.8,206.0 105.7,203.8 106.7,201.6 107.6,199.4 108.6,197.2 109.5,195.1 110.5,193.0 111.4,190.8 112.4,188.8 113.3,186.7 114.3,184.6 115.2,182.6 116.2,180.5 117.1,178.5 118.1,176.5 119.0,174.6 120.0,172.6 121.0,170.7 121.9,168.8 122.9,166.8 123.8,165.0 124.8,163.1 125.7,161.2 126.7,159.4 127.6,157.6 128.6,155.8 129.5,154.0 130.5,152.2 131.4,150.5 132.4,148.7 133.3,147.0 134.3,145.3 135.2,143.6 136.2,142.0 137.1,140.3 138.1,138.7 139.0,137.1 140.0,135.5 141.0,133.9 141.9,132.3 142.9,130.8 143.8,129.2 144.8,127.7 145.7,126.2 146.7,124.8 147.6,123.3 148.6,121.8 149.5,120.4 150.5,119.0 151.4,117.6 152.4,116.2 153.3,114.9 154.3,113.5 155.2,112.2 156.2,110.9 157.1,109.6 158.1,108.3 159.0,107.1 160.0,105.8 161.0,104.6 161.9,103.4 162.9,102.2 163.8,101.1 164.8,99.9 165.7,98.8 166.7,97.6 167.6,96.5 168.6,95.5 169.5,94.4 170.5,93.3 171.4,92.3 172.4,91.3 173.3,90.3 174.3,89.3 175.2,88.3 176.2,87.4 177.1,86.5 178.1,85.5 179.0,84.6 180.0,83.8 181.0,82.9 181.9,82.1 182.9,81.2 183.8,80.4 184.8,79.6 185.7,78.8 186.7,78.1 187.6,77.3 188.6,76.6 189.5,75.9 190.5,75.2 191.4,74.5 192.4,73.9 193.3,73.2 194.3,72.6 195.2,72.0 196.2,71.4 197.1,70.8 198.1,70.3 199.0,69.8 200.0,69.2 201.0,68.7 201.9,68.2 202.9,67.8 203.8,67.3 204.8,66.9 205.7,66.5 206.7,66.1 207.6,65.7 208.6,65.3 209.5,65.0 210.5,64.6 211.4,64.3 212.4,64.0 213.3,63.7 214.3,63.5 215.2,63.2 216.2,63.0 217.1,62.8 218.1,62.6 219.0,62.4 220.0,62.2 221.0,62.1 221.9,62.0 222.9,61.8 223.8,61.8 224.8,61.7 225.7,61.6 226.7,61.6 227.6,61.5 228.6,61.5 229.5,61.5 230.5,61.6 231.4,61.6 232.4,61.7 233.3,61.8 234.3,61.8 235.2,62.0 236.2,62.1 237.1,62.2 238.1,62.4 239.0,62.6 240.0,62.8 241.0,63.0 241.9,63.2 242.9,63.5 243.8,63.7 244.8,64.0 245.7,64.3 246.7,64.6 247.6,65.0 248.6,65.3 249.5,65.7 250.5,66.1 251.4,66.5 252.4,66.9 253.3,67.3 254.3,67.8 255.2,68.2 256.2,68.7 257.1,69.2 258.1,69.8 259.0,70.3 260.0,70.8 261.0,71.4 261.9,72.0 262.9,72.6 263.8,73.2 264.8,73.9 265.7,74.5 266.7,75.2 267.6,75.9 268.6,76.6 269.5,77.3 270.5,78.1 271.4,78.8 272.4,79.6 273.3,80.4 274.3,81.2 275.2,82.1 276.2,82.9 277.1,83.8 278.1,84.6 279.0,85.5 280.0,86.5 281.0,87.4 281.9,88.3 282.9,89.3 283.8,90.3 284.8,91.3 285.7,92.3 286.7,93.3 287.6,94.4 288.6,95.5 289.5,96.5 290.5,97.6 291.4,98.8 292.4,99.9 293.3,101.1 294.3,102.2 295.2,103.4 296.2,104.6 297.1,105.8 298.1,107.1 299.0,108.3 300.0,109.6 301.0,110.9 301.9,112.2 302.9,113.5 303.8,114.9 304.8,116.2 305.7,117.6 306.7,119.0 307.6,120.4 308.6,121.8 309.5,123.3 310.5,124.8 311.4,126.2 312.4,127.7 313.3,129.2 314.3,130.8 315.2,132.3 316.2,133.9 317.1,135.5 318.1,137.1 319.0,138.7 320.0,140.3 321.0,142.0 321.9,143.6 322.9,145.3 323.8,147.0 324.8,148.7 325.7,150.5 326.7,152.2 327.6,154.0 328.6,155.8 329.5,157.6 330.5,159.4 331.4,161.2 332.4,163.1 333.3,165.0 334.3,166.8 335.2,168.8 336.2,170.7 337.1,172.6 338.1,174.6 339.0,176.5 340.0,178.5 341.0,180.5 341.9,182.6 342.9,184.6" fill="none" stroke="#2980b9" stroke-width="2.5"/>
  <circle cx="114.3" cy="184.6" r="4.5" fill="#e74c3c" stroke="white" stroke-width="1.5"/>
  <text x="122.3" y="176.6" font-size="11" fill="#333">f(1) = 0</text>
  <circle cx="228.6" cy="61.5" r="4.5" fill="#e74c3c" stroke="white" stroke-width="1.5"/>
  <text x="236.6" y="53.5" font-size="11" fill="#333">max: f(3) = 4</text>
  <circle cx="285.7" cy="92.3" r="4.5" fill="#e74c3c" stroke="white" stroke-width="1.5"/>
  <text x="293.7" y="84.3" font-size="11" fill="#333">f(4) = 3</text>
  <circle cx="257.1" cy="69.2" r="4.5" fill="#e74c3c" stroke="white" stroke-width="1.5"/>
  <text x="274.3" y="53.8" font-size="12" fill="#2c3e50" font-style="italic">y = -x**2 + 6*x - 5</text>
</svg>