<svg xmlns="http://www.w3.org/2000/svg" width="500" height="400" viewBox="0 0 500 400" style="background:white;font-family:sans-serif">
  <defs>
    <marker id="ah" markerWidth="8" markerHeight="6" refX="8" refY="3" orient="auto">
      <path d="M0,0 L8,3 L0,6" fill="#555"/></marker>
  </defs>
  <line x1="0.0" y1="0" x2="0.0" y2="400" stroke="#eee" stroke-width="0.5"/>
  <line x1="62.5" y1="0" x2="62.5" y2="400" stroke="#eee" stroke-width="0.5"/>
  <line x1="125.0" y1="0" x2="125.0" y2="400" stroke="#eee" stroke-width="0.5"/>
  <line x1="187.5" y1="0" x2="187.5" y2="400" stroke="#eee" stroke-width="0.5"/>
  <line x1="250.0" y1="0" x2="250.0" y2="400" stroke="#eee" stroke-width="0.5"/>
  <line x1="312.5" y1="0" x2="312.5" y2="400" stroke="#eee" stroke-width="0.5"/>
  <line x1="375.0" y1="0" x2="375.0" y2="400" stroke="#eee" stroke-width="0.5"/>
  <line x1="437.5" y1="0" x2="437.5" y2="400" stroke="#eee" stroke-width="0.5"/>
  <line x1="500.0" y1="0" x2="500.0" y2="400" stroke="#eee" stroke-width="0.5"/>
  <line x1="0" y1="400.0" x2="500" y2="400.0" stroke="#eee" stroke-width="0.5"/>
  <line x1="0" y1="369.2" x2="500" y2="369.2" stroke="#eee" stroke-width="0.5"/>
  <line x1="0" y1="338.5" x2="500" y2="338.5" stroke="#eee" stroke-width="0.5"/>
  <line x1="0" y1="307.7" x2="500" y2="307.7" stroke="#eee" stroke-width="0.5"/>
  <line x1="0" y1="276.9" x2="500" y2="276.9" stroke="#eee" stroke-width="0.5"/>
  <line x1="0" y1="246.2" x2="500" y2="246.2" stroke="#eee" stroke-width="0.5"/>
  <line x1="0" y1="215.4" x2="500" y2="215.4" stroke="#eee" stroke-width="0.5"/>
  <line x1="0" y1="184.6" x2="500" y2="184.6" stroke="#eee" stroke-width="0.5"/>
  <line x1="0" y1="153.8" x2="500" y2="153.8" stroke="#eee" stroke-width="0.5"/>
  <line x1="0" y1="123.1" x2="500" y2="123.1" stroke="#eee" stroke-width="0.5"/>
  <line x1="0" y1="92.3" x2="500" y2="92.3" stroke="#eee" stroke-width="0.5"/>
  <line x1="0" y1="61.5" x2="500" y2="61.5" stroke="#eee" stroke-width="0.5"/>
  <line x1="0" y1="30.8" x2="500" y2="30.8" stroke="#eee" stroke-width="0.5"/>
  <line x1="0" y1="0.0" x2="500" y2="0.0" stroke="#eee" stroke-width="0.5"/>
  <line x1="0" y1="307.7" x2="500" y2="307.7" stroke="#555" stroke-width="1" marker-end="url(#ah)"/>
  <line x1="125.0" y1="400" x2="125.0" y2="0" stroke="#555" stroke-width="1" marker-end="url(#ah)"/>
  <text x="0.0" y="321.7" text-anchor="middle" font-size="10" fill="#888">-2</text>
  <text x="62.5" y="321.7" text-anchor="middle" font-size="10" fill="#888">-1</text>
  <text x="187.5" y="321.7" text-anchor="middle" font-size="10" fill="#888">1</text>
  <text x="250.0" y="321.7" text-anchor="middle" font-size="10" fill="#888">2</text>
  <text x="312.5" y="321.7" text-anchor="middle" font-size="10" fill="#888">3</text>
  <text x="375.0" y="321.7" text-anchor="middle" font-size="10" fill="#888">4</text>
  <text x="437.5" y="321.7" text-anchor="middle" font-size="10" fill="#888">5</text>
  <text x="500.0" y="321.7" text-anchor="middle" font-size="10" fill="#888">6</text>
  <text x="119.0" y="404.0" text-anchor="end" font-size="10" fill="#888">-3</text>
  <text x="119.0" y="373.2" text-anchor="end" font-size="10" fill="#888">-2</text>
  <text x="119.0" y="342.5" text-anchor="end" font-size="10" fill="#888">-1</text>
  <text x="119.0" y="280.9" text-anchor="end" font-size="10" fill="#888">1</text>
  <text x="119.0" y="250.2" text-anchor="end" font-size="10" fill="#888">2</text>
  <text x="119.0" y="219.4" text-anchor="end" font-size="10" fill="#888">3</text>
  <text x="119.0" y="188.6" text-anchor="end" font-size="10" fill="#888">4</text>
  <text x="119.0" y="157.8" text-anchor="end" font-size="10" fill="#888">5</text>
  <text x="119.0" y="127.1" text-anchor="end" font-size="10" fill="#888">6</text>
  <text x="119.0" y="96.3" text-anchor="end" font-size="10" fill="#888">7</text>
  <text x="119.0" y="65.5" text-anchor="end" font-size="10" fill="#888">8</text>
  <text x="119.0" y="34.8" text-anchor="end" font-size="10" fill="#888">9</text>
  <text x="119.0" y="4.0" text-anchor="end" font-size="10" fill="#888">10</text>
  <text x="117.0" y="321.7" font-size="10" fill="#888">0</text>
  <polyline points="62.5,61.5 63.8,65.2 65.0,68.9 66.2,72.5 67.5,76.1 68.8,79.7 70.0,83.2 71.3,86.8 72.5,90.3 73.8,93.8 75.0,97.2 76.2,100.7 77.5,104.1 78.8,107.5 80.0,110.8 81.2,114.2 82.5,117.5 83.8,120.8 85.0,124.0 86.2,127.2 87.5,130.5 88.8,133.6 90.0,136.8 91.2,140.0 92.5,143.1 93.8,146.2 95.0,149.2 96.2,152.3 97.5,155.3 98.8,158.3 100.0,161.2 101.2,164.2 102.5,167.1 103.8,170.0 105.0,172.8 106.2,175.7 107.5,178.5 108.8,181.3 110.0,184.1 111.2,186.8 112.5,189.5 113.7,192.2 115.0,194.9 116.2,197.6 117.5,200.2 118.8,202.8 120.0,205.3 121.2,207.9 122.5,210.4 123.8,212.9 125.0,215.4 126.2,217.8 127.5,220.3 128.8,222.7 130.0,225.0 131.2,227.4 132.5,229.7 133.7,232.0 135.0,234.3 136.2,236.5 137.5,238.8 138.7,241.0 140.0,243.2 141.2,245.3 142.5,247.4 143.8,249.5 145.0,251.6 146.2,253.7 147.5,255.7 148.8,257.7 150.0,259.7 151.2,261.6 152.5,263.6 153.8,265.5 155.0,267.4 156.2,269.2 157.5,271.1 158.8,272.9 160.0,274.7 161.2,276.4 162.5,278.2 163.8,279.9 165.0,281.6 166.2,283.2 167.5,284.8 168.8,286.5 170.0,288.0 171.2,289.6 172.5,291.2 173.8,292.7 175.0,294.2 176.3,295.6 177.5,297.1 178.8,298.5 180.0,299.9 181.2,301.2 182.5,302.6 183.8,303.9 185.0,305.2 186.2,306.4 187.5,307.7 188.8,308.9 190.0,310.1 191.2,311.3 192.5,312.4 193.8,313.5 195.0,314.6 196.2,315.7 197.5,316.8 198.8,317.8 200.0,318.8 201.2,319.7 202.5,320.7 203.8,321.6 205.0,322.5 206.2,323.4 207.5,324.2 208.8,325.1 210.0,325.9 211.2,326.6 212.5,327.4 213.8,328.1 215.0,328.8 216.2,329.5 217.5,330.1 218.8,330.8 220.0,331.4 221.2,332.0 222.5,332.5 223.8,333.0 225.0,333.5 226.2,334.0 227.5,334.5 228.8,334.9 230.0,335.3 231.2,335.7 232.5,336.0 233.8,336.4 235.0,336.7 236.2,337.0 237.5,337.2 238.8,337.5 240.0,337.7 241.2,337.9 242.5,338.0 243.8,338.2 245.0,338.3 246.2,338.4 247.5,338.4 248.8,338.4 250.0,338.5 251.2,338.4 252.5,338.4 253.8,338.4 255.0,338.3 256.2,338.2 257.5,338.0 258.8,337.9 260.0,337.7 261.2,337.5 262.5,337.2 263.8,337.0 265.0,336.7 266.2,336.4 267.5,336.0 268.8,335.7 270.0,335.3 271.2,334.9 272.5,334.5 273.8,334.0 275.0,333.5 276.2,333.0 277.5,332.5 278.8,332.0 280.0,331.4 281.2,330.8 282.5,330.1 283.8,329.5 285.0,328.8 286.2,328.1 287.5,327.4 288.8,326.6 290.0,325.9 291.2,325.1 292.5,324.2 293.8,323.4 295.0,322.5 296.2,321.6 297.5,320.7 298.7,319.7 300.0,318.8 301.2,317.8 302.5,316.8 303.7,315.7 305.0,314.6 306.2,313.5 307.5,312.4 308.7,311.3 310.0,310.1 311.2,308.9 312.5,307.7 313.8,306.4 315.0,305.2 316.2,303.9 317.5,302.6 318.8,301.2 320.0,299.9 321.2,298.5 322.5,297.1 323.8,295.6 325.0,294.2 326.2,292.7 327.5,291.2 328.8,289.6 330.0,288.0 331.2,286.5 332.5,284.8 333.8,283.2 335.0,281.6 336.2,279.9 337.5,278.2 338.8,276.4 340.0,274.7 341.2,272.9 342.5,271.1 343.8,269.2 345.0,267.4 346.2,265.5 347.5,263.6 348.8,261.6 350.0,259.7 351.2,257.7 352.5,255.7 353.8,253.7 355.0,251.6 356.2,249.5 357.5,247.4 358.8,245.3 360.0,243.2 361.2,241.0 362.5,238.8 363.8,236.5 365.0,234.3 366.2,232.0 367.5,229.7 368.8,227.4 370.0,225.0 371.2,222.7 372.5,220.3 373.8,217.8 375.0,215.4 376.2,212.9 377.5,210.4 378.8,207.9 380.0,205.3 381.2,202.8 382.5,200.2 383.8,197.6 385.0,194.9 386.2,192.2 387.5,189.5 388.8,186.8 390.0,184.1 391.2,181.3 392.5,178.5 393.8,175.7 395.0,172.8 396.2,170.0 397.5,167.1 398.8,164.2 400.0,161.2 401.2,158.3 402.5,155.3 403.8,152.3 405.0,149.2 406.2,146.2 407.5,143.1 408.8,140.0 410.0,136.8 411.2,133.6 412.5,130.5 413.8,127.2 415.0,124.0 416.2,120.8 417.5,117.5 418.8,114.2 420.0,110.8 421.2,107.5 422.5,104.1 423.8,100.7 425.0,97.2 426.2,93.8 427.5,90.3 428.8,86.8 430.0,83.2 431.2,79.7 432.5,76.1 433.8,72.5 435.0,68.9 436.2,65.2 437.5,61.5" fill="none" stroke="#2980b9" stroke-width="2.5"/>
  <polyline points="62.5,492.3 63.8,491.1 65.0,489.8 66.2,488.6 67.5,487.4 68.8,486.2 70.0,484.9 71.3,483.7 72.5,482.5 73.8,481.2 75.0,480.0 76.2,478.8 77.5,477.5 78.8,476.3 80.0,475.1 81.2,473.8 82.5,472.6 83.8,471.4 85.0,470.2 86.2,468.9 87.5,467.7 88.8,466.5 90.0,465.2 91.2,464.0 92.5,462.8 93.8,461.5 95.0,460.3 96.2,459.1 97.5,457.8 98.8,456.6 100.0,455.4 101.2,454.2 102.5,452.9 103.8,451.7 105.0,450.5 106.2,449.2 107.5,448.0 108.8,446.8 110.0,445.5 111.2,444.3 112.5,443.1 113.7,441.8 115.0,440.6 116.2,439.4 117.5,438.2 118.8,436.9 120.0,435.7 121.2,434.5 122.5,433.2 123.8,432.0 125.0,430.8 126.2,429.5 127.5,428.3 128.8,427.1 130.0,425.8 131.2,424.6 132.5,423.4 133.7,422.2 135.0,420.9 136.2,419.7 137.5,418.5 138.7,417.2 140.0,416.0 141.2,414.8 142.5,413.5 143.8,412.3 145.0,411.1 146.2,409.8 147.5,408.6 148.8,407.4 150.0,406.2 151.2,404.9 152.5,403.7 153.8,402.5 155.0,401.2 156.2,400.0 157.5,398.8 158.8,397.5 160.0,396.3 161.2,395.1 162.5,393.8 163.8,392.6 165.0,391.4 166.2,390.2 167.5,388.9 168.8,387.7 170.0,386.5 171.2,385.2 172.5,384.0 173.8,382.8 175.0,381.5 176.3,380.3 177.5,379.1 178.8,377.8 180.0,376.6 181.2,375.4 182.5,374.2 183.8,372.9 185.0,371.7 186.2,370.5 187.5,369.2 188.8,368.0 190.0,366.8 191.2,365.5 192.5,364.3 193.8,363.1 195.0,361.8 196.2,360.6 197.5,359.4 198.8,358.2 200.0,356.9 201.2,355.7 202.5,354.5 203.8,353.2 205.0,352.0 206.2,350.8 207.5,349.5 208.8,348.3 210.0,347.1 211.2,345.8 212.5,344.6 213.8,343.4 215.0,342.2 216.2,340.9 217.5,339.7 218.8,338.5 220.0,337.2 221.2,336.0 222.5,334.8 223.8,333.5 225.0,332.3 226.2,331.1 227.5,329.8 228.8,328.6 230.0,327.4 231.2,326.2 232.5,324.9 233.8,323.7 235.0,322.5 236.2,321.2 237.5,320.0 238.8,318.8 240.0,317.5 241.2,316.3 242.5,315.1 243.8,313.8 245.0,312.6 246.2,311.4 247.5,310.2 248.8,308.9 250.0,307.7 251.2,306.5 252.5,305.2 253.8,304.0 255.0,302.8 256.2,301.5 257.5,300.3 258.8,299.1 260.0,297.8 261.2,296.6 262.5,295.4 263.8,294.2 265.0,292.9 266.2,291.7 267.5,290.5 268.8,289.2 270.0,288.0 271.2,286.8 272.5,285.5 273.8,284.3 275.0,283.1 276.2,281.8 277.5,280.6 278.8,279.4 280.0,278.2 281.2,276.9 282.5,275.7 283.8,274.5 285.0,273.2 286.2,272.0 287.5,270.8 288.8,269.5 290.0,268.3 291.2,267.1 292.5,265.8 293.8,264.6 295.0,263.4 296.2,262.2 297.5,260.9 298.7,259.7 300.0,258.5 301.2,257.2 302.5,256.0 303.7,254.8 305.0,253.5 306.2,252.3 307.5,251.1 308.7,249.8 310.0,248.6 311.2,247.4 312.5,246.2 313.8,244.9 315.0,243.7 316.2,242.5 317.5,241.2 318.8,240.0 320.0,238.8 321.2,237.5 322.5,236.3 323.8,235.1 325.0,233.8 326.2,232.6 327.5,231.4 328.8,230.2 330.0,228.9 331.2,227.7 332.5,226.5 333.8,225.2 335.0,224.0 336.2,222.8 337.5,221.5 338.8,220.3 340.0,219.1 341.2,217.8 342.5,216.6 343.8,215.4 345.0,214.2 346.2,212.9 347.5,211.7 348.8,210.5 350.0,209.2 351.2,208.0 352.5,206.8 353.8,205.5 355.0,204.3 356.2,203.1 357.5,201.8 358.8,200.6 360.0,199.4 361.2,198.2 362.5,196.9 363.8,195.7 365.0,194.5 366.2,193.2 367.5,192.0 368.8,190.8 370.0,189.5 371.2,188.3 372.5,187.1 373.8,185.8 375.0,184.6 376.2,183.4 377.5,182.2 378.8,180.9 380.0,179.7 381.2,178.5 382.5,177.2 383.8,176.0 385.0,174.8 386.2,173.5 387.5,172.3 388.8,171.1 390.0,169.8 391.2,168.6 392.5,167.4 393.8,166.2 395.0,164.9 396.2,163.7 397.5,162.5 398.8,161.2 400.0,160.0 401.2,158.8 402.5,157.5 403.8,156.3 405.0,155.1 406.2,153.8 407.5,152.6 408.8,151.4 410.0,150.2 411.2,148.9 412.5,147.7 413.8,146.5 415.0,145.2 416.2,144.0 417.5,142.8 418.8,141.5 420.0,140.3 421.2,139.1 422.5,137.8 423.8,136.6 425.0,135.4 426.2,134.2 427.5,132.9 428.8,131.7 430.0,130.5 431.2,129.2 432.5,128.0 433.8,126.8 435.0,125.5 436.2,124.3 437.5,123.1" fill="none" stroke="#e74c3c" stroke-width="2.5" stroke-dasharray="8,4"/>
  <circle cx="250.0" cy="338.5" r="4.5" fill="#e74c3c" stroke="white" stroke-width="1.5"/>
  <text x="258.0" y="330.5" font-size="11" fill="#333">x=2.0</text>
  <circle cx="250.0" cy="338.5" r="4.5" fill="#e74c3c" stroke="white" stroke-width="1.5"/>
  <text x="268.8" y="353.8" font-size="12" fill="#2c3e50" font-style="italic">мин: (2.0, -1.0)</text>
</svg>