<svg xmlns="http://www.w3.org/2000/svg" width="400" height="400" viewBox="0 0 400 400" style="background:white;font-family:sans-serif">
  <defs>
    <marker id="ah" markerWidth="8" markerHeight="6" refX="8" refY="3" orient="auto">
      <path d="M0,0 L8,3 L0,6" fill="#555"/></marker>
  </defs>
  <line x1="0.0" y1="0" x2="0.0" y2="400" stroke="#eee" stroke-width="0.5"/>
  <line x1="44.4" y1="0" x2="44.4" y2="400" stroke="#eee" stroke-width="0.5"/>
  <line x1="88.9" y1="0" x2="88.9" y2="400" stroke="#eee" stroke-width="0.5"/>
  <line x1="133.3" y1="0" x2="133.3" y2="400" stroke="#eee" stroke-width="0.5"/>
  <line x1="177.8" y1="0" x2="177.8" y2="400" stroke="#eee" stroke-width="0.5"/>
  <line x1="222.2" y1="0" x2="222.2" y2="400" stroke="#eee" stroke-width="0.5"/>
  <line x1="266.7" y1="0" x2="266.7" y2="400" stroke="#eee" stroke-width="0.5"/>
  <line x1="311.1" y1="0" x2="311.1" y2="400" stroke="#eee" stroke-width="0.5"/>
  <line x1="355.6" y1="0" x2="355.6" y2="400" stroke="#eee" stroke-width="0.5"/>
  <line x1="400.0" y1="0" x2="400.0" y2="400" stroke="#eee" stroke-width="0.5"/>
  <line x1="0" y1="400.0" x2="400" y2="400.0" stroke="#eee" stroke-width="0.5"/>
  <line x1="0" y1="395.7" x2="400" y2="395.7" stroke="#eee" stroke-width="0.5"/>
  <line x1="0" y1="391.3" x2="400" y2="391.3" stroke="#eee" stroke-width="0.5"/>
  <line x1="0" y1="387.0" x2="400" y2="387.0" stroke="#eee" stroke-width="0.5"/>
  <line x1="0" y1="382.6" x2="400" y2="382.6" stroke="#eee" stroke-width="0.5"/>
  <line x1="0" y1="378.3" x2="400" y2="378.3" stroke="#eee" stroke-width="0.5"/>
  <line x1="0" y1="373.9" x2="400" y2="373.9" stroke="#eee" stroke-width="0.5"/>
  <line x1="0" y1="369.6" x2="400" y2="369.6" stroke="#eee" stroke-width="0.5"/>
  <line x1="0" y1="365.2" x2="400" y2="365.2" stroke="#eee" stroke-width="0.5"/>
  <line x1="0" y1="360.9" x2="400" y2="360.9" stroke="#eee" stroke-width="0.5"/>
  <line x1="0" y1="356.5" x2="400" y2="356.5" stroke="#eee" stroke-width="0.5"/>
  <line x1="0" y1="352.2" x2="400" y2="352.2" stroke="#eee" stroke-width="0.5"/>
  <line x1="0" y1="347.8" x2="400" y2="347.8" stroke="#eee" stroke-width="0.5"/>
  <line x1="0" y1="343.5" x2="400" y2="343.5" stroke="#eee" stroke-width="0.5"/>
  <line x1="0" y1="339.1" x2="400" y2="339.1" stroke="#eee" stroke-width="0.5"/>
  <line x1="0" y1="334.8" x2="400" y2="334.8" stroke="#eee" stroke-width="0.5"/>
  <line x1="0" y1="330.4" x2="400" y2="330.4" stroke="#eee" stroke-width="0.5"/>
  <line x1="0" y1="326.1" x2="400" y2="326.1" stroke="#eee" stroke-width="0.5"/>
  <line x1="0" y1="321.7" x2="400" y2="321.7" stroke="#eee" stroke-width="0.5"/>
  <line x1="0" y1="317.4" x2="400" y2="317.4" stroke="#eee" stroke-width="0.5"/>
  <line x1="0" y1="313.0" x2="400" y2="313.0" stroke="#eee" stroke-width="0.5"/>
  <line x1="0" y1="308.7" x2="400" y2="308.7" stroke="#eee" stroke-width="0.5"/>
  <line x1="0" y1="304.3" x2="400" y2="304.3" stroke="#eee" stroke-width="0.5"/>
  <line x1="0" y1="300.0" x2="400" y2="300.0" stroke="#eee" stroke-width="0.5"/>
  <line x1="0" y1="295.7" x2="400" y2="295.7" stroke="#eee" stroke-width="0.5"/>
  <line x1="0" y1="291.3" x2="400" y2="291.3" stroke="#eee" stroke-width="0.5"/>
  <line x1="0" y1="287.0" x2="400" y2="287.0" stroke="#eee" stroke-width="0.5"/>
  <line x1="0" y1="282.6" x2="400" y2="282.6" stroke="#eee" stroke-width="0.5"/>
  <line x1="0" y1="278.3" x2="400" y2="278.3" stroke="#eee" stroke-width="0.5"/>
  <line x1="0" y1="273.9" x2="400" y2="273.9" stroke="#eee" stroke-width="0.5"/>
  <line x1="0" y1="269.6" x2="400" y2="269.6" stroke="#eee" stroke-width="0.5"/>
  <line x1="0" y1="265.2" x2="400" y2="265.2" stroke="#eee" stroke-width="0.5"/>
  <line x1="0" y1="260.9" x2="400" y2="260.9" stroke="#eee" stroke-width="0.5"/>
  <line x1="0" y1="256.5" x2="400" y2="256.5" stroke="#eee" stroke-width="0.5"/>
  <line x1="0" y1="252.2" x2="400" y2="252.2" stroke="#eee" stroke-width="0.5"/>
  <line x1="0" y1="247.8" x2="400" y2="247.8" stroke="#eee" stroke-width="0.5"/>
  <line x1="0" y1="243.5" x2="400" y2="243.5" stroke="#eee" stroke-width="0.5"/>
  <line x1="0" y1="239.1" x2="400" y2="239.1" stroke="#eee" stroke-width="0.5"/>
  <line x1="0" y1="234.8" x2="400" y2="234.8" stroke="#eee" stroke-width="0.5"/>
  <line x1="0" y1="230.4" x2="400" y2="230.4" stroke="#eee" stroke-width="0.5"/>
  <line x1="0" y1="226.1" x2="400" y2="226.1" stroke="#eee" stroke-width="0.5"/>
  <line x1="0" y1="221.7" x2="400" y2="221.7" stroke="#eee" stroke-width="0.5"/>
  <line x1="0" y1="217.4" x2="400" y2="217.4" stroke="#eee" stroke-width="0.5"/>
  <line x1="0" y1="213.0" x2="400" y2="213.0" stroke="#eee" stroke-width="0.5"/>
  <line x1="0" y1="208.7" x2="400" y2="208.7" stroke="#eee" stroke-width="0.5"/>
  <line x1="0" y1="204.3" x2="400" y2="204.3" stroke="#eee" stroke-width="0.5"/>
  <line x1="0" y1="200.0" x2="400" y2="200.0" stroke="#eee" stroke-width="0.5"/>
  <line x1="0" y1="195.7" x2="400" y2="195.7" stroke="#eee" stroke-width="0.5"/>
  <line x1="0" y1="191.3" x2="400" y2="191.3" stroke="#eee" stroke-width="0.5"/>
  <line x1="0" y1="187.0" x2="400" y2="187.0" stroke="#eee" stroke-width="0.5"/>
  <line x1="0" y1="182.6" x2="400" y2="182.6" stroke="#eee" stroke-width="0.5"/>
  <line x1="0" y1="178.3" x2="400" y2="178.3" stroke="#eee" stroke-width="0.5"/>
  <line x1="0" y1="173.9" x2="400" y2="173.9" stroke="#eee" stroke-width="0.5"/>
  <line x1="0" y1="169.6" x2="400" y2="169.6" stroke="#eee" stroke-width="0.5"/>
  <line x1="0" y1="165.2" x2="400" y2="165.2" stroke="#eee" stroke-width="0.5"/>
  <line x1="0" y1="160.9" x2="400" y2="160.9" stroke="#eee" stroke-width="0.5"/>
  <line x1="0" y1="156.5" x2="400" y2="156.5" stroke="#eee" stroke-width="0.5"/>
  <line x1="0" y1="152.2" x2="400" y2="152.2" stroke="#eee" stroke-width="0.5"/>
  <line x1="0" y1="147.8" x2="400" y2="147.8" stroke="#eee" stroke-width="0.5"/>
  <line x1="0" y1="143.5" x2="400" y2="143.5" stroke="#eee" stroke-width="0.5"/>
  <line x1="0" y1="139.1" x2="400" y2="139.1" stroke="#eee" stroke-width="0.5"/>
  <line x1="0" y1="134.8" x2="400" y2="134.8" stroke="#eee" stroke-width="0.5"/>
  <line x1="0" y1="130.4" x2="400" y2="130.4" stroke="#eee" stroke-width="0.5"/>
  <line x1="0" y1="126.1" x2="400" y2="126.1" stroke="#eee" stroke-width="0.5"/>
  <line x1="0" y1="121.7" x2="400" y2="121.7" stroke="#eee" stroke-width="0.5"/>
  <line x1="0" y1="117.4" x2="400" y2="117.4" stroke="#eee" stroke-width="0.5"/>
  <line x1="0" y1="113.0" x2="400" y2="113.0" stroke="#eee" stroke-width="0.5"/>
  <line x1="0" y1="108.7" x2="400" y2="108.7" stroke="#eee" stroke-width="0.5"/>
  <line x1="0" y1="104.3" x2="400" y2="104.3" stroke="#eee" stroke-width="0.5"/>
  <line x1="0" y1="100.0" x2="400" y2="100.0" stroke="#eee" stroke-width="0.5"/>
  <line x1="0" y1="95.7" x2="400" y2="95.7" stroke="#eee" stroke-width="0.5"/>
  <line x1="0" y1="91.3" x2="400" y2="91.3" stroke="#eee" stroke-width="0.5"/>
  <line x1="0" y1="87.0" x2="400" y2="87.0" stroke="#eee" stroke-width="0.5"/>
  <line x1="0" y1="82.6" x2="400" y2="82.6" stroke="#eee" stroke-width="0.5"/>
  <line x1="0" y1="78.3" x2="400" y2="78.3" stroke="#eee" stroke-width="0.5"/>
  <line x1="0" y1="73.9" x2="400" y2="73.9" stroke="#eee" stroke-width="0.5"/>
  <line x1="0" y1="69.6" x2="400" y2="69.6" stroke="#eee" stroke-width="0.5"/>
  <line x1="0" y1="65.2" x2="400" y2="65.2" stroke="#eee" stroke-width="0.5"/>
  <line x1="0" y1="60.9" x2="400" y2="60.9" stroke="#eee" stroke-width="0.5"/>
  <line x1="0" y1="56.5" x2="400" y2="56.5" stroke="#eee" stroke-width="0.5"/>
  <line x1="0" y1="52.2" x2="400" y2="52.2" stroke="#eee" stroke-width="0.5"/>
  <line x1="0" y1="47.8" x2="400" y2="47.8" stroke="#eee" stroke-width="0.5"/>
  <line x1="0" y1="43.5" x2="400" y2="43.5" stroke="#eee" stroke-width="0.5"/>
  <line x1="0" y1="39.1" x2="400" y2="39.1" stroke="#eee" stroke-width="0.5"/>
  <line x1="0" y1="34.8" x2="400" y2="34.8" stroke="#eee" stroke-width="0.5"/>
  <line x1="0" y1="30.4" x2="400" y2="30.4" stroke="#eee" stroke-width="0.5"/>
  <line x1="0" y1="26.1" x2="400" y2="26.1" stroke="#eee" stroke-width="0.5"/>
  <line x1="0" y1="21.7" x2="400" y2="21.7" stroke="#eee" stroke-width="0.5"/>
  <line x1="0" y1="17.4" x2="400" y2="17.4" stroke="#eee" stroke-width="0.5"/>
  <line x1="0" y1="13.0" x2="400" y2="13.0" stroke="#eee" stroke-width="0.5"/>
  <line x1="0" y1="8.7" x2="400" y2="8.7" stroke="#eee" stroke-width="0.5"/>
  <line x1="0" y1="4.3" x2="400" y2="4.3" stroke="#eee" stroke-width="0.5"/>
  <line x1="0" y1="0.0" x2="400" y2="0.0" stroke="#eee" stroke-width="0.5"/>
  <line x1="0" y1="273.9" x2="400" y2="273.9" stroke="#555" stroke-width="1" marker-end="url(#ah)"/>
  <line x1="177.8" y1="400" x2="177.8" y2="0" stroke="#555" stroke-width="1" marker-end="url(#ah)"/>
  <text x="0.0" y="287.9" text-anchor="middle" font-size="10" fill="#888">-4</text>
  <text x="44.4" y="287.9" text-anchor="middle" font-size="10" fill="#888">-3</text>
  <text x="88.9" y="287.9" text-anchor="middle" font-size="10" fill="#888">-2</text>
  <text x="133.3" y="287.9" text-anchor="middle" font-size="10" fill="#888">-1</text>
  <text x="222.2" y="287.9" text-anchor="middle" font-size="10" fill="#888">1</text>
  <text x="266.7" y="287.9" text-anchor="middle" font-size="10" fill="#888">2</text>
  <text x="311.1" y="287.9" text-anchor="middle" font-size="10" fill="#888">3</text>
  <text x="355.6" y="287.9" text-anchor="middle" font-size="10" fill="#888">4</text>
  <text x="400.0" y="287.9" text-anchor="middle" font-size="10" fill="#888">5</text>
  <text x="171.8" y="404.0" text-anchor="end" font-size="10" fill="#888">-29</text>
  <text x="171.8" y="399.7" text-anchor="end" font-size="10" fill="#888">-28</text>
  <text x="171.8" y="395.3" text-anchor="end" font-size="10" fill="#888">-27</text>
  <text x="171.8" y="391.0" text-anchor="end" font-size="10" fill="#888">-26</text>
  <text x="171.8" y="386.6" text-anchor="end" font-size="10" fill="#888">-25</text>
  <text x="171.8" y="382.3" text-anchor="end" font-size="10" fill="#888">-24</text>
  <text x="171.8" y="377.9" text-anchor="end" font-size="10" fill="#888">-23</text>
  <text x="171.8" y="373.6" text-anchor="end" font-size="10" fill="#888">-22</text>
  <text x="171.8" y="369.2" text-anchor="end" font-size="10" fill="#888">-21</text>
  <text x="171.8" y="364.9" text-anchor="end" font-size="10" fill="#888">-20</text>
  <text x="171.8" y="360.5" text-anchor="end" font-size="10" fill="#888">-19</text>
  <text x="171.8" y="356.2" text-anchor="end" font-size="10" fill="#888">-18</text>
  <text x="171.8" y="351.8" text-anchor="end" font-size="10" fill="#888">-17</text>
  <text x="171.8" y="347.5" text-anchor="end" font-size="10" fill="#888">-16</text>
  <text x="171.8" y="343.1" text-anchor="end" font-size="10" fill="#888">-15</text>
  <text x="171.8" y="338.8" text-anchor="end" font-size="10" fill="#888">-14</text>
  <text x="171.8" y="334.4" text-anchor="end" font-size="10" fill="#888">-13</text>
  <text x="171.8" y="330.1" text-anchor="end" font-size="10" fill="#888">-12</text>
  <text x="171.8" y="325.7" text-anchor="end" font-size="10" fill="#888">-11</text>
  <text x="171.8" y="321.4" text-anchor="end" font-size="10" fill="#888">-10</text>
  <text x="171.8" y="317.0" text-anchor="end" font-size="10" fill="#888">-9</text>
  <text x="171.8" y="312.7" text-anchor="end" font-size="10" fill="#888">-8</text>
  <text x="171.8" y="308.3" text-anchor="end" font-size="10" fill="#888">-7</text>
  <text x="171.8" y="304.0" text-anchor="end" font-size="10" fill="#888">-6</text>
  <text x="171.8" y="299.7" text-anchor="end" font-size="10" fill="#888">-5</text>
  <text x="171.8" y="295.3" text-anchor="end" font-size="10" fill="#888">-4</text>
  <text x="171.8" y="291.0" text-anchor="end" font-size="10" fill="#888">-3</text>
  <text x="171.8" y="286.6" text-anchor="end" font-size="10" fill="#888">-2</text>
  <text x="171.8" y="282.3" text-anchor="end" font-size="10" fill="#888">-1</text>
  <text x="171.8" y="273.6" text-anchor="end" font-size="10" fill="#888">1</text>
  <text x="171.8" y="269.2" text-anchor="end" font-size="10" fill="#888">2</text>
  <text x="171.8" y="264.9" text-anchor="end" font-size="10" fill="#888">3</text>
  <text x="171.8" y="260.5" text-anchor="end" font-size="10" fill="#888">4</text>
  <text x="171.8" y="256.2" text-anchor="end" font-size="10" fill="#888">5</text>
  <text x="171.8" y="251.8" text-anchor="end" font-size="10" fill="#888">6</text>
  <text x="171.8" y="247.5" text-anchor="end" font-size="10" fill="#888">7</text>
  <text x="171.8" y="243.1" text-anchor="end" font-size="10" fill="#888">8</text>
  <text x="171.8" y="238.8" text-anchor="end" font-size="10" fill="#888">9</text>
  <text x="171.8" y="234.4" text-anchor="end" font-size="10" fill="#888">10</text>
  <text x="171.8" y="230.1" text-anchor="end" font-size="10" fill="#888">11</text>
  <text x="171.8" y="225.7" text-anchor="end" font-size="10" fill="#888">12</text>
  <text x="171.8" y="221.4" text-anchor="end" font-size="10" fill="#888">13</text>
  <text x="171.8" y="217.0" text-anchor="end" font-size="10" fill="#888">14</text>
  <text x="171.8" y="212.7" text-anchor="end" font-size="10" fill="#888">15</text>
  <text x="171.8" y="208.3" text-anchor="end" font-size="10" fill="#888">16</text>
  <text x="171.8" y="204.0" text-anchor="end" font-size="10" fill="#888">17</text>
  <text x="171.8" y="199.7" text-anchor="end" font-size="10" fill="#888">18</text>
  <text x="171.8" y="195.3" text-anchor="end" font-size="10" fill="#888">19</text>
  <text x="171.8" y="191.0" text-anchor="end" font-size="10" fill="#888">20</text>
  <text x="171.8" y="186.6" text-anchor="end" font-size="10" fill="#888">21</text>
  <text x="171.8" y="182.3" text-anchor="end" font-size="10" fill="#888">22</text>
  <text x="171.8" y="177.9" text-anchor="end" font-size="10" fill="#888">23</text>
  <text x="171.8" y="173.6" text-anchor="end" font-size="10" fill="#888">24</text>
  <text x="171.8" y="169.2" text-anchor="end" font-size="10" fill="#888">25</text>
  <text x="171.8" y="164.9" text-anchor="end" font-size="10" fill="#888">26</text>
  <text x="171.8" y="160.5" text-anchor="end" font-size="10" fill="#888">27</text>
  <text x="171.8" y="156.2" text-anchor="end" font-size="10" fill="#888">28</text>
  <text x="171.8" y="151.8" text-anchor="end" font-size="10" fill="#888">29</text>
  <text x="171.8" y="147.5" text-anchor="end" font-size="10" fill="#888">30</text>
  <text x="171.8" y="143.1" text-anchor="end" font-size="10" fill="#888">31</text>
  <text x="171.8" y="138.8" text-anchor="end" font-size="10" fill="#888">32</text>
  <text x="171.8" y="134.4" text-anchor="end" font-size="10" fill="#888">33</text>
  <text x="171.8" y="130.1" text-anchor="end" font-size="10" fill="#888">34</text>
  <text x="171.8" y="125.7" text-anchor="end" font-size="10" fill="#888">35</text>
  <text x="171.8" y="121.4" text-anchor="end" font-size="10" fill="#888">36</text>
  <text x="171.8" y="117.0" text-anchor="end" font-size="10" fill="#888">37</text>
  <text x="171.8" y="112.7" text-anchor="end" font-size="10" fill="#888">38</text>
  <text x="171.8" y="108.3" text-anchor="end" font-size="10" fill="#888">39</text>
  <text x="171.8" y="104.0" text-anchor="end" font-size="10" fill="#888">40</text>
  <text x="171.8" y="99.7" text-anchor="end" font-size="10" fill="#888">41</text>
  <text x="171.8" y="95.3" text-anchor="end" font-size="10" fill="#888">42</text>
  <text x="171.8" y="91.0" text-anchor="end" font-size="10" fill="#888">43</text>
  <text x="171.8" y="86.6" text-anchor="end" font-size="10" fill="#888">44</text>
  <text x="171.8" y="82.3" text-anchor="end" font-size="10" fill="#888">45</text>
  <text x="171.8" y="77.9" text-anchor="end" font-size="10" fill="#888">46</text>
  <text x="171.8" y="73.6" text-anchor="end" font-size="10" fill="#888">47</text>
  <text x="171.8" y="69.2" text-anchor="end" font-size="10" fill="#888">48</text>
  <text x="171.8" y="64.9" text-anchor="end" font-size="10" fill="#888">49</text>
  <text x="171.8" y="60.5" text-anchor="end" font-size="10" fill="#888">50</text>
  <text x="171.8" y="56.2" text-anchor="end" font-size="10" fill="#888">51</text>
  <text x="171.8" y="51.8" text-anchor="end" font-size="10" fill="#888">52</text>
  <text x="171.8" y="47.5" text-anchor="end" font-size="10" fill="#888">53</text>
  <text x="171.8" y="43.1" text-anchor="end" font-size="10" fill="#888">54</text>
  <text x="171.8" y="38.8" text-anchor="end" font-size="10" fill="#888">55</text>
  <text x="171.8" y="34.4" text-anchor="end" font-size="10" fill="#888">56</text>
  <text x="171.8" y="30.1" text-anchor="end" font-size="10" fill="#888">57</text>
  <text x="171.8" y="25.7" text-anchor="end" font-size="10" fill="#888">58</text>
  <text x="171.8" y="21.4" text-anchor="end" font-size="10" fill="#888">59</text>
  <text x="171.8" y="17.0" text-anchor="end" font-size="10" fill="#888">60</text>
  <text x="171.8" y="12.7" text-anchor="end" font-size="10" fill="#888">61</text>
  <text x="171.8" y="8.3" text-anchor="end" font-size="10" fill="#888">62</text>
  <text x="171.8" y="4.0" text-anchor="end" font-size="10" fill="#888">63</text>
  <text x="169.8" y="287.9" font-size="10" fill="#888">0</text>
  <polyline points="44.4,352.2 45.5,349.8 46.5,347.4 47.6,345.1 48.6,342.8 49.6,340.5 50.7,338.3 51.7,336.2 52.7,334.0 53.8,331.9 54.8,329.9 55.9,327.9 56.9,325.9 57.9,324.0 59.0,322.1 60.0,320.3 61.0,318.4 62.1,316.7 63.1,314.9 64.1,313.2 65.2,311.6 66.2,309.9 67.3,308.3 68.3,306.8 69.3,305.2 70.4,303.8 71.4,302.3 72.4,300.9 73.5,299.5 74.5,298.1 75.6,296.8 76.6,295.5 77.6,294.3 78.7,293.0 79.7,291.8 80.7,290.7 81.8,289.6 82.8,288.5 83.9,287.4 84.9,286.3 85.9,285.3 87.0,284.4 88.0,283.4 89.0,282.5 90.1,281.6 91.1,280.7 92.1,279.9 93.2,279.1 94.2,278.3 95.3,277.5 96.3,276.8 97.3,276.1 98.4,275.4 99.4,274.8 100.4,274.1 101.5,273.5 102.5,272.9 103.6,272.4 104.6,271.8 105.6,271.3 106.7,270.9 107.7,270.4 108.7,269.9 109.8,269.5 110.8,269.1 111.9,268.8 112.9,268.4 113.9,268.1 115.0,267.8 116.0,267.5 117.0,267.2 118.1,266.9 119.1,266.7 120.1,266.5 121.2,266.3 122.2,266.1 123.3,265.9 124.3,265.8 125.3,265.7 126.4,265.6 127.4,265.5 128.4,265.4 129.5,265.3 130.5,265.3 131.6,265.2 132.6,265.2 133.6,265.2 134.7,265.2 135.7,265.3 136.7,265.3 137.8,265.3 138.8,265.4 139.9,265.5 140.9,265.6 141.9,265.7 143.0,265.8 144.0,265.9 145.0,266.0 146.1,266.2 147.1,266.3 148.1,266.5 149.2,266.7 150.2,266.9 151.3,267.1 152.3,267.3 153.3,267.5 154.4,267.7 155.4,267.9 156.4,268.1 157.5,268.4 158.5,268.6 159.6,268.9 160.6,269.1 161.6,269.4 162.7,269.6 163.7,269.9 164.7,270.2 165.8,270.5 166.8,270.8 167.9,271.0 168.9,271.3 169.9,271.6 171.0,271.9 172.0,272.2 173.0,272.5 174.1,272.8 175.1,273.1 176.1,273.4 177.2,273.7 178.2,274.0 179.3,274.3 180.3,274.7 181.3,275.0 182.4,275.3 183.4,275.6 184.4,275.9 185.5,276.2 186.5,276.4 187.6,276.7 188.6,277.0 189.6,277.3 190.7,277.6 191.7,277.9 192.7,278.1 193.8,278.4 194.8,278.7 195.9,278.9 196.9,279.2 197.9,279.4 199.0,279.7 200.0,279.9 201.0,280.1 202.1,280.3 203.1,280.5 204.1,280.7 205.2,280.9 206.2,281.1 207.3,281.3 208.3,281.5 209.3,281.6 210.4,281.8 211.4,281.9 212.4,282.0 213.5,282.1 214.5,282.2 215.6,282.3 216.6,282.4 217.6,282.5 218.7,282.5 219.7,282.6 220.7,282.6 221.8,282.6 222.8,282.6 223.9,282.6 224.9,282.6 225.9,282.5 227.0,282.5 228.0,282.4 229.0,282.3 230.1,282.2 231.1,282.1 232.1,281.9 233.2,281.7 234.2,281.6 235.3,281.4 236.3,281.2 237.3,280.9 238.4,280.7 239.4,280.4 240.4,280.1 241.5,279.8 242.5,279.5 243.6,279.1 244.6,278.7 245.6,278.4 246.7,277.9 247.7,277.5 248.7,277.0 249.8,276.6 250.8,276.1 251.9,275.5 252.9,275.0 253.9,274.4 255.0,273.8 256.0,273.2 257.0,272.5 258.1,271.8 259.1,271.1 260.1,270.4 261.2,269.7 262.2,268.9 263.3,268.1 264.3,267.2 265.3,266.4 266.4,265.5 267.4,264.6 268.4,263.6 269.5,262.6 270.5,261.6 271.6,260.6 272.6,259.5 273.6,258.4 274.7,257.3 275.7,256.1 276.7,255.0 277.8,253.7 278.8,252.5 279.9,251.2 280.9,249.9 281.9,248.5 283.0,247.1 284.0,245.7 285.0,244.3 286.1,242.8 287.1,241.3 288.1,239.7 289.2,238.1 290.2,236.5 291.3,234.8 292.3,233.1 293.3,231.4 294.4,229.6 295.4,227.8 296.4,226.0 297.5,224.1 298.5,222.2 299.6,220.2 300.6,218.2 301.6,216.2 302.7,214.1 303.7,212.0 304.7,209.8 305.8,207.6 306.8,205.4 307.9,203.1 308.9,200.8 309.9,198.4 311.0,196.0 312.0,193.5 313.0,191.1 314.1,188.5 315.1,185.9 316.1,183.3 317.2,180.6 318.2,177.9 319.3,175.2 320.3,172.4 321.3,169.5 322.4,166.6 323.4,163.7 324.4,160.7 325.5,157.7 326.5,154.6 327.6,151.5 328.6,148.3 329.6,145.1 330.7,141.8 331.7,138.5 332.7,135.1 333.8,131.7 334.8,128.2 335.9,124.7 336.9,121.1 337.9,117.5 339.0,113.8 340.0,110.1 341.0,106.3 342.1,102.5 343.1,98.6 344.1,94.7 345.2,90.7 346.2,86.7 347.3,82.6 348.3,78.4 349.3,74.2 350.4,69.9 351.4,65.6 352.4,61.3 353.5,56.8 354.5,52.4 355.6,47.8" fill="none" stroke="#2980b9" stroke-width="2.5"/>
  <circle cx="266.7" cy="265.2" r="4.5" fill="#e74c3c" stroke="white" stroke-width="1.5"/>
  <text x="274.7" y="257.2" font-size="11" fill="#333">(2.0, 2.0)</text>
  <polyline points="89.0,421.6 90.1,420.7 91.1,419.8 92.1,418.9 93.2,418.0 94.2,417.0 95.3,416.1 96.3,415.2 97.3,414.3 98.4,413.4 99.4,412.5 100.4,411.6 101.5,410.7 102.5,409.7 103.6,408.8 104.6,407.9 105.6,407.0 106.7,406.1 107.7,405.2 108.7,404.3 109.8,403.3 110.8,402.4 111.9,401.5 112.9,400.6 113.9,399.7 115.0,398.8 116.0,397.9 117.0,397.0 118.1,396.0 119.1,395.1 120.1,394.2 121.2,393.3 122.2,392.4 123.3,391.5 124.3,390.6 125.3,389.7 126.4,388.7 127.4,387.8 128.4,386.9 129.5,386.0 130.5,385.1 131.6,384.2 132.6,383.3 133.6,382.3 134.7,381.4 135.7,380.5 136.7,379.6 137.8,378.7 138.8,377.8 139.9,376.9 140.9,376.0 141.9,375.0 143.0,374.1 144.0,373.2 145.0,372.3 146.1,371.4 147.1,370.5 148.1,369.6 149.2,368.7 150.2,367.7 151.3,366.8 152.3,365.9 153.3,365.0 154.4,364.1 155.4,363.2 156.4,362.3 157.5,361.3 158.5,360.4 159.6,359.5 160.6,358.6 161.6,357.7 162.7,356.8 163.7,355.9 164.7,355.0 165.8,354.0 166.8,353.1 167.9,352.2 168.9,351.3 169.9,350.4 171.0,349.5 172.0,348.6 173.0,347.7 174.1,346.7 175.1,345.8 176.1,344.9 177.2,344.0 178.2,343.1 179.3,342.2 180.3,341.3 181.3,340.3 182.4,339.4 183.4,338.5 184.4,337.6 185.5,336.7 186.5,335.8 187.6,334.9 188.6,334.0 189.6,333.0 190.7,332.1 191.7,331.2 192.7,330.3 193.8,329.4 194.8,328.5 195.9,327.6 196.9,326.7 197.9,325.7 199.0,324.8 200.0,323.9 201.0,323.0 202.1,322.1 203.1,321.2 204.1,320.3 205.2,319.3 206.2,318.4 207.3,317.5 208.3,316.6 209.3,315.7 210.4,314.8 211.4,313.9 212.4,313.0 213.5,312.0 214.5,311.1 215.6,310.2 216.6,309.3 217.6,308.4 218.7,307.5 219.7,306.6 220.7,305.7 221.8,304.7 222.8,303.8 223.9,302.9 224.9,302.0 225.9,301.1 227.0,300.2 228.0,299.3 229.0,298.3 230.1,297.4 231.1,296.5 232.1,295.6 233.2,294.7 234.2,293.8 235.3,292.9 236.3,292.0 237.3,291.0 238.4,290.1 239.4,289.2 240.4,288.3 241.5,287.4 242.5,286.5 243.6,285.6 244.6,284.7 245.6,283.7 246.7,282.8 247.7,281.9 248.7,281.0 249.8,280.1 250.8,279.2 251.9,278.3 252.9,277.3 253.9,276.4 255.0,275.5 256.0,274.6 257.0,273.7 258.1,272.8 259.1,271.9 260.1,271.0 261.2,270.0 262.2,269.1 263.3,268.2 264.3,267.3 265.3,266.4 266.4,265.5 267.4,264.6 268.4,263.7 269.5,262.7 270.5,261.8 271.6,260.9 272.6,260.0 273.6,259.1 274.7,258.2 275.7,257.3 276.7,256.3 277.8,255.4 278.8,254.5 279.9,253.6 280.9,252.7 281.9,251.8 283.0,250.9 284.0,250.0 285.0,249.0 286.1,248.1 287.1,247.2 288.1,246.3 289.2,245.4 290.2,244.5 291.3,243.6 292.3,242.7 293.3,241.7 294.4,240.8 295.4,239.9 296.4,239.0 297.5,238.1 298.5,237.2 299.6,236.3 300.6,235.3 301.6,234.4 302.7,233.5 303.7,232.6 304.7,231.7 305.8,230.8 306.8,229.9 307.9,229.0 308.9,228.0 309.9,227.1 311.0,226.2 312.0,225.3 313.0,224.4 314.1,223.5 315.1,222.6 316.1,221.7 317.2,220.7 318.2,219.8 319.3,218.9 320.3,218.0 321.3,217.1 322.4,216.2 323.4,215.3 324.4,214.3 325.5,213.4 326.5,212.5 327.6,211.6 328.6,210.7 329.6,209.8 330.7,208.9 331.7,208.0 332.7,207.0 333.8,206.1 334.8,205.2 335.9,204.3 336.9,203.4 337.9,202.5 339.0,201.6 340.0,200.7 341.0,199.7 342.1,198.8 343.1,197.9 344.1,197.0 345.2,196.1 346.2,195.2 347.3,194.3 348.3,193.3 349.3,192.4 350.4,191.5 351.4,190.6 352.4,189.7 353.5,188.8 354.5,187.9 355.6,187.0" fill="none" stroke="#e74c3c" stroke-width="2.5" stroke-dasharray="8,4"/>
</svg>