<svg xmlns="http://www.w3.org/2000/svg" width="500" height="400" overflow="hidden">
  <defs>
    <marker id="arrow_axis" markerWidth="8" markerHeight="8" refX="8" refY="4" orient="auto">
      <path d="M0,0 L8,4 L0,8 Z" fill="#888"/>
    </marker>
  </defs>
  <rect width="500" height="400" fill="white"/>
  <line x1="0.0" y1="0" x2="0.0" y2="400" stroke="#e0e0e0" stroke-width="0.5"/>
  <line x1="62.5" y1="0" x2="62.5" y2="400" stroke="#e0e0e0" stroke-width="0.5"/>
  <line x1="125.0" y1="0" x2="125.0" y2="400" stroke="#e0e0e0" stroke-width="0.5"/>
  <line x1="187.5" y1="0" x2="187.5" y2="400" stroke="#e0e0e0" stroke-width="0.5"/>
  <line x1="250.0" y1="0" x2="250.0" y2="400" stroke="#e0e0e0" stroke-width="0.5"/>
  <line x1="312.5" y1="0" x2="312.5" y2="400" stroke="#e0e0e0" stroke-width="0.5"/>
  <line x1="375.0" y1="0" x2="375.0" y2="400" stroke="#e0e0e0" stroke-width="0.5"/>
  <line x1="437.5" y1="0" x2="437.5" y2="400" stroke="#e0e0e0" stroke-width="0.5"/>
  <line x1="500.0" y1="0" x2="500.0" y2="400" stroke="#e0e0e0" stroke-width="0.5"/>
  <line x1="0" y1="400.0" x2="500" y2="400.0" stroke="#e0e0e0" stroke-width="0.5"/>
  <line x1="0" y1="369.2" x2="500" y2="369.2" stroke="#e0e0e0" stroke-width="0.5"/>
  <line x1="0" y1="338.5" x2="500" y2="338.5" stroke="#e0e0e0" stroke-width="0.5"/>
  <line x1="0" y1="307.7" x2="500" y2="307.7" stroke="#e0e0e0" stroke-width="0.5"/>
  <line x1="0" y1="276.9" x2="500" y2="276.9" stroke="#e0e0e0" stroke-width="0.5"/>
  <line x1="0" y1="246.2" x2="500" y2="246.2" stroke="#e0e0e0" stroke-width="0.5"/>
  <line x1="0" y1="215.4" x2="500" y2="215.4" stroke="#e0e0e0" stroke-width="0.5"/>
  <line x1="0" y1="184.6" x2="500" y2="184.6" stroke="#e0e0e0" stroke-width="0.5"/>
  <line x1="0" y1="153.8" x2="500" y2="153.8" stroke="#e0e0e0" stroke-width="0.5"/>
  <line x1="0" y1="123.1" x2="500" y2="123.1" stroke="#e0e0e0" stroke-width="0.5"/>
  <line x1="0" y1="92.3" x2="500" y2="92.3" stroke="#e0e0e0" stroke-width="0.5"/>
  <line x1="0" y1="61.5" x2="500" y2="61.5" stroke="#e0e0e0" stroke-width="0.5"/>
  <line x1="0" y1="30.8" x2="500" y2="30.8" stroke="#e0e0e0" stroke-width="0.5"/>
  <line x1="0" y1="0.0" x2="500" y2="0.0" stroke="#e0e0e0" stroke-width="0.5"/>
  <line x1="0" y1="369.2" x2="500" y2="369.2" stroke="#888" stroke-width="1" marker-end="url(#arrow_axis)"/>
  <line x1="125.0" y1="400" x2="125.0" y2="0" stroke="#888" stroke-width="1" marker-end="url(#arrow_axis)"/>
  <text x="0.0" y="383.2" text-anchor="middle" font-size="10" fill="#666">-2</text>
  <text x="62.5" y="383.2" text-anchor="middle" font-size="10" fill="#666">-1</text>
  <text x="187.5" y="383.2" text-anchor="middle" font-size="10" fill="#666">1</text>
  <text x="250.0" y="383.2" text-anchor="middle" font-size="10" fill="#666">2</text>
  <text x="312.5" y="383.2" text-anchor="middle" font-size="10" fill="#666">3</text>
  <text x="375.0" y="383.2" text-anchor="middle" font-size="10" fill="#666">4</text>
  <text x="437.5" y="383.2" text-anchor="middle" font-size="10" fill="#666">5</text>
  <text x="500.0" y="383.2" text-anchor="middle" font-size="10" fill="#666">6</text>
  <text x="117.0" y="404.0" text-anchor="end" font-size="10" fill="#666">-1</text>
  <text x="117.0" y="342.5" text-anchor="end" font-size="10" fill="#666">1</text>
  <text x="117.0" y="311.7" text-anchor="end" font-size="10" fill="#666">2</text>
  <text x="117.0" y="280.9" text-anchor="end" font-size="10" fill="#666">3</text>
  <text x="117.0" y="250.2" text-anchor="end" font-size="10" fill="#666">4</text>
  <text x="117.0" y="219.4" text-anchor="end" font-size="10" fill="#666">5</text>
  <text x="117.0" y="188.6" text-anchor="end" font-size="10" fill="#666">6</text>
  <text x="117.0" y="157.8" text-anchor="end" font-size="10" fill="#666">7</text>
  <text x="117.0" y="127.1" text-anchor="end" font-size="10" fill="#666">8</text>
  <text x="117.0" y="96.3" text-anchor="end" font-size="10" fill="#666">9</text>
  <text x="117.0" y="65.5" text-anchor="end" font-size="10" fill="#666">10</text>
  <text x="117.0" y="34.8" text-anchor="end" font-size="10" fill="#666">11</text>
  <text x="117.0" y="4.0" text-anchor="end" font-size="10" fill="#666">12</text>
  <polyline points="62.5,61.5 64.4,67.0 66.2,72.5 68.1,77.9 70.0,83.2 71.9,88.5 73.8,93.8 75.6,99.0 77.5,104.1 79.4,109.1 81.2,114.2 83.1,119.1 85.0,124.0 86.9,128.9 88.8,133.6 90.6,138.4 92.5,143.1 94.4,147.7 96.2,152.3 98.1,156.8 100.0,161.2 101.9,165.6 103.8,170.0 105.6,174.3 107.5,178.5 109.4,182.7 111.2,186.8 113.1,190.9 115.0,194.9 116.9,198.9 118.8,202.8 120.6,206.6 122.5,210.4 124.4,214.2 126.2,217.8 128.1,221.5 130.0,225.0 131.9,228.6 133.7,232.0 135.6,235.4 137.5,238.8 139.4,242.1 141.2,245.3 143.1,248.5 145.0,251.6 146.9,254.7 148.8,257.7 150.6,260.7 152.5,263.6 154.4,266.4 156.2,269.2 158.1,272.0 160.0,274.7 161.9,277.3 163.8,279.9 165.6,282.4 167.5,284.8 169.4,287.3 171.2,289.6 173.1,291.9 175.0,294.2 176.9,296.3 178.8,298.5 180.6,300.6 182.5,302.6 184.4,304.5 186.2,306.4 188.1,308.3 190.0,310.1 191.9,311.8 193.8,313.5 195.6,315.2 197.5,316.8 199.4,318.3 201.2,319.7 203.1,321.2 205.0,322.5 206.9,323.8 208.8,325.1 210.6,326.2 212.5,327.4 214.4,328.5 216.2,329.5 218.1,330.5 220.0,331.4 221.9,332.2 223.8,333.0 225.6,333.8 227.5,334.5 229.4,335.1 231.2,335.7 233.1,336.2 235.0,336.7 236.9,337.1 238.8,337.5 240.6,337.8 242.5,338.0 244.4,338.2 246.2,338.4 248.1,338.4 250.0,338.5 251.9,338.4 253.8,338.4 255.6,338.2 257.5,338.0 259.4,337.8 261.2,337.5 263.1,337.1 265.0,336.7 266.9,336.2 268.8,335.7 270.6,335.1 272.5,334.5 274.4,333.8 276.2,333.0 278.1,332.2 280.0,331.4 281.9,330.5 283.8,329.5 285.6,328.5 287.5,327.4 289.4,326.2 291.2,325.1 293.1,323.8 295.0,322.5 296.9,321.2 298.7,319.7 300.6,318.3 302.5,316.8 304.4,315.2 306.2,313.5 308.1,311.8 310.0,310.1 311.9,308.3 313.8,306.4 315.6,304.5 317.5,302.6 319.4,300.6 321.2,298.5 323.1,296.3 325.0,294.2 326.9,291.9 328.8,289.6 330.6,287.3 332.5,284.8 334.4,282.4 336.2,279.9 338.1,277.3 340.0,274.7 341.9,272.0 343.8,269.2 345.6,266.4 347.5,263.6 349.4,260.7 351.2,257.7 353.1,254.7 355.0,251.6 356.9,248.5 358.8,245.3 360.6,242.1 362.5,238.8 364.4,235.4 366.2,232.0 368.1,228.6 370.0,225.0 371.9,221.5 373.8,217.8 375.6,214.2 377.5,210.4 379.4,206.6 381.2,202.8 383.1,198.9 385.0,194.9 386.9,190.9 388.8,186.8 390.6,182.7 392.5,178.5 394.4,174.3 396.2,170.0 398.1,165.6 400.0,161.2 401.9,156.8 403.8,152.3 405.6,147.7 407.5,143.1 409.4,138.4 411.2,133.6 413.1,128.9 415.0,124.0 416.9,119.1 418.8,114.2 420.6,109.1 422.5,104.1 424.4,99.0 426.2,93.8 428.1,88.5 430.0,83.2 431.9,77.9 433.8,72.5 435.6,67.0 437.5,61.5" fill="none" stroke="#2980b9" stroke-width="2" />
  <polyline points="62.5,553.8 64.4,552.0 66.2,550.2 68.1,548.3 70.0,546.5 71.9,544.6 73.8,542.8 75.6,540.9 77.5,539.1 79.4,537.2 81.2,535.4 83.1,533.5 85.0,531.7 86.9,529.8 88.8,528.0 90.6,526.2 92.5,524.3 94.4,522.5 96.2,520.6 98.1,518.8 100.0,516.9 101.9,515.1 103.8,513.2 105.6,511.4 107.5,509.5 109.4,507.7 111.2,505.8 113.1,504.0 115.0,502.2 116.9,500.3 118.8,498.5 120.6,496.6 122.5,494.8 124.4,492.9 126.2,491.1 128.1,489.2 130.0,487.4 131.9,485.5 133.7,483.7 135.6,481.8 137.5,480.0 139.4,478.2 141.2,476.3 143.1,474.5 145.0,472.6 146.9,470.8 148.8,468.9 150.6,467.1 152.5,465.2 154.4,463.4 156.2,461.5 158.1,459.7 160.0,457.8 161.9,456.0 163.8,454.2 165.6,452.3 167.5,450.5 169.4,448.6 171.2,446.8 173.1,444.9 175.0,443.1 176.9,441.2 178.8,439.4 180.6,437.5 182.5,435.7 184.4,433.8 186.2,432.0 188.1,430.2 190.0,428.3 191.9,426.5 193.8,424.6 195.6,422.8 197.5,420.9 199.4,419.1 201.2,417.2 203.1,415.4 205.0,413.5 206.9,411.7 208.8,409.8 210.6,408.0 212.5,406.2 214.4,404.3 216.2,402.5 218.1,400.6 220.0,398.8 221.9,396.9 223.8,395.1 225.6,393.2 227.5,391.4 229.4,389.5 231.2,387.7 233.1,385.8 235.0,384.0 236.9,382.2 238.8,380.3 240.6,378.5 242.5,376.6 244.4,374.8 246.2,372.9 248.1,371.1 250.0,369.2 251.9,367.4 253.8,365.5 255.6,363.7 257.5,361.8 259.4,360.0 261.2,358.2 263.1,356.3 265.0,354.5 266.9,352.6 268.8,350.8 270.6,348.9 272.5,347.1 274.4,345.2 276.2,343.4 278.1,341.5 280.0,339.7 281.9,337.8 283.8,336.0 285.6,334.2 287.5,332.3 289.4,330.5 291.2,328.6 293.1,326.8 295.0,324.9 296.9,323.1 298.7,321.2 300.6,319.4 302.5,317.5 304.4,315.7 306.2,313.8 308.1,312.0 310.0,310.2 311.9,308.3 313.8,306.5 315.6,304.6 317.5,302.8 319.4,300.9 321.2,299.1 323.1,297.2 325.0,295.4 326.9,293.5 328.8,291.7 330.6,289.8 332.5,288.0 334.4,286.2 336.2,284.3 338.1,282.5 340.0,280.6 341.9,278.8 343.8,276.9 345.6,275.1 347.5,273.2 349.4,271.4 351.2,269.5 353.1,267.7 355.0,265.8 356.9,264.0 358.8,262.2 360.6,260.3 362.5,258.5 364.4,256.6 366.2,254.8 368.1,252.9 370.0,251.1 371.9,249.2 373.8,247.4 375.6,245.5 377.5,243.7 379.4,241.8 381.2,240.0 383.1,238.2 385.0,236.3 386.9,234.5 388.8,232.6 390.6,230.8 392.5,228.9 394.4,227.1 396.2,225.2 398.1,223.4 400.0,221.5 401.9,219.7 403.8,217.8 405.6,216.0 407.5,214.2 409.4,212.3 411.2,210.5 413.1,208.6 415.0,206.8 416.9,204.9 418.8,203.1 420.6,201.2 422.5,199.4 424.4,197.5 426.2,195.7 428.1,193.8 430.0,192.0 431.9,190.2 433.8,188.3 435.6,186.5 437.5,184.6" fill="none" stroke="#e74c3c" stroke-width="2" stroke-dasharray="6,4"/>
  <circle cx="250.0" cy="338.5" r="4" fill="#e74c3c" stroke="#333" stroke-width="1"/>
  <text x="258.0" y="332.5" font-size="11" fill="#333">x=2.0</text>
  <circle cx="250.0" cy="338.5" r="4" fill="#e74c3c" stroke="#333" stroke-width="1"/>
  <circle cx="156.2" cy="269.2" r="4" fill="#e74c3c" stroke="#333" stroke-width="1"/>
  <text x="268.8" y="353.8" font-size="12" fill="#333">минимум: (2.0, 1.0)</text>
  <text x="156.2" y="293.8" font-size="12" fill="#333">(-inf, 2): f&#x27;-  (убывает)</text>
</svg>