<svg xmlns="http://www.w3.org/2000/svg" width="500" height="1710">
  <defs>
    <marker id="arrowhead" markerWidth="10" markerHeight="7" refX="10" refY="3.5" orient="auto">
      <polygon points="0 0, 10 3.5, 0 7" fill="#333"/>
    </marker>
  </defs>
  <rect width="500" height="1710" fill="white"/>
  <text x="250" y="44" text-anchor="middle" font-size="17" font-weight="bold" fill="#333">Пошаговое решение задачи на нахождение наибольшего значения функции на отрезке</text>
  <line x1="250.0" y1="134.0" x2="250.0" y2="204.0" stroke="#333" stroke-width="1.5" marker-end="url(#arrowhead)"/>
  <line x1="250.0" y1="256.0" x2="250.0" y2="326.0" stroke="#333" stroke-width="1.5" marker-end="url(#arrowhead)"/>
  <line x1="250.0" y1="378.0" x2="250.0" y2="448.0" stroke="#333" stroke-width="1.5" marker-end="url(#arrowhead)"/>
  <line x1="250.0" y1="500.0" x2="250.0" y2="570.0" stroke="#333" stroke-width="1.5" marker-end="url(#arrowhead)"/>
  <line x1="250.0" y1="622.0" x2="250.0" y2="692.0" stroke="#333" stroke-width="1.5" marker-end="url(#arrowhead)"/>
  <line x1="250.0" y1="744.0" x2="250.0" y2="814.0" stroke="#333" stroke-width="1.5" marker-end="url(#arrowhead)"/>
  <line x1="250.0" y1="866.0" x2="250.0" y2="936.0" stroke="#333" stroke-width="1.5" marker-end="url(#arrowhead)"/>
  <line x1="250.0" y1="988.0" x2="250.0" y2="1058.0" stroke="#333" stroke-width="1.5" marker-end="url(#arrowhead)"/>
  <line x1="250.0" y1="1110.0" x2="250.0" y2="1180.0" stroke="#333" stroke-width="1.5" marker-end="url(#arrowhead)"/>
  <line x1="250.0" y1="1232.0" x2="250.0" y2="1302.0" stroke="#333" stroke-width="1.5" marker-end="url(#arrowhead)"/>
  <line x1="250.0" y1="1366.0" x2="250.0" y2="1436.0" stroke="#333" stroke-width="1.5" marker-end="url(#arrowhead)"/>
  <line x1="250.0" y1="1488.0" x2="250.0" y2="1558.0" stroke="#333" stroke-width="1.5" marker-end="url(#arrowhead)"/>
  <rect x="120.0" y="70.0" width="260" height="64.0" rx="6" fill="#fdebd0" stroke="#e67e22" stroke-width="1.5"/>
  <text x="250.0" y="104.0" text-anchor="middle" font-size="13" fill="#333">Задача: Найти наибольшее значение…</text>
  <rect x="120.0" y="326.0" width="260" height="52.0" rx="6" fill="#f5f5f5" stroke="#333333" stroke-width="1.5"/>
  <text x="250.0" y="354.0" text-anchor="middle" font-size="13" fill="#333">Запишем функцию</text>
  <rect x="120.0" y="570.0" width="260" height="52.0" rx="6" fill="#f5f5f5" stroke="#333333" stroke-width="1.5"/>
  <text x="250.0" y="598.0" text-anchor="middle" font-size="13" fill="#333">Найдем производную</text>
  <rect x="120.0" y="814.0" width="260" height="52.0" rx="6" fill="#f5f5f5" stroke="#333333" stroke-width="1.5"/>
  <text x="250.0" y="842.0" text-anchor="middle" font-size="13" fill="#333">Найдем критические точки</text>
  <rect x="120.0" y="1058.0" width="260" height="52.0" rx="6" fill="#f5f5f5" stroke="#333333" stroke-width="1.5"/>
  <text x="250.0" y="1086.0" text-anchor="middle" font-size="13" fill="#333">Решаем уравнение</text>
  <rect x="120.0" y="1302.0" width="260" height="64.0" rx="6" fill="#f5f5f5" stroke="#333333" stroke-width="1.5"/>
  <text x="250.0" y="1336.0" text-anchor="middle" font-size="13" fill="#333">Вычислим значения функции в конца…</text>
  <rect x="120.0" y="1558.0" width="260" height="52.0" rx="6" fill="#f5f5f5" stroke="#333333" stroke-width="1.5"/>
  <text x="250.0" y="1586.0" text-anchor="middle" font-size="13" fill="#333">Сравним значения и определим наиб…</text>
  <rect x="120.0" y="204.0" width="260" height="52.0" rx="6" fill="#f5f5f5" stroke="#333333" stroke-width="1.5"/>
  <text x="250.0" y="232.0" text-anchor="middle" font-size="13" fill="#333">$f(x) = x^2 - 4x + 5$</text>
  <rect x="120.0" y="448.0" width="260" height="52.0" rx="6" fill="#f5f5f5" stroke="#333333" stroke-width="1.5"/>
  <text x="250.0" y="476.0" text-anchor="middle" font-size="13" fill="#333">$f&#x27;(x) = 2x - 4$</text>
  <rect x="120.0" y="692.0" width="260" height="52.0" rx="6" fill="#f5f5f5" stroke="#333333" stroke-width="1.5"/>
  <text x="250.0" y="720.0" text-anchor="middle" font-size="13" fill="#333">$2x - 4 = 0$</text>
  <rect x="120.0" y="936.0" width="260" height="52.0" rx="6" fill="#f5f5f5" stroke="#333333" stroke-width="1.5"/>
  <text x="250.0" y="964.0" text-anchor="middle" font-size="13" fill="#333">$x = 2$</text>
  <rect x="120.0" y="1180.0" width="260" height="52.0" rx="6" fill="#f5f5f5" stroke="#333333" stroke-width="1.5"/>
  <text x="250.0" y="1208.0" text-anchor="middle" font-size="13" fill="#333">$f(0) = 5, f(2) = 1, f(3) = 2$</text>
  <rect x="120.0" y="1436.0" width="260" height="52.0" rx="6" fill="#f5f5f5" stroke="#333333" stroke-width="1.5"/>
  <text x="250.0" y="1464.0" text-anchor="middle" font-size="13" fill="#333">$Наибольшее значение: 5$</text>
</svg>