<svg width="586.017" height="109.002" xmlns="http://www.w3.org/2000/svg" viewBox="0 -60.693 586.017 109.002"><g><g><symbol id="STIXTwoMathRegular_260" viewBox="0 -31.524 4.548 51.216"><path d="M 0.312 -5.616 L 0.312 -5.616 L 1.224 -5.616 Q 1.224 -6.348 1.302 -6.81 Q 1.38 -7.272 1.608 -7.68 Q 1.848 -8.1 2.214 -8.328 Q 2.58 -8.556 3.204 -8.556 Q 3.792 -8.556 4.17 -8.34 Q 4.548 -8.124 4.548 -7.716 Q 4.548 -7.452 4.404 -7.326 Q 4.26 -7.2 4.056 -7.2 Q 3.828 -7.2 3.684 -7.338 Q 3.54 -7.476 3.426 -7.656 Q 3.312 -7.836 3.168 -7.974 Q 3.024 -8.112 2.796 -8.112 Q 2.46 -8.112 2.34 -7.806 Q 2.22 -7.5 2.22 -6.744 L 2.22 -5.616 L 3.684 -5.616 L 3.684 -5.112 L 2.22 -5.112 L 2.22 -1.428 Q 2.22 -0.96 2.316 -0.732 Q 2.412 -0.504 2.676 -0.426 Q 2.94 -0.348 3.444 -0.348 L 3.444 0 L 0.216 0 L 0.216 -0.348 Q 0.66 -0.348 0.87 -0.426 Q 1.08 -0.504 1.152 -0.732 Q 1.224 -0.96 1.224 -1.428 L 1.224 -5.112 L 0.312 -5.112 Z " /></symbol><use href="#STIXTwoMathRegular_260" x="0" y="-63.048" width="9.096" height="102.432" fill="black" /><symbol id="STIXTwoMathRegular_1064" viewBox="0 -31.524 3.924 51.216"><path d="M 0.54 -3.24 L 0.54 -3.24 Q 0.54 -5.244 1.41 -6.66 Q 2.28 -8.076 3.732 -8.832 L 3.924 -8.52 Q 2.616 -7.632 2.07 -6.354 Q 1.524 -5.076 1.524 -3.24 Q 1.524 -1.404 2.07 -0.126 Q 2.616 1.152 3.924 2.04 L 3.732 2.352 Q 2.28 1.596 1.41 0.18 Q 0.54 -1.236 0.54 -3.24 Z " /></symbol><use href="#STIXTwoMathRegular_1064" x="7.368" y="-63.048" width="7.848" height="102.432" fill="black" /><symbol id="STIXTwoMathRegular_279" viewBox="-0.024 -31.524 5.808 51.216"><path d="M 5.784 0 L 5.784 0 L 3.276 0 L 3.276 -0.348 Q 3.588 -0.348 3.714 -0.402 Q 3.84 -0.456 3.84 -0.612 Q 3.84 -0.732 3.756 -0.864 L 3 -2.028 L 2.76 -2.448 L 2.712 -2.448 L 1.728 -1.032 Q 1.644 -0.888 1.542 -0.744 Q 1.44 -0.6 1.44 -0.528 Q 1.44 -0.432 1.56 -0.39 Q 1.68 -0.348 1.98 -0.348 L 1.98 0 L -0.024 0 L -0.024 -0.348 Q 0.288 -0.348 0.492 -0.474 Q 0.696 -0.6 0.996 -0.948 L 2.436 -2.82 L 1.188 -4.608 Q 0.984 -4.908 0.84 -5.064 Q 0.696 -5.22 0.54 -5.274 Q 0.384 -5.328 0.132 -5.328 L 0.132 -5.676 L 2.712 -5.676 L 2.712 -5.34 Q 2.136 -5.34 2.136 -5.064 Q 2.136 -4.92 2.298 -4.686 Q 2.46 -4.452 2.76 -3.948 L 3.048 -3.42 L 3.096 -3.42 L 3.66 -4.236 Q 3.9 -4.572 3.996 -4.74 Q 4.092 -4.908 4.092 -5.052 Q 4.092 -5.184 3.99 -5.262 Q 3.888 -5.34 3.6 -5.34 L 3.6 -5.676 L 5.58 -5.676 L 5.58 -5.328 Q 5.28 -5.328 5.052 -5.178 Q 4.824 -5.028 4.62 -4.764 L 3.348 -3.132 L 4.824 -1.044 Q 5.076 -0.684 5.262 -0.516 Q 5.448 -0.348 5.784 -0.348 Z " /></symbol><use href="#STIXTwoMathRegular_279" x="15.888" y="-63.048" width="11.616" height="102.432" fill="black" /><symbol id="STIXTwoMathRegular_1065" viewBox="0 -31.524 3.744 51.216"><path d="M 3.744 -3.24 L 3.744 -3.24 Q 3.744 -1.236 2.874 0.18 Q 2.004 1.596 0.552 2.352 L 0.36 2.04 Q 1.68 1.152 2.22 -0.126 Q 2.76 -1.404 2.76 -3.24 Q 2.76 -5.076 2.22 -6.354 Q 1.68 -7.632 0.36 -8.52 L 0.552 -8.832 Q 2.004 -8.076 2.874 -6.66 Q 3.744 -5.244 3.744 -3.24 Z " /></symbol><use href="#STIXTwoMathRegular_1065" x="27.432" y="-63.048" width="7.488" height="102.432" fill="black" /><symbol id="STIXTwoMathRegular_2" viewBox="0 -31.524 0 51.216" /><use href="#STIXTwoMathRegular_2" x="36" y="-63.048" width="0" height="102.432" fill="black" /><symbol id="STIXTwoMathRegular_1" viewBox="0 -31.524 0 51.216" /><use href="#STIXTwoMathRegular_1" x="41.64" y="-63.048" width="0" height="102.432" fill="black" /><use href="#STIXTwoMathRegular_1" x="47.28" y="-63.048" width="0" height="102.432" fill="black" /><use href="#STIXTwoMathRegular_1" x="52.92" y="-63.048" width="0" height="102.432" fill="black" /><use href="#STIXTwoMathRegular_1" x="58.56" y="-63.048" width="0" height="102.432" fill="black" /><symbol id="STIXTwoMathRegular_259" viewBox="0 -31.524 5.208 51.216"><path d="M 4.98 -1.716 L 4.98 -1.716 L 5.208 -1.548 Q 4.992 -1.092 4.704 -0.714 Q 4.416 -0.336 4.002 -0.108 Q 3.588 0.12 2.964 0.12 Q 2.244 0.12 1.662 -0.222 Q 1.08 -0.564 0.744 -1.23 Q 0.408 -1.896 0.408 -2.856 Q 0.408 -3.864 0.75 -4.518 Q 1.092 -5.172 1.668 -5.496 Q 2.244 -5.82 2.94 -5.82 Q 3.924 -5.82 4.524 -5.136 Q 5.124 -4.452 5.172 -3.192 L 1.38 -3.192 Q 1.38 -2.364 1.65 -1.83 Q 1.92 -1.296 2.346 -1.038 Q 2.772 -0.78 3.252 -0.78 Q 3.744 -0.78 4.05 -0.912 Q 4.356 -1.044 4.572 -1.254 Q 4.788 -1.464 4.98 -1.716 Z M 1.368 -3.636 L 1.368 -3.636 L 4.044 -3.636 Q 4.032 -4.08 3.888 -4.47 Q 3.744 -4.86 3.468 -5.1 Q 3.192 -5.34 2.76 -5.34 Q 1.512 -5.34 1.368 -3.636 Z " /></symbol><use href="#STIXTwoMathRegular_259" x="64.2" y="-63.048" width="10.416" height="102.432" fill="black" /><use href="#STIXTwoMathRegular_279" x="75.048" y="-63.048" width="11.616" height="102.432" fill="black" /><symbol id="STIXTwoMathRegular_275" viewBox="0 -31.524 3.744 51.216"><path d="M 3.516 -1.08 L 3.516 -1.08 L 3.744 -0.888 Q 3.516 -0.564 3.318 -0.342 Q 3.12 -0.12 2.88 0 Q 2.64 0.12 2.256 0.12 Q 1.656 0.12 1.38 -0.234 Q 1.104 -0.588 1.104 -1.392 L 1.104 -5.112 L 0.444 -5.112 L 0.444 -5.388 Q 0.864 -5.652 1.17 -6.102 Q 1.476 -6.552 1.8 -7.32 L 2.112 -7.32 L 2.1 -5.616 L 3.456 -5.616 L 3.456 -5.112 L 2.1 -5.112 L 2.1 -1.728 Q 2.1 -1.092 2.214 -0.84 Q 2.328 -0.588 2.676 -0.588 Q 2.964 -0.588 3.126 -0.708 Q 3.288 -0.828 3.516 -1.08 Z " /></symbol><use href="#STIXTwoMathRegular_275" x="86.592" y="-63.048" width="7.488" height="102.432" fill="black" /><symbol id="STIXTwoMathRegular_1068" viewBox="0 -31.524 3.384 51.216"><path d="M 0.3 -2.94 L 0.3 -2.94 L 0.3 -3.54 Q 0.588 -3.576 0.834 -3.636 Q 1.08 -3.696 1.23 -3.87 Q 1.38 -4.044 1.38 -4.404 Q 1.38 -4.62 1.344 -4.956 Q 1.308 -5.292 1.266 -5.688 Q 1.224 -6.084 1.188 -6.456 Q 1.152 -6.828 1.152 -7.092 Q 1.152 -7.788 1.464 -8.16 Q 1.776 -8.532 2.286 -8.682 Q 2.796 -8.832 3.384 -8.832 L 3.384 -8.448 Q 3.048 -8.448 2.736 -8.358 Q 2.424 -8.268 2.232 -8.01 Q 2.04 -7.752 2.04 -7.236 Q 2.04 -6.936 2.088 -6.534 Q 2.136 -6.132 2.178 -5.718 Q 2.22 -5.304 2.22 -4.932 Q 2.22 -4.188 1.896 -3.822 Q 1.572 -3.456 1.116 -3.276 L 1.116 -3.204 Q 1.572 -3.024 1.896 -2.658 Q 2.22 -2.292 2.22 -1.548 Q 2.22 -1.188 2.178 -0.762 Q 2.136 -0.336 2.088 0.06 Q 2.04 0.456 2.04 0.768 Q 2.04 1.284 2.232 1.542 Q 2.424 1.8 2.736 1.89 Q 3.048 1.98 3.384 1.98 L 3.384 2.364 Q 2.796 2.364 2.286 2.214 Q 1.776 2.064 1.464 1.686 Q 1.152 1.308 1.152 0.624 Q 1.152 0.348 1.188 -0.024 Q 1.224 -0.396 1.266 -0.786 Q 1.308 -1.176 1.344 -1.518 Q 1.38 -1.86 1.38 -2.076 Q 1.38 -2.436 1.23 -2.61 Q 1.08 -2.784 0.834 -2.85 Q 0.588 -2.916 0.3 -2.94 Z " /></symbol><use href="#STIXTwoMathRegular_1068" x="94.152" y="-63.048" width="6.768" height="102.432" fill="black" /><use href="#STIXTwoMathRegular_2" x="102" y="-63.048" width="0" height="102.432" fill="black" /><symbol id="STIXTwoMathRegular_1006" viewBox="0 -31.524 6.9 51.216"><path d="M 2.232 -4.452 L 2.232 -4.452 L 2.232 -3.156 L 5.016 -3.156 L 5.016 -4.452 Q 5.016 -4.8 4.98 -4.986 Q 4.944 -5.172 4.776 -5.25 Q 4.608 -5.328 4.212 -5.328 L 4.212 -5.676 L 6.9 -5.676 L 6.9 -5.328 Q 6.48 -5.328 6.294 -5.25 Q 6.108 -5.172 6.072 -4.986 Q 6.036 -4.8 6.036 -4.452 L 6.036 -1.2 Q 6.036 -0.828 6.09 -0.642 Q 6.144 -0.456 6.33 -0.396 Q 6.516 -0.336 6.9 -0.336 L 6.9 0 L 4.212 0 L 4.212 -0.336 Q 4.608 -0.336 4.776 -0.396 Q 4.944 -0.456 4.98 -0.642 Q 5.016 -0.828 5.016 -1.2 L 5.016 -2.724 L 2.232 -2.724 L 2.232 -1.2 Q 2.232 -0.828 2.274 -0.642 Q 2.316 -0.456 2.49 -0.396 Q 2.664 -0.336 3.048 -0.336 L 3.048 0 L 0.36 0 L 0.36 -0.336 Q 0.744 -0.336 0.924 -0.396 Q 1.104 -0.456 1.164 -0.63 Q 1.224 -0.804 1.224 -1.164 L 1.224 -4.452 Q 1.224 -4.824 1.176 -5.01 Q 1.128 -5.196 0.948 -5.262 Q 0.768 -5.328 0.36 -5.328 L 0.36 -5.676 L 3.048 -5.676 L 3.048 -5.328 Q 2.664 -5.328 2.49 -5.25 Q 2.316 -5.172 2.274 -4.986 Q 2.232 -4.8 2.232 -4.452 Z " /></symbol><use href="#STIXTwoMathRegular_1006" x="107.64" y="-63.048" width="13.8" height="102.432" fill="black" /><symbol id="STIXTwoMathRegular_998" viewBox="0 -31.524 5.208 51.216"><path d="M 4.98 -1.716 L 4.98 -1.716 L 5.208 -1.548 Q 4.992 -1.092 4.704 -0.714 Q 4.416 -0.336 4.002 -0.108 Q 3.588 0.12 2.964 0.12 Q 2.244 0.12 1.662 -0.222 Q 1.08 -0.564 0.744 -1.23 Q 0.408 -1.896 0.408 -2.856 Q 0.408 -3.864 0.75 -4.518 Q 1.092 -5.172 1.668 -5.496 Q 2.244 -5.82 2.94 -5.82 Q 3.924 -5.82 4.524 -5.136 Q 5.124 -4.452 5.172 -3.192 L 1.38 -3.192 Q 1.38 -2.364 1.65 -1.83 Q 1.92 -1.296 2.346 -1.038 Q 2.772 -0.78 3.252 -0.78 Q 3.744 -0.78 4.05 -0.912 Q 4.356 -1.044 4.572 -1.254 Q 4.788 -1.464 4.98 -1.716 Z M 1.368 -3.636 L 1.368 -3.636 L 4.044 -3.636 Q 4.032 -4.08 3.888 -4.47 Q 3.744 -4.86 3.468 -5.1 Q 3.192 -5.34 2.76 -5.34 Q 1.512 -5.34 1.368 -3.636 Z " /></symbol><use href="#STIXTwoMathRegular_998" x="122.16" y="-63.048" width="10.416" height="102.432" fill="black" /><symbol id="STIXTwoMathRegular_1008" viewBox="0 -31.524 6.732 51.216"><path d="M 0.36 -5.328 L 0.36 -5.328 L 0.36 -5.676 L 6.732 -5.676 L 6.732 -5.328 Q 6.312 -5.328 6.126 -5.25 Q 5.94 -5.172 5.904 -4.986 Q 5.868 -4.8 5.868 -4.452 L 5.868 -1.2 Q 5.868 -0.828 5.922 -0.642 Q 5.976 -0.456 6.162 -0.396 Q 6.348 -0.336 6.732 -0.336 L 6.732 0 L 4.056 0 L 4.056 -0.336 Q 4.44 -0.336 4.608 -0.396 Q 4.776 -0.456 4.818 -0.642 Q 4.86 -0.828 4.86 -1.2 L 4.86 -5.22 L 2.232 -5.22 L 2.232 -1.2 Q 2.232 -0.828 2.274 -0.642 Q 2.316 -0.456 2.49 -0.396 Q 2.664 -0.336 3.048 -0.336 L 3.048 0 L 0.36 0 L 0.36 -0.336 Q 0.744 -0.336 0.924 -0.396 Q 1.104 -0.456 1.164 -0.63 Q 1.224 -0.804 1.224 -1.164 L 1.224 -4.452 Q 1.224 -4.824 1.176 -5.01 Q 1.128 -5.196 0.948 -5.262 Q 0.768 -5.328 0.36 -5.328 Z " /></symbol><use href="#STIXTwoMathRegular_1008" x="133.296" y="-63.048" width="13.464" height="102.432" fill="black" /><symbol id="STIXTwoMathRegular_1009" viewBox="0 -31.524 6.024 51.216"><path d="M 2.112 -5.784 L 2.112 -5.784 L 2.112 -4.776 L 2.148 -4.776 Q 2.58 -5.28 3.03 -5.55 Q 3.48 -5.82 4.008 -5.82 Q 4.608 -5.82 5.058 -5.478 Q 5.508 -5.136 5.766 -4.53 Q 6.024 -3.924 6.024 -3.132 Q 6.024 -2.112 5.67 -1.386 Q 5.316 -0.66 4.716 -0.27 Q 4.116 0.12 3.396 0.12 Q 3.06 0.12 2.754 0.042 Q 2.448 -0.036 2.184 -0.216 L 2.136 -0.216 L 2.136 1.356 Q 2.136 1.74 2.232 1.944 Q 2.328 2.148 2.58 2.22 Q 2.832 2.292 3.3 2.292 L 3.3 2.64 L 0.264 2.64 L 0.264 2.304 Q 0.828 2.304 0.984 2.118 Q 1.14 1.932 1.14 1.428 L 1.14 -4.512 Q 1.14 -4.86 1.062 -4.992 Q 0.984 -5.124 0.684 -5.124 Q 0.564 -5.124 0.432 -5.112 Q 0.3 -5.1 0.3 -5.1 L 0.3 -5.448 L 1.812 -5.784 Z M 2.136 -4.272 L 2.136 -4.272 L 2.136 -1.14 Q 2.256 -1.02 2.436 -0.828 Q 2.616 -0.636 2.868 -0.492 Q 3.12 -0.348 3.456 -0.348 Q 4.092 -0.348 4.512 -0.948 Q 4.932 -1.548 4.932 -2.796 Q 4.932 -3.936 4.56 -4.47 Q 4.188 -5.004 3.516 -5.004 Q 3.036 -5.004 2.67 -4.752 Q 2.304 -4.5 2.136 -4.272 Z " /></symbol><use href="#STIXTwoMathRegular_1009" x="147.48" y="-63.048" width="12.048" height="102.432" fill="black" /><use href="#STIXTwoMathRegular_998" x="160.368" y="-63.048" width="10.416" height="102.432" fill="black" /><use href="#STIXTwoMathRegular_1009" x="171.504" y="-63.048" width="12.048" height="102.432" fill="black" /><symbol id="STIXTwoMathRegular_1020" viewBox="0 -31.524 8.34 51.216"><path d="M 0.396 -5.328 L 0.396 -5.328 L 0.396 -5.676 L 3.096 -5.676 L 3.096 -5.328 Q 2.7 -5.328 2.52 -5.274 Q 2.34 -5.22 2.286 -5.046 Q 2.232 -4.872 2.232 -4.512 L 2.232 -3.24 Q 2.436 -3.252 2.694 -3.27 Q 2.952 -3.288 3.216 -3.288 Q 4.344 -3.288 4.878 -2.856 Q 5.412 -2.424 5.412 -1.692 Q 5.412 -0.924 4.812 -0.462 Q 4.212 0 3 0 L 0.384 0 L 0.384 -0.336 Q 0.936 -0.336 1.08 -0.504 Q 1.224 -0.672 1.224 -1.152 L 1.224 -4.512 Q 1.224 -4.872 1.176 -5.046 Q 1.128 -5.22 0.954 -5.274 Q 0.78 -5.328 0.396 -5.328 Z M 7.512 -4.452 L 7.512 -4.452 L 7.512 -1.2 Q 7.512 -0.828 7.56 -0.642 Q 7.608 -0.456 7.782 -0.396 Q 7.956 -0.336 8.34 -0.336 L 8.34 0 L 5.7 0 L 5.7 -0.336 Q 6.084 -0.336 6.252 -0.396 Q 6.42 -0.456 6.468 -0.63 Q 6.516 -0.804 6.516 -1.164 L 6.516 -4.452 Q 6.516 -4.824 6.48 -5.01 Q 6.444 -5.196 6.276 -5.262 Q 6.108 -5.328 5.7 -5.328 L 5.7 -5.676 L 8.34 -5.676 L 8.34 -5.328 Q 7.968 -5.328 7.788 -5.25 Q 7.608 -5.172 7.56 -4.986 Q 7.512 -4.8 7.512 -4.452 Z M 2.232 -2.808 L 2.232 -2.808 L 2.232 -0.456 Q 2.4 -0.444 2.55 -0.438 Q 2.7 -0.432 2.868 -0.432 Q 3.204 -0.432 3.54 -0.522 Q 3.876 -0.612 4.098 -0.87 Q 4.32 -1.128 4.32 -1.62 Q 4.32 -2.28 3.924 -2.562 Q 3.528 -2.844 2.856 -2.844 Q 2.676 -2.844 2.52 -2.832 Q 2.364 -2.82 2.232 -2.808 Z " /></symbol><use href="#STIXTwoMathRegular_1020" x="184.392" y="-63.048" width="16.68" height="102.432" fill="black" /><symbol id="STIXTwoMathRegular_995" viewBox="0 -31.524 5.628 51.216"><path d="M 5.628 -1.5 L 5.628 -1.5 Q 5.628 -0.732 5.04 -0.366 Q 4.452 0 3.408 0 L 0.396 0 L 0.396 -0.336 Q 0.924 -0.336 1.074 -0.474 Q 1.224 -0.612 1.224 -1.092 L 1.224 -4.56 Q 1.224 -4.908 1.17 -5.07 Q 1.116 -5.232 0.942 -5.28 Q 0.768 -5.328 0.396 -5.328 L 0.396 -5.676 L 3.12 -5.676 Q 4.308 -5.676 4.872 -5.334 Q 5.436 -4.992 5.436 -4.344 Q 5.436 -3.768 5.076 -3.45 Q 4.716 -3.132 4.14 -3 L 4.14 -2.952 Q 4.452 -2.892 4.794 -2.742 Q 5.136 -2.592 5.382 -2.298 Q 5.628 -2.004 5.628 -1.5 Z M 2.244 -2.676 L 2.244 -2.676 L 2.244 -0.456 Q 2.424 -0.444 2.598 -0.438 Q 2.772 -0.432 2.976 -0.432 Q 3.336 -0.432 3.69 -0.486 Q 4.044 -0.54 4.278 -0.768 Q 4.512 -0.996 4.512 -1.5 Q 4.512 -2.004 4.29 -2.256 Q 4.068 -2.508 3.714 -2.592 Q 3.36 -2.676 2.964 -2.676 Z M 2.244 -3.132 L 2.244 -3.132 L 2.904 -3.132 Q 3.756 -3.132 4.068 -3.408 Q 4.38 -3.684 4.38 -4.248 Q 4.38 -4.776 4.026 -5.004 Q 3.672 -5.232 2.796 -5.232 Q 2.688 -5.232 2.538 -5.232 Q 2.388 -5.232 2.244 -5.208 Z " /></symbol><use href="#STIXTwoMathRegular_995" x="201.864" y="-63.048" width="11.256" height="102.432" fill="black" /><use href="#STIXTwoMathRegular_1006" x="213.984" y="-63.048" width="13.8" height="102.432" fill="black" /><symbol id="STIXTwoMathRegular_993" viewBox="0 -31.524 5.712 51.216"><path d="M 3.696 -0.744 L 3.696 -0.744 L 3.648 -0.744 Q 3.228 -0.372 2.844 -0.144 Q 2.46 0.084 1.884 0.084 Q 1.188 0.084 0.822 -0.3 Q 0.456 -0.684 0.456 -1.26 Q 0.456 -1.74 0.678 -2.07 Q 0.9 -2.4 1.266 -2.628 Q 1.632 -2.856 2.058 -3.012 Q 2.484 -3.168 2.892 -3.276 Q 3.3 -3.384 3.612 -3.48 L 3.612 -4.008 Q 3.612 -4.788 3.342 -5.118 Q 3.072 -5.448 2.532 -5.448 Q 2.016 -5.448 1.872 -5.232 Q 1.728 -5.016 1.728 -4.476 Q 1.728 -3.924 1.2 -3.924 Q 1.02 -3.924 0.858 -4.062 Q 0.696 -4.2 0.696 -4.5 Q 0.696 -4.836 0.954 -5.136 Q 1.212 -5.436 1.686 -5.628 Q 2.16 -5.82 2.808 -5.82 Q 3.792 -5.82 4.2 -5.364 Q 4.608 -4.908 4.608 -3.972 L 4.608 -1.248 Q 4.608 -0.876 4.692 -0.768 Q 4.776 -0.66 4.968 -0.66 Q 5.136 -0.66 5.274 -0.744 Q 5.412 -0.828 5.532 -0.96 L 5.712 -0.768 Q 5.412 -0.336 5.142 -0.138 Q 4.872 0.06 4.416 0.06 Q 4.02 0.06 3.888 -0.144 Q 3.756 -0.348 3.696 -0.744 Z M 3.612 -1.104 L 3.612 -1.104 L 3.612 -3.084 Q 3.072 -2.952 2.592 -2.772 Q 2.112 -2.592 1.812 -2.304 Q 1.512 -2.016 1.512 -1.548 Q 1.512 -1.104 1.752 -0.84 Q 1.992 -0.576 2.376 -0.576 Q 2.976 -0.576 3.612 -1.104 Z " /></symbol><use href="#STIXTwoMathRegular_993" x="228.504" y="-63.048" width="11.424" height="102.432" fill="black" /><use href="#STIXTwoMathRegular_2" x="240.024" y="-63.048" width="0" height="102.432" fill="black" /><use href="#STIXTwoMathRegular_995" x="245.664" y="-63.048" width="11.256" height="102.432" fill="black" /><use href="#STIXTwoMathRegular_2" x="257.784" y="-63.048" width="0" height="102.432" fill="black" /><symbol id="STIXTwoMathRegular_3354" viewBox="0 -31.524 6.48 51.216"><path d="M 3.78 -3.576 L 3.78 -3.576 L 4.368 -4.584 Q 4.608 -5.016 4.98 -5.382 Q 5.352 -5.748 5.88 -5.748 Q 6.228 -5.748 6.354 -5.61 Q 6.48 -5.472 6.48 -5.22 Q 6.48 -5.004 6.324 -4.83 Q 6.168 -4.656 5.928 -4.656 Q 5.784 -4.656 5.604 -4.716 Q 5.424 -4.776 5.304 -4.776 Q 5.1 -4.776 4.956 -4.65 Q 4.812 -4.524 4.656 -4.272 L 3.924 -3.108 L 4.176 -2.292 Q 4.428 -1.464 4.638 -1.104 Q 4.848 -0.744 5.124 -0.744 Q 5.364 -0.744 5.556 -0.918 Q 5.748 -1.092 5.988 -1.416 L 6.24 -1.224 Q 6.072 -0.96 5.838 -0.648 Q 5.604 -0.336 5.292 -0.108 Q 4.98 0.12 4.572 0.12 Q 4.164 0.12 3.942 -0.204 Q 3.72 -0.528 3.588 -1.116 L 3.288 -2.328 L 3.24 -2.328 L 2.472 -1.08 Q 2.184 -0.612 1.848 -0.252 Q 1.512 0.108 0.972 0.108 Q 0.588 0.108 0.432 -0.072 Q 0.276 -0.252 0.276 -0.48 Q 0.276 -0.66 0.402 -0.822 Q 0.528 -0.984 0.744 -0.984 Q 0.948 -0.984 1.146 -0.906 Q 1.344 -0.828 1.5 -0.828 Q 1.524 -0.828 1.608 -0.858 Q 1.692 -0.888 1.848 -1.032 Q 2.004 -1.176 2.232 -1.512 L 3.096 -2.772 L 2.76 -3.864 Q 2.604 -4.368 2.448 -4.656 Q 2.292 -4.944 2.064 -5.07 Q 1.836 -5.196 1.44 -5.184 Q 1.296 -5.184 1.182 -5.166 Q 1.068 -5.148 1.068 -5.148 L 1.068 -5.508 L 2.736 -5.7 L 2.916 -5.7 Q 3.132 -5.448 3.306 -5.064 Q 3.48 -4.68 3.6 -4.188 L 3.744 -3.576 Z " /></symbol><use href="#STIXTwoMathRegular_3354" x="263.424" y="-63.048" width="12.96" height="102.432" fill="black" /><symbol id="STIXTwoMathRegular_4273" viewBox="0 -31.524 6.384 51.216"><path d="M 6.384 -3.972 L 6.384 -3.972 Q 6.384 -3.18 6.216 -2.436 Q 6.048 -1.692 5.694 -1.11 Q 5.34 -0.528 4.788 -0.186 Q 4.236 0.156 3.48 0.156 Q 2.712 0.156 2.16 -0.174 Q 1.608 -0.504 1.26 -1.08 Q 0.912 -1.656 0.75 -2.406 Q 0.588 -3.156 0.588 -3.996 Q 0.588 -5.244 0.948 -6.144 Q 1.308 -7.044 1.962 -7.536 Q 2.616 -8.028 3.504 -8.028 Q 4.332 -8.028 4.986 -7.554 Q 5.64 -7.08 6.012 -6.174 Q 6.384 -5.268 6.384 -3.972 Z M 5.1 -3.888 L 5.1 -3.888 Q 5.1 -5.772 4.692 -6.654 Q 4.284 -7.536 3.48 -7.536 Q 2.688 -7.536 2.274 -6.654 Q 1.86 -5.772 1.86 -3.936 Q 1.86 -2.124 2.286 -1.242 Q 2.712 -0.36 3.48 -0.36 Q 4.26 -0.36 4.68 -1.248 Q 5.1 -2.136 5.1 -3.888 Z " /></symbol><use href="#STIXTwoMathRegular_4273" x="276.84" y="-39.094" width="8.938" height="71.702" fill="black" /><symbol id="STIXTwoMathRegular_2527" viewBox="0 -31.524 18.66 51.216"><path d="M 18.66 -3.168 L 18.66 -3.168 L 18.66 -3.048 Q 18.456 -2.904 18.03 -2.598 Q 17.604 -2.292 17.058 -1.86 Q 16.512 -1.428 15.93 -0.918 Q 15.348 -0.408 14.808 0.12 L 14.46 -0.132 Q 14.592 -0.276 14.796 -0.474 Q 15 -0.672 15.156 -0.888 Q 15.312 -1.104 15.312 -1.272 Q 15.312 -1.38 15.264 -1.428 Q 15.216 -1.476 14.94 -1.476 L 4.428 -1.476 Q 4.2 -1.476 4.104 -1.44 Q 4.008 -1.404 4.008 -1.248 Q 4.008 -1.032 4.254 -0.798 Q 4.5 -0.564 4.86 -0.156 L 4.584 0.12 Q 4.032 -0.408 3.432 -0.912 Q 2.832 -1.416 2.28 -1.854 Q 1.728 -2.292 1.308 -2.604 Q 0.888 -2.916 0.672 -3.048 L 0.672 -3.168 Q 0.888 -3.324 1.308 -3.642 Q 1.728 -3.96 2.274 -4.392 Q 2.82 -4.824 3.42 -5.328 Q 4.02 -5.832 4.584 -6.348 L 4.86 -6.072 Q 4.716 -5.904 4.506 -5.694 Q 4.296 -5.484 4.14 -5.292 Q 3.984 -5.1 3.984 -4.968 Q 3.984 -4.836 4.116 -4.788 Q 4.248 -4.74 4.392 -4.74 L 14.94 -4.74 Q 15.12 -4.74 15.204 -4.83 Q 15.288 -4.92 15.288 -5.004 Q 15.288 -5.208 15.138 -5.388 Q 14.988 -5.568 14.796 -5.736 Q 14.604 -5.904 14.46 -6.06 L 14.808 -6.348 Q 15.372 -5.832 15.96 -5.328 Q 16.548 -4.824 17.082 -4.386 Q 17.616 -3.948 18.03 -3.63 Q 18.444 -3.312 18.66 -3.168 Z M 2.76 -2.28 L 2.76 -2.28 L 16.548 -2.28 Q 16.86 -2.46 17.064 -2.67 Q 17.268 -2.88 17.268 -3.108 Q 17.268 -3.324 17.064 -3.528 Q 16.86 -3.732 16.56 -3.924 L 2.772 -3.924 Q 2.472 -3.756 2.268 -3.54 Q 2.064 -3.324 2.052 -3.108 Q 2.052 -2.892 2.256 -2.688 Q 2.46 -2.484 2.76 -2.28 Z " /></symbol><use href="#STIXTwoMathRegular_2527" x="290.139" y="-63.048" width="37.32" height="102.432" fill="black" /><symbol id="STIXTwoMathRegular_-616497152" viewBox="0 -31.524 6.912 55.62"><g><path d="M 2.928 8.816 L 2.928 8.816 L 4.272 8.816 L 4.272 17.432 Q 4.272 18.932 4.446 20 Q 4.62 21.068 4.908 21.764 Q 5.196 22.46 5.544 22.862 Q 5.892 23.264 6.252 23.426 Q 6.612 23.588 6.912 23.588 L 6.912 24.104 Q 6.396 24.104 5.844 23.882 Q 5.292 23.66 4.776 23.144 Q 4.26 22.628 3.84 21.758 Q 3.42 20.888 3.174 19.61 Q 2.928 18.332 2.928 16.568 Z " /><path d="M 2.928 14.701 L 2.928 14.701 L 2.928 2.701 L 4.272 2.701 L 4.272 14.701 Z " /><path d="M 1.056 -2.454 L 1.056 -2.454 L 1.056 -3.606 Q 1.596 -3.606 1.956 -3.702 Q 2.316 -3.798 2.526 -4.11 Q 2.736 -4.422 2.832 -5.058 Q 2.928 -5.694 2.928 -6.774 L 2.928 -14.766 L 4.272 -14.766 L 4.272 -8.046 Q 4.272 -6.678 4.074 -5.76 Q 3.876 -4.842 3.558 -4.29 Q 3.24 -3.738 2.874 -3.456 Q 2.508 -3.174 2.172 -3.066 L 2.172 -2.982 Q 2.52 -2.91 2.886 -2.652 Q 3.252 -2.394 3.57 -1.848 Q 3.888 -1.302 4.08 -0.39 Q 4.272 0.522 4.272 1.89 L 4.272 8.586 L 2.928 8.586 L 2.928 0.762 Q 2.928 -0.33 2.832 -0.972 Q 2.736 -1.614 2.526 -1.932 Q 2.316 -2.25 1.956 -2.352 Q 1.596 -2.454 1.056 -2.454 Z " /><path d="M 2.928 -8.881 L 2.928 -8.881 L 2.928 -20.881 L 4.272 -20.881 L 4.272 -8.881 Z " /><path d="M 4.272 -14.996 L 4.272 -14.996 L 2.928 -14.996 L 2.928 -22.736 Q 2.928 -24.5 3.174 -25.778 Q 3.42 -27.056 3.84 -27.926 Q 4.26 -28.796 4.776 -29.312 Q 5.292 -29.828 5.844 -30.056 Q 6.396 -30.284 6.912 -30.284 L 6.912 -29.768 Q 6.612 -29.768 6.252 -29.606 Q 5.892 -29.444 5.544 -29.042 Q 5.196 -28.64 4.908 -27.938 Q 4.62 -27.236 4.446 -26.174 Q 4.272 -25.112 4.272 -23.612 Z " /></g></symbol><use href="#STIXTwoMathRegular_-616497152" x="335.936" y="-63.048" width="13.824" height="111.24" fill="black" /><symbol id="STIXTwoMathRegular_1138" viewBox="0 -31.524 5.112 51.216"><path d="M 5.112 0 L 5.112 0 L 0.96 0 L 0.96 -0.336 Q 1.812 -0.336 2.16 -0.516 Q 2.508 -0.696 2.508 -1.14 L 2.508 -6.216 Q 2.508 -6.528 2.424 -6.666 Q 2.34 -6.804 2.112 -6.804 Q 1.932 -6.804 1.548 -6.756 Q 1.164 -6.708 0.888 -6.612 L 0.888 -7.008 L 3.216 -7.668 L 3.564 -7.668 L 3.564 -1.14 Q 3.564 -0.696 3.924 -0.516 Q 4.284 -0.336 5.112 -0.336 Z " /></symbol><use href="#STIXTwoMathRegular_1138" x="357.445" y="-106.077" width="10.224" height="102.432" fill="black" /><symbol id="STIXTwoMathRegular_1052" viewBox="0 -31.524 2.196 51.216"><path d="M 2.196 -0.6 L 2.196 -0.6 Q 2.196 -0.324 2.004 -0.114 Q 1.812 0.096 1.452 0.096 Q 1.092 0.096 0.918 -0.108 Q 0.744 -0.312 0.744 -0.612 Q 0.744 -0.924 0.936 -1.146 Q 1.128 -1.368 1.464 -1.368 Q 1.812 -1.368 2.004 -1.14 Q 2.196 -0.912 2.196 -0.6 Z " /></symbol><use href="#STIXTwoMathRegular_1052" x="369.325" y="-106.077" width="4.392" height="102.432" fill="black" /><symbol id="STIXTwoMathRegular_3331" viewBox="0 -31.524 6.852 51.216"><path d="M 2.28 -5.604 L 2.28 -5.604 L 3.312 -5.604 Q 3.42 -6.108 3.546 -6.576 Q 3.672 -7.044 3.876 -7.416 Q 4.032 -7.704 4.26 -7.956 Q 4.488 -8.208 4.842 -8.37 Q 5.196 -8.532 5.712 -8.532 Q 6.264 -8.532 6.558 -8.286 Q 6.852 -8.04 6.852 -7.656 Q 6.852 -7.392 6.708 -7.26 Q 6.564 -7.128 6.372 -7.128 Q 6.132 -7.128 6.024 -7.266 Q 5.916 -7.404 5.892 -7.596 Q 5.856 -7.824 5.802 -8.004 Q 5.748 -8.184 5.532 -8.184 Q 5.076 -8.184 4.824 -7.704 Q 4.572 -7.224 4.44 -6.456 L 4.296 -5.604 L 5.436 -5.604 L 5.364 -5.112 L 4.236 -5.112 L 3.552 -1.02 Q 3.504 -0.708 3.402 -0.24 Q 3.3 0.228 3.12 0.738 Q 2.94 1.248 2.682 1.692 Q 2.424 2.136 2.052 2.418 Q 1.68 2.7 1.188 2.7 Q 0.612 2.7 0.366 2.424 Q 0.12 2.148 0.12 1.836 Q 0.12 1.584 0.246 1.416 Q 0.372 1.248 0.6 1.248 Q 0.876 1.248 0.972 1.41 Q 1.068 1.572 1.092 1.782 Q 1.116 1.992 1.164 2.154 Q 1.212 2.316 1.38 2.316 Q 1.62 2.316 1.8 2.004 Q 1.98 1.692 2.112 1.23 Q 2.244 0.768 2.328 0.312 Q 2.412 -0.144 2.46 -0.444 L 3.24 -5.112 L 2.232 -5.112 Z " /></symbol><use href="#STIXTwoMathRegular_3331" x="380.548" y="-106.077" width="13.704" height="102.432" fill="black" /><use href="#STIXTwoMathRegular_1064" x="394.396" y="-106.077" width="7.848" height="102.432" fill="black" /><use href="#STIXTwoMathRegular_3354" x="402.964" y="-106.077" width="12.96" height="102.432" fill="black" /><use href="#STIXTwoMathRegular_4273" x="416.38" y="-82.122" width="8.938" height="71.702" fill="black" /><use href="#STIXTwoMathRegular_1065" x="426.124" y="-106.077" width="7.488" height="102.432" fill="black" /><use href="#STIXTwoMathRegular_2" x="434.692" y="-106.077" width="0" height="102.432" fill="black" /><symbol id="STIXTwoMathRegular_1007" viewBox="0 -31.524 5.76 51.216"><path d="M 3.096 -5.82 L 3.096 -5.82 Q 4.332 -5.82 5.046 -5.052 Q 5.76 -4.284 5.76 -2.952 Q 5.76 -1.944 5.418 -1.26 Q 5.076 -0.576 4.476 -0.228 Q 3.876 0.12 3.096 0.12 Q 1.836 0.12 1.122 -0.666 Q 0.408 -1.452 0.408 -2.904 Q 0.408 -3.78 0.744 -4.434 Q 1.08 -5.088 1.686 -5.454 Q 2.292 -5.82 3.096 -5.82 Z M 3.048 -5.364 L 3.048 -5.364 Q 2.364 -5.364 1.944 -4.788 Q 1.524 -4.212 1.524 -3.06 Q 1.524 -1.632 1.95 -0.99 Q 2.376 -0.348 3.144 -0.36 Q 3.636 -0.36 3.972 -0.588 Q 4.308 -0.816 4.482 -1.368 Q 4.656 -1.92 4.656 -2.892 Q 4.656 -3.996 4.254 -4.68 Q 3.852 -5.364 3.048 -5.364 Z " /></symbol><use href="#STIXTwoMathRegular_1007" x="440.332" y="-106.077" width="11.52" height="102.432" fill="black" /><use href="#STIXTwoMathRegular_1008" x="452.668" y="-106.077" width="13.464" height="102.432" fill="black" /><use href="#STIXTwoMathRegular_1009" x="466.852" y="-106.077" width="12.048" height="102.432" fill="black" /><use href="#STIXTwoMathRegular_998" x="479.74" y="-106.077" width="10.416" height="102.432" fill="black" /><symbol id="STIXTwoMathRegular_997" viewBox="0 -31.524 6.06 51.216"><path d="M 4.368 0 L 4.368 0 L 1.668 0 Q 1.248 0 1.044 0.168 Q 0.84 0.336 0.72 0.798 Q 0.6 1.26 0.432 2.112 L 0.036 2.112 L 0 -0.408 Q 0.06 -0.42 0.12 -0.426 Q 0.18 -0.432 0.264 -0.444 Q 0.6 -0.504 0.87 -0.81 Q 1.14 -1.116 1.35 -1.578 Q 1.56 -2.04 1.698 -2.58 Q 1.836 -3.12 1.908 -3.654 Q 1.98 -4.188 1.98 -4.632 Q 1.98 -4.908 1.92 -5.058 Q 1.86 -5.208 1.662 -5.268 Q 1.464 -5.328 1.044 -5.328 L 1.044 -5.676 L 5.916 -5.676 L 5.916 -5.328 Q 5.496 -5.328 5.322 -5.256 Q 5.148 -5.184 5.112 -5.004 Q 5.076 -4.824 5.076 -4.488 Q 5.076 -4.404 5.076 -4.368 L 5.076 -1.128 Q 5.076 -0.684 5.196 -0.558 Q 5.316 -0.432 5.58 -0.42 L 6.06 -0.408 L 6 2.112 L 5.604 2.112 Q 5.448 1.248 5.322 0.792 Q 5.196 0.336 4.992 0.168 Q 4.788 0 4.368 0 Z M 4.068 -0.456 L 4.068 -0.456 L 4.068 -5.22 L 2.496 -5.22 Q 2.484 -4.392 2.382 -3.552 Q 2.28 -2.712 2.034 -1.938 Q 1.788 -1.164 1.332 -0.504 L 1.332 -0.456 Z " /></symbol><use href="#STIXTwoMathRegular_997" x="490.636" y="-106.077" width="12.12" height="102.432" fill="black" /><use href="#STIXTwoMathRegular_998" x="503.356" y="-106.077" width="10.416" height="102.432" fill="black" /><symbol id="STIXTwoMathRegular_1004" viewBox="-0.132 -31.524 6.384 51.216"><path d="M 6.252 -5.676 L 6.252 -5.676 L 6.252 -5.328 Q 5.76 -5.328 5.586 -5.214 Q 5.412 -5.1 5.412 -4.716 L 5.412 -0.96 Q 5.412 -0.588 5.568 -0.462 Q 5.724 -0.336 6.24 -0.336 L 6.24 0 L 3.564 0 L 3.564 -0.336 Q 4.08 -0.336 4.242 -0.456 Q 4.404 -0.576 4.404 -0.948 L 4.404 -5.22 L 2.928 -5.22 Q 2.892 -4.5 2.79 -3.732 Q 2.688 -2.964 2.526 -2.256 Q 2.364 -1.548 2.112 -0.996 Q 1.884 -0.468 1.56 -0.18 Q 1.236 0.108 0.744 0.108 Q 0.336 0.108 0.102 -0.09 Q -0.132 -0.288 -0.132 -0.588 Q -0.132 -0.852 0.018 -0.99 Q 0.168 -1.128 0.348 -1.128 Q 0.624 -1.128 0.78 -1.008 Q 0.936 -0.888 1.128 -0.888 Q 1.296 -0.888 1.434 -0.972 Q 1.572 -1.056 1.692 -1.344 Q 1.836 -1.68 1.962 -2.142 Q 2.088 -2.604 2.172 -3.09 Q 2.256 -3.576 2.304 -4.002 Q 2.352 -4.428 2.352 -4.692 Q 2.352 -5.148 2.148 -5.238 Q 1.944 -5.328 1.38 -5.328 L 1.38 -5.676 Z " /></symbol><use href="#STIXTwoMathRegular_1004" x="514.228" y="-106.077" width="12.768" height="102.432" fill="black" /><use href="#STIXTwoMathRegular_998" x="527.764" y="-106.077" width="10.416" height="102.432" fill="black" /><use href="#STIXTwoMathRegular_1006" x="538.9" y="-106.077" width="13.8" height="102.432" fill="black" /><use href="#STIXTwoMathRegular_993" x="553.42" y="-106.077" width="11.424" height="102.432" fill="black" /><symbol id="STIXTwoMathRegular_1139" viewBox="0 -31.524 5.568 51.216"><path d="M 5.568 -1.92 L 5.568 -1.92 L 5.184 0 L 0.456 0 L 0.456 -0.408 L 2.28 -2.232 Q 2.88 -2.844 3.276 -3.342 Q 3.672 -3.84 3.87 -4.344 Q 4.068 -4.848 4.068 -5.472 Q 4.068 -6.144 3.666 -6.546 Q 3.264 -6.948 2.568 -6.948 Q 1.98 -6.948 1.566 -6.696 Q 1.152 -6.444 0.816 -5.772 L 0.528 -5.892 Q 0.804 -6.768 1.404 -7.248 Q 2.004 -7.728 2.88 -7.728 Q 3.564 -7.728 4.08 -7.47 Q 4.596 -7.212 4.89 -6.75 Q 5.184 -6.288 5.184 -5.652 Q 5.184 -5.124 4.962 -4.638 Q 4.74 -4.152 4.302 -3.636 Q 3.864 -3.12 3.228 -2.472 L 1.644 -0.972 L 1.644 -0.912 L 2.484 -0.948 L 4.152 -0.948 Q 4.632 -0.948 4.824 -1.164 Q 5.016 -1.38 5.22 -1.92 Z " /></symbol><use href="#STIXTwoMathRegular_1139" x="357.445" y="-73.415" width="11.136" height="102.432" fill="black" /><use href="#STIXTwoMathRegular_1052" x="369.325" y="-73.415" width="4.392" height="102.432" fill="black" /><symbol id="STIXTwoMathRegular_1623" viewBox="0 -31.524 5.976 51.216"><path d="M 5.976 0 L 5.976 0 L 0.9 0 L 0.9 -0.804 L 5.172 -0.804 L 5.172 -3.66 L 1.044 -3.66 L 1.044 -4.464 L 5.172 -4.464 L 5.172 -7.32 L 0.9 -7.32 L 0.9 -8.136 L 5.976 -8.136 Z " /></symbol><use href="#STIXTwoMathRegular_1623" x="380.548" y="-73.415" width="11.952" height="102.432" fill="black" /><symbol id="STIXTwoMathRegular_267" viewBox="0 -31.524 3.12 51.216"><path d="M 3.12 -0.348 L 3.12 -0.348 L 3.12 0 L 0.36 0 L 0.36 -0.348 Q 0.756 -0.348 0.936 -0.426 Q 1.116 -0.504 1.158 -0.69 Q 1.2 -0.876 1.2 -1.212 L 1.2 -7.236 Q 1.2 -7.608 1.062 -7.68 Q 0.924 -7.752 0.696 -7.752 Q 0.54 -7.752 0.426 -7.74 Q 0.312 -7.728 0.312 -7.728 L 0.312 -8.052 L 1.896 -8.472 L 2.196 -8.472 L 2.196 -1.212 Q 2.196 -0.864 2.25 -0.678 Q 2.304 -0.492 2.496 -0.42 Q 2.688 -0.348 3.12 -0.348 Z " /></symbol><use href="#STIXTwoMathRegular_267" x="403.187" y="-73.415" width="6.24" height="102.432" fill="black" /><symbol id="STIXTwoMathRegular_263" viewBox="0 -31.524 3.084 51.216"><path d="M 3.084 -0.336 L 3.084 -0.336 L 3.084 0 L 0.384 0 L 0.384 -0.336 Q 0.792 -0.336 0.966 -0.414 Q 1.14 -0.492 1.182 -0.684 Q 1.224 -0.876 1.224 -1.212 L 1.224 -4.56 Q 1.224 -4.944 1.092 -5.034 Q 0.96 -5.124 0.696 -5.124 Q 0.576 -5.124 0.486 -5.112 Q 0.396 -5.1 0.396 -5.1 L 0.396 -5.448 L 1.908 -5.784 L 2.22 -5.784 L 2.22 -1.212 Q 2.22 -0.864 2.268 -0.672 Q 2.316 -0.48 2.502 -0.408 Q 2.688 -0.336 3.084 -0.336 Z M 1.74 -8.076 L 1.74 -8.076 Q 2.052 -8.076 2.238 -7.878 Q 2.424 -7.68 2.424 -7.404 Q 2.424 -7.128 2.238 -6.924 Q 2.052 -6.72 1.74 -6.72 Q 1.44 -6.72 1.248 -6.924 Q 1.056 -7.128 1.056 -7.404 Q 1.056 -7.68 1.242 -7.878 Q 1.428 -8.076 1.74 -8.076 Z " /></symbol><use href="#STIXTwoMathRegular_263" x="409.979" y="-73.415" width="6.168" height="102.432" fill="black" /><symbol id="STIXTwoMathRegular_268" viewBox="0 -31.524 9.948 51.216"><path d="M 2.22 -4.284 L 2.22 -4.284 L 2.22 -1.164 Q 2.22 -0.66 2.394 -0.504 Q 2.568 -0.348 3.12 -0.348 L 3.12 0 L 0.384 0 L 0.384 -0.348 Q 0.768 -0.348 0.942 -0.414 Q 1.116 -0.48 1.17 -0.666 Q 1.224 -0.852 1.224 -1.212 L 1.224 -4.572 Q 1.224 -4.896 1.098 -5.004 Q 0.972 -5.112 0.72 -5.112 Q 0.588 -5.112 0.492 -5.1 Q 0.396 -5.088 0.396 -5.088 L 0.396 -5.436 L 1.896 -5.784 L 2.184 -5.784 L 2.184 -4.812 L 2.232 -4.812 Q 2.724 -5.232 3.18 -5.526 Q 3.636 -5.82 4.248 -5.82 Q 4.764 -5.82 5.082 -5.538 Q 5.4 -5.256 5.58 -4.824 L 5.628 -4.824 Q 6.12 -5.316 6.588 -5.568 Q 7.056 -5.82 7.536 -5.82 Q 8.244 -5.82 8.664 -5.376 Q 9.084 -4.932 9.084 -3.84 L 9.084 -1.392 Q 9.084 -1.02 9.126 -0.786 Q 9.168 -0.552 9.354 -0.45 Q 9.54 -0.348 9.948 -0.348 L 9.948 0 L 7.236 0 L 7.236 -0.348 Q 7.644 -0.348 7.824 -0.456 Q 8.004 -0.564 8.046 -0.798 Q 8.088 -1.032 8.088 -1.392 L 8.088 -3.696 Q 8.088 -4.248 7.95 -4.536 Q 7.812 -4.824 7.578 -4.938 Q 7.344 -5.052 7.056 -5.052 Q 6.684 -5.052 6.33 -4.806 Q 5.976 -4.56 5.676 -4.308 L 5.676 -1.392 Q 5.676 -0.984 5.73 -0.756 Q 5.784 -0.528 5.976 -0.438 Q 6.168 -0.348 6.6 -0.348 L 6.6 0 L 3.756 0 L 3.756 -0.348 Q 4.188 -0.348 4.38 -0.432 Q 4.572 -0.516 4.626 -0.744 Q 4.68 -0.972 4.68 -1.392 L 4.68 -3.768 Q 4.68 -4.536 4.41 -4.794 Q 4.14 -5.052 3.72 -5.052 Q 3.252 -5.052 2.868 -4.788 Q 2.484 -4.524 2.22 -4.284 Z " /></symbol><use href="#STIXTwoMathRegular_268" x="416.819" y="-73.415" width="19.896" height="102.432" fill="black" /><symbol id="STIXTwoMathRegular_4450" viewBox="0 -31.524 7.224 51.216"><path d="M 4.236 -3.852 L 4.236 -3.852 L 4.86 -4.956 Q 5.148 -5.436 5.556 -5.82 Q 5.964 -6.204 6.552 -6.204 Q 6.936 -6.204 7.08 -6.054 Q 7.224 -5.904 7.224 -5.628 Q 7.224 -5.388 7.044 -5.184 Q 6.864 -4.98 6.612 -4.98 Q 6.492 -4.98 6.258 -5.052 Q 6.024 -5.124 5.928 -5.124 Q 5.664 -5.124 5.514 -4.986 Q 5.364 -4.848 5.208 -4.608 L 4.404 -3.3 L 4.704 -2.412 Q 4.98 -1.5 5.208 -1.158 Q 5.436 -0.816 5.724 -0.816 Q 5.964 -0.816 6.162 -1.014 Q 6.36 -1.212 6.636 -1.56 L 6.948 -1.32 Q 6.768 -1.044 6.528 -0.702 Q 6.288 -0.36 5.946 -0.12 Q 5.604 0.12 5.136 0.12 Q 4.62 0.12 4.368 -0.246 Q 4.116 -0.612 3.948 -1.308 L 3.684 -2.484 L 3.624 -2.484 L 2.772 -1.14 Q 2.448 -0.648 2.082 -0.264 Q 1.716 0.12 1.14 0.12 Q 0.708 0.12 0.534 -0.09 Q 0.36 -0.3 0.36 -0.528 Q 0.36 -0.732 0.504 -0.924 Q 0.648 -1.116 0.852 -1.116 Q 1.056 -1.116 1.32 -1.038 Q 1.584 -0.96 1.704 -0.96 Q 1.704 -0.96 1.704 -0.96 Q 1.74 -0.96 1.83 -0.99 Q 1.92 -1.02 2.076 -1.17 Q 2.232 -1.32 2.496 -1.68 L 3.432 -2.988 L 3.06 -4.176 Q 2.88 -4.728 2.7 -5.034 Q 2.52 -5.34 2.262 -5.46 Q 2.004 -5.58 1.596 -5.568 Q 1.464 -5.568 1.368 -5.562 Q 1.272 -5.556 1.272 -5.556 L 1.272 -6.012 L 3.12 -6.156 L 3.396 -6.156 Q 3.588 -5.844 3.75 -5.394 Q 3.912 -4.944 3.996 -4.62 L 4.164 -3.852 Z " /></symbol><use href="#STIXTwoMathRegular_4450" x="401.667" y="-42.474" width="10.114" height="71.702" fill="black" /><symbol id="STIXTwoMathRegular_6096" viewBox="0 -31.524 11.016 51.216"><path d="M 7.62 -1.488 L 7.62 -1.488 Q 7.776 -1.764 8.094 -2.07 Q 8.412 -2.376 8.616 -2.628 Q 8.808 -2.856 8.808 -3 Q 8.808 -3.096 8.742 -3.174 Q 8.676 -3.252 8.508 -3.252 L 1.008 -3.252 L 1.008 -4.2 L 8.52 -4.2 Q 8.676 -4.2 8.742 -4.284 Q 8.808 -4.368 8.808 -4.452 Q 8.808 -4.536 8.742 -4.644 Q 8.676 -4.752 8.568 -4.872 Q 8.352 -5.124 8.058 -5.406 Q 7.764 -5.688 7.632 -5.952 L 7.992 -6.276 Q 8.616 -5.544 9.36 -4.884 Q 10.104 -4.224 11.016 -3.816 L 11.016 -3.672 Q 10.104 -3.24 9.366 -2.574 Q 8.628 -1.908 7.992 -1.176 Z " /></symbol><use href="#STIXTwoMathRegular_6096" x="412.335" y="-42.474" width="15.422" height="71.702" fill="black" /><use href="#STIXTwoMathRegular_4450" x="427.758" y="-42.474" width="10.114" height="71.702" fill="black" /><use href="#STIXTwoMathRegular_4273" x="438.426" y="-25.706" width="6.256" height="50.192" fill="black" /><use href="#STIXTwoMathRegular_3331" x="445.246" y="-73.415" width="13.704" height="102.432" fill="black" /><use href="#STIXTwoMathRegular_1064" x="459.094" y="-73.415" width="7.848" height="102.432" fill="black" /><use href="#STIXTwoMathRegular_3354" x="467.662" y="-73.415" width="12.96" height="102.432" fill="black" /><use href="#STIXTwoMathRegular_1065" x="481.078" y="-73.415" width="7.488" height="102.432" fill="black" /><symbol id="STIXTwoMathRegular_1140" viewBox="0 -31.524 5.328 51.216"><path d="M 1.032 -5.976 L 1.032 -5.976 L 0.756 -6.132 Q 1.44 -7.728 2.928 -7.728 Q 3.852 -7.728 4.356 -7.266 Q 4.86 -6.804 4.86 -6.12 Q 4.86 -5.496 4.494 -5.112 Q 4.128 -4.728 3.564 -4.368 L 3.564 -4.332 Q 4.044 -4.188 4.446 -3.918 Q 4.848 -3.648 5.088 -3.258 Q 5.328 -2.868 5.328 -2.328 Q 5.328 -1.512 4.872 -0.954 Q 4.416 -0.396 3.672 -0.12 Q 2.928 0.156 2.052 0.156 Q 1.512 0.156 1.224 0.054 Q 0.936 -0.048 0.822 -0.198 Q 0.708 -0.348 0.708 -0.504 Q 0.708 -0.696 0.828 -0.864 Q 0.948 -1.032 1.176 -1.032 Q 1.32 -1.032 1.446 -0.978 Q 1.572 -0.924 1.884 -0.756 Q 2.268 -0.564 2.454 -0.504 Q 2.64 -0.444 2.856 -0.444 Q 3.24 -0.444 3.576 -0.582 Q 3.912 -0.72 4.128 -1.05 Q 4.344 -1.38 4.344 -1.968 Q 4.344 -2.508 4.044 -2.904 Q 3.744 -3.3 3.246 -3.522 Q 2.748 -3.744 2.172 -3.744 L 1.932 -3.744 L 1.932 -4.2 L 2.16 -4.2 Q 2.568 -4.2 2.952 -4.404 Q 3.336 -4.608 3.582 -4.98 Q 3.828 -5.352 3.828 -5.832 Q 3.828 -6.36 3.498 -6.654 Q 3.168 -6.948 2.604 -6.948 Q 2.064 -6.948 1.704 -6.702 Q 1.344 -6.456 1.032 -5.976 Z " /></symbol><use href="#STIXTwoMathRegular_1140" x="357.445" y="-30.446" width="10.656" height="102.432" fill="black" /><use href="#STIXTwoMathRegular_1052" x="369.325" y="-30.446" width="4.392" height="102.432" fill="black" /><use href="#STIXTwoMathRegular_267" x="380.548" y="-30.446" width="6.24" height="102.432" fill="black" /><use href="#STIXTwoMathRegular_263" x="387.34" y="-30.446" width="6.168" height="102.432" fill="black" /><use href="#STIXTwoMathRegular_268" x="394.18" y="-30.446" width="19.896" height="102.432" fill="black" /><use href="#STIXTwoMathRegular_4450" x="379.028" y="0.494" width="10.114" height="71.702" fill="black" /><use href="#STIXTwoMathRegular_6096" x="389.696" y="0.494" width="15.422" height="71.702" fill="black" /><use href="#STIXTwoMathRegular_4450" x="405.119" y="0.494" width="10.114" height="71.702" fill="black" /><use href="#STIXTwoMathRegular_4273" x="415.787" y="17.262" width="6.256" height="50.192" fill="black" /><use href="#STIXTwoMathRegular_3331" x="422.608" y="-30.446" width="13.704" height="102.432" fill="black" /><use href="#STIXTwoMathRegular_1064" x="436.456" y="-30.446" width="7.848" height="102.432" fill="black" /><use href="#STIXTwoMathRegular_3354" x="445.024" y="-30.446" width="12.96" height="102.432" fill="black" /><use href="#STIXTwoMathRegular_1065" x="458.44" y="-30.446" width="7.488" height="102.432" fill="black" /><symbol id="STIXTwoMathRegular_1202" viewBox="0 -31.524 7.896 51.216"><path d="M 7.896 -3.924 L 7.896 -3.924 L 0.744 -3.924 L 0.744 -4.74 L 7.896 -4.74 Z M 7.896 -1.476 L 7.896 -1.476 L 0.744 -1.476 L 0.744 -2.28 L 7.896 -2.28 Z " /></symbol><use href="#STIXTwoMathRegular_1202" x="475.894" y="-30.446" width="15.792" height="102.432" fill="black" /><use href="#STIXTwoMathRegular_3331" x="502.061" y="-30.446" width="13.704" height="102.432" fill="black" /><use href="#STIXTwoMathRegular_1064" x="515.909" y="-30.446" width="7.848" height="102.432" fill="black" /><use href="#STIXTwoMathRegular_3354" x="524.477" y="-30.446" width="12.96" height="102.432" fill="black" /><use href="#STIXTwoMathRegular_4273" x="537.893" y="-6.492" width="8.938" height="71.702" fill="black" /><use href="#STIXTwoMathRegular_1065" x="547.637" y="-30.446" width="7.488" height="102.432" fill="black" /><symbol id="STIXTwoMathRegular_-616759296" viewBox="0 -31.524 6.144 55.62"><g><path d="M 2.928 8.816 L 2.928 8.816 L 4.272 8.816 L 4.272 16.568 Q 4.272 18.332 4.026 19.61 Q 3.78 20.888 3.36 21.758 Q 2.94 22.628 2.424 23.144 Q 1.908 23.66 1.356 23.882 Q 0.804 24.104 0.288 24.104 L 0.288 23.588 Q 0.588 23.588 0.948 23.426 Q 1.308 23.264 1.656 22.862 Q 2.004 22.46 2.292 21.764 Q 2.58 21.068 2.754 20 Q 2.928 18.932 2.928 17.432 Z " /><path d="M 2.928 14.701 L 2.928 14.701 L 2.928 2.701 L 4.272 2.701 L 4.272 14.701 Z " /><path d="M 6.144 -3.606 L 6.144 -3.606 L 6.144 -2.454 Q 5.604 -2.454 5.244 -2.352 Q 4.884 -2.25 4.674 -1.932 Q 4.464 -1.614 4.368 -0.972 Q 4.272 -0.33 4.272 0.762 L 4.272 8.586 L 2.928 8.586 L 2.928 1.89 Q 2.928 0.522 3.12 -0.39 Q 3.312 -1.302 3.63 -1.848 Q 3.948 -2.394 4.314 -2.652 Q 4.68 -2.91 5.028 -2.982 L 5.028 -3.066 Q 4.692 -3.174 4.326 -3.456 Q 3.96 -3.738 3.642 -4.29 Q 3.324 -4.842 3.126 -5.76 Q 2.928 -6.678 2.928 -8.046 L 2.928 -14.766 L 4.272 -14.766 L 4.272 -6.774 Q 4.272 -5.694 4.368 -5.058 Q 4.464 -4.422 4.674 -4.11 Q 4.884 -3.798 5.244 -3.702 Q 5.604 -3.606 6.144 -3.606 Z " /><path d="M 2.928 -8.881 L 2.928 -8.881 L 2.928 -20.881 L 4.272 -20.881 L 4.272 -8.881 Z " /><path d="M 4.272 -14.996 L 4.272 -14.996 L 2.928 -14.996 L 2.928 -23.612 Q 2.928 -25.112 2.754 -26.174 Q 2.58 -27.236 2.292 -27.938 Q 2.004 -28.64 1.656 -29.042 Q 1.308 -29.444 0.948 -29.606 Q 0.588 -29.768 0.288 -29.768 L 0.288 -30.284 Q 0.804 -30.284 1.356 -30.056 Q 1.908 -29.828 2.424 -29.312 Q 2.94 -28.796 3.36 -27.926 Q 3.78 -27.056 4.026 -25.778 Q 4.272 -24.5 4.272 -22.736 Z " /></g></symbol><use href="#STIXTwoMathRegular_-616759296" x="572.049" y="-63.048" width="12.288" height="111.24" fill="black" /></g></g></svg>