<svg xmlns="http://www.w3.org/2000/svg" width="400" height="400" viewBox="0 0 400 400" style="background:white;font-family:sans-serif">
  <defs>
    <marker id="ah" markerWidth="8" markerHeight="6" refX="8" refY="3" orient="auto">
      <path d="M0,0 L8,3 L0,6" fill="#555"/></marker>
  </defs>
  <line x1="0.0" y1="0" x2="0.0" y2="400" stroke="#eee" stroke-width="0.5"/>
  <line x1="80.0" y1="0" x2="80.0" y2="400" stroke="#eee" stroke-width="0.5"/>
  <line x1="160.0" y1="0" x2="160.0" y2="400" stroke="#eee" stroke-width="0.5"/>
  <line x1="240.0" y1="0" x2="240.0" y2="400" stroke="#eee" stroke-width="0.5"/>
  <line x1="320.0" y1="0" x2="320.0" y2="400" stroke="#eee" stroke-width="0.5"/>
  <line x1="400.0" y1="0" x2="400.0" y2="400" stroke="#eee" stroke-width="0.5"/>
  <line x1="0" y1="400.0" x2="400" y2="400.0" stroke="#eee" stroke-width="0.5"/>
  <line x1="0" y1="333.3" x2="400" y2="333.3" stroke="#eee" stroke-width="0.5"/>
  <line x1="0" y1="266.7" x2="400" y2="266.7" stroke="#eee" stroke-width="0.5"/>
  <line x1="0" y1="200.0" x2="400" y2="200.0" stroke="#eee" stroke-width="0.5"/>
  <line x1="0" y1="133.3" x2="400" y2="133.3" stroke="#eee" stroke-width="0.5"/>
  <line x1="0" y1="66.7" x2="400" y2="66.7" stroke="#eee" stroke-width="0.5"/>
  <line x1="0" y1="0.0" x2="400" y2="0.0" stroke="#eee" stroke-width="0.5"/>
  <line x1="0" y1="400.0" x2="400" y2="400.0" stroke="#555" stroke-width="1" marker-end="url(#ah)"/>
  <line x1="80.0" y1="400" x2="80.0" y2="0" stroke="#555" stroke-width="1" marker-end="url(#ah)"/>
  <text x="0.0" y="414.0" text-anchor="middle" font-size="10" fill="#888">-1</text>
  <text x="160.0" y="414.0" text-anchor="middle" font-size="10" fill="#888">1</text>
  <text x="240.0" y="414.0" text-anchor="middle" font-size="10" fill="#888">2</text>
  <text x="320.0" y="414.0" text-anchor="middle" font-size="10" fill="#888">3</text>
  <text x="400.0" y="414.0" text-anchor="middle" font-size="10" fill="#888">4</text>
  <text x="74.0" y="337.3" text-anchor="end" font-size="10" fill="#888">1</text>
  <text x="74.0" y="270.7" text-anchor="end" font-size="10" fill="#888">2</text>
  <text x="74.0" y="204.0" text-anchor="end" font-size="10" fill="#888">3</text>
  <text x="74.0" y="137.3" text-anchor="end" font-size="10" fill="#888">4</text>
  <text x="74.0" y="70.7" text-anchor="end" font-size="10" fill="#888">5</text>
  <text x="74.0" y="4.0" text-anchor="end" font-size="10" fill="#888">6</text>
  <text x="72.0" y="414.0" font-size="10" fill="#888">0</text>
  <polyline points="80.0,66.7 80.8,69.3 81.6,72.0 82.4,74.6 83.2,77.2 84.0,79.8 84.8,82.4 85.6,85.0 86.4,87.6 87.2,90.1 88.0,92.7 88.8,95.2 89.6,97.7 90.4,100.2 91.2,102.7 92.0,105.2 92.8,107.6 93.6,110.1 94.4,112.5 95.2,114.9 96.0,117.3 96.8,119.7 97.6,122.1 98.4,124.5 99.2,126.8 100.0,129.2 100.8,131.5 101.6,133.8 102.4,136.1 103.2,138.4 104.0,140.7 104.8,142.9 105.6,145.2 106.4,147.4 107.2,149.6 108.0,151.8 108.8,154.0 109.6,156.2 110.4,158.4 111.2,160.5 112.0,162.7 112.8,164.8 113.6,166.9 114.4,169.0 115.2,171.1 116.0,173.2 116.8,175.2 117.6,177.3 118.4,179.3 119.2,181.3 120.0,183.3 120.8,185.3 121.6,187.3 122.4,189.3 123.2,191.2 124.0,193.2 124.8,195.1 125.6,197.0 126.4,198.9 127.2,200.8 128.0,202.7 128.8,204.5 129.6,206.4 130.4,208.2 131.2,210.0 132.0,211.8 132.8,213.6 133.6,215.4 134.4,217.2 135.2,218.9 136.0,220.7 136.8,222.4 137.6,224.1 138.4,225.8 139.2,227.5 140.0,229.2 140.8,230.8 141.6,232.5 142.4,234.1 143.2,235.7 144.0,237.3 144.8,238.9 145.6,240.5 146.4,242.1 147.2,243.6 148.0,245.2 148.8,246.7 149.6,248.2 150.4,249.7 151.2,251.2 152.0,252.7 152.8,254.1 153.6,255.6 154.4,257.0 155.2,258.4 156.0,259.8 156.8,261.2 157.6,262.6 158.4,264.0 159.2,265.3 160.0,266.7 160.8,268.0 161.6,269.3 162.4,270.6 163.2,271.9 164.0,273.2 164.8,274.4 165.6,275.7 166.4,276.9 167.2,278.1 168.0,279.3 168.8,280.5 169.6,281.7 170.4,282.9 171.2,284.0 172.0,285.2 172.8,286.3 173.6,287.4 174.4,288.5 175.2,289.6 176.0,290.7 176.8,291.7 177.6,292.8 178.4,293.8 179.2,294.8 180.0,295.8 180.8,296.8 181.6,297.8 182.4,298.8 183.2,299.7 184.0,300.7 184.8,301.6 185.6,302.5 186.4,303.4 187.2,304.3 188.0,305.2 188.8,306.0 189.6,306.9 190.4,307.7 191.2,308.5 192.0,309.3 192.8,310.1 193.6,310.9 194.4,311.7 195.2,312.4 196.0,313.2 196.8,313.9 197.6,314.6 198.4,315.3 199.2,316.0 200.0,316.7 200.8,317.3 201.6,318.0 202.4,318.6 203.2,319.2 204.0,319.8 204.8,320.4 205.6,321.0 206.4,321.6 207.2,322.1 208.0,322.7 208.8,323.2 209.6,323.7 210.4,324.2 211.2,324.7 212.0,325.2 212.8,325.6 213.6,326.1 214.4,326.5 215.2,326.9 216.0,327.3 216.8,327.7 217.6,328.1 218.4,328.5 219.2,328.8 220.0,329.2 220.8,329.5 221.6,329.8 222.4,330.1 223.2,330.4 224.0,330.7 224.8,330.9 225.6,331.2 226.4,331.4 227.2,331.6 228.0,331.8 228.8,332.0 229.6,332.2 230.4,332.4 231.2,332.5 232.0,332.7 232.8,332.8 233.6,332.9 234.4,333.0 235.2,333.1 236.0,333.2 236.8,333.2 237.6,333.3 238.4,333.3 239.2,333.3 240.0,333.3 240.8,333.3 241.6,333.3 242.4,333.3 243.2,333.2 244.0,333.2 244.8,333.1 245.6,333.0 246.4,332.9 247.2,332.8 248.0,332.7 248.8,332.5 249.6,332.4 250.4,332.2 251.2,332.0 252.0,331.8 252.8,331.6 253.6,331.4 254.4,331.2 255.2,330.9 256.0,330.7 256.8,330.4 257.6,330.1 258.4,329.8 259.2,329.5 260.0,329.2 260.8,328.8 261.6,328.5 262.4,328.1 263.2,327.7 264.0,327.3 264.8,326.9 265.6,326.5 266.4,326.1 267.2,325.6 268.0,325.2 268.8,324.7 269.6,324.2 270.4,323.7 271.2,323.2 272.0,322.7 272.8,322.1 273.6,321.6 274.4,321.0 275.2,320.4 276.0,319.8 276.8,319.2 277.6,318.6 278.4,318.0 279.2,317.3 280.0,316.7 280.8,316.0 281.6,315.3 282.4,314.6 283.2,313.9 284.0,313.2 284.8,312.4 285.6,311.7 286.4,310.9 287.2,310.1 288.0,309.3 288.8,308.5 289.6,307.7 290.4,306.9 291.2,306.0 292.0,305.2 292.8,304.3 293.6,303.4 294.4,302.5 295.2,301.6 296.0,300.7 296.8,299.7 297.6,298.8 298.4,297.8 299.2,296.8 300.0,295.8 300.8,294.8 301.6,293.8 302.4,292.8 303.2,291.7 304.0,290.7 304.8,289.6 305.6,288.5 306.4,287.4 307.2,286.3 308.0,285.2 308.8,284.0 309.6,282.9 310.4,281.7 311.2,280.5 312.0,279.3 312.8,278.1 313.6,276.9 314.4,275.7 315.2,274.4 316.0,273.2 316.8,271.9 317.6,270.6 318.4,269.3 319.2,268.0 320.0,266.7" fill="none" stroke="#2980b9" stroke-width="2.5"/>
  <circle cx="240.0" cy="333.3" r="4.5" fill="#e74c3c" stroke="white" stroke-width="1.5"/>
  <text x="248.0" y="325.3" font-size="11" fill="#333">вершина (2,1)</text>
  <circle cx="248.0" cy="332.7" r="4.5" fill="#e74c3c" stroke="white" stroke-width="1.5"/>
  <text x="272.0" y="299.3" font-size="12" fill="#2c3e50" font-style="italic">y = x**2 - 4*x + 5</text>
</svg>