<svg xmlns="http://www.w3.org/2000/svg" width="400" height="400" viewBox="0 0 400 400" style="background:white;font-family:sans-serif">
  <defs>
    <marker id="ah" markerWidth="8" markerHeight="6" refX="8" refY="3" orient="auto">
      <path d="M0,0 L8,3 L0,6" fill="#555"/></marker>
  </defs>
  <line x1="0.0" y1="0" x2="0.0" y2="400" stroke="#eee" stroke-width="0.5"/>
  <line x1="50.0" y1="0" x2="50.0" y2="400" stroke="#eee" stroke-width="0.5"/>
  <line x1="100.0" y1="0" x2="100.0" y2="400" stroke="#eee" stroke-width="0.5"/>
  <line x1="150.0" y1="0" x2="150.0" y2="400" stroke="#eee" stroke-width="0.5"/>
  <line x1="200.0" y1="0" x2="200.0" y2="400" stroke="#eee" stroke-width="0.5"/>
  <line x1="250.0" y1="0" x2="250.0" y2="400" stroke="#eee" stroke-width="0.5"/>
  <line x1="300.0" y1="0" x2="300.0" y2="400" stroke="#eee" stroke-width="0.5"/>
  <line x1="350.0" y1="0" x2="350.0" y2="400" stroke="#eee" stroke-width="0.5"/>
  <line x1="400.0" y1="0" x2="400.0" y2="400" stroke="#eee" stroke-width="0.5"/>
  <line x1="0" y1="400.0" x2="400" y2="400.0" stroke="#eee" stroke-width="0.5"/>
  <line x1="0" y1="369.2" x2="400" y2="369.2" stroke="#eee" stroke-width="0.5"/>
  <line x1="0" y1="338.5" x2="400" y2="338.5" stroke="#eee" stroke-width="0.5"/>
  <line x1="0" y1="307.7" x2="400" y2="307.7" stroke="#eee" stroke-width="0.5"/>
  <line x1="0" y1="276.9" x2="400" y2="276.9" stroke="#eee" stroke-width="0.5"/>
  <line x1="0" y1="246.2" x2="400" y2="246.2" stroke="#eee" stroke-width="0.5"/>
  <line x1="0" y1="215.4" x2="400" y2="215.4" stroke="#eee" stroke-width="0.5"/>
  <line x1="0" y1="184.6" x2="400" y2="184.6" stroke="#eee" stroke-width="0.5"/>
  <line x1="0" y1="153.8" x2="400" y2="153.8" stroke="#eee" stroke-width="0.5"/>
  <line x1="0" y1="123.1" x2="400" y2="123.1" stroke="#eee" stroke-width="0.5"/>
  <line x1="0" y1="92.3" x2="400" y2="92.3" stroke="#eee" stroke-width="0.5"/>
  <line x1="0" y1="61.5" x2="400" y2="61.5" stroke="#eee" stroke-width="0.5"/>
  <line x1="0" y1="30.8" x2="400" y2="30.8" stroke="#eee" stroke-width="0.5"/>
  <line x1="0" y1="0.0" x2="400" y2="0.0" stroke="#eee" stroke-width="0.5"/>
  <line x1="0" y1="338.5" x2="400" y2="338.5" stroke="#555" stroke-width="1" marker-end="url(#ah)"/>
  <line x1="200.0" y1="400" x2="200.0" y2="0" stroke="#555" stroke-width="1" marker-end="url(#ah)"/>
  <text x="0.0" y="352.5" text-anchor="middle" font-size="10" fill="#888">-4</text>
  <text x="50.0" y="352.5" text-anchor="middle" font-size="10" fill="#888">-3</text>
  <text x="100.0" y="352.5" text-anchor="middle" font-size="10" fill="#888">-2</text>
  <text x="150.0" y="352.5" text-anchor="middle" font-size="10" fill="#888">-1</text>
  <text x="250.0" y="352.5" text-anchor="middle" font-size="10" fill="#888">1</text>
  <text x="300.0" y="352.5" text-anchor="middle" font-size="10" fill="#888">2</text>
  <text x="350.0" y="352.5" text-anchor="middle" font-size="10" fill="#888">3</text>
  <text x="400.0" y="352.5" text-anchor="middle" font-size="10" fill="#888">4</text>
  <text x="194.0" y="404.0" text-anchor="end" font-size="10" fill="#888">-2</text>
  <text x="194.0" y="373.2" text-anchor="end" font-size="10" fill="#888">-1</text>
  <text x="194.0" y="311.7" text-anchor="end" font-size="10" fill="#888">1</text>
  <text x="194.0" y="280.9" text-anchor="end" font-size="10" fill="#888">2</text>
  <text x="194.0" y="250.2" text-anchor="end" font-size="10" fill="#888">3</text>
  <text x="194.0" y="219.4" text-anchor="end" font-size="10" fill="#888">4</text>
  <text x="194.0" y="188.6" text-anchor="end" font-size="10" fill="#888">5</text>
  <text x="194.0" y="157.8" text-anchor="end" font-size="10" fill="#888">6</text>
  <text x="194.0" y="127.1" text-anchor="end" font-size="10" fill="#888">7</text>
  <text x="194.0" y="96.3" text-anchor="end" font-size="10" fill="#888">8</text>
  <text x="194.0" y="65.5" text-anchor="end" font-size="10" fill="#888">9</text>
  <text x="194.0" y="34.8" text-anchor="end" font-size="10" fill="#888">10</text>
  <text x="194.0" y="4.0" text-anchor="end" font-size="10" fill="#888">11</text>
  <text x="192.0" y="352.5" font-size="10" fill="#888">0</text>
  <polyline points="50.0,61.5 51.0,65.2 52.0,68.9 53.0,72.5 54.0,76.1 55.0,79.7 56.0,83.2 57.0,86.8 58.0,90.3 59.0,93.8 60.0,97.2 61.0,100.7 62.0,104.1 63.0,107.5 64.0,110.8 65.0,114.2 66.0,117.5 67.0,120.8 68.0,124.0 69.0,127.2 70.0,130.5 71.0,133.6 72.0,136.8 73.0,140.0 74.0,143.1 75.0,146.2 76.0,149.2 77.0,152.3 78.0,155.3 79.0,158.3 80.0,161.2 81.0,164.2 82.0,167.1 83.0,170.0 84.0,172.8 85.0,175.7 86.0,178.5 87.0,181.3 88.0,184.1 89.0,186.8 90.0,189.5 91.0,192.2 92.0,194.9 93.0,197.6 94.0,200.2 95.0,202.8 96.0,205.3 97.0,207.9 98.0,210.4 99.0,212.9 100.0,215.4 101.0,217.8 102.0,220.3 103.0,222.7 104.0,225.0 105.0,227.4 106.0,229.7 107.0,232.0 108.0,234.3 109.0,236.5 110.0,238.8 111.0,241.0 112.0,243.2 113.0,245.3 114.0,247.4 115.0,249.5 116.0,251.6 117.0,253.7 118.0,255.7 119.0,257.7 120.0,259.7 121.0,261.6 122.0,263.6 123.0,265.5 124.0,267.4 125.0,269.2 126.0,271.1 127.0,272.9 128.0,274.7 129.0,276.4 130.0,278.2 131.0,279.9 132.0,281.6 133.0,283.2 134.0,284.8 135.0,286.5 136.0,288.0 137.0,289.6 138.0,291.2 139.0,292.7 140.0,294.2 141.0,295.6 142.0,297.1 143.0,298.5 144.0,299.9 145.0,301.2 146.0,302.6 147.0,303.9 148.0,305.2 149.0,306.4 150.0,307.7 151.0,308.9 152.0,310.1 153.0,311.3 154.0,312.4 155.0,313.5 156.0,314.6 157.0,315.7 158.0,316.8 159.0,317.8 160.0,318.8 161.0,319.7 162.0,320.7 163.0,321.6 164.0,322.5 165.0,323.4 166.0,324.2 167.0,325.1 168.0,325.9 169.0,326.6 170.0,327.4 171.0,328.1 172.0,328.8 173.0,329.5 174.0,330.1 175.0,330.8 176.0,331.4 177.0,332.0 178.0,332.5 179.0,333.0 180.0,333.5 181.0,334.0 182.0,334.5 183.0,334.9 184.0,335.3 185.0,335.7 186.0,336.0 187.0,336.4 188.0,336.7 189.0,337.0 190.0,337.2 191.0,337.5 192.0,337.7 193.0,337.9 194.0,338.0 195.0,338.2 196.0,338.3 197.0,338.4 198.0,338.4 199.0,338.4 200.0,338.5 201.0,338.4 202.0,338.4 203.0,338.4 204.0,338.3 205.0,338.2 206.0,338.0 207.0,337.9 208.0,337.7 209.0,337.5 210.0,337.2 211.0,337.0 212.0,336.7 213.0,336.4 214.0,336.0 215.0,335.7 216.0,335.3 217.0,334.9 218.0,334.5 219.0,334.0 220.0,333.5 221.0,333.0 222.0,332.5 223.0,332.0 224.0,331.4 225.0,330.8 226.0,330.1 227.0,329.5 228.0,328.8 229.0,328.1 230.0,327.4 231.0,326.6 232.0,325.9 233.0,325.1 234.0,324.2 235.0,323.4 236.0,322.5 237.0,321.6 238.0,320.7 239.0,319.7 240.0,318.8 241.0,317.8 242.0,316.8 243.0,315.7 244.0,314.6 245.0,313.5 246.0,312.4 247.0,311.3 248.0,310.1 249.0,308.9 250.0,307.7 251.0,306.4 252.0,305.2 253.0,303.9 254.0,302.6 255.0,301.2 256.0,299.9 257.0,298.5 258.0,297.1 259.0,295.6 260.0,294.2 261.0,292.7 262.0,291.2 263.0,289.6 264.0,288.0 265.0,286.5 266.0,284.8 267.0,283.2 268.0,281.6 269.0,279.9 270.0,278.2 271.0,276.4 272.0,274.7 273.0,272.9 274.0,271.1 275.0,269.2 276.0,267.4 277.0,265.5 278.0,263.6 279.0,261.6 280.0,259.7 281.0,257.7 282.0,255.7 283.0,253.7 284.0,251.6 285.0,249.5 286.0,247.4 287.0,245.3 288.0,243.2 289.0,241.0 290.0,238.8 291.0,236.5 292.0,234.3 293.0,232.0 294.0,229.7 295.0,227.4 296.0,225.0 297.0,222.7 298.0,220.3 299.0,217.8 300.0,215.4 301.0,212.9 302.0,210.4 303.0,207.9 304.0,205.3 305.0,202.8 306.0,200.2 307.0,197.6 308.0,194.9 309.0,192.2 310.0,189.5 311.0,186.8 312.0,184.1 313.0,181.3 314.0,178.5 315.0,175.7 316.0,172.8 317.0,170.0 318.0,167.1 319.0,164.2 320.0,161.2 321.0,158.3 322.0,155.3 323.0,152.3 324.0,149.2 325.0,146.2 326.0,143.1 327.0,140.0 328.0,136.8 329.0,133.6 330.0,130.5 331.0,127.2 332.0,124.0 333.0,120.8 334.0,117.5 335.0,114.2 336.0,110.8 337.0,107.5 338.0,104.1 339.0,100.7 340.0,97.2 341.0,93.8 342.0,90.3 343.0,86.8 344.0,83.2 345.0,79.7 346.0,76.1 347.0,72.5 348.0,68.9 349.0,65.2 350.0,61.5" fill="none" stroke="#2980b9" stroke-width="2.5"/>
  <circle cx="200.0" cy="338.5" r="4.5" fill="#e74c3c" stroke="white" stroke-width="1.5"/>
  <text x="208.0" y="330.5" font-size="11" fill="#333">(0,0)</text>
  <circle cx="250.0" cy="276.9" r="4.5" fill="#e74c3c" stroke="white" stroke-width="1.5"/>
  <text x="258.0" y="268.9" font-size="11" fill="#333">(1,2)</text>
  <circle cx="305.0" cy="202.8" r="4.5" fill="#e74c3c" stroke="white" stroke-width="1.5"/>
  <text x="320.0" y="187.4" font-size="12" fill="#2c3e50" font-style="italic">y = x**2</text>
</svg>