<svg xmlns="http://www.w3.org/2000/svg" width="500" height="1030">
  <defs>
    <marker id="arrowhead" markerWidth="10" markerHeight="7" refX="10" refY="3.5" orient="auto">
      <polygon points="0 0, 10 3.5, 0 7" fill="#333"/>
    </marker>
  </defs>
  <rect width="500" height="1030" fill="white"/>
  <text x="250" y="44" text-anchor="middle" font-size="17" font-weight="bold" fill="#333">Пошаговый план нахождения вероятности</text>
  <line x1="250.0" y1="194.0" x2="250.0" y2="264.0" stroke="#333" stroke-width="1.5" marker-end="url(#arrowhead)"/>
  <line x1="250.0" y1="388.0" x2="250.0" y2="458.0" stroke="#333" stroke-width="1.5" marker-end="url(#arrowhead)"/>
  <line x1="250.0" y1="562.0" x2="250.0" y2="632.0" stroke="#333" stroke-width="1.5" marker-end="url(#arrowhead)"/>
  <line x1="250.0" y1="716.0" x2="250.0" y2="786.0" stroke="#333" stroke-width="1.5" marker-end="url(#arrowhead)"/>
  <rect x="120.0" y="70.0" width="260" height="124.0" rx="6" fill="#f5f5f5" stroke="#333333" stroke-width="1.5"/>
  <text x="250.0" y="125.5" text-anchor="middle" font-size="13" fill="#333">Определи, что такое &#x27;один исход&#x27;</text>
  <text x="250.0" y="142.5" text-anchor="middle" font-size="13" fill="#333">Пример: один бросок монеты — исхо…</text>
  <rect x="120.0" y="264.0" width="260" height="124.0" rx="6" fill="#f5f5f5" stroke="#333333" stroke-width="1.5"/>
  <text x="250.0" y="319.5" text-anchor="middle" font-size="13" fill="#333">Найди $n$ — число всех возможных …</text>
  <text x="250.0" y="336.5" text-anchor="middle" font-size="13" fill="#333">Перечисли их всё, если их меньше …</text>
  <rect x="120.0" y="458.0" width="260" height="104.0" rx="6" fill="#f5f5f5" stroke="#333333" stroke-width="1.5"/>
  <text x="250.0" y="503.5" text-anchor="middle" font-size="13" fill="#333">Найди $m$ — число благоприятных и…</text>
  <text x="250.0" y="520.5" text-anchor="middle" font-size="13" fill="#333">Посчитай, сколько из перечисленны…</text>
  <rect x="120.0" y="632.0" width="260" height="84.0" rx="6" fill="#f5f5f5" stroke="#333333" stroke-width="1.5"/>
  <text x="250.0" y="667.5" text-anchor="middle" font-size="13" fill="#333">Подставь в формулу: $P = rac{m}{…</text>
  <text x="250.0" y="684.5" text-anchor="middle" font-size="13" fill="#333">Выполни деление. Пример: $P = ra…</text>
  <rect x="120.0" y="786.0" width="260" height="144.0" rx="6" fill="#f5f5f5" stroke="#333333" stroke-width="1.5"/>
  <text x="250.0" y="851.5" text-anchor="middle" font-size="13" fill="#333">Округли, если нужно</text>
  <text x="250.0" y="868.5" text-anchor="middle" font-size="13" fill="#333">В ЕГЭ ответ — десятичная дробь (н…</text>
</svg>