<svg xmlns="http://www.w3.org/2000/svg" width="10140" height="384">
  <defs>
    <marker id="arrowhead" markerWidth="10" markerHeight="7" refX="10" refY="3.5" orient="auto">
      <polygon points="0 0, 10 3.5, 0 7" fill="#333"/>
    </marker>
  </defs>
  <rect width="10140" height="384" fill="white"/>
  <text x="250" y="44" text-anchor="middle" font-size="17" font-weight="bold" fill="#333">Все возможные исходы и их вероятности (выделены исходы с вероятностью 0.167)</text>
  <line x1="5070.0" y1="122.0" x2="170.0" y2="192.0" stroke="#333" stroke-width="1.5" marker-end="url(#arrowhead)"/>
  <line x1="5070.0" y1="122.0" x2="450.0" y2="192.0" stroke="#333" stroke-width="1.5" marker-end="url(#arrowhead)"/>
  <line x1="5070.0" y1="122.0" x2="730.0" y2="192.0" stroke="#333" stroke-width="1.5" marker-end="url(#arrowhead)"/>
  <line x1="5070.0" y1="122.0" x2="1010.0" y2="192.0" stroke="#333" stroke-width="1.5" marker-end="url(#arrowhead)"/>
  <line x1="5070.0" y1="122.0" x2="1290.0" y2="192.0" stroke="#333" stroke-width="1.5" marker-end="url(#arrowhead)"/>
  <line x1="5070.0" y1="122.0" x2="1570.0" y2="192.0" stroke="#333" stroke-width="1.5" marker-end="url(#arrowhead)"/>
  <line x1="5070.0" y1="122.0" x2="1850.0" y2="192.0" stroke="#333" stroke-width="1.5" marker-end="url(#arrowhead)"/>
  <line x1="5070.0" y1="122.0" x2="2130.0" y2="192.0" stroke="#333" stroke-width="1.5" marker-end="url(#arrowhead)"/>
  <line x1="5070.0" y1="122.0" x2="2410.0" y2="192.0" stroke="#333" stroke-width="1.5" marker-end="url(#arrowhead)"/>
  <line x1="5070.0" y1="122.0" x2="2690.0" y2="192.0" stroke="#333" stroke-width="1.5" marker-end="url(#arrowhead)"/>
  <line x1="5070.0" y1="122.0" x2="2970.0" y2="192.0" stroke="#333" stroke-width="1.5" marker-end="url(#arrowhead)"/>
  <line x1="5070.0" y1="122.0" x2="3250.0" y2="192.0" stroke="#333" stroke-width="1.5" marker-end="url(#arrowhead)"/>
  <line x1="5070.0" y1="122.0" x2="3530.0" y2="192.0" stroke="#333" stroke-width="1.5" marker-end="url(#arrowhead)"/>
  <line x1="5070.0" y1="122.0" x2="3810.0" y2="192.0" stroke="#333" stroke-width="1.5" marker-end="url(#arrowhead)"/>
  <line x1="5070.0" y1="122.0" x2="4090.0" y2="192.0" stroke="#333" stroke-width="1.5" marker-end="url(#arrowhead)"/>
  <line x1="5070.0" y1="122.0" x2="4370.0" y2="192.0" stroke="#333" stroke-width="1.5" marker-end="url(#arrowhead)"/>
  <line x1="5070.0" y1="122.0" x2="4650.0" y2="192.0" stroke="#333" stroke-width="1.5" marker-end="url(#arrowhead)"/>
  <line x1="5070.0" y1="122.0" x2="4930.0" y2="192.0" stroke="#333" stroke-width="1.5" marker-end="url(#arrowhead)"/>
  <line x1="5070.0" y1="122.0" x2="5210.0" y2="192.0" stroke="#333" stroke-width="1.5" marker-end="url(#arrowhead)"/>
  <line x1="5070.0" y1="122.0" x2="5490.0" y2="192.0" stroke="#333" stroke-width="1.5" marker-end="url(#arrowhead)"/>
  <line x1="5070.0" y1="122.0" x2="5770.0" y2="192.0" stroke="#333" stroke-width="1.5" marker-end="url(#arrowhead)"/>
  <line x1="5070.0" y1="122.0" x2="6050.0" y2="192.0" stroke="#333" stroke-width="1.5" marker-end="url(#arrowhead)"/>
  <line x1="5070.0" y1="122.0" x2="6330.0" y2="192.0" stroke="#333" stroke-width="1.5" marker-end="url(#arrowhead)"/>
  <line x1="5070.0" y1="122.0" x2="6610.0" y2="192.0" stroke="#333" stroke-width="1.5" marker-end="url(#arrowhead)"/>
  <line x1="5070.0" y1="122.0" x2="6890.0" y2="192.0" stroke="#333" stroke-width="1.5" marker-end="url(#arrowhead)"/>
  <line x1="5070.0" y1="122.0" x2="7170.0" y2="192.0" stroke="#333" stroke-width="1.5" marker-end="url(#arrowhead)"/>
  <line x1="5070.0" y1="122.0" x2="7450.0" y2="192.0" stroke="#333" stroke-width="1.5" marker-end="url(#arrowhead)"/>
  <line x1="5070.0" y1="122.0" x2="7730.0" y2="192.0" stroke="#333" stroke-width="1.5" marker-end="url(#arrowhead)"/>
  <line x1="5070.0" y1="122.0" x2="8010.0" y2="192.0" stroke="#333" stroke-width="1.5" marker-end="url(#arrowhead)"/>
  <line x1="5070.0" y1="122.0" x2="8290.0" y2="192.0" stroke="#333" stroke-width="1.5" marker-end="url(#arrowhead)"/>
  <line x1="5070.0" y1="122.0" x2="8570.0" y2="192.0" stroke="#333" stroke-width="1.5" marker-end="url(#arrowhead)"/>
  <line x1="5070.0" y1="122.0" x2="8850.0" y2="192.0" stroke="#333" stroke-width="1.5" marker-end="url(#arrowhead)"/>
  <line x1="5070.0" y1="122.0" x2="9130.0" y2="192.0" stroke="#333" stroke-width="1.5" marker-end="url(#arrowhead)"/>
  <line x1="5070.0" y1="122.0" x2="9410.0" y2="192.0" stroke="#333" stroke-width="1.5" marker-end="url(#arrowhead)"/>
  <line x1="5070.0" y1="122.0" x2="9690.0" y2="192.0" stroke="#333" stroke-width="1.5" marker-end="url(#arrowhead)"/>
  <line x1="5070.0" y1="122.0" x2="9970.0" y2="192.0" stroke="#333" stroke-width="1.5" marker-end="url(#arrowhead)"/>
  <rect x="4940.0" y="70.0" width="260" height="52.0" rx="6" fill="#f5f5f5" stroke="#333333" stroke-width="1.5"/>
  <text x="5070.0" y="98.0" text-anchor="middle" font-size="13" fill="#333">подсчет вероятности события</text>
  <rect x="40.0" y="192.0" width="260" height="52.0" rx="6" fill="#d4edda" stroke="#28a745" stroke-width="1.5"/>
  <text x="170.0" y="220.0" text-anchor="middle" font-size="13" fill="#333">1, 1</text>
  <rect x="320.0" y="192.0" width="260" height="52.0" rx="6" fill="#f5f5f5" stroke="#333333" stroke-width="1.5"/>
  <text x="450.0" y="220.0" text-anchor="middle" font-size="13" fill="#333">1, 2</text>
  <rect x="600.0" y="192.0" width="260" height="52.0" rx="6" fill="#f5f5f5" stroke="#333333" stroke-width="1.5"/>
  <text x="730.0" y="220.0" text-anchor="middle" font-size="13" fill="#333">1, 3</text>
  <rect x="880.0" y="192.0" width="260" height="52.0" rx="6" fill="#f5f5f5" stroke="#333333" stroke-width="1.5"/>
  <text x="1010.0" y="220.0" text-anchor="middle" font-size="13" fill="#333">1, 4</text>
  <rect x="1160.0" y="192.0" width="260" height="52.0" rx="6" fill="#f5f5f5" stroke="#333333" stroke-width="1.5"/>
  <text x="1290.0" y="220.0" text-anchor="middle" font-size="13" fill="#333">1, 5</text>
  <rect x="1440.0" y="192.0" width="260" height="52.0" rx="6" fill="#f5f5f5" stroke="#333333" stroke-width="1.5"/>
  <text x="1570.0" y="220.0" text-anchor="middle" font-size="13" fill="#333">1, 6</text>
  <rect x="1720.0" y="192.0" width="260" height="52.0" rx="6" fill="#f5f5f5" stroke="#333333" stroke-width="1.5"/>
  <text x="1850.0" y="220.0" text-anchor="middle" font-size="13" fill="#333">2, 1</text>
  <rect x="2000.0" y="192.0" width="260" height="52.0" rx="6" fill="#d4edda" stroke="#28a745" stroke-width="1.5"/>
  <text x="2130.0" y="220.0" text-anchor="middle" font-size="13" fill="#333">2, 2</text>
  <rect x="2280.0" y="192.0" width="260" height="52.0" rx="6" fill="#f5f5f5" stroke="#333333" stroke-width="1.5"/>
  <text x="2410.0" y="220.0" text-anchor="middle" font-size="13" fill="#333">2, 3</text>
  <rect x="2560.0" y="192.0" width="260" height="52.0" rx="6" fill="#f5f5f5" stroke="#333333" stroke-width="1.5"/>
  <text x="2690.0" y="220.0" text-anchor="middle" font-size="13" fill="#333">2, 4</text>
  <rect x="2840.0" y="192.0" width="260" height="52.0" rx="6" fill="#f5f5f5" stroke="#333333" stroke-width="1.5"/>
  <text x="2970.0" y="220.0" text-anchor="middle" font-size="13" fill="#333">2, 5</text>
  <rect x="3120.0" y="192.0" width="260" height="52.0" rx="6" fill="#f5f5f5" stroke="#333333" stroke-width="1.5"/>
  <text x="3250.0" y="220.0" text-anchor="middle" font-size="13" fill="#333">2, 6</text>
  <rect x="3400.0" y="192.0" width="260" height="52.0" rx="6" fill="#f5f5f5" stroke="#333333" stroke-width="1.5"/>
  <text x="3530.0" y="220.0" text-anchor="middle" font-size="13" fill="#333">3, 1</text>
  <rect x="3680.0" y="192.0" width="260" height="52.0" rx="6" fill="#f5f5f5" stroke="#333333" stroke-width="1.5"/>
  <text x="3810.0" y="220.0" text-anchor="middle" font-size="13" fill="#333">3, 2</text>
  <rect x="3960.0" y="192.0" width="260" height="52.0" rx="6" fill="#d4edda" stroke="#28a745" stroke-width="1.5"/>
  <text x="4090.0" y="220.0" text-anchor="middle" font-size="13" fill="#333">3, 3</text>
  <rect x="4240.0" y="192.0" width="260" height="52.0" rx="6" fill="#f5f5f5" stroke="#333333" stroke-width="1.5"/>
  <text x="4370.0" y="220.0" text-anchor="middle" font-size="13" fill="#333">3, 4</text>
  <rect x="4520.0" y="192.0" width="260" height="52.0" rx="6" fill="#f5f5f5" stroke="#333333" stroke-width="1.5"/>
  <text x="4650.0" y="220.0" text-anchor="middle" font-size="13" fill="#333">3, 5</text>
  <rect x="4800.0" y="192.0" width="260" height="52.0" rx="6" fill="#f5f5f5" stroke="#333333" stroke-width="1.5"/>
  <text x="4930.0" y="220.0" text-anchor="middle" font-size="13" fill="#333">3, 6</text>
  <rect x="5080.0" y="192.0" width="260" height="52.0" rx="6" fill="#f5f5f5" stroke="#333333" stroke-width="1.5"/>
  <text x="5210.0" y="220.0" text-anchor="middle" font-size="13" fill="#333">4, 1</text>
  <rect x="5360.0" y="192.0" width="260" height="52.0" rx="6" fill="#f5f5f5" stroke="#333333" stroke-width="1.5"/>
  <text x="5490.0" y="220.0" text-anchor="middle" font-size="13" fill="#333">4, 2</text>
  <rect x="5640.0" y="192.0" width="260" height="52.0" rx="6" fill="#f5f5f5" stroke="#333333" stroke-width="1.5"/>
  <text x="5770.0" y="220.0" text-anchor="middle" font-size="13" fill="#333">4, 3</text>
  <rect x="5920.0" y="192.0" width="260" height="52.0" rx="6" fill="#d4edda" stroke="#28a745" stroke-width="1.5"/>
  <text x="6050.0" y="220.0" text-anchor="middle" font-size="13" fill="#333">4, 4</text>
  <rect x="6200.0" y="192.0" width="260" height="52.0" rx="6" fill="#f5f5f5" stroke="#333333" stroke-width="1.5"/>
  <text x="6330.0" y="220.0" text-anchor="middle" font-size="13" fill="#333">4, 5</text>
  <rect x="6480.0" y="192.0" width="260" height="52.0" rx="6" fill="#f5f5f5" stroke="#333333" stroke-width="1.5"/>
  <text x="6610.0" y="220.0" text-anchor="middle" font-size="13" fill="#333">4, 6</text>
  <rect x="6760.0" y="192.0" width="260" height="52.0" rx="6" fill="#f5f5f5" stroke="#333333" stroke-width="1.5"/>
  <text x="6890.0" y="220.0" text-anchor="middle" font-size="13" fill="#333">5, 1</text>
  <rect x="7040.0" y="192.0" width="260" height="52.0" rx="6" fill="#f5f5f5" stroke="#333333" stroke-width="1.5"/>
  <text x="7170.0" y="220.0" text-anchor="middle" font-size="13" fill="#333">5, 2</text>
  <rect x="7320.0" y="192.0" width="260" height="52.0" rx="6" fill="#f5f5f5" stroke="#333333" stroke-width="1.5"/>
  <text x="7450.0" y="220.0" text-anchor="middle" font-size="13" fill="#333">5, 3</text>
  <rect x="7600.0" y="192.0" width="260" height="52.0" rx="6" fill="#f5f5f5" stroke="#333333" stroke-width="1.5"/>
  <text x="7730.0" y="220.0" text-anchor="middle" font-size="13" fill="#333">5, 4</text>
  <rect x="7880.0" y="192.0" width="260" height="52.0" rx="6" fill="#d4edda" stroke="#28a745" stroke-width="1.5"/>
  <text x="8010.0" y="220.0" text-anchor="middle" font-size="13" fill="#333">5, 5</text>
  <rect x="8160.0" y="192.0" width="260" height="52.0" rx="6" fill="#f5f5f5" stroke="#333333" stroke-width="1.5"/>
  <text x="8290.0" y="220.0" text-anchor="middle" font-size="13" fill="#333">5, 6</text>
  <rect x="8440.0" y="192.0" width="260" height="52.0" rx="6" fill="#f5f5f5" stroke="#333333" stroke-width="1.5"/>
  <text x="8570.0" y="220.0" text-anchor="middle" font-size="13" fill="#333">6, 1</text>
  <rect x="8720.0" y="192.0" width="260" height="52.0" rx="6" fill="#f5f5f5" stroke="#333333" stroke-width="1.5"/>
  <text x="8850.0" y="220.0" text-anchor="middle" font-size="13" fill="#333">6, 2</text>
  <rect x="9000.0" y="192.0" width="260" height="52.0" rx="6" fill="#f5f5f5" stroke="#333333" stroke-width="1.5"/>
  <text x="9130.0" y="220.0" text-anchor="middle" font-size="13" fill="#333">6, 3</text>
  <rect x="9280.0" y="192.0" width="260" height="52.0" rx="6" fill="#f5f5f5" stroke="#333333" stroke-width="1.5"/>
  <text x="9410.0" y="220.0" text-anchor="middle" font-size="13" fill="#333">6, 4</text>
  <rect x="9560.0" y="192.0" width="260" height="52.0" rx="6" fill="#f5f5f5" stroke="#333333" stroke-width="1.5"/>
  <text x="9690.0" y="220.0" text-anchor="middle" font-size="13" fill="#333">6, 5</text>
  <rect x="9840.0" y="192.0" width="260" height="52.0" rx="6" fill="#d4edda" stroke="#28a745" stroke-width="1.5"/>
  <text x="9970.0" y="220.0" text-anchor="middle" font-size="13" fill="#333">6, 6</text>
  <text x="5070.0" y="334.0" text-anchor="middle" font-size="13" fill="#555">Всего исходов: 36, благоприятных: 6</text>
</svg>