<svg xmlns="http://www.w3.org/2000/svg" width="500" height="1474">
  <defs>
    <marker id="arrowhead" markerWidth="10" markerHeight="7" refX="10" refY="3.5" orient="auto">
      <polygon points="0 0, 10 3.5, 0 7" fill="#333"/>
    </marker>
  </defs>
  <rect width="500" height="1474" fill="white"/>
  <text x="250" y="44" text-anchor="middle" font-size="17" font-weight="bold" fill="#333">Пошаговое решение задачи на нахождение производной по наклону касательной</text>
  <line x1="250.0" y1="154.0" x2="250.0" y2="224.0" stroke="#333" stroke-width="1.5" marker-end="url(#arrowhead)"/>
  <line x1="250.0" y1="276.0" x2="250.0" y2="346.0" stroke="#333" stroke-width="1.5" marker-end="url(#arrowhead)"/>
  <line x1="250.0" y1="398.0" x2="250.0" y2="468.0" stroke="#333" stroke-width="1.5" marker-end="url(#arrowhead)"/>
  <line x1="250.0" y1="520.0" x2="250.0" y2="590.0" stroke="#333" stroke-width="1.5" marker-end="url(#arrowhead)"/>
  <line x1="250.0" y1="642.0" x2="250.0" y2="712.0" stroke="#333" stroke-width="1.5" marker-end="url(#arrowhead)"/>
  <line x1="250.0" y1="764.0" x2="250.0" y2="834.0" stroke="#333" stroke-width="1.5" marker-end="url(#arrowhead)"/>
  <line x1="250.0" y1="886.0" x2="250.0" y2="956.0" stroke="#333" stroke-width="1.5" marker-end="url(#arrowhead)"/>
  <line x1="250.0" y1="1008.0" x2="250.0" y2="1078.0" stroke="#333" stroke-width="1.5" marker-end="url(#arrowhead)"/>
  <line x1="250.0" y1="1130.0" x2="250.0" y2="1200.0" stroke="#333" stroke-width="1.5" marker-end="url(#arrowhead)"/>
  <line x1="250.0" y1="1252.0" x2="250.0" y2="1322.0" stroke="#333" stroke-width="1.5" marker-end="url(#arrowhead)"/>
  <rect x="120.0" y="70.0" width="260" height="84.0" rx="6" fill="#fdebd0" stroke="#e67e22" stroke-width="1.5"/>
  <text x="250.0" y="114.0" text-anchor="middle" font-size="13" fill="#333">Задача: На графике функции $y = f…</text>
  <rect x="120.0" y="346.0" width="260" height="52.0" rx="6" fill="#f5f5f5" stroke="#333333" stroke-width="1.5"/>
  <text x="250.0" y="374.0" text-anchor="middle" font-size="13" fill="#333">Точка касания (2, 3)</text>
  <rect x="120.0" y="590.0" width="260" height="52.0" rx="6" fill="#f5f5f5" stroke="#333333" stroke-width="1.5"/>
  <text x="250.0" y="618.0" text-anchor="middle" font-size="13" fill="#333">Другая точка касательной (4, 7)</text>
  <rect x="120.0" y="834.0" width="260" height="52.0" rx="6" fill="#f5f5f5" stroke="#333333" stroke-width="1.5"/>
  <text x="250.0" y="862.0" text-anchor="middle" font-size="13" fill="#333">Расстояние по горизонтали</text>
  <rect x="120.0" y="1078.0" width="260" height="52.0" rx="6" fill="#f5f5f5" stroke="#333333" stroke-width="1.5"/>
  <text x="250.0" y="1106.0" text-anchor="middle" font-size="13" fill="#333">Расстояние по вертикали</text>
  <rect x="120.0" y="1322.0" width="260" height="52.0" rx="6" fill="#f5f5f5" stroke="#333333" stroke-width="1.5"/>
  <text x="250.0" y="1350.0" text-anchor="middle" font-size="13" fill="#333">Вычисление производной</text>
  <rect x="120.0" y="224.0" width="260" height="52.0" rx="6" fill="#f5f5f5" stroke="#333333" stroke-width="1.5"/>
  <text x="250.0" y="252.0" text-anchor="middle" font-size="13" fill="#333">$y = 3 при x = 2$</text>
  <rect x="120.0" y="468.0" width="260" height="52.0" rx="6" fill="#f5f5f5" stroke="#333333" stroke-width="1.5"/>
  <text x="250.0" y="496.0" text-anchor="middle" font-size="13" fill="#333">$Касательная идёт из точки (2, 3)…</text>
  <rect x="120.0" y="712.0" width="260" height="52.0" rx="6" fill="#f5f5f5" stroke="#333333" stroke-width="1.5"/>
  <text x="250.0" y="740.0" text-anchor="middle" font-size="13" fill="#333">$\Delta x = 4 - 2 = 2$</text>
  <rect x="120.0" y="956.0" width="260" height="52.0" rx="6" fill="#f5f5f5" stroke="#333333" stroke-width="1.5"/>
  <text x="250.0" y="984.0" text-anchor="middle" font-size="13" fill="#333">$\Delta y = 7 - 3 = 4$</text>
  <rect x="120.0" y="1200.0" width="260" height="52.0" rx="6" fill="#f5f5f5" stroke="#333333" stroke-width="1.5"/>
  <text x="250.0" y="1228.0" text-anchor="middle" font-size="13" fill="#333">$f&#x27;(2) = \frac{\Delta y}{\Delta x…</text>
</svg>