<svg xmlns="http://www.w3.org/2000/svg" width="400" height="400" overflow="hidden">
  <defs>
    <marker id="arrow_axis" markerWidth="8" markerHeight="8" refX="8" refY="4" orient="auto">
      <path d="M0,0 L8,4 L0,8 Z" fill="#888"/>
    </marker>
  </defs>
  <rect width="400" height="400" fill="white"/>
  <line x1="0.0" y1="0" x2="0.0" y2="400" stroke="#e0e0e0" stroke-width="0.5"/>
  <line x1="33.3" y1="0" x2="33.3" y2="400" stroke="#e0e0e0" stroke-width="0.5"/>
  <line x1="66.7" y1="0" x2="66.7" y2="400" stroke="#e0e0e0" stroke-width="0.5"/>
  <line x1="100.0" y1="0" x2="100.0" y2="400" stroke="#e0e0e0" stroke-width="0.5"/>
  <line x1="133.3" y1="0" x2="133.3" y2="400" stroke="#e0e0e0" stroke-width="0.5"/>
  <line x1="166.7" y1="0" x2="166.7" y2="400" stroke="#e0e0e0" stroke-width="0.5"/>
  <line x1="200.0" y1="0" x2="200.0" y2="400" stroke="#e0e0e0" stroke-width="0.5"/>
  <line x1="233.3" y1="0" x2="233.3" y2="400" stroke="#e0e0e0" stroke-width="0.5"/>
  <line x1="266.7" y1="0" x2="266.7" y2="400" stroke="#e0e0e0" stroke-width="0.5"/>
  <line x1="300.0" y1="0" x2="300.0" y2="400" stroke="#e0e0e0" stroke-width="0.5"/>
  <line x1="333.3" y1="0" x2="333.3" y2="400" stroke="#e0e0e0" stroke-width="0.5"/>
  <line x1="366.7" y1="0" x2="366.7" y2="400" stroke="#e0e0e0" stroke-width="0.5"/>
  <line x1="400.0" y1="0" x2="400.0" y2="400" stroke="#e0e0e0" stroke-width="0.5"/>
  <line x1="0" y1="400.0" x2="400" y2="400.0" stroke="#e0e0e0" stroke-width="0.5"/>
  <line x1="0" y1="360.0" x2="400" y2="360.0" stroke="#e0e0e0" stroke-width="0.5"/>
  <line x1="0" y1="320.0" x2="400" y2="320.0" stroke="#e0e0e0" stroke-width="0.5"/>
  <line x1="0" y1="280.0" x2="400" y2="280.0" stroke="#e0e0e0" stroke-width="0.5"/>
  <line x1="0" y1="240.0" x2="400" y2="240.0" stroke="#e0e0e0" stroke-width="0.5"/>
  <line x1="0" y1="200.0" x2="400" y2="200.0" stroke="#e0e0e0" stroke-width="0.5"/>
  <line x1="0" y1="160.0" x2="400" y2="160.0" stroke="#e0e0e0" stroke-width="0.5"/>
  <line x1="0" y1="120.0" x2="400" y2="120.0" stroke="#e0e0e0" stroke-width="0.5"/>
  <line x1="0" y1="80.0" x2="400" y2="80.0" stroke="#e0e0e0" stroke-width="0.5"/>
  <line x1="0" y1="40.0" x2="400" y2="40.0" stroke="#e0e0e0" stroke-width="0.5"/>
  <line x1="0" y1="0.0" x2="400" y2="0.0" stroke="#e0e0e0" stroke-width="0.5"/>
  <line x1="0" y1="200.0" x2="400" y2="200.0" stroke="#888" stroke-width="1" marker-end="url(#arrow_axis)"/>
  <line x1="200.0" y1="400" x2="200.0" y2="0" stroke="#888" stroke-width="1" marker-end="url(#arrow_axis)"/>
  <text x="0.0" y="214.0" text-anchor="middle" font-size="10" fill="#666">-6</text>
  <text x="33.3" y="214.0" text-anchor="middle" font-size="10" fill="#666">-5</text>
  <text x="66.7" y="214.0" text-anchor="middle" font-size="10" fill="#666">-4</text>
  <text x="100.0" y="214.0" text-anchor="middle" font-size="10" fill="#666">-3</text>
  <text x="133.3" y="214.0" text-anchor="middle" font-size="10" fill="#666">-2</text>
  <text x="166.7" y="214.0" text-anchor="middle" font-size="10" fill="#666">-1</text>
  <text x="233.3" y="214.0" text-anchor="middle" font-size="10" fill="#666">1</text>
  <text x="266.7" y="214.0" text-anchor="middle" font-size="10" fill="#666">2</text>
  <text x="300.0" y="214.0" text-anchor="middle" font-size="10" fill="#666">3</text>
  <text x="333.3" y="214.0" text-anchor="middle" font-size="10" fill="#666">4</text>
  <text x="366.7" y="214.0" text-anchor="middle" font-size="10" fill="#666">5</text>
  <text x="400.0" y="214.0" text-anchor="middle" font-size="10" fill="#666">6</text>
  <text x="192.0" y="404.0" text-anchor="end" font-size="10" fill="#666">-5</text>
  <text x="192.0" y="364.0" text-anchor="end" font-size="10" fill="#666">-4</text>
  <text x="192.0" y="324.0" text-anchor="end" font-size="10" fill="#666">-3</text>
  <text x="192.0" y="284.0" text-anchor="end" font-size="10" fill="#666">-2</text>
  <text x="192.0" y="244.0" text-anchor="end" font-size="10" fill="#666">-1</text>
  <text x="192.0" y="164.0" text-anchor="end" font-size="10" fill="#666">1</text>
  <text x="192.0" y="124.0" text-anchor="end" font-size="10" fill="#666">2</text>
  <text x="192.0" y="84.0" text-anchor="end" font-size="10" fill="#666">3</text>
  <text x="192.0" y="44.0" text-anchor="end" font-size="10" fill="#666">4</text>
  <text x="192.0" y="4.0" text-anchor="end" font-size="10" fill="#666">5</text>
  <circle cx="233.3" cy="160.0" r="4" fill="#e74c3c" stroke="#333" stroke-width="1"/>
  <text x="241.3" y="154.0" font-size="11" fill="#333">(1.0, 1.0)</text>
</svg>