<svg xmlns="http://www.w3.org/2000/svg" width="500" height="400" overflow="hidden">
  <defs>
    <marker id="arrow_axis" markerWidth="8" markerHeight="8" refX="8" refY="4" orient="auto">
      <path d="M0,0 L8,4 L0,8 Z" fill="#888"/>
    </marker>
  </defs>
  <rect width="500" height="400" fill="white"/>
  <line x1="0.0" y1="0" x2="0.0" y2="400" stroke="#e0e0e0" stroke-width="0.5"/>
  <line x1="62.5" y1="0" x2="62.5" y2="400" stroke="#e0e0e0" stroke-width="0.5"/>
  <line x1="125.0" y1="0" x2="125.0" y2="400" stroke="#e0e0e0" stroke-width="0.5"/>
  <line x1="187.5" y1="0" x2="187.5" y2="400" stroke="#e0e0e0" stroke-width="0.5"/>
  <line x1="250.0" y1="0" x2="250.0" y2="400" stroke="#e0e0e0" stroke-width="0.5"/>
  <line x1="312.5" y1="0" x2="312.5" y2="400" stroke="#e0e0e0" stroke-width="0.5"/>
  <line x1="375.0" y1="0" x2="375.0" y2="400" stroke="#e0e0e0" stroke-width="0.5"/>
  <line x1="437.5" y1="0" x2="437.5" y2="400" stroke="#e0e0e0" stroke-width="0.5"/>
  <line x1="500.0" y1="0" x2="500.0" y2="400" stroke="#e0e0e0" stroke-width="0.5"/>
  <line x1="0" y1="400.0" x2="500" y2="400.0" stroke="#e0e0e0" stroke-width="0.5"/>
  <line x1="0" y1="360.0" x2="500" y2="360.0" stroke="#e0e0e0" stroke-width="0.5"/>
  <line x1="0" y1="320.0" x2="500" y2="320.0" stroke="#e0e0e0" stroke-width="0.5"/>
  <line x1="0" y1="280.0" x2="500" y2="280.0" stroke="#e0e0e0" stroke-width="0.5"/>
  <line x1="0" y1="240.0" x2="500" y2="240.0" stroke="#e0e0e0" stroke-width="0.5"/>
  <line x1="0" y1="200.0" x2="500" y2="200.0" stroke="#e0e0e0" stroke-width="0.5"/>
  <line x1="0" y1="160.0" x2="500" y2="160.0" stroke="#e0e0e0" stroke-width="0.5"/>
  <line x1="0" y1="120.0" x2="500" y2="120.0" stroke="#e0e0e0" stroke-width="0.5"/>
  <line x1="0" y1="80.0" x2="500" y2="80.0" stroke="#e0e0e0" stroke-width="0.5"/>
  <line x1="0" y1="40.0" x2="500" y2="40.0" stroke="#e0e0e0" stroke-width="0.5"/>
  <line x1="0" y1="0.0" x2="500" y2="0.0" stroke="#e0e0e0" stroke-width="0.5"/>
  <line x1="0" y1="200.0" x2="500" y2="200.0" stroke="#888" stroke-width="1" marker-end="url(#arrow_axis)"/>
  <line x1="125.0" y1="400" x2="125.0" y2="0" stroke="#888" stroke-width="1" marker-end="url(#arrow_axis)"/>
  <text x="0.0" y="214.0" text-anchor="middle" font-size="10" fill="#666">-2</text>
  <text x="62.5" y="214.0" text-anchor="middle" font-size="10" fill="#666">-1</text>
  <text x="187.5" y="214.0" text-anchor="middle" font-size="10" fill="#666">1</text>
  <text x="250.0" y="214.0" text-anchor="middle" font-size="10" fill="#666">2</text>
  <text x="312.5" y="214.0" text-anchor="middle" font-size="10" fill="#666">3</text>
  <text x="375.0" y="214.0" text-anchor="middle" font-size="10" fill="#666">4</text>
  <text x="437.5" y="214.0" text-anchor="middle" font-size="10" fill="#666">5</text>
  <text x="500.0" y="214.0" text-anchor="middle" font-size="10" fill="#666">6</text>
  <text x="117.0" y="404.0" text-anchor="end" font-size="10" fill="#666">-5</text>
  <text x="117.0" y="364.0" text-anchor="end" font-size="10" fill="#666">-4</text>
  <text x="117.0" y="324.0" text-anchor="end" font-size="10" fill="#666">-3</text>
  <text x="117.0" y="284.0" text-anchor="end" font-size="10" fill="#666">-2</text>
  <text x="117.0" y="244.0" text-anchor="end" font-size="10" fill="#666">-1</text>
  <text x="117.0" y="164.0" text-anchor="end" font-size="10" fill="#666">1</text>
  <text x="117.0" y="124.0" text-anchor="end" font-size="10" fill="#666">2</text>
  <text x="117.0" y="84.0" text-anchor="end" font-size="10" fill="#666">3</text>
  <text x="117.0" y="44.0" text-anchor="end" font-size="10" fill="#666">4</text>
  <text x="117.0" y="4.0" text-anchor="end" font-size="10" fill="#666">5</text>
  <circle cx="250.0" cy="200.0" r="4" fill="#e74c3c" stroke="#333" stroke-width="1"/>
  <text x="258.0" y="194.0" font-size="11" fill="#333">x=2.0</text>
  <circle cx="250.0" cy="200.0" r="4" fill="#e74c3c" stroke="#333" stroke-width="1"/>
  <circle cx="156.2" cy="200.0" r="4" fill="#e74c3c" stroke="#333" stroke-width="1"/>
  <text x="268.8" y="220.0" font-size="12" fill="#333">минимум: (2.0, 0.0)</text>
  <text x="156.2" y="232.0" font-size="12" fill="#333">(-inf, 2): f&#x27;-  (убывает)</text>
</svg>