<svg xmlns="http://www.w3.org/2000/svg" width="500" height="930">
  <defs>
    <marker id="arrowhead" markerWidth="10" markerHeight="7" refX="10" refY="3.5" orient="auto">
      <polygon points="0 0, 10 3.5, 0 7" fill="#333"/>
    </marker>
  </defs>
  <rect width="500" height="930" fill="white"/>
  <text x="250" y="44" text-anchor="middle" font-size="17" font-weight="bold" fill="#333">Алгоритм нахождения наибольшего/наименьшего значения функции на отрезке</text>
  <line x1="250.0" y1="154.0" x2="250.0" y2="224.0" stroke="#333" stroke-width="1.5" marker-end="url(#arrowhead)"/>
  <line x1="250.0" y1="288.0" x2="250.0" y2="358.0" stroke="#333" stroke-width="1.5" marker-end="url(#arrowhead)"/>
  <line x1="250.0" y1="502.0" x2="250.0" y2="572.0" stroke="#333" stroke-width="1.5" marker-end="url(#arrowhead)"/>
  <line x1="250.0" y1="676.0" x2="250.0" y2="746.0" stroke="#333" stroke-width="1.5" marker-end="url(#arrowhead)"/>
  <rect x="120.0" y="70.0" width="260" height="84.0" rx="6" fill="#f5f5f5" stroke="#333333" stroke-width="1.5"/>
  <text x="250.0" y="105.5" text-anchor="middle" font-size="13" fill="#333">Найди производную $f&#x27;(x)$</text>
  <text x="250.0" y="122.5" text-anchor="middle" font-size="13" fill="#333">Используй правило: $(x^n)&#x27; = n \c…</text>
  <rect x="120.0" y="224.0" width="260" height="64.0" rx="6" fill="#f5f5f5" stroke="#333333" stroke-width="1.5"/>
  <text x="250.0" y="249.5" text-anchor="middle" font-size="13" fill="#333">Найди критические точки</text>
  <text x="250.0" y="266.5" text-anchor="middle" font-size="13" fill="#333">Реши уравнение: $f&#x27;(x) = 0$</text>
  <rect x="120.0" y="358.0" width="260" height="144.0" rx="6" fill="#f5f5f5" stroke="#333333" stroke-width="1.5"/>
  <text x="250.0" y="423.5" text-anchor="middle" font-size="13" fill="#333">Проверь, какие из критических точ…</text>
  <text x="250.0" y="440.5" text-anchor="middle" font-size="13" fill="#333">Если точка $x_0$ — решение уравне…</text>
  <rect x="120.0" y="572.0" width="260" height="104.0" rx="6" fill="#f5f5f5" stroke="#333333" stroke-width="1.5"/>
  <text x="250.0" y="617.5" text-anchor="middle" font-size="13" fill="#333">Подставь в исходную функцию $f(x)$</text>
  <text x="250.0" y="634.5" text-anchor="middle" font-size="13" fill="#333">Подставь: все критические точки, …</text>
  <rect x="120.0" y="746.0" width="260" height="84.0" rx="6" fill="#f5f5f5" stroke="#333333" stroke-width="1.5"/>
  <text x="250.0" y="781.5" text-anchor="middle" font-size="13" fill="#333">Сравни значения</text>
  <text x="250.0" y="798.5" text-anchor="middle" font-size="13" fill="#333">Выбери наибольшее или наименьшее …</text>
</svg>