<svg xmlns="http://www.w3.org/2000/svg" width="500" height="400" viewBox="0 0 500 400" style="background:white;font-family:sans-serif">
  <defs>
    <marker id="ah" markerWidth="8" markerHeight="6" refX="8" refY="3" orient="auto">
      <path d="M0,0 L8,3 L0,6" fill="#555"/></marker>
  </defs>
  <line x1="35.7" y1="0" x2="35.7" y2="400" stroke="#eee" stroke-width="0.5"/>
  <line x1="107.1" y1="0" x2="107.1" y2="400" stroke="#eee" stroke-width="0.5"/>
  <line x1="178.6" y1="0" x2="178.6" y2="400" stroke="#eee" stroke-width="0.5"/>
  <line x1="250.0" y1="0" x2="250.0" y2="400" stroke="#eee" stroke-width="0.5"/>
  <line x1="321.4" y1="0" x2="321.4" y2="400" stroke="#eee" stroke-width="0.5"/>
  <line x1="392.9" y1="0" x2="392.9" y2="400" stroke="#eee" stroke-width="0.5"/>
  <line x1="464.3" y1="0" x2="464.3" y2="400" stroke="#eee" stroke-width="0.5"/>
  <line x1="0" y1="400.0" x2="500" y2="400.0" stroke="#eee" stroke-width="0.5"/>
  <line x1="0" y1="386.2" x2="500" y2="386.2" stroke="#eee" stroke-width="0.5"/>
  <line x1="0" y1="372.4" x2="500" y2="372.4" stroke="#eee" stroke-width="0.5"/>
  <line x1="0" y1="358.6" x2="500" y2="358.6" stroke="#eee" stroke-width="0.5"/>
  <line x1="0" y1="344.8" x2="500" y2="344.8" stroke="#eee" stroke-width="0.5"/>
  <line x1="0" y1="331.0" x2="500" y2="331.0" stroke="#eee" stroke-width="0.5"/>
  <line x1="0" y1="317.2" x2="500" y2="317.2" stroke="#eee" stroke-width="0.5"/>
  <line x1="0" y1="303.4" x2="500" y2="303.4" stroke="#eee" stroke-width="0.5"/>
  <line x1="0" y1="289.7" x2="500" y2="289.7" stroke="#eee" stroke-width="0.5"/>
  <line x1="0" y1="275.9" x2="500" y2="275.9" stroke="#eee" stroke-width="0.5"/>
  <line x1="0" y1="262.1" x2="500" y2="262.1" stroke="#eee" stroke-width="0.5"/>
  <line x1="0" y1="248.3" x2="500" y2="248.3" stroke="#eee" stroke-width="0.5"/>
  <line x1="0" y1="234.5" x2="500" y2="234.5" stroke="#eee" stroke-width="0.5"/>
  <line x1="0" y1="220.7" x2="500" y2="220.7" stroke="#eee" stroke-width="0.5"/>
  <line x1="0" y1="206.9" x2="500" y2="206.9" stroke="#eee" stroke-width="0.5"/>
  <line x1="0" y1="193.1" x2="500" y2="193.1" stroke="#eee" stroke-width="0.5"/>
  <line x1="0" y1="179.3" x2="500" y2="179.3" stroke="#eee" stroke-width="0.5"/>
  <line x1="0" y1="165.5" x2="500" y2="165.5" stroke="#eee" stroke-width="0.5"/>
  <line x1="0" y1="151.7" x2="500" y2="151.7" stroke="#eee" stroke-width="0.5"/>
  <line x1="0" y1="137.9" x2="500" y2="137.9" stroke="#eee" stroke-width="0.5"/>
  <line x1="0" y1="124.1" x2="500" y2="124.1" stroke="#eee" stroke-width="0.5"/>
  <line x1="0" y1="110.3" x2="500" y2="110.3" stroke="#eee" stroke-width="0.5"/>
  <line x1="0" y1="96.6" x2="500" y2="96.6" stroke="#eee" stroke-width="0.5"/>
  <line x1="0" y1="82.8" x2="500" y2="82.8" stroke="#eee" stroke-width="0.5"/>
  <line x1="0" y1="69.0" x2="500" y2="69.0" stroke="#eee" stroke-width="0.5"/>
  <line x1="0" y1="55.2" x2="500" y2="55.2" stroke="#eee" stroke-width="0.5"/>
  <line x1="0" y1="41.4" x2="500" y2="41.4" stroke="#eee" stroke-width="0.5"/>
  <line x1="0" y1="27.6" x2="500" y2="27.6" stroke="#eee" stroke-width="0.5"/>
  <line x1="0" y1="13.8" x2="500" y2="13.8" stroke="#eee" stroke-width="0.5"/>
  <line x1="0" y1="0.0" x2="500" y2="0.0" stroke="#eee" stroke-width="0.5"/>
  <line x1="0" y1="386.2" x2="500" y2="386.2" stroke="#555" stroke-width="1" marker-end="url(#ah)"/>
  <line x1="250.0" y1="400" x2="250.0" y2="0" stroke="#555" stroke-width="1" marker-end="url(#ah)"/>
  <text x="35.7" y="400.2" text-anchor="middle" font-size="10" fill="#888">-3</text>
  <text x="107.1" y="400.2" text-anchor="middle" font-size="10" fill="#888">-2</text>
  <text x="178.6" y="400.2" text-anchor="middle" font-size="10" fill="#888">-1</text>
  <text x="321.4" y="400.2" text-anchor="middle" font-size="10" fill="#888">1</text>
  <text x="392.9" y="400.2" text-anchor="middle" font-size="10" fill="#888">2</text>
  <text x="464.3" y="400.2" text-anchor="middle" font-size="10" fill="#888">3</text>
  <text x="244.0" y="404.0" text-anchor="end" font-size="10" fill="#888">-1</text>
  <text x="244.0" y="376.4" text-anchor="end" font-size="10" fill="#888">1</text>
  <text x="244.0" y="362.6" text-anchor="end" font-size="10" fill="#888">2</text>
  <text x="244.0" y="348.8" text-anchor="end" font-size="10" fill="#888">3</text>
  <text x="244.0" y="335.0" text-anchor="end" font-size="10" fill="#888">4</text>
  <text x="244.0" y="321.2" text-anchor="end" font-size="10" fill="#888">5</text>
  <text x="244.0" y="307.4" text-anchor="end" font-size="10" fill="#888">6</text>
  <text x="244.0" y="293.7" text-anchor="end" font-size="10" fill="#888">7</text>
  <text x="244.0" y="279.9" text-anchor="end" font-size="10" fill="#888">8</text>
  <text x="244.0" y="266.1" text-anchor="end" font-size="10" fill="#888">9</text>
  <text x="244.0" y="252.3" text-anchor="end" font-size="10" fill="#888">10</text>
  <text x="244.0" y="238.5" text-anchor="end" font-size="10" fill="#888">11</text>
  <text x="244.0" y="224.7" text-anchor="end" font-size="10" fill="#888">12</text>
  <text x="244.0" y="210.9" text-anchor="end" font-size="10" fill="#888">13</text>
  <text x="244.0" y="197.1" text-anchor="end" font-size="10" fill="#888">14</text>
  <text x="244.0" y="183.3" text-anchor="end" font-size="10" fill="#888">15</text>
  <text x="244.0" y="169.5" text-anchor="end" font-size="10" fill="#888">16</text>
  <text x="244.0" y="155.7" text-anchor="end" font-size="10" fill="#888">17</text>
  <text x="244.0" y="141.9" text-anchor="end" font-size="10" fill="#888">18</text>
  <text x="244.0" y="128.1" text-anchor="end" font-size="10" fill="#888">19</text>
  <text x="244.0" y="114.3" text-anchor="end" font-size="10" fill="#888">20</text>
  <text x="244.0" y="100.6" text-anchor="end" font-size="10" fill="#888">21</text>
  <text x="244.0" y="86.8" text-anchor="end" font-size="10" fill="#888">22</text>
  <text x="244.0" y="73.0" text-anchor="end" font-size="10" fill="#888">23</text>
  <text x="244.0" y="59.2" text-anchor="end" font-size="10" fill="#888">24</text>
  <text x="244.0" y="45.4" text-anchor="end" font-size="10" fill="#888">25</text>
  <text x="244.0" y="31.6" text-anchor="end" font-size="10" fill="#888">26</text>
  <text x="244.0" y="17.8" text-anchor="end" font-size="10" fill="#888">27</text>
  <text x="244.0" y="4.0" text-anchor="end" font-size="10" fill="#888">28</text>
  <text x="242.0" y="400.2" font-size="10" fill="#888">0</text>
  <polyline points="35.7,384.5 37.1,384.5 38.6,384.4 40.0,384.4 41.4,384.4 42.9,384.4 44.3,384.3 45.7,384.3 47.1,384.3 48.6,384.3 50.0,384.2 51.4,384.2 52.9,384.2 54.3,384.1 55.7,384.1 57.1,384.1 58.6,384.1 60.0,384.0 61.4,384.0 62.9,384.0 64.3,383.9 65.7,383.9 67.1,383.9 68.6,383.8 70.0,383.8 71.4,383.8 72.9,383.7 74.3,383.7 75.7,383.7 77.1,383.6 78.6,383.6 80.0,383.6 81.4,383.5 82.9,383.5 84.3,383.4 85.7,383.4 87.1,383.4 88.6,383.3 90.0,383.3 91.4,383.2 92.9,383.2 94.3,383.2 95.7,383.1 97.1,383.1 98.6,383.0 100.0,383.0 101.4,382.9 102.9,382.9 104.3,382.9 105.7,382.8 107.1,382.8 108.6,382.7 110.0,382.7 111.4,382.6 112.9,382.6 114.3,382.5 115.7,382.5 117.1,382.4 118.6,382.4 120.0,382.3 121.4,382.2 122.9,382.2 124.3,382.1 125.7,382.1 127.1,382.0 128.6,382.0 130.0,381.9 131.4,381.8 132.9,381.8 134.3,381.7 135.7,381.7 137.1,381.6 138.6,381.5 140.0,381.5 141.4,381.4 142.9,381.3 144.3,381.3 145.7,381.2 147.1,381.1 148.6,381.1 150.0,381.0 151.4,380.9 152.9,380.8 154.3,380.8 155.7,380.7 157.1,380.6 158.6,380.5 160.0,380.4 161.4,380.4 162.9,380.3 164.3,380.2 165.7,380.1 167.1,380.0 168.6,379.9 170.0,379.9 171.4,379.8 172.9,379.7 174.3,379.6 175.7,379.5 177.1,379.4 178.6,379.3 180.0,379.2 181.4,379.1 182.9,379.0 184.3,378.9 185.7,378.8 187.1,378.7 188.6,378.6 190.0,378.5 191.4,378.4 192.9,378.3 194.3,378.2 195.7,378.1 197.1,377.9 198.6,377.8 200.0,377.7 201.4,377.6 202.9,377.5 204.3,377.4 205.7,377.2 207.1,377.1 208.6,377.0 210.0,376.9 211.4,376.7 212.9,376.6 214.3,376.5 215.7,376.3 217.1,376.2 218.6,376.0 220.0,375.9 221.4,375.8 222.9,375.6 224.3,375.5 225.7,375.3 227.1,375.2 228.6,375.0 230.0,374.8 231.4,374.7 232.9,374.5 234.3,374.4 235.7,374.2 237.1,374.0 238.6,373.9 240.0,373.7 241.4,373.5 242.9,373.3 244.3,373.2 245.7,373.0 247.1,372.8 248.6,372.6 250.0,372.4 251.4,372.2 252.9,372.0 254.3,371.8 255.7,371.6 257.1,371.4 258.6,371.2 260.0,371.0 261.4,370.8 262.9,370.6 264.3,370.4 265.7,370.1 267.1,369.9 268.6,369.7 270.0,369.5 271.4,369.2 272.9,369.0 274.3,368.7 275.7,368.5 277.1,368.3 278.6,368.0 280.0,367.8 281.4,367.5 282.9,367.2 284.3,367.0 285.7,366.7 287.1,366.4 288.6,366.2 290.0,365.9 291.4,365.6 292.9,365.3 294.3,365.0 295.7,364.7 297.1,364.4 298.6,364.1 300.0,363.8 301.4,363.5 302.9,363.2 304.3,362.8 305.7,362.5 307.1,362.2 308.6,361.9 310.0,361.5 311.4,361.2 312.9,360.8 314.3,360.5 315.7,360.1 317.1,359.7 318.6,359.4 320.0,359.0 321.4,358.6 322.9,358.2 324.3,357.8 325.7,357.4 327.1,357.0 328.6,356.6 330.0,356.2 331.4,355.8 332.9,355.4 334.3,355.0 335.7,354.5 337.1,354.1 338.6,353.6 340.0,353.2 341.4,352.7 342.9,352.2 344.3,351.8 345.7,351.3 347.1,350.8 348.6,350.3 350.0,349.8 351.4,349.3 352.9,348.8 354.3,348.3 355.7,347.7 357.1,347.2 358.6,346.6 360.0,346.1 361.4,345.5 362.9,345.0 364.3,344.4 365.7,343.8 367.1,343.2 368.6,342.6 370.0,342.0 371.4,341.4 372.9,340.8 374.3,340.1 375.7,339.5 377.1,338.8 378.6,338.2 380.0,337.5 381.4,336.8 382.9,336.1 384.3,335.4 385.7,334.7 387.1,334.0 388.6,333.3 390.0,332.5 391.4,331.8 392.9,331.0 394.3,330.3 395.7,329.5 397.1,328.7 398.6,327.9 400.0,327.1 401.4,326.2 402.9,325.4 404.3,324.6 405.7,323.7 407.1,322.8 408.6,321.9 410.0,321.0 411.4,320.1 412.9,319.2 414.3,318.3 415.7,317.3 417.1,316.4 418.6,315.4 420.0,314.4 421.4,313.4 422.9,312.4 424.3,311.4 425.7,310.3 427.1,309.3 428.6,308.2 430.0,307.1 431.4,306.0 432.9,304.9 434.3,303.7 435.7,302.6 437.1,301.4 438.6,300.2 440.0,299.0 441.4,297.8 442.9,296.6 444.3,295.3 445.7,294.1 447.1,292.8 448.6,291.5 450.0,290.1 451.4,288.8 452.9,287.4 454.3,286.1 455.7,284.7 457.1,283.3 458.6,281.8 460.0,280.4 461.4,278.9 462.9,277.4 464.3,275.9" fill="none" stroke="#2980b9" stroke-width="2.5"/>
  <text x="416.7" y="312.6" font-size="12" fill="#2980b9" font-style="italic">y = 2ˣ</text>
  <polyline points="35.7,385.7 37.1,385.7 38.6,385.7 40.0,385.7 41.4,385.6 42.9,385.6 44.3,385.6 45.7,385.6 47.1,385.6 48.6,385.6 50.0,385.6 51.4,385.6 52.9,385.5 54.3,385.5 55.7,385.5 57.1,385.5 58.6,385.5 60.0,385.5 61.4,385.4 62.9,385.4 64.3,385.4 65.7,385.4 67.1,385.4 68.6,385.4 70.0,385.3 71.4,385.3 72.9,385.3 74.3,385.3 75.7,385.3 77.1,385.2 78.6,385.2 80.0,385.2 81.4,385.2 82.9,385.2 84.3,385.1 85.7,385.1 87.1,385.1 88.6,385.1 90.0,385.0 91.4,385.0 92.9,385.0 94.3,384.9 95.7,384.9 97.1,384.9 98.6,384.9 100.0,384.8 101.4,384.8 102.9,384.8 104.3,384.7 105.7,384.7 107.1,384.7 108.6,384.6 110.0,384.6 111.4,384.6 112.9,384.5 114.3,384.5 115.7,384.5 117.1,384.4 118.6,384.4 120.0,384.3 121.4,384.3 122.9,384.3 124.3,384.2 125.7,384.2 127.1,384.1 128.6,384.1 130.0,384.0 131.4,384.0 132.9,383.9 134.3,383.9 135.7,383.8 137.1,383.8 138.6,383.7 140.0,383.7 141.4,383.6 142.9,383.6 144.3,383.5 145.7,383.4 147.1,383.4 148.6,383.3 150.0,383.2 151.4,383.2 152.9,383.1 154.3,383.0 155.7,383.0 157.1,382.9 158.6,382.8 160.0,382.8 161.4,382.7 162.9,382.6 164.3,382.5 165.7,382.4 167.1,382.4 168.6,382.3 170.0,382.2 171.4,382.1 172.9,382.0 174.3,381.9 175.7,381.8 177.1,381.7 178.6,381.6 180.0,381.5 181.4,381.4 182.9,381.3 184.3,381.2 185.7,381.1 187.1,381.0 188.6,380.8 190.0,380.7 191.4,380.6 192.9,380.5 194.3,380.4 195.7,380.2 197.1,380.1 198.6,380.0 200.0,379.8 201.4,379.7 202.9,379.5 204.3,379.4 205.7,379.2 207.1,379.1 208.6,378.9 210.0,378.8 211.4,378.6 212.9,378.4 214.3,378.2 215.7,378.1 217.1,377.9 218.6,377.7 220.0,377.5 221.4,377.3 222.9,377.1 224.3,376.9 225.7,376.7 227.1,376.5 228.6,376.3 230.0,376.1 231.4,375.8 232.9,375.6 234.3,375.4 235.7,375.1 237.1,374.9 238.6,374.6 240.0,374.4 241.4,374.1 242.9,373.8 244.3,373.6 245.7,373.3 247.1,373.0 248.6,372.7 250.0,372.4 251.4,372.1 252.9,371.8 254.3,371.5 255.7,371.1 257.1,370.8 258.6,370.5 260.0,370.1 261.4,369.8 262.9,369.4 264.3,369.0 265.7,368.6 267.1,368.3 268.6,367.9 270.0,367.4 271.4,367.0 272.9,366.6 274.3,366.2 275.7,365.7 277.1,365.3 278.6,364.8 280.0,364.3 281.4,363.8 282.9,363.3 284.3,362.8 285.7,362.3 287.1,361.8 288.6,361.2 290.0,360.7 291.4,360.1 292.9,359.5 294.3,358.9 295.7,358.3 297.1,357.7 298.6,357.1 300.0,356.4 301.4,355.8 302.9,355.1 304.3,354.4 305.7,353.7 307.1,353.0 308.6,352.3 310.0,351.5 311.4,350.7 312.9,349.9 314.3,349.1 315.7,348.3 317.1,347.5 318.6,346.6 320.0,345.7 321.4,344.8 322.9,343.9 324.3,343.0 325.7,342.0 327.1,341.0 328.6,340.0 330.0,339.0 331.4,337.9 332.9,336.9 334.3,335.8 335.7,334.7 337.1,333.5 338.6,332.3 340.0,331.1 341.4,329.9 342.9,328.7 344.3,327.4 345.7,326.1 347.1,324.8 348.6,323.4 350.0,322.0 351.4,320.6 352.9,319.1 354.3,317.6 355.7,316.1 357.1,314.5 358.6,312.9 360.0,311.3 361.4,309.7 362.9,308.0 364.3,306.2 365.7,304.4 367.1,302.6 368.6,300.8 370.0,298.9 371.4,296.9 372.9,294.9 374.3,292.9 375.7,290.8 377.1,288.7 378.6,286.6 380.0,284.3 381.4,282.1 382.9,279.8 384.3,277.4 385.7,275.0 387.1,272.5 388.6,270.0 390.0,267.4 391.4,264.8 392.9,262.1 394.3,259.3 395.7,256.5 397.1,253.6 398.6,250.7 400.0,247.7 401.4,244.6 402.9,241.4 404.3,238.2 405.7,234.9 407.1,231.6 408.6,228.1 410.0,224.6 411.4,221.0 412.9,217.4 414.3,213.6 415.7,209.8 417.1,205.9 418.6,201.8 420.0,197.8 421.4,193.6 422.9,189.3 424.3,184.9 425.7,180.4 427.1,175.9 428.6,171.2 430.0,166.4 431.4,161.5 432.9,156.5 434.3,151.4 435.7,146.2 437.1,140.9 438.6,135.4 440.0,129.9 441.4,124.2 442.9,118.4 444.3,112.4 445.7,106.3 447.1,100.1 448.6,93.8 450.0,87.3 451.4,80.6 452.9,73.8 454.3,66.9 455.7,59.8 457.1,52.5 458.6,45.1 460.0,37.5 461.4,29.8 462.9,21.9 464.3,13.8" fill="none" stroke="#e74c3c" stroke-width="2.5"/>
  <text x="416.7" y="214.8" font-size="12" fill="#e74c3c" font-style="italic">y = 3ˣ</text>
  <polyline points="35.7,275.9 37.1,277.4 38.6,278.9 40.0,280.4 41.4,281.8 42.9,283.3 44.3,284.7 45.7,286.1 47.1,287.4 48.6,288.8 50.0,290.1 51.4,291.5 52.9,292.8 54.3,294.1 55.7,295.3 57.1,296.6 58.6,297.8 60.0,299.0 61.4,300.2 62.9,301.4 64.3,302.6 65.7,303.7 67.1,304.9 68.6,306.0 70.0,307.1 71.4,308.2 72.9,309.3 74.3,310.3 75.7,311.4 77.1,312.4 78.6,313.4 80.0,314.4 81.4,315.4 82.9,316.4 84.3,317.3 85.7,318.3 87.1,319.2 88.6,320.1 90.0,321.0 91.4,321.9 92.9,322.8 94.3,323.7 95.7,324.6 97.1,325.4 98.6,326.2 100.0,327.1 101.4,327.9 102.9,328.7 104.3,329.5 105.7,330.3 107.1,331.0 108.6,331.8 110.0,332.5 111.4,333.3 112.9,334.0 114.3,334.7 115.7,335.4 117.1,336.1 118.6,336.8 120.0,337.5 121.4,338.2 122.9,338.8 124.3,339.5 125.7,340.1 127.1,340.8 128.6,341.4 130.0,342.0 131.4,342.6 132.9,343.2 134.3,343.8 135.7,344.4 137.1,345.0 138.6,345.5 140.0,346.1 141.4,346.6 142.9,347.2 144.3,347.7 145.7,348.3 147.1,348.8 148.6,349.3 150.0,349.8 151.4,350.3 152.9,350.8 154.3,351.3 155.7,351.8 157.1,352.2 158.6,352.7 160.0,353.2 161.4,353.6 162.9,354.1 164.3,354.5 165.7,355.0 167.1,355.4 168.6,355.8 170.0,356.2 171.4,356.6 172.9,357.0 174.3,357.4 175.7,357.8 177.1,358.2 178.6,358.6 180.0,359.0 181.4,359.4 182.9,359.7 184.3,360.1 185.7,360.5 187.1,360.8 188.6,361.2 190.0,361.5 191.4,361.9 192.9,362.2 194.3,362.5 195.7,362.8 197.1,363.2 198.6,363.5 200.0,363.8 201.4,364.1 202.9,364.4 204.3,364.7 205.7,365.0 207.1,365.3 208.6,365.6 210.0,365.9 211.4,366.2 212.9,366.4 214.3,366.7 215.7,367.0 217.1,367.2 218.6,367.5 220.0,367.8 221.4,368.0 222.9,368.3 224.3,368.5 225.7,368.7 227.1,369.0 228.6,369.2 230.0,369.5 231.4,369.7 232.9,369.9 234.3,370.1 235.7,370.4 237.1,370.6 238.6,370.8 240.0,371.0 241.4,371.2 242.9,371.4 244.3,371.6 245.7,371.8 247.1,372.0 248.6,372.2 250.0,372.4 251.4,372.6 252.9,372.8 254.3,373.0 255.7,373.2 257.1,373.3 258.6,373.5 260.0,373.7 261.4,373.9 262.9,374.0 264.3,374.2 265.7,374.4 267.1,374.5 268.6,374.7 270.0,374.8 271.4,375.0 272.9,375.2 274.3,375.3 275.7,375.5 277.1,375.6 278.6,375.8 280.0,375.9 281.4,376.0 282.9,376.2 284.3,376.3 285.7,376.5 287.1,376.6 288.6,376.7 290.0,376.9 291.4,377.0 292.9,377.1 294.3,377.2 295.7,377.4 297.1,377.5 298.6,377.6 300.0,377.7 301.4,377.8 302.9,377.9 304.3,378.1 305.7,378.2 307.1,378.3 308.6,378.4 310.0,378.5 311.4,378.6 312.9,378.7 314.3,378.8 315.7,378.9 317.1,379.0 318.6,379.1 320.0,379.2 321.4,379.3 322.9,379.4 324.3,379.5 325.7,379.6 327.1,379.7 328.6,379.8 330.0,379.9 331.4,379.9 332.9,380.0 334.3,380.1 335.7,380.2 337.1,380.3 338.6,380.4 340.0,380.4 341.4,380.5 342.9,380.6 344.3,380.7 345.7,380.8 347.1,380.8 348.6,380.9 350.0,381.0 351.4,381.1 352.9,381.1 354.3,381.2 355.7,381.3 357.1,381.3 358.6,381.4 360.0,381.5 361.4,381.5 362.9,381.6 364.3,381.7 365.7,381.7 367.1,381.8 368.6,381.8 370.0,381.9 371.4,382.0 372.9,382.0 374.3,382.1 375.7,382.1 377.1,382.2 378.6,382.2 380.0,382.3 381.4,382.4 382.9,382.4 384.3,382.5 385.7,382.5 387.1,382.6 388.6,382.6 390.0,382.7 391.4,382.7 392.9,382.8 394.3,382.8 395.7,382.9 397.1,382.9 398.6,382.9 400.0,383.0 401.4,383.0 402.9,383.1 404.3,383.1 405.7,383.2 407.1,383.2 408.6,383.2 410.0,383.3 411.4,383.3 412.9,383.4 414.3,383.4 415.7,383.4 417.1,383.5 418.6,383.5 420.0,383.6 421.4,383.6 422.9,383.6 424.3,383.7 425.7,383.7 427.1,383.7 428.6,383.8 430.0,383.8 431.4,383.8 432.9,383.9 434.3,383.9 435.7,383.9 437.1,384.0 438.6,384.0 440.0,384.0 441.4,384.1 442.9,384.1 444.3,384.1 445.7,384.1 447.1,384.2 448.6,384.2 450.0,384.2 451.4,384.3 452.9,384.3 454.3,384.3 455.7,384.3 457.1,384.4 458.6,384.4 460.0,384.4 461.4,384.4 462.9,384.5 464.3,384.5" fill="none" stroke="#27ae60" stroke-width="2.5"/>
  <text x="416.7" y="375.3" font-size="12" fill="#27ae60" font-style="italic">y = (1/2)ˣ</text>
  <circle cx="250.0" cy="372.4" r="4.5" fill="#e74c3c" stroke="white" stroke-width="1.5"/>
  <text x="258.0" y="364.4" font-size="11" fill="#333">(0, 1)</text>
</svg>