<svg xmlns="http://www.w3.org/2000/svg" width="400" height="400" viewBox="0 0 400 400" style="background:white;font-family:sans-serif">
  <defs>
    <marker id="ah" markerWidth="8" markerHeight="6" refX="8" refY="3" orient="auto">
      <path d="M0,0 L8,3 L0,6" fill="#555"/></marker>
  </defs>
  <line x1="0.0" y1="0" x2="0.0" y2="400" stroke="#eee" stroke-width="0.5"/>
  <line x1="23.5" y1="0" x2="23.5" y2="400" stroke="#eee" stroke-width="0.5"/>
  <line x1="47.1" y1="0" x2="47.1" y2="400" stroke="#eee" stroke-width="0.5"/>
  <line x1="70.6" y1="0" x2="70.6" y2="400" stroke="#eee" stroke-width="0.5"/>
  <line x1="94.1" y1="0" x2="94.1" y2="400" stroke="#eee" stroke-width="0.5"/>
  <line x1="117.6" y1="0" x2="117.6" y2="400" stroke="#eee" stroke-width="0.5"/>
  <line x1="141.2" y1="0" x2="141.2" y2="400" stroke="#eee" stroke-width="0.5"/>
  <line x1="164.7" y1="0" x2="164.7" y2="400" stroke="#eee" stroke-width="0.5"/>
  <line x1="188.2" y1="0" x2="188.2" y2="400" stroke="#eee" stroke-width="0.5"/>
  <line x1="211.8" y1="0" x2="211.8" y2="400" stroke="#eee" stroke-width="0.5"/>
  <line x1="235.3" y1="0" x2="235.3" y2="400" stroke="#eee" stroke-width="0.5"/>
  <line x1="258.8" y1="0" x2="258.8" y2="400" stroke="#eee" stroke-width="0.5"/>
  <line x1="282.4" y1="0" x2="282.4" y2="400" stroke="#eee" stroke-width="0.5"/>
  <line x1="305.9" y1="0" x2="305.9" y2="400" stroke="#eee" stroke-width="0.5"/>
  <line x1="329.4" y1="0" x2="329.4" y2="400" stroke="#eee" stroke-width="0.5"/>
  <line x1="352.9" y1="0" x2="352.9" y2="400" stroke="#eee" stroke-width="0.5"/>
  <line x1="376.5" y1="0" x2="376.5" y2="400" stroke="#eee" stroke-width="0.5"/>
  <line x1="400.0" y1="0" x2="400.0" y2="400" stroke="#eee" stroke-width="0.5"/>
  <line x1="0" y1="400.0" x2="400" y2="400.0" stroke="#eee" stroke-width="0.5"/>
  <line x1="0" y1="387.5" x2="400" y2="387.5" stroke="#eee" stroke-width="0.5"/>
  <line x1="0" y1="375.0" x2="400" y2="375.0" stroke="#eee" stroke-width="0.5"/>
  <line x1="0" y1="362.5" x2="400" y2="362.5" stroke="#eee" stroke-width="0.5"/>
  <line x1="0" y1="350.0" x2="400" y2="350.0" stroke="#eee" stroke-width="0.5"/>
  <line x1="0" y1="337.5" x2="400" y2="337.5" stroke="#eee" stroke-width="0.5"/>
  <line x1="0" y1="325.0" x2="400" y2="325.0" stroke="#eee" stroke-width="0.5"/>
  <line x1="0" y1="312.5" x2="400" y2="312.5" stroke="#eee" stroke-width="0.5"/>
  <line x1="0" y1="300.0" x2="400" y2="300.0" stroke="#eee" stroke-width="0.5"/>
  <line x1="0" y1="287.5" x2="400" y2="287.5" stroke="#eee" stroke-width="0.5"/>
  <line x1="0" y1="275.0" x2="400" y2="275.0" stroke="#eee" stroke-width="0.5"/>
  <line x1="0" y1="262.5" x2="400" y2="262.5" stroke="#eee" stroke-width="0.5"/>
  <line x1="0" y1="250.0" x2="400" y2="250.0" stroke="#eee" stroke-width="0.5"/>
  <line x1="0" y1="237.5" x2="400" y2="237.5" stroke="#eee" stroke-width="0.5"/>
  <line x1="0" y1="225.0" x2="400" y2="225.0" stroke="#eee" stroke-width="0.5"/>
  <line x1="0" y1="212.5" x2="400" y2="212.5" stroke="#eee" stroke-width="0.5"/>
  <line x1="0" y1="200.0" x2="400" y2="200.0" stroke="#eee" stroke-width="0.5"/>
  <line x1="0" y1="187.5" x2="400" y2="187.5" stroke="#eee" stroke-width="0.5"/>
  <line x1="0" y1="175.0" x2="400" y2="175.0" stroke="#eee" stroke-width="0.5"/>
  <line x1="0" y1="162.5" x2="400" y2="162.5" stroke="#eee" stroke-width="0.5"/>
  <line x1="0" y1="150.0" x2="400" y2="150.0" stroke="#eee" stroke-width="0.5"/>
  <line x1="0" y1="137.5" x2="400" y2="137.5" stroke="#eee" stroke-width="0.5"/>
  <line x1="0" y1="125.0" x2="400" y2="125.0" stroke="#eee" stroke-width="0.5"/>
  <line x1="0" y1="112.5" x2="400" y2="112.5" stroke="#eee" stroke-width="0.5"/>
  <line x1="0" y1="100.0" x2="400" y2="100.0" stroke="#eee" stroke-width="0.5"/>
  <line x1="0" y1="87.5" x2="400" y2="87.5" stroke="#eee" stroke-width="0.5"/>
  <line x1="0" y1="75.0" x2="400" y2="75.0" stroke="#eee" stroke-width="0.5"/>
  <line x1="0" y1="62.5" x2="400" y2="62.5" stroke="#eee" stroke-width="0.5"/>
  <line x1="0" y1="50.0" x2="400" y2="50.0" stroke="#eee" stroke-width="0.5"/>
  <line x1="0" y1="37.5" x2="400" y2="37.5" stroke="#eee" stroke-width="0.5"/>
  <line x1="0" y1="25.0" x2="400" y2="25.0" stroke="#eee" stroke-width="0.5"/>
  <line x1="0" y1="12.5" x2="400" y2="12.5" stroke="#eee" stroke-width="0.5"/>
  <line x1="0" y1="0.0" x2="400" y2="0.0" stroke="#eee" stroke-width="0.5"/>
  <line x1="0" y1="262.5" x2="400" y2="262.5" stroke="#555" stroke-width="1" marker-end="url(#ah)"/>
  <line x1="141.2" y1="400" x2="141.2" y2="0" stroke="#555" stroke-width="1" marker-end="url(#ah)"/>
  <text x="0.0" y="276.5" text-anchor="middle" font-size="10" fill="#888">-6</text>
  <text x="23.5" y="276.5" text-anchor="middle" font-size="10" fill="#888">-5</text>
  <text x="47.1" y="276.5" text-anchor="middle" font-size="10" fill="#888">-4</text>
  <text x="70.6" y="276.5" text-anchor="middle" font-size="10" fill="#888">-3</text>
  <text x="94.1" y="276.5" text-anchor="middle" font-size="10" fill="#888">-2</text>
  <text x="117.6" y="276.5" text-anchor="middle" font-size="10" fill="#888">-1</text>
  <text x="164.7" y="276.5" text-anchor="middle" font-size="10" fill="#888">1</text>
  <text x="188.2" y="276.5" text-anchor="middle" font-size="10" fill="#888">2</text>
  <text x="211.8" y="276.5" text-anchor="middle" font-size="10" fill="#888">3</text>
  <text x="235.3" y="276.5" text-anchor="middle" font-size="10" fill="#888">4</text>
  <text x="258.8" y="276.5" text-anchor="middle" font-size="10" fill="#888">5</text>
  <text x="282.4" y="276.5" text-anchor="middle" font-size="10" fill="#888">6</text>
  <text x="305.9" y="276.5" text-anchor="middle" font-size="10" fill="#888">7</text>
  <text x="329.4" y="276.5" text-anchor="middle" font-size="10" fill="#888">8</text>
  <text x="352.9" y="276.5" text-anchor="middle" font-size="10" fill="#888">9</text>
  <text x="376.5" y="276.5" text-anchor="middle" font-size="10" fill="#888">10</text>
  <text x="400.0" y="276.5" text-anchor="middle" font-size="10" fill="#888">11</text>
  <text x="135.2" y="404.0" text-anchor="end" font-size="10" fill="#888">-11</text>
  <text x="135.2" y="391.5" text-anchor="end" font-size="10" fill="#888">-10</text>
  <text x="135.2" y="379.0" text-anchor="end" font-size="10" fill="#888">-9</text>
  <text x="135.2" y="366.5" text-anchor="end" font-size="10" fill="#888">-8</text>
  <text x="135.2" y="354.0" text-anchor="end" font-size="10" fill="#888">-7</text>
  <text x="135.2" y="341.5" text-anchor="end" font-size="10" fill="#888">-6</text>
  <text x="135.2" y="329.0" text-anchor="end" font-size="10" fill="#888">-5</text>
  <text x="135.2" y="316.5" text-anchor="end" font-size="10" fill="#888">-4</text>
  <text x="135.2" y="304.0" text-anchor="end" font-size="10" fill="#888">-3</text>
  <text x="135.2" y="291.5" text-anchor="end" font-size="10" fill="#888">-2</text>
  <text x="135.2" y="279.0" text-anchor="end" font-size="10" fill="#888">-1</text>
  <text x="135.2" y="254.0" text-anchor="end" font-size="10" fill="#888">1</text>
  <text x="135.2" y="241.5" text-anchor="end" font-size="10" fill="#888">2</text>
  <text x="135.2" y="229.0" text-anchor="end" font-size="10" fill="#888">3</text>
  <text x="135.2" y="216.5" text-anchor="end" font-size="10" fill="#888">4</text>
  <text x="135.2" y="204.0" text-anchor="end" font-size="10" fill="#888">5</text>
  <text x="135.2" y="191.5" text-anchor="end" font-size="10" fill="#888">6</text>
  <text x="135.2" y="179.0" text-anchor="end" font-size="10" fill="#888">7</text>
  <text x="135.2" y="166.5" text-anchor="end" font-size="10" fill="#888">8</text>
  <text x="135.2" y="154.0" text-anchor="end" font-size="10" fill="#888">9</text>
  <text x="135.2" y="141.5" text-anchor="end" font-size="10" fill="#888">10</text>
  <text x="135.2" y="129.0" text-anchor="end" font-size="10" fill="#888">11</text>
  <text x="135.2" y="116.5" text-anchor="end" font-size="10" fill="#888">12</text>
  <text x="135.2" y="104.0" text-anchor="end" font-size="10" fill="#888">13</text>
  <text x="135.2" y="91.5" text-anchor="end" font-size="10" fill="#888">14</text>
  <text x="135.2" y="79.0" text-anchor="end" font-size="10" fill="#888">15</text>
  <text x="135.2" y="66.5" text-anchor="end" font-size="10" fill="#888">16</text>
  <text x="135.2" y="54.0" text-anchor="end" font-size="10" fill="#888">17</text>
  <text x="135.2" y="41.5" text-anchor="end" font-size="10" fill="#888">18</text>
  <text x="135.2" y="29.0" text-anchor="end" font-size="10" fill="#888">19</text>
  <text x="135.2" y="16.5" text-anchor="end" font-size="10" fill="#888">20</text>
  <text x="135.2" y="4.0" text-anchor="end" font-size="10" fill="#888">21</text>
  <text x="133.2" y="276.5" font-size="10" fill="#888">0</text>
  <polyline points="23.5,256.2 24.7,256.3 25.9,256.3 27.1,256.4 28.2,256.4 29.4,256.5 30.6,256.5 31.8,256.5 32.9,256.6 34.1,256.6 35.3,256.7 36.5,256.7 37.6,256.8 38.8,256.8 40.0,256.8 41.2,256.9 42.4,256.9 43.5,257.0 44.7,257.0 45.9,257.1 47.1,257.1 48.2,257.2 49.4,257.2 50.6,257.3 51.8,257.4 52.9,257.4 54.1,257.5 55.3,257.5 56.5,257.6 57.6,257.6 58.8,257.7 60.0,257.8 61.2,257.8 62.4,257.9 63.5,257.9 64.7,258.0 65.9,258.1 67.1,258.1 68.2,258.2 69.4,258.3 70.6,258.3 71.8,258.4 72.9,258.5 74.1,258.5 75.3,258.6 76.5,258.7 77.6,258.8 78.8,258.8 80.0,258.9 81.2,259.0 82.4,259.1 83.5,259.2 84.7,259.3 85.9,259.3 87.1,259.4 88.2,259.5 89.4,259.6 90.6,259.7 91.8,259.8 92.9,259.9 94.1,260.0 95.3,260.1 96.5,260.2 97.6,260.3 98.8,260.4 100.0,260.5 101.2,260.6 102.4,260.8 103.5,260.9 104.7,261.0 105.9,261.1 107.1,261.2 108.2,261.4 109.4,261.5 110.6,261.6 111.8,261.8 112.9,261.9 114.1,262.0 115.3,262.2 116.5,262.3 117.6,262.5 118.8,262.7 120.0,262.8 121.2,263.0 122.4,263.2 123.5,263.3 124.7,263.5 125.9,263.7 127.1,263.9 128.2,264.1 129.4,264.3 130.6,264.5 131.8,264.7 132.9,264.9 134.1,265.2 135.3,265.4 136.5,265.6 137.6,265.9 138.8,266.1 140.0,266.4 141.2,266.7 142.4,266.9 143.5,267.2 144.7,267.5 145.9,267.9 147.1,268.2 148.2,268.5 149.4,268.9 150.6,269.2 151.8,269.6 152.9,270.0 154.1,270.4 155.3,270.8 156.5,271.3 157.6,271.7 158.8,272.2 160.0,272.7 161.2,273.3 162.4,273.8 163.5,274.4 164.7,275.0 165.9,275.6 167.1,276.3 168.2,277.0 169.4,277.8 170.6,278.6 171.8,279.4 172.9,280.3 174.1,281.2 175.3,282.3 176.5,283.3 177.6,284.5 178.8,285.7 180.0,287.0 181.2,288.5 182.4,290.0 183.5,291.7 184.7,293.5 185.9,295.5 187.1,297.6 188.2,300.0 189.4,302.6 190.6,305.6 191.8,308.8 192.9,312.5 194.1,316.7 195.3,321.4 196.5,326.9 197.6,333.3 198.8,340.9 200.0,350.0 201.2,361.1 202.4,375.0 203.5,392.9 204.7,416.7 205.9,450.0" fill="none" stroke="#2980b9" stroke-width="2.5"/>
  <polyline points="216.5,-0.0 217.6,50.0 218.8,83.3 220.0,107.1 221.2,125.0 222.4,138.9 223.5,150.0 224.7,159.1 225.9,166.7 227.1,173.1 228.2,178.6 229.4,183.3 230.6,187.5 231.8,191.2 232.9,194.4 234.1,197.4 235.3,200.0 236.5,202.4 237.6,204.5 238.8,206.5 240.0,208.3 241.2,210.0 242.4,211.5 243.5,213.0 244.7,214.3 245.9,215.5 247.1,216.7 248.2,217.7 249.4,218.8 250.6,219.7 251.8,220.6 252.9,221.4 254.1,222.2 255.3,223.0 256.5,223.7 257.6,224.4 258.8,225.0 260.0,225.6 261.2,226.2 262.4,226.7 263.5,227.3 264.7,227.8 265.9,228.3 267.1,228.7 268.2,229.2 269.4,229.6 270.6,230.0 271.8,230.4 272.9,230.8 274.1,231.1 275.3,231.5 276.5,231.8 277.6,232.1 278.8,232.5 280.0,232.8 281.2,233.1 282.4,233.3 283.5,233.6 284.7,233.9 285.9,234.1 287.1,234.4 288.2,234.6 289.4,234.8 290.6,235.1 291.8,235.3 292.9,235.5 294.1,235.7 295.3,235.9 296.5,236.1 297.6,236.3 298.8,236.5 300.0,236.7 301.2,236.8 302.4,237.0 303.5,237.2 304.7,237.3 305.9,237.5 307.1,237.7 308.2,237.8 309.4,238.0 310.6,238.1 311.8,238.2 312.9,238.4 314.1,238.5 315.3,238.6 316.5,238.8 317.6,238.9 318.8,239.0 320.0,239.1 321.2,239.2 322.4,239.4 323.5,239.5 324.7,239.6 325.9,239.7 327.1,239.8 328.2,239.9 329.4,240.0 330.6,240.1 331.8,240.2 332.9,240.3 334.1,240.4 335.3,240.5 336.5,240.6 337.6,240.7 338.8,240.7 340.0,240.8 341.2,240.9 342.4,241.0 343.5,241.1 344.7,241.2 345.9,241.2 347.1,241.3 348.2,241.4 349.4,241.5 350.6,241.5 351.8,241.6 352.9,241.7 354.1,241.7 355.3,241.8 356.5,241.9 357.6,241.9 358.8,242.0 360.0,242.1 361.2,242.1 362.4,242.2 363.5,242.2 364.7,242.3 365.9,242.4 367.1,242.4 368.2,242.5 369.4,242.5 370.6,242.6 371.8,242.6 372.9,242.7 374.1,242.8 375.3,242.8 376.5,242.9" fill="none" stroke="#2980b9" stroke-width="2.5"/>
  <circle cx="117.6" cy="262.5" r="4.5" fill="#e74c3c" stroke="white" stroke-width="1.5"/>
  <text x="125.6" y="254.5" font-size="11" fill="#333">корень x = -1</text>
  <circle cx="141.2" cy="266.7" r="4.5" fill="#e74c3c" stroke="white" stroke-width="1.5"/>
  <text x="149.2" y="258.7" font-size="11" fill="#333">(0, -1/3)</text>
  <circle cx="305.9" cy="237.5" r="4.5" fill="#e74c3c" stroke="white" stroke-width="1.5"/>
  <text x="312.9" y="231.2" font-size="12" fill="#2c3e50" font-style="italic">y = (x+1)/(x-3)</text>
</svg>