<svg xmlns="http://www.w3.org/2000/svg" width="500" height="400" viewBox="0 0 500 400" style="background:white;font-family:sans-serif">
  <defs>
    <marker id="ah" markerWidth="8" markerHeight="6" refX="8" refY="3" orient="auto">
      <path d="M0,0 L8,3 L0,6" fill="#555"/></marker>
  </defs>
  <line x1="18.3" y1="0" x2="18.3" y2="400" stroke="#eee" stroke-width="0.5"/>
  <line x1="64.2" y1="0" x2="64.2" y2="400" stroke="#eee" stroke-width="0.5"/>
  <line x1="110.1" y1="0" x2="110.1" y2="400" stroke="#eee" stroke-width="0.5"/>
  <line x1="156.0" y1="0" x2="156.0" y2="400" stroke="#eee" stroke-width="0.5"/>
  <line x1="201.8" y1="0" x2="201.8" y2="400" stroke="#eee" stroke-width="0.5"/>
  <line x1="247.7" y1="0" x2="247.7" y2="400" stroke="#eee" stroke-width="0.5"/>
  <line x1="293.6" y1="0" x2="293.6" y2="400" stroke="#eee" stroke-width="0.5"/>
  <line x1="339.4" y1="0" x2="339.4" y2="400" stroke="#eee" stroke-width="0.5"/>
  <line x1="385.3" y1="0" x2="385.3" y2="400" stroke="#eee" stroke-width="0.5"/>
  <line x1="431.2" y1="0" x2="431.2" y2="400" stroke="#eee" stroke-width="0.5"/>
  <line x1="477.1" y1="0" x2="477.1" y2="400" stroke="#eee" stroke-width="0.5"/>
  <line x1="0" y1="400.0" x2="500" y2="400.0" stroke="#eee" stroke-width="0.5"/>
  <line x1="0" y1="360.0" x2="500" y2="360.0" stroke="#eee" stroke-width="0.5"/>
  <line x1="0" y1="320.0" x2="500" y2="320.0" stroke="#eee" stroke-width="0.5"/>
  <line x1="0" y1="280.0" x2="500" y2="280.0" stroke="#eee" stroke-width="0.5"/>
  <line x1="0" y1="240.0" x2="500" y2="240.0" stroke="#eee" stroke-width="0.5"/>
  <line x1="0" y1="200.0" x2="500" y2="200.0" stroke="#eee" stroke-width="0.5"/>
  <line x1="0" y1="160.0" x2="500" y2="160.0" stroke="#eee" stroke-width="0.5"/>
  <line x1="0" y1="120.0" x2="500" y2="120.0" stroke="#eee" stroke-width="0.5"/>
  <line x1="0" y1="80.0" x2="500" y2="80.0" stroke="#eee" stroke-width="0.5"/>
  <line x1="0" y1="40.0" x2="500" y2="40.0" stroke="#eee" stroke-width="0.5"/>
  <line x1="0" y1="0.0" x2="500" y2="0.0" stroke="#eee" stroke-width="0.5"/>
  <line x1="0" y1="200.0" x2="500" y2="200.0" stroke="#555" stroke-width="1" marker-end="url(#ah)"/>
  <line x1="18.3" y1="400" x2="18.3" y2="0" stroke="#555" stroke-width="1" marker-end="url(#ah)"/>
  <text x="64.2" y="214.0" text-anchor="middle" font-size="10" fill="#888">1</text>
  <text x="110.1" y="214.0" text-anchor="middle" font-size="10" fill="#888">2</text>
  <text x="156.0" y="214.0" text-anchor="middle" font-size="10" fill="#888">3</text>
  <text x="201.8" y="214.0" text-anchor="middle" font-size="10" fill="#888">4</text>
  <text x="247.7" y="214.0" text-anchor="middle" font-size="10" fill="#888">5</text>
  <text x="293.6" y="214.0" text-anchor="middle" font-size="10" fill="#888">6</text>
  <text x="339.4" y="214.0" text-anchor="middle" font-size="10" fill="#888">7</text>
  <text x="385.3" y="214.0" text-anchor="middle" font-size="10" fill="#888">8</text>
  <text x="431.2" y="214.0" text-anchor="middle" font-size="10" fill="#888">9</text>
  <text x="477.1" y="214.0" text-anchor="middle" font-size="10" fill="#888">10</text>
  <text x="12.3" y="404.0" text-anchor="end" font-size="10" fill="#888">-5</text>
  <text x="12.3" y="364.0" text-anchor="end" font-size="10" fill="#888">-4</text>
  <text x="12.3" y="324.0" text-anchor="end" font-size="10" fill="#888">-3</text>
  <text x="12.3" y="284.0" text-anchor="end" font-size="10" fill="#888">-2</text>
  <text x="12.3" y="244.0" text-anchor="end" font-size="10" fill="#888">-1</text>
  <text x="12.3" y="164.0" text-anchor="end" font-size="10" fill="#888">1</text>
  <text x="12.3" y="124.0" text-anchor="end" font-size="10" fill="#888">2</text>
  <text x="12.3" y="84.0" text-anchor="end" font-size="10" fill="#888">3</text>
  <text x="12.3" y="44.0" text-anchor="end" font-size="10" fill="#888">4</text>
  <text x="12.3" y="4.0" text-anchor="end" font-size="10" fill="#888">5</text>
  <text x="10.3" y="214.0" font-size="10" fill="#888">0</text>
  <polyline points="22.9,332.9 24.4,316.4 26.0,303.6 27.5,293.2 29.0,284.3 30.5,276.6 32.0,269.9 33.5,263.8 35.0,258.3 36.6,253.3 38.1,248.7 39.6,244.4 41.1,240.5 42.6,236.7 44.1,233.3 45.6,230.0 47.2,226.8 48.7,223.9 50.2,221.1 51.7,218.4 53.2,215.8 54.7,213.4 56.2,211.0 57.8,208.8 59.3,206.6 60.8,204.5 62.3,202.5 63.8,200.5 65.3,198.6 66.8,196.8 68.3,195.0 69.9,193.3 71.4,191.6 72.9,190.0 74.4,188.4 75.9,186.9 77.4,185.4 78.9,183.9 80.5,182.5 82.0,181.1 83.5,179.8 85.0,178.4 86.5,177.1 88.0,175.9 89.5,174.6 91.1,173.4 92.6,172.2 94.1,171.1 95.6,169.9 97.1,168.8 98.6,167.7 100.1,166.6 101.7,165.6 103.2,164.5 104.7,163.5 106.2,162.5 107.7,161.5 109.2,160.6 110.7,159.6 112.2,158.7 113.8,157.7 115.3,156.8 116.8,155.9 118.3,155.1 119.8,154.2 121.3,153.3 122.8,152.5 124.4,151.7 125.9,150.8 127.4,150.0 128.9,149.2 130.4,148.5 131.9,147.7 133.4,146.9 135.0,146.2 136.5,145.4 138.0,144.7 139.5,144.0 141.0,143.2 142.5,142.5 144.0,141.8 145.6,141.1 147.1,140.5 148.6,139.8 150.1,139.1 151.6,138.5 153.1,137.8 154.6,137.2 156.1,136.5 157.7,135.9 159.2,135.3 160.7,134.7 162.2,134.0 163.7,133.4 165.2,132.8 166.7,132.2 168.3,131.7 169.8,131.1 171.3,130.5 172.8,129.9 174.3,129.4 175.8,128.8 177.3,128.3 178.9,127.7 180.4,127.2 181.9,126.6 183.4,126.1 184.9,125.6 186.4,125.1 187.9,124.5 189.4,124.0 191.0,123.5 192.5,123.0 194.0,122.5 195.5,122.0 197.0,121.5 198.5,121.0 200.0,120.6 201.6,120.1 203.1,119.6 204.6,119.1 206.1,118.7 207.6,118.2 209.1,117.8 210.6,117.3 212.2,116.8 213.7,116.4 215.2,115.9 216.7,115.5 218.2,115.1 219.7,114.6 221.2,114.2 222.8,113.8 224.3,113.3 225.8,112.9 227.3,112.5 228.8,112.1 230.3,111.7 231.8,111.3 233.3,110.9 234.9,110.4 236.4,110.0 237.9,109.6 239.4,109.3 240.9,108.9 242.4,108.5 243.9,108.1 245.5,107.7 247.0,107.3 248.5,106.9 250.0,106.5 251.5,106.2 253.0,105.8 254.5,105.4 256.1,105.1 257.6,104.7 259.1,104.3 260.6,104.0 262.1,103.6 263.6,103.3 265.1,102.9 266.7,102.5 268.2,102.2 269.7,101.8 271.2,101.5 272.7,101.2 274.2,100.8 275.7,100.5 277.2,100.1 278.8,99.8 280.3,99.5 281.8,99.1 283.3,98.8 284.8,98.5 286.3,98.1 287.8,97.8 289.4,97.5 290.9,97.2 292.4,96.9 293.9,96.5 295.4,96.2 296.9,95.9 298.4,95.6 300.0,95.3 301.5,95.0 303.0,94.7 304.5,94.4 306.0,94.1 307.5,93.7 309.0,93.4 310.6,93.1 312.1,92.9 313.6,92.6 315.1,92.3 316.6,92.0 318.1,91.7 319.6,91.4 321.1,91.1 322.7,90.8 324.2,90.5 325.7,90.2 327.2,90.0 328.7,89.7 330.2,89.4 331.7,89.1 333.3,88.8 334.8,88.6 336.3,88.3 337.8,88.0 339.3,87.7 340.8,87.5 342.3,87.2 343.9,86.9 345.4,86.7 346.9,86.4 348.4,86.1 349.9,85.9 351.4,85.6 352.9,85.3 354.4,85.1 356.0,84.8 357.5,84.6 359.0,84.3 360.5,84.0 362.0,83.8 363.5,83.5 365.0,83.3 366.6,83.0 368.1,82.8 369.6,82.5 371.1,82.3 372.6,82.0 374.1,81.8 375.6,81.5 377.2,81.3 378.7,81.1 380.2,80.8 381.7,80.6 383.2,80.3 384.7,80.1 386.2,79.9 387.8,79.6 389.3,79.4 390.8,79.1 392.3,78.9 393.8,78.7 395.3,78.4 396.8,78.2 398.3,78.0 399.9,77.8 401.4,77.5 402.9,77.3 404.4,77.1 405.9,76.8 407.4,76.6 408.9,76.4 410.5,76.2 412.0,76.0 413.5,75.7 415.0,75.5 416.5,75.3 418.0,75.1 419.5,74.9 421.1,74.6 422.6,74.4 424.1,74.2 425.6,74.0 427.1,73.8 428.6,73.6 430.1,73.4 431.7,73.1 433.2,72.9 434.7,72.7 436.2,72.5 437.7,72.3 439.2,72.1 440.7,71.9 442.2,71.7 443.8,71.5 445.3,71.3 446.8,71.1 448.3,70.9 449.8,70.7 451.3,70.5 452.8,70.3 454.4,70.1 455.9,69.9 457.4,69.7 458.9,69.5 460.4,69.3 461.9,69.1 463.4,68.9 465.0,68.7 466.5,68.5 468.0,68.3 469.5,68.1 471.0,67.9 472.5,67.7 474.0,67.5 475.6,67.3 477.1,67.1" fill="none" stroke="#2980b9" stroke-width="2.5"/>
  <text x="368.4" y="75.7" font-size="12" fill="#2980b9" font-style="italic">y = log₂(x)</text>
  <polyline points="22.9,283.8 24.4,273.5 26.0,265.4 27.5,258.8 29.0,253.2 30.5,248.4 32.0,244.1 33.5,240.3 35.0,236.8 36.6,233.6 38.1,230.7 39.6,228.0 41.1,225.5 42.6,223.2 44.1,221.0 45.6,218.9 47.2,216.9 48.7,215.1 50.2,213.3 51.7,211.6 53.2,210.0 54.7,208.4 56.2,207.0 57.8,205.5 59.3,204.2 60.8,202.8 62.3,201.6 63.8,200.3 65.3,199.1 66.8,198.0 68.3,196.9 69.9,195.8 71.4,194.7 72.9,193.7 74.4,192.7 75.9,191.7 77.4,190.8 78.9,189.9 80.5,189.0 82.0,188.1 83.5,187.2 85.0,186.4 86.5,185.6 88.0,184.8 89.5,184.0 91.1,183.2 92.6,182.5 94.1,181.7 95.6,181.0 97.1,180.3 98.6,179.6 100.1,178.9 101.7,178.3 103.2,177.6 104.7,177.0 106.2,176.3 107.7,175.7 109.2,175.1 110.7,174.5 112.2,173.9 113.8,173.3 115.3,172.8 116.8,172.2 118.3,171.6 119.8,171.1 121.3,170.6 122.8,170.0 124.4,169.5 125.9,169.0 127.4,168.5 128.9,168.0 130.4,167.5 131.9,167.0 133.4,166.5 135.0,166.0 136.5,165.6 138.0,165.1 139.5,164.6 141.0,164.2 142.5,163.7 144.0,163.3 145.6,162.9 147.1,162.4 148.6,162.0 150.1,161.6 151.6,161.2 153.1,160.8 154.6,160.4 156.1,160.0 157.7,159.6 159.2,159.2 160.7,158.8 162.2,158.4 163.7,158.0 165.2,157.6 166.7,157.3 168.3,156.9 169.8,156.5 171.3,156.2 172.8,155.8 174.3,155.4 175.8,155.1 177.3,154.7 178.9,154.4 180.4,154.1 181.9,153.7 183.4,153.4 184.9,153.0 186.4,152.7 187.9,152.4 189.4,152.1 191.0,151.7 192.5,151.4 194.0,151.1 195.5,150.8 197.0,150.5 198.5,150.2 200.0,149.9 201.6,149.6 203.1,149.3 204.6,149.0 206.1,148.7 207.6,148.4 209.1,148.1 210.6,147.8 212.2,147.5 213.7,147.2 215.2,147.0 216.7,146.7 218.2,146.4 219.7,146.1 221.2,145.9 222.8,145.6 224.3,145.3 225.8,145.1 227.3,144.8 228.8,144.5 230.3,144.3 231.8,144.0 233.3,143.8 234.9,143.5 236.4,143.2 237.9,143.0 239.4,142.7 240.9,142.5 242.4,142.2 243.9,142.0 245.5,141.8 247.0,141.5 248.5,141.3 250.0,141.0 251.5,140.8 253.0,140.6 254.5,140.3 256.1,140.1 257.6,139.9 259.1,139.6 260.6,139.4 262.1,139.2 263.6,139.0 265.1,138.7 266.7,138.5 268.2,138.3 269.7,138.1 271.2,137.9 272.7,137.6 274.2,137.4 275.7,137.2 277.2,137.0 278.8,136.8 280.3,136.6 281.8,136.4 283.3,136.1 284.8,135.9 286.3,135.7 287.8,135.5 289.4,135.3 290.9,135.1 292.4,134.9 293.9,134.7 295.4,134.5 296.9,134.3 298.4,134.1 300.0,133.9 301.5,133.7 303.0,133.5 304.5,133.3 306.0,133.2 307.5,133.0 309.0,132.8 310.6,132.6 312.1,132.4 313.6,132.2 315.1,132.0 316.6,131.8 318.1,131.7 319.6,131.5 321.1,131.3 322.7,131.1 324.2,130.9 325.7,130.7 327.2,130.6 328.7,130.4 330.2,130.2 331.7,130.0 333.3,129.9 334.8,129.7 336.3,129.5 337.8,129.3 339.3,129.2 340.8,129.0 342.3,128.8 343.9,128.7 345.4,128.5 346.9,128.3 348.4,128.1 349.9,128.0 351.4,127.8 352.9,127.7 354.4,127.5 356.0,127.3 357.5,127.2 359.0,127.0 360.5,126.8 362.0,126.7 363.5,126.5 365.0,126.4 366.6,126.2 368.1,126.0 369.6,125.9 371.1,125.7 372.6,125.6 374.1,125.4 375.6,125.3 377.2,125.1 378.7,125.0 380.2,124.8 381.7,124.6 383.2,124.5 384.7,124.3 386.2,124.2 387.8,124.0 389.3,123.9 390.8,123.8 392.3,123.6 393.8,123.5 395.3,123.3 396.8,123.2 398.3,123.0 399.9,122.9 401.4,122.7 402.9,122.6 404.4,122.4 405.9,122.3 407.4,122.2 408.9,122.0 410.5,121.9 412.0,121.7 413.5,121.6 415.0,121.5 416.5,121.3 418.0,121.2 419.5,121.0 421.1,120.9 422.6,120.8 424.1,120.6 425.6,120.5 427.1,120.4 428.6,120.2 430.1,120.1 431.7,120.0 433.2,119.8 434.7,119.7 436.2,119.6 437.7,119.4 439.2,119.3 440.7,119.2 442.2,119.0 443.8,118.9 445.3,118.8 446.8,118.6 448.3,118.5 449.8,118.4 451.3,118.3 452.8,118.1 454.4,118.0 455.9,117.9 457.4,117.8 458.9,117.6 460.4,117.5 461.9,117.4 463.4,117.3 465.0,117.1 466.5,117.0 468.0,116.9 469.5,116.8 471.0,116.6 472.5,116.5 474.0,116.4 475.6,116.3 477.1,116.2" fill="none" stroke="#e74c3c" stroke-width="2.5"/>
  <text x="368.4" y="118.6" font-size="12" fill="#e74c3c" font-style="italic">y = log₃(x)</text>
  <circle cx="64.2" cy="200.0" r="4.5" fill="#e74c3c" stroke="white" stroke-width="1.5"/>
  <text x="72.2" y="192.0" font-size="11" fill="#333">(1, 0)</text>
  <circle cx="110.1" cy="160.0" r="4.5" fill="#e74c3c" stroke="white" stroke-width="1.5"/>
  <text x="118.1" y="152.0" font-size="11" fill="#333">(2, 1)</text>
</svg>