<svg xmlns="http://www.w3.org/2000/svg" width="400" height="400" viewBox="0 0 400 400" style="background:white;font-family:sans-serif">
  <defs>
    <marker id="ah" markerWidth="8" markerHeight="6" refX="8" refY="3" orient="auto">
      <path d="M0,0 L8,3 L0,6" fill="#555"/></marker>
  </defs>
  <line x1="0.0" y1="0" x2="0.0" y2="400" stroke="#eee" stroke-width="0.5"/>
  <line x1="36.4" y1="0" x2="36.4" y2="400" stroke="#eee" stroke-width="0.5"/>
  <line x1="72.7" y1="0" x2="72.7" y2="400" stroke="#eee" stroke-width="0.5"/>
  <line x1="109.1" y1="0" x2="109.1" y2="400" stroke="#eee" stroke-width="0.5"/>
  <line x1="145.5" y1="0" x2="145.5" y2="400" stroke="#eee" stroke-width="0.5"/>
  <line x1="181.8" y1="0" x2="181.8" y2="400" stroke="#eee" stroke-width="0.5"/>
  <line x1="218.2" y1="0" x2="218.2" y2="400" stroke="#eee" stroke-width="0.5"/>
  <line x1="254.5" y1="0" x2="254.5" y2="400" stroke="#eee" stroke-width="0.5"/>
  <line x1="290.9" y1="0" x2="290.9" y2="400" stroke="#eee" stroke-width="0.5"/>
  <line x1="327.3" y1="0" x2="327.3" y2="400" stroke="#eee" stroke-width="0.5"/>
  <line x1="363.6" y1="0" x2="363.6" y2="400" stroke="#eee" stroke-width="0.5"/>
  <line x1="400.0" y1="0" x2="400.0" y2="400" stroke="#eee" stroke-width="0.5"/>
  <line x1="0" y1="400.0" x2="400" y2="400.0" stroke="#eee" stroke-width="0.5"/>
  <line x1="0" y1="320.0" x2="400" y2="320.0" stroke="#eee" stroke-width="0.5"/>
  <line x1="0" y1="240.0" x2="400" y2="240.0" stroke="#eee" stroke-width="0.5"/>
  <line x1="0" y1="160.0" x2="400" y2="160.0" stroke="#eee" stroke-width="0.5"/>
  <line x1="0" y1="80.0" x2="400" y2="80.0" stroke="#eee" stroke-width="0.5"/>
  <line x1="0" y1="0.0" x2="400" y2="0.0" stroke="#eee" stroke-width="0.5"/>
  <line x1="0" y1="320.0" x2="400" y2="320.0" stroke="#555" stroke-width="1" marker-end="url(#ah)"/>
  <line x1="36.4" y1="400" x2="36.4" y2="0" stroke="#555" stroke-width="1" marker-end="url(#ah)"/>
  <text x="0.0" y="334.0" text-anchor="middle" font-size="10" fill="#888">-1</text>
  <text x="72.7" y="334.0" text-anchor="middle" font-size="10" fill="#888">1</text>
  <text x="109.1" y="334.0" text-anchor="middle" font-size="10" fill="#888">2</text>
  <text x="145.5" y="334.0" text-anchor="middle" font-size="10" fill="#888">3</text>
  <text x="181.8" y="334.0" text-anchor="middle" font-size="10" fill="#888">4</text>
  <text x="218.2" y="334.0" text-anchor="middle" font-size="10" fill="#888">5</text>
  <text x="254.5" y="334.0" text-anchor="middle" font-size="10" fill="#888">6</text>
  <text x="290.9" y="334.0" text-anchor="middle" font-size="10" fill="#888">7</text>
  <text x="327.3" y="334.0" text-anchor="middle" font-size="10" fill="#888">8</text>
  <text x="363.6" y="334.0" text-anchor="middle" font-size="10" fill="#888">9</text>
  <text x="400.0" y="334.0" text-anchor="middle" font-size="10" fill="#888">10</text>
  <text x="30.4" y="404.0" text-anchor="end" font-size="10" fill="#888">-1</text>
  <text x="30.4" y="244.0" text-anchor="end" font-size="10" fill="#888">1</text>
  <text x="30.4" y="164.0" text-anchor="end" font-size="10" fill="#888">2</text>
  <text x="30.4" y="84.0" text-anchor="end" font-size="10" fill="#888">3</text>
  <text x="30.4" y="4.0" text-anchor="end" font-size="10" fill="#888">4</text>
  <text x="28.4" y="334.0" font-size="10" fill="#888">0</text>
  <polyline points="36.4,320.0 37.5,306.1 38.5,300.4 39.6,296.0 40.7,292.3 41.8,289.0 42.9,286.1 44.0,283.3 45.1,280.8 46.2,278.4 47.3,276.2 48.4,274.0 49.5,272.0 50.5,270.0 51.6,268.2 52.7,266.3 53.8,264.6 54.9,262.9 56.0,261.2 57.1,259.6 58.2,258.0 59.3,256.5 60.4,255.0 61.5,253.5 62.5,252.1 63.6,250.7 64.7,249.3 65.8,248.0 66.9,246.7 68.0,245.4 69.1,244.1 70.2,242.9 71.3,241.6 72.4,240.4 73.5,239.2 74.5,238.0 75.6,236.9 76.7,235.7 77.8,234.6 78.9,233.5 80.0,232.4 81.1,231.3 82.2,230.2 83.3,229.1 84.4,228.1 85.5,227.0 86.5,226.0 87.6,225.0 88.7,224.0 89.8,223.0 90.9,222.0 92.0,221.0 93.1,220.1 94.2,219.1 95.3,218.2 96.4,217.2 97.5,216.3 98.5,215.4 99.6,214.5 100.7,213.6 101.8,212.7 102.9,211.8 104.0,210.9 105.1,210.0 106.2,209.1 107.3,208.3 108.4,207.4 109.5,206.6 110.5,205.7 111.6,204.9 112.7,204.1 113.8,203.2 114.9,202.4 116.0,201.6 117.1,200.8 118.2,200.0 119.3,199.2 120.4,198.4 121.5,197.6 122.5,196.8 123.6,196.1 124.7,195.3 125.8,194.5 126.9,193.8 128.0,193.0 129.1,192.3 130.2,191.5 131.3,190.8 132.4,190.0 133.5,189.3 134.5,188.5 135.6,187.8 136.7,187.1 137.8,186.4 138.9,185.7 140.0,184.9 141.1,184.2 142.2,183.5 143.3,182.8 144.4,182.1 145.5,181.4 146.5,180.7 147.6,180.1 148.7,179.4 149.8,178.7 150.9,178.0 152.0,177.3 153.1,176.7 154.2,176.0 155.3,175.3 156.4,174.7 157.5,174.0 158.5,173.4 159.6,172.7 160.7,172.1 161.8,171.4 162.9,170.8 164.0,170.1 165.1,169.5 166.2,168.8 167.3,168.2 168.4,167.6 169.5,167.0 170.5,166.3 171.6,165.7 172.7,165.1 173.8,164.5 174.9,163.8 176.0,163.2 177.1,162.6 178.2,162.0 179.3,161.4 180.4,160.8 181.5,160.2 182.5,159.6 183.6,159.0 184.7,158.4 185.8,157.8 186.9,157.2 188.0,156.6 189.1,156.0 190.2,155.5 191.3,154.9 192.4,154.3 193.5,153.7 194.5,153.1 195.6,152.6 196.7,152.0 197.8,151.4 198.9,150.9 200.0,150.3 201.1,149.7 202.2,149.2 203.3,148.6 204.4,148.0 205.5,147.5 206.5,146.9 207.6,146.4 208.7,145.8 209.8,145.3 210.9,144.7 212.0,144.2 213.1,143.6 214.2,143.1 215.3,142.6 216.4,142.0 217.5,141.5 218.5,140.9 219.6,140.4 220.7,139.9 221.8,139.3 222.9,138.8 224.0,138.3 225.1,137.7 226.2,137.2 227.3,136.7 228.4,136.2 229.5,135.7 230.5,135.1 231.6,134.6 232.7,134.1 233.8,133.6 234.9,133.1 236.0,132.6 237.1,132.0 238.2,131.5 239.3,131.0 240.4,130.5 241.5,130.0 242.5,129.5 243.6,129.0 244.7,128.5 245.8,128.0 246.9,127.5 248.0,127.0 249.1,126.5 250.2,126.0 251.3,125.5 252.4,125.0 253.5,124.5 254.5,124.0 255.6,123.6 256.7,123.1 257.8,122.6 258.9,122.1 260.0,121.6 261.1,121.1 262.2,120.6 263.3,120.2 264.4,119.7 265.5,119.2 266.5,118.7 267.6,118.2 268.7,117.8 269.8,117.3 270.9,116.8 272.0,116.4 273.1,115.9 274.2,115.4 275.3,114.9 276.4,114.5 277.5,114.0 278.5,113.5 279.6,113.1 280.7,112.6 281.8,112.2 282.9,111.7 284.0,111.2 285.1,110.8 286.2,110.3 287.3,109.9 288.4,109.4 289.5,108.9 290.5,108.5 291.6,108.0 292.7,107.6 293.8,107.1 294.9,106.7 296.0,106.2 297.1,105.8 298.2,105.3 299.3,104.9 300.4,104.4 301.5,104.0 302.5,103.6 303.6,103.1 304.7,102.7 305.8,102.2 306.9,101.8 308.0,101.3 309.1,100.9 310.2,100.5 311.3,100.0 312.4,99.6 313.5,99.2 314.5,98.7 315.6,98.3 316.7,97.9 317.8,97.4 318.9,97.0 320.0,96.6 321.1,96.1 322.2,95.7 323.3,95.3 324.4,94.9 325.5,94.4 326.5,94.0 327.6,93.6 328.7,93.2 329.8,92.7 330.9,92.3 332.0,91.9 333.1,91.5 334.2,91.1 335.3,90.6 336.4,90.2 337.5,89.8 338.5,89.4 339.6,89.0 340.7,88.6 341.8,88.1 342.9,87.7 344.0,87.3 345.1,86.9 346.2,86.5 347.3,86.1 348.4,85.7 349.5,85.3 350.5,84.8 351.6,84.4 352.7,84.0 353.8,83.6 354.9,83.2 356.0,82.8 357.1,82.4 358.2,82.0 359.3,81.6 360.4,81.2 361.5,80.8 362.5,80.4 363.6,80.0" fill="none" stroke="#2980b9" stroke-width="2.5"/>
  <circle cx="72.7" cy="240.0" r="4.5" fill="#e74c3c" stroke="white" stroke-width="1.5"/>
  <text x="80.7" y="232.0" font-size="11" fill="#333">(1, 1)</text>
  <circle cx="181.8" cy="160.0" r="4.5" fill="#e74c3c" stroke="white" stroke-width="1.5"/>
  <text x="189.8" y="152.0" font-size="11" fill="#333">(4, 2)</text>
  <circle cx="363.6" cy="80.0" r="4.5" fill="#e74c3c" stroke="white" stroke-width="1.5"/>
  <text x="371.6" y="72.0" font-size="11" fill="#333">(9, 3)</text>
  <circle cx="265.5" cy="119.2" r="4.5" fill="#e74c3c" stroke="white" stroke-width="1.5"/>
  <text x="276.4" y="79.2" font-size="12" fill="#2c3e50" font-style="italic">y = x**0.5</text>
</svg>