<svg xmlns="http://www.w3.org/2000/svg" width="500" height="200" viewBox="0 0 500 200" style="background:white;font-family:sans-serif">
  <defs>
    <marker id="ah" markerWidth="8" markerHeight="6" refX="8" refY="3" orient="auto">
      <path d="M0,0 L8,3 L0,6" fill="#555"/></marker>
  </defs>
  <line x1="0.0" y1="0" x2="0.0" y2="200" stroke="#eee" stroke-width="0.5"/>
  <line x1="62.5" y1="0" x2="62.5" y2="200" stroke="#eee" stroke-width="0.5"/>
  <line x1="125.0" y1="0" x2="125.0" y2="200" stroke="#eee" stroke-width="0.5"/>
  <line x1="187.5" y1="0" x2="187.5" y2="200" stroke="#eee" stroke-width="0.5"/>
  <line x1="250.0" y1="0" x2="250.0" y2="200" stroke="#eee" stroke-width="0.5"/>
  <line x1="312.5" y1="0" x2="312.5" y2="200" stroke="#eee" stroke-width="0.5"/>
  <line x1="375.0" y1="0" x2="375.0" y2="200" stroke="#eee" stroke-width="0.5"/>
  <line x1="437.5" y1="0" x2="437.5" y2="200" stroke="#eee" stroke-width="0.5"/>
  <line x1="500.0" y1="0" x2="500.0" y2="200" stroke="#eee" stroke-width="0.5"/>
  <line x1="0" y1="200.0" x2="500" y2="200.0" stroke="#eee" stroke-width="0.5"/>
  <line x1="0" y1="150.0" x2="500" y2="150.0" stroke="#eee" stroke-width="0.5"/>
  <line x1="0" y1="100.0" x2="500" y2="100.0" stroke="#eee" stroke-width="0.5"/>
  <line x1="0" y1="50.0" x2="500" y2="50.0" stroke="#eee" stroke-width="0.5"/>
  <line x1="0" y1="0.0" x2="500" y2="0.0" stroke="#eee" stroke-width="0.5"/>
  <line x1="0" y1="100.0" x2="500" y2="100.0" stroke="#555" stroke-width="1" marker-end="url(#ah)"/>
  <line x1="187.5" y1="200" x2="187.5" y2="0" stroke="#555" stroke-width="1" marker-end="url(#ah)"/>
  <text x="0.0" y="114.0" text-anchor="middle" font-size="10" fill="#888">-3</text>
  <text x="62.5" y="114.0" text-anchor="middle" font-size="10" fill="#888">-2</text>
  <text x="125.0" y="114.0" text-anchor="middle" font-size="10" fill="#888">-1</text>
  <text x="250.0" y="114.0" text-anchor="middle" font-size="10" fill="#888">1</text>
  <text x="312.5" y="114.0" text-anchor="middle" font-size="10" fill="#888">2</text>
  <text x="375.0" y="114.0" text-anchor="middle" font-size="10" fill="#888">3</text>
  <text x="437.5" y="114.0" text-anchor="middle" font-size="10" fill="#888">4</text>
  <text x="500.0" y="114.0" text-anchor="middle" font-size="10" fill="#888">5</text>
  <text x="181.5" y="204.0" text-anchor="end" font-size="10" fill="#888">-2</text>
  <text x="181.5" y="154.0" text-anchor="end" font-size="10" fill="#888">-1</text>
  <text x="181.5" y="54.0" text-anchor="end" font-size="10" fill="#888">1</text>
  <text x="181.5" y="4.0" text-anchor="end" font-size="10" fill="#888">2</text>
  <text x="179.5" y="114.0" font-size="10" fill="#888">0</text>
  <polyline points="0.0,100.0 1.7,100.0 3.3,100.0 5.0,100.0 6.7,100.0 8.3,100.0 10.0,100.0 11.7,100.0 13.3,100.0 15.0,100.0 16.7,100.0 18.3,100.0 20.0,100.0 21.7,100.0 23.3,100.0 25.0,100.0 26.7,100.0 28.3,100.0 30.0,100.0 31.7,100.0 33.3,100.0 35.0,100.0 36.7,100.0 38.3,100.0 40.0,100.0 41.7,100.0 43.3,100.0 45.0,100.0 46.7,100.0 48.3,100.0 50.0,100.0 51.7,100.0 53.3,100.0 55.0,100.0 56.7,100.0 58.3,100.0 60.0,100.0 61.7,100.0 63.3,100.0 65.0,100.0 66.7,100.0 68.3,100.0 70.0,100.0 71.7,100.0 73.3,100.0 75.0,100.0 76.7,100.0 78.3,100.0 80.0,100.0 81.7,100.0 83.3,100.0 85.0,100.0 86.7,100.0 88.3,100.0 90.0,100.0 91.7,100.0 93.3,100.0 95.0,100.0 96.7,100.0 98.3,100.0 100.0,100.0 101.7,100.0 103.3,100.0 105.0,100.0 106.7,100.0 108.3,100.0 110.0,100.0 111.7,100.0 113.3,100.0 115.0,100.0 116.7,100.0 118.3,100.0 120.0,100.0 121.7,100.0 123.3,100.0 125.0,100.0 126.7,100.0 128.3,100.0 130.0,100.0 131.7,100.0 133.3,100.0 135.0,100.0 136.7,100.0 138.3,100.0 140.0,100.0 141.7,100.0 143.3,100.0 145.0,100.0 146.7,100.0 148.3,100.0 150.0,100.0 151.7,100.0 153.3,100.0 155.0,100.0 156.7,100.0 158.3,100.0 160.0,100.0 161.7,100.0 163.3,100.0 165.0,100.0 166.7,100.0 168.3,100.0 170.0,100.0 171.7,100.0 173.3,100.0 175.0,100.0 176.7,100.0 178.3,100.0 180.0,100.0 181.7,100.0 183.3,100.0 185.0,100.0 186.7,100.0 188.3,100.0 190.0,100.0 191.7,100.0 193.3,100.0 195.0,100.0 196.7,100.0 198.3,100.0 200.0,100.0 201.7,100.0 203.3,100.0 205.0,100.0 206.7,100.0 208.3,100.0 210.0,100.0 211.7,100.0 213.3,100.0 215.0,100.0 216.7,100.0 218.3,100.0 220.0,100.0 221.7,100.0 223.3,100.0 225.0,100.0 226.7,100.0 228.3,100.0 230.0,100.0 231.7,100.0 233.3,100.0 235.0,100.0 236.7,100.0 238.3,100.0 240.0,100.0 241.7,100.0 243.3,100.0 245.0,100.0 246.7,100.0 248.3,100.0 250.0,100.0 251.7,100.0 253.3,100.0 255.0,100.0 256.7,100.0 258.3,100.0 260.0,100.0 261.7,100.0 263.3,100.0 265.0,100.0 266.7,100.0 268.3,100.0 270.0,100.0 271.7,100.0 273.3,100.0 275.0,100.0 276.7,100.0 278.3,100.0 280.0,100.0 281.7,100.0 283.3,100.0 285.0,100.0 286.7,100.0 288.3,100.0 290.0,100.0 291.7,100.0 293.3,100.0 295.0,100.0 296.7,100.0 298.3,100.0 300.0,100.0 301.7,100.0 303.3,100.0 305.0,100.0 306.7,100.0 308.3,100.0 310.0,100.0 311.7,100.0 313.3,100.0 315.0,100.0 316.7,100.0 318.3,100.0 320.0,100.0 321.7,100.0 323.3,100.0 325.0,100.0 326.7,100.0 328.3,100.0 330.0,100.0 331.7,100.0 333.3,100.0 335.0,100.0 336.7,100.0 338.3,100.0 340.0,100.0 341.7,100.0 343.3,100.0 345.0,100.0 346.7,100.0 348.3,100.0 350.0,100.0 351.7,100.0 353.3,100.0 355.0,100.0 356.7,100.0 358.3,100.0 360.0,100.0 361.7,100.0 363.3,100.0 365.0,100.0 366.7,100.0 368.3,100.0 370.0,100.0 371.7,100.0 373.3,100.0 375.0,100.0 376.7,100.0 378.3,100.0 380.0,100.0 381.7,100.0 383.3,100.0 385.0,100.0 386.7,100.0 388.3,100.0 390.0,100.0 391.7,100.0 393.3,100.0 395.0,100.0 396.7,100.0 398.3,100.0 400.0,100.0 401.7,100.0 403.3,100.0 405.0,100.0 406.7,100.0 408.3,100.0 410.0,100.0 411.7,100.0 413.3,100.0 415.0,100.0 416.7,100.0 418.3,100.0 420.0,100.0 421.7,100.0 423.3,100.0 425.0,100.0 426.7,100.0 428.3,100.0 430.0,100.0 431.7,100.0 433.3,100.0 435.0,100.0 436.7,100.0 438.3,100.0 440.0,100.0 441.7,100.0 443.3,100.0 445.0,100.0 446.7,100.0 448.3,100.0 450.0,100.0 451.7,100.0 453.3,100.0 455.0,100.0 456.7,100.0 458.3,100.0 460.0,100.0 461.7,100.0 463.3,100.0 465.0,100.0 466.7,100.0 468.3,100.0 470.0,100.0 471.7,100.0 473.3,100.0 475.0,100.0 476.7,100.0 478.3,100.0 480.0,100.0 481.7,100.0 483.3,100.0 485.0,100.0 486.7,100.0 488.3,100.0 490.0,100.0 491.7,100.0 493.3,100.0 495.0,100.0 496.7,100.0 498.3,100.0 500.0,100.0" fill="none" stroke="#2980b9" stroke-width="2.5"/>
  <circle cx="125.0" cy="100.0" r="4.5" fill="#e74c3c" stroke="white" stroke-width="1.5"/>
  <text x="133.0" y="92.0" font-size="11" fill="#333">x=-1</text>
  <circle cx="375.0" cy="100.0" r="4.5" fill="#e74c3c" stroke="white" stroke-width="1.5"/>
  <text x="383.0" y="92.0" font-size="11" fill="#333">x≠3</text>
</svg>