<svg xmlns="http://www.w3.org/2000/svg" width="400" height="400" viewBox="0 0 400 400" style="background:white;font-family:sans-serif">
  <defs>
    <marker id="ah" markerWidth="8" markerHeight="6" refX="8" refY="3" orient="auto">
      <path d="M0,0 L8,3 L0,6" fill="#555"/></marker>
  </defs>
  <line x1="0.0" y1="0" x2="0.0" y2="400" stroke="#eee" stroke-width="0.5"/>
  <line x1="50.0" y1="0" x2="50.0" y2="400" stroke="#eee" stroke-width="0.5"/>
  <line x1="100.0" y1="0" x2="100.0" y2="400" stroke="#eee" stroke-width="0.5"/>
  <line x1="150.0" y1="0" x2="150.0" y2="400" stroke="#eee" stroke-width="0.5"/>
  <line x1="200.0" y1="0" x2="200.0" y2="400" stroke="#eee" stroke-width="0.5"/>
  <line x1="250.0" y1="0" x2="250.0" y2="400" stroke="#eee" stroke-width="0.5"/>
  <line x1="300.0" y1="0" x2="300.0" y2="400" stroke="#eee" stroke-width="0.5"/>
  <line x1="350.0" y1="0" x2="350.0" y2="400" stroke="#eee" stroke-width="0.5"/>
  <line x1="400.0" y1="0" x2="400.0" y2="400" stroke="#eee" stroke-width="0.5"/>
  <line x1="0" y1="400.0" x2="400" y2="400.0" stroke="#eee" stroke-width="0.5"/>
  <line x1="0" y1="300.0" x2="400" y2="300.0" stroke="#eee" stroke-width="0.5"/>
  <line x1="0" y1="200.0" x2="400" y2="200.0" stroke="#eee" stroke-width="0.5"/>
  <line x1="0" y1="100.0" x2="400" y2="100.0" stroke="#eee" stroke-width="0.5"/>
  <line x1="0" y1="0.0" x2="400" y2="0.0" stroke="#eee" stroke-width="0.5"/>
  <line x1="150.0" y1="400" x2="150.0" y2="0" stroke="#555" stroke-width="1" marker-end="url(#ah)"/>
  <text x="0.0" y="410.0" text-anchor="middle" font-size="10" fill="#888">-3</text>
  <text x="50.0" y="410.0" text-anchor="middle" font-size="10" fill="#888">-2</text>
  <text x="100.0" y="410.0" text-anchor="middle" font-size="10" fill="#888">-1</text>
  <text x="200.0" y="410.0" text-anchor="middle" font-size="10" fill="#888">1</text>
  <text x="250.0" y="410.0" text-anchor="middle" font-size="10" fill="#888">2</text>
  <text x="300.0" y="410.0" text-anchor="middle" font-size="10" fill="#888">3</text>
  <text x="350.0" y="410.0" text-anchor="middle" font-size="10" fill="#888">4</text>
  <text x="400.0" y="410.0" text-anchor="middle" font-size="10" fill="#888">5</text>
  <text x="144.0" y="404.0" text-anchor="end" font-size="10" fill="#888">1</text>
  <text x="144.0" y="304.0" text-anchor="end" font-size="10" fill="#888">2</text>
  <text x="144.0" y="204.0" text-anchor="end" font-size="10" fill="#888">3</text>
  <text x="144.0" y="104.0" text-anchor="end" font-size="10" fill="#888">4</text>
  <text x="144.0" y="4.0" text-anchor="end" font-size="10" fill="#888">5</text>
  <polyline points="150.0,326.8 151.0,312.7 152.0,306.8 153.0,302.3 154.0,298.5 155.0,295.2 156.0,292.2 157.0,289.4 158.0,286.8 159.0,284.4 160.0,282.1 161.0,279.9 162.0,277.8 163.0,275.8 164.0,273.9 165.0,272.0 166.0,270.2 167.0,268.5 168.0,266.8 169.0,265.2 170.0,263.5 171.0,262.0 172.0,260.5 173.0,259.0 174.0,257.5 175.0,256.1 176.0,254.7 177.0,253.3 178.0,252.0 179.0,250.6 180.0,249.3 181.0,248.1 182.0,246.8 183.0,245.6 184.0,244.3 185.0,243.1 186.0,241.9 187.0,240.8 188.0,239.6 189.0,238.5 190.0,237.4 191.0,236.2 192.0,235.1 193.0,234.1 194.0,233.0 195.0,231.9 196.0,230.9 197.0,229.8 198.0,228.8 199.0,227.8 200.0,226.8 201.0,225.8 202.0,224.8 203.0,223.8 204.0,222.9 205.0,221.9 206.0,221.0 207.0,220.0 208.0,219.1 209.0,218.2 210.0,217.3 211.0,216.3 212.0,215.4 213.0,214.5 214.0,213.7 215.0,212.8 216.0,211.9 217.0,211.0 218.0,210.2 219.0,209.3 220.0,208.5 221.0,207.6 222.0,206.8 223.0,206.0 224.0,205.1 225.0,204.3 226.0,203.5 227.0,202.7 228.0,201.9 229.0,201.1 230.0,200.3 231.0,199.5 232.0,198.7 233.0,198.0 234.0,197.2 235.0,196.4 236.0,195.6 237.0,194.9 238.0,194.1 239.0,193.4 240.0,192.6 241.0,191.9 242.0,191.1 243.0,190.4 244.0,189.7 245.0,189.0 246.0,188.2 247.0,187.5 248.0,186.8 249.0,186.1 250.0,185.4 251.0,184.7 252.0,184.0 253.0,183.3 254.0,182.6 255.0,181.9 256.0,181.2 257.0,180.5 258.0,179.8 259.0,179.1 260.0,178.5 261.0,177.8 262.0,177.1 263.0,176.5 264.0,175.8 265.0,175.1 266.0,174.5 267.0,173.8 268.0,173.2 269.0,172.5 270.0,171.9 271.0,171.2 272.0,170.6 273.0,170.0 274.0,169.3 275.0,168.7 276.0,168.0 277.0,167.4 278.0,166.8 279.0,166.2 280.0,165.5 281.0,164.9 282.0,164.3 283.0,163.7 284.0,163.1 285.0,162.5 286.0,161.9 287.0,161.3 288.0,160.7 289.0,160.1 290.0,159.5 291.0,158.9 292.0,158.3 293.0,157.7 294.0,157.1 295.0,156.5 296.0,155.9 297.0,155.3 298.0,154.7 299.0,154.2 300.0,153.6 301.0,153.0 302.0,152.4 303.0,151.9 304.0,151.3 305.0,150.7 306.0,150.2 307.0,149.6 308.0,149.0 309.0,148.5 310.0,147.9 311.0,147.4 312.0,146.8 313.0,146.2 314.0,145.7 315.0,145.1 316.0,144.6 317.0,144.0 318.0,143.5 319.0,142.9 320.0,142.4 321.0,141.9 322.0,141.3 323.0,140.8 324.0,140.2 325.0,139.7 326.0,139.2 327.0,138.6 328.0,138.1 329.0,137.6 330.0,137.1 331.0,136.5 332.0,136.0 333.0,135.5 334.0,135.0 335.0,134.4 336.0,133.9 337.0,133.4 338.0,132.9 339.0,132.4 340.0,131.9 341.0,131.3 342.0,130.8 343.0,130.3 344.0,129.8 345.0,129.3 346.0,128.8 347.0,128.3 348.0,127.8 349.0,127.3 350.0,126.8" fill="none" stroke="#2980b9" stroke-width="2.5"/>
  <circle cx="200.0" cy="300.0" r="4.5" fill="#e74c3c" stroke="white" stroke-width="1.5"/>
  <text x="208.0" y="292.0" font-size="11" fill="#333">x=1</text>
  <circle cx="290.0" cy="159.5" r="4.5" fill="#e74c3c" stroke="white" stroke-width="1.5"/>
  <text x="305.0" y="109.5" font-size="12" fill="#2c3e50" font-style="italic">y = x**0.5 + 3**0.5</text>
</svg>