<svg xmlns="http://www.w3.org/2000/svg" width="400" height="400" viewBox="0 0 400 400" style="background:white;font-family:sans-serif">
  <defs>
    <marker id="ah" markerWidth="8" markerHeight="6" refX="8" refY="3" orient="auto">
      <path d="M0,0 L8,3 L0,6" fill="#555"/></marker>
  </defs>
  <line x1="0.0" y1="0" x2="0.0" y2="400" stroke="#eee" stroke-width="0.5"/>
  <line x1="33.3" y1="0" x2="33.3" y2="400" stroke="#eee" stroke-width="0.5"/>
  <line x1="66.7" y1="0" x2="66.7" y2="400" stroke="#eee" stroke-width="0.5"/>
  <line x1="100.0" y1="0" x2="100.0" y2="400" stroke="#eee" stroke-width="0.5"/>
  <line x1="133.3" y1="0" x2="133.3" y2="400" stroke="#eee" stroke-width="0.5"/>
  <line x1="166.7" y1="0" x2="166.7" y2="400" stroke="#eee" stroke-width="0.5"/>
  <line x1="200.0" y1="0" x2="200.0" y2="400" stroke="#eee" stroke-width="0.5"/>
  <line x1="233.3" y1="0" x2="233.3" y2="400" stroke="#eee" stroke-width="0.5"/>
  <line x1="266.7" y1="0" x2="266.7" y2="400" stroke="#eee" stroke-width="0.5"/>
  <line x1="300.0" y1="0" x2="300.0" y2="400" stroke="#eee" stroke-width="0.5"/>
  <line x1="333.3" y1="0" x2="333.3" y2="400" stroke="#eee" stroke-width="0.5"/>
  <line x1="366.7" y1="0" x2="366.7" y2="400" stroke="#eee" stroke-width="0.5"/>
  <line x1="400.0" y1="0" x2="400.0" y2="400" stroke="#eee" stroke-width="0.5"/>
  <line x1="0" y1="400.0" x2="400" y2="400.0" stroke="#eee" stroke-width="0.5"/>
  <line x1="0" y1="387.9" x2="400" y2="387.9" stroke="#eee" stroke-width="0.5"/>
  <line x1="0" y1="375.8" x2="400" y2="375.8" stroke="#eee" stroke-width="0.5"/>
  <line x1="0" y1="363.6" x2="400" y2="363.6" stroke="#eee" stroke-width="0.5"/>
  <line x1="0" y1="351.5" x2="400" y2="351.5" stroke="#eee" stroke-width="0.5"/>
  <line x1="0" y1="339.4" x2="400" y2="339.4" stroke="#eee" stroke-width="0.5"/>
  <line x1="0" y1="327.3" x2="400" y2="327.3" stroke="#eee" stroke-width="0.5"/>
  <line x1="0" y1="315.2" x2="400" y2="315.2" stroke="#eee" stroke-width="0.5"/>
  <line x1="0" y1="303.0" x2="400" y2="303.0" stroke="#eee" stroke-width="0.5"/>
  <line x1="0" y1="290.9" x2="400" y2="290.9" stroke="#eee" stroke-width="0.5"/>
  <line x1="0" y1="278.8" x2="400" y2="278.8" stroke="#eee" stroke-width="0.5"/>
  <line x1="0" y1="266.7" x2="400" y2="266.7" stroke="#eee" stroke-width="0.5"/>
  <line x1="0" y1="254.5" x2="400" y2="254.5" stroke="#eee" stroke-width="0.5"/>
  <line x1="0" y1="242.4" x2="400" y2="242.4" stroke="#eee" stroke-width="0.5"/>
  <line x1="0" y1="230.3" x2="400" y2="230.3" stroke="#eee" stroke-width="0.5"/>
  <line x1="0" y1="218.2" x2="400" y2="218.2" stroke="#eee" stroke-width="0.5"/>
  <line x1="0" y1="206.1" x2="400" y2="206.1" stroke="#eee" stroke-width="0.5"/>
  <line x1="0" y1="193.9" x2="400" y2="193.9" stroke="#eee" stroke-width="0.5"/>
  <line x1="0" y1="181.8" x2="400" y2="181.8" stroke="#eee" stroke-width="0.5"/>
  <line x1="0" y1="169.7" x2="400" y2="169.7" stroke="#eee" stroke-width="0.5"/>
  <line x1="0" y1="157.6" x2="400" y2="157.6" stroke="#eee" stroke-width="0.5"/>
  <line x1="0" y1="145.5" x2="400" y2="145.5" stroke="#eee" stroke-width="0.5"/>
  <line x1="0" y1="133.3" x2="400" y2="133.3" stroke="#eee" stroke-width="0.5"/>
  <line x1="0" y1="121.2" x2="400" y2="121.2" stroke="#eee" stroke-width="0.5"/>
  <line x1="0" y1="109.1" x2="400" y2="109.1" stroke="#eee" stroke-width="0.5"/>
  <line x1="0" y1="97.0" x2="400" y2="97.0" stroke="#eee" stroke-width="0.5"/>
  <line x1="0" y1="84.8" x2="400" y2="84.8" stroke="#eee" stroke-width="0.5"/>
  <line x1="0" y1="72.7" x2="400" y2="72.7" stroke="#eee" stroke-width="0.5"/>
  <line x1="0" y1="60.6" x2="400" y2="60.6" stroke="#eee" stroke-width="0.5"/>
  <line x1="0" y1="48.5" x2="400" y2="48.5" stroke="#eee" stroke-width="0.5"/>
  <line x1="0" y1="36.4" x2="400" y2="36.4" stroke="#eee" stroke-width="0.5"/>
  <line x1="0" y1="24.2" x2="400" y2="24.2" stroke="#eee" stroke-width="0.5"/>
  <line x1="0" y1="12.1" x2="400" y2="12.1" stroke="#eee" stroke-width="0.5"/>
  <line x1="0" y1="0.0" x2="400" y2="0.0" stroke="#eee" stroke-width="0.5"/>
  <line x1="0" y1="351.5" x2="400" y2="351.5" stroke="#555" stroke-width="1" marker-end="url(#ah)"/>
  <line x1="200.0" y1="400" x2="200.0" y2="0" stroke="#555" stroke-width="1" marker-end="url(#ah)"/>
  <text x="0.0" y="365.5" text-anchor="middle" font-size="10" fill="#888">-6</text>
  <text x="33.3" y="365.5" text-anchor="middle" font-size="10" fill="#888">-5</text>
  <text x="66.7" y="365.5" text-anchor="middle" font-size="10" fill="#888">-4</text>
  <text x="100.0" y="365.5" text-anchor="middle" font-size="10" fill="#888">-3</text>
  <text x="133.3" y="365.5" text-anchor="middle" font-size="10" fill="#888">-2</text>
  <text x="166.7" y="365.5" text-anchor="middle" font-size="10" fill="#888">-1</text>
  <text x="233.3" y="365.5" text-anchor="middle" font-size="10" fill="#888">1</text>
  <text x="266.7" y="365.5" text-anchor="middle" font-size="10" fill="#888">2</text>
  <text x="300.0" y="365.5" text-anchor="middle" font-size="10" fill="#888">3</text>
  <text x="333.3" y="365.5" text-anchor="middle" font-size="10" fill="#888">4</text>
  <text x="366.7" y="365.5" text-anchor="middle" font-size="10" fill="#888">5</text>
  <text x="400.0" y="365.5" text-anchor="middle" font-size="10" fill="#888">6</text>
  <text x="194.0" y="404.0" text-anchor="end" font-size="10" fill="#888">-4</text>
  <text x="194.0" y="391.9" text-anchor="end" font-size="10" fill="#888">-3</text>
  <text x="194.0" y="379.8" text-anchor="end" font-size="10" fill="#888">-2</text>
  <text x="194.0" y="367.6" text-anchor="end" font-size="10" fill="#888">-1</text>
  <text x="194.0" y="343.4" text-anchor="end" font-size="10" fill="#888">1</text>
  <text x="194.0" y="331.3" text-anchor="end" font-size="10" fill="#888">2</text>
  <text x="194.0" y="319.2" text-anchor="end" font-size="10" fill="#888">3</text>
  <text x="194.0" y="307.0" text-anchor="end" font-size="10" fill="#888">4</text>
  <text x="194.0" y="294.9" text-anchor="end" font-size="10" fill="#888">5</text>
  <text x="194.0" y="282.8" text-anchor="end" font-size="10" fill="#888">6</text>
  <text x="194.0" y="270.7" text-anchor="end" font-size="10" fill="#888">7</text>
  <text x="194.0" y="258.5" text-anchor="end" font-size="10" fill="#888">8</text>
  <text x="194.0" y="246.4" text-anchor="end" font-size="10" fill="#888">9</text>
  <text x="194.0" y="234.3" text-anchor="end" font-size="10" fill="#888">10</text>
  <text x="194.0" y="222.2" text-anchor="end" font-size="10" fill="#888">11</text>
  <text x="194.0" y="210.1" text-anchor="end" font-size="10" fill="#888">12</text>
  <text x="194.0" y="197.9" text-anchor="end" font-size="10" fill="#888">13</text>
  <text x="194.0" y="185.8" text-anchor="end" font-size="10" fill="#888">14</text>
  <text x="194.0" y="173.7" text-anchor="end" font-size="10" fill="#888">15</text>
  <text x="194.0" y="161.6" text-anchor="end" font-size="10" fill="#888">16</text>
  <text x="194.0" y="149.5" text-anchor="end" font-size="10" fill="#888">17</text>
  <text x="194.0" y="137.3" text-anchor="end" font-size="10" fill="#888">18</text>
  <text x="194.0" y="125.2" text-anchor="end" font-size="10" fill="#888">19</text>
  <text x="194.0" y="113.1" text-anchor="end" font-size="10" fill="#888">20</text>
  <text x="194.0" y="101.0" text-anchor="end" font-size="10" fill="#888">21</text>
  <text x="194.0" y="88.8" text-anchor="end" font-size="10" fill="#888">22</text>
  <text x="194.0" y="76.7" text-anchor="end" font-size="10" fill="#888">23</text>
  <text x="194.0" y="64.6" text-anchor="end" font-size="10" fill="#888">24</text>
  <text x="194.0" y="52.5" text-anchor="end" font-size="10" fill="#888">25</text>
  <text x="194.0" y="40.4" text-anchor="end" font-size="10" fill="#888">26</text>
  <text x="194.0" y="28.2" text-anchor="end" font-size="10" fill="#888">27</text>
  <text x="194.0" y="16.1" text-anchor="end" font-size="10" fill="#888">28</text>
  <text x="194.0" y="4.0" text-anchor="end" font-size="10" fill="#888">29</text>
  <text x="192.0" y="365.5" font-size="10" fill="#888">0</text>
  <polyline points="33.3,48.5 34.4,52.5 35.6,56.5 36.7,60.5 37.8,64.4 38.9,68.4 40.0,72.2 41.1,76.1 42.2,79.9 43.3,83.8 44.4,87.5 45.6,91.3 46.7,95.0 47.8,98.7 48.9,102.4 50.0,106.1 51.1,109.7 52.2,113.3 53.3,116.8 54.4,120.4 55.6,123.9 56.7,127.4 57.8,130.9 58.9,134.3 60.0,137.7 61.1,141.1 62.2,144.4 63.3,147.8 64.4,151.1 65.6,154.3 66.7,157.6 67.8,160.8 68.9,164.0 70.0,167.2 71.1,170.3 72.2,173.4 73.3,176.5 74.4,179.5 75.6,182.6 76.7,185.6 77.8,188.6 78.9,191.5 80.0,194.4 81.1,197.3 82.2,200.2 83.3,203.0 84.4,205.8 85.6,208.6 86.7,211.4 87.8,214.1 88.9,216.8 90.0,219.5 91.1,222.2 92.2,224.8 93.3,227.4 94.4,230.0 95.6,232.5 96.7,235.0 97.8,237.5 98.9,240.0 100.0,242.4 101.1,244.8 102.2,247.2 103.3,249.6 104.4,251.9 105.6,254.2 106.7,256.5 107.8,258.7 108.9,261.0 110.0,263.2 111.1,265.3 112.2,267.5 113.3,269.6 114.4,271.7 115.6,273.7 116.7,275.8 117.8,277.8 118.9,279.7 120.0,281.7 121.1,283.6 122.2,285.5 123.3,287.4 124.4,289.2 125.6,291.1 126.7,292.8 127.8,294.6 128.9,296.4 130.0,298.1 131.1,299.7 132.2,301.4 133.3,303.0 134.4,304.6 135.6,306.2 136.7,307.8 137.8,309.3 138.9,310.8 140.0,312.2 141.1,313.7 142.2,315.1 143.3,316.5 144.4,317.8 145.6,319.2 146.7,320.5 147.8,321.8 148.9,323.0 150.0,324.2 151.1,325.4 152.2,326.6 153.3,327.8 154.4,328.9 155.6,330.0 156.7,331.0 157.8,332.1 158.9,333.1 160.0,334.1 161.1,335.0 162.2,335.9 163.3,336.8 164.4,337.7 165.6,338.6 166.7,339.4 167.8,340.2 168.9,341.0 170.0,341.7 171.1,342.4 172.2,343.1 173.3,343.8 174.4,344.4 175.6,345.0 176.7,345.6 177.8,346.1 178.9,346.7 180.0,347.2 181.1,347.6 182.2,348.1 183.3,348.5 184.4,348.9 185.6,349.2 186.7,349.6 187.8,349.9 188.9,350.2 190.0,350.4 191.1,350.7 192.2,350.9 193.3,351.0 194.4,351.2 195.6,351.3 196.7,351.4 197.8,351.5 198.9,351.5 200.0,351.5 201.1,351.5 202.2,351.5 203.3,351.4 204.4,351.3 205.6,351.2 206.7,351.0 207.8,350.9 208.9,350.7 210.0,350.4 211.1,350.2 212.2,349.9 213.3,349.6 214.4,349.2 215.6,348.9 216.7,348.5 217.8,348.1 218.9,347.6 220.0,347.2 221.1,346.7 222.2,346.1 223.3,345.6 224.4,345.0 225.6,344.4 226.7,343.8 227.8,343.1 228.9,342.4 230.0,341.7 231.1,341.0 232.2,340.2 233.3,339.4 234.4,338.6 235.6,337.7 236.7,336.8 237.8,335.9 238.9,335.0 240.0,334.1 241.1,333.1 242.2,332.1 243.3,331.0 244.4,330.0 245.6,328.9 246.7,327.8 247.8,326.6 248.9,325.4 250.0,324.2 251.1,323.0 252.2,321.8 253.3,320.5 254.4,319.2 255.6,317.8 256.7,316.5 257.8,315.1 258.9,313.7 260.0,312.2 261.1,310.8 262.2,309.3 263.3,307.8 264.4,306.2 265.6,304.6 266.7,303.0 267.8,301.4 268.9,299.7 270.0,298.1 271.1,296.4 272.2,294.6 273.3,292.8 274.4,291.1 275.6,289.2 276.7,287.4 277.8,285.5 278.9,283.6 280.0,281.7 281.1,279.7 282.2,277.8 283.3,275.8 284.4,273.7 285.6,271.7 286.7,269.6 287.8,267.5 288.9,265.3 290.0,263.2 291.1,261.0 292.2,258.7 293.3,256.5 294.4,254.2 295.6,251.9 296.7,249.6 297.8,247.2 298.9,244.8 300.0,242.4 301.1,240.0 302.2,237.5 303.3,235.0 304.4,232.5 305.6,230.0 306.7,227.4 307.8,224.8 308.9,222.2 310.0,219.5 311.1,216.8 312.2,214.1 313.3,211.4 314.4,208.6 315.6,205.8 316.7,203.0 317.8,200.2 318.9,197.3 320.0,194.4 321.1,191.5 322.2,188.6 323.3,185.6 324.4,182.6 325.6,179.5 326.7,176.5 327.8,173.4 328.9,170.3 330.0,167.2 331.1,164.0 332.2,160.8 333.3,157.6 334.4,154.3 335.6,151.1 336.7,147.8 337.8,144.4 338.9,141.1 340.0,137.7 341.1,134.3 342.2,130.9 343.3,127.4 344.4,123.9 345.6,120.4 346.7,116.8 347.8,113.3 348.9,109.7 350.0,106.1 351.1,102.4 352.2,98.7 353.3,95.0 354.4,91.3 355.6,87.5 356.7,83.8 357.8,79.9 358.9,76.1 360.0,72.2 361.1,68.4 362.2,64.4 363.3,60.5 364.4,56.5 365.6,52.5 366.7,48.5" fill="none" stroke="#2980b9" stroke-width="2.5"/>
</svg>