<svg xmlns="http://www.w3.org/2000/svg" width="500" height="400" viewBox="0 0 500 400" style="background:white;font-family:sans-serif">
  <defs>
    <marker id="ah" markerWidth="8" markerHeight="6" refX="8" refY="3" orient="auto">
      <path d="M0,0 L8,3 L0,6" fill="#555"/></marker>
  </defs>
  <line x1="22.7" y1="0" x2="22.7" y2="400" stroke="#eee" stroke-width="0.5"/>
  <line x1="68.2" y1="0" x2="68.2" y2="400" stroke="#eee" stroke-width="0.5"/>
  <line x1="113.6" y1="0" x2="113.6" y2="400" stroke="#eee" stroke-width="0.5"/>
  <line x1="159.1" y1="0" x2="159.1" y2="400" stroke="#eee" stroke-width="0.5"/>
  <line x1="204.5" y1="0" x2="204.5" y2="400" stroke="#eee" stroke-width="0.5"/>
  <line x1="250.0" y1="0" x2="250.0" y2="400" stroke="#eee" stroke-width="0.5"/>
  <line x1="295.5" y1="0" x2="295.5" y2="400" stroke="#eee" stroke-width="0.5"/>
  <line x1="340.9" y1="0" x2="340.9" y2="400" stroke="#eee" stroke-width="0.5"/>
  <line x1="386.4" y1="0" x2="386.4" y2="400" stroke="#eee" stroke-width="0.5"/>
  <line x1="431.8" y1="0" x2="431.8" y2="400" stroke="#eee" stroke-width="0.5"/>
  <line x1="477.3" y1="0" x2="477.3" y2="400" stroke="#eee" stroke-width="0.5"/>
  <line x1="0" y1="400.0" x2="500" y2="400.0" stroke="#eee" stroke-width="0.5"/>
  <line x1="0" y1="393.9" x2="500" y2="393.9" stroke="#eee" stroke-width="0.5"/>
  <line x1="0" y1="387.9" x2="500" y2="387.9" stroke="#eee" stroke-width="0.5"/>
  <line x1="0" y1="381.8" x2="500" y2="381.8" stroke="#eee" stroke-width="0.5"/>
  <line x1="0" y1="375.8" x2="500" y2="375.8" stroke="#eee" stroke-width="0.5"/>
  <line x1="0" y1="369.7" x2="500" y2="369.7" stroke="#eee" stroke-width="0.5"/>
  <line x1="0" y1="363.6" x2="500" y2="363.6" stroke="#eee" stroke-width="0.5"/>
  <line x1="0" y1="357.6" x2="500" y2="357.6" stroke="#eee" stroke-width="0.5"/>
  <line x1="0" y1="351.5" x2="500" y2="351.5" stroke="#eee" stroke-width="0.5"/>
  <line x1="0" y1="345.5" x2="500" y2="345.5" stroke="#eee" stroke-width="0.5"/>
  <line x1="0" y1="339.4" x2="500" y2="339.4" stroke="#eee" stroke-width="0.5"/>
  <line x1="0" y1="333.3" x2="500" y2="333.3" stroke="#eee" stroke-width="0.5"/>
  <line x1="0" y1="327.3" x2="500" y2="327.3" stroke="#eee" stroke-width="0.5"/>
  <line x1="0" y1="321.2" x2="500" y2="321.2" stroke="#eee" stroke-width="0.5"/>
  <line x1="0" y1="315.2" x2="500" y2="315.2" stroke="#eee" stroke-width="0.5"/>
  <line x1="0" y1="309.1" x2="500" y2="309.1" stroke="#eee" stroke-width="0.5"/>
  <line x1="0" y1="303.0" x2="500" y2="303.0" stroke="#eee" stroke-width="0.5"/>
  <line x1="0" y1="297.0" x2="500" y2="297.0" stroke="#eee" stroke-width="0.5"/>
  <line x1="0" y1="290.9" x2="500" y2="290.9" stroke="#eee" stroke-width="0.5"/>
  <line x1="0" y1="284.8" x2="500" y2="284.8" stroke="#eee" stroke-width="0.5"/>
  <line x1="0" y1="278.8" x2="500" y2="278.8" stroke="#eee" stroke-width="0.5"/>
  <line x1="0" y1="272.7" x2="500" y2="272.7" stroke="#eee" stroke-width="0.5"/>
  <line x1="0" y1="266.7" x2="500" y2="266.7" stroke="#eee" stroke-width="0.5"/>
  <line x1="0" y1="260.6" x2="500" y2="260.6" stroke="#eee" stroke-width="0.5"/>
  <line x1="0" y1="254.5" x2="500" y2="254.5" stroke="#eee" stroke-width="0.5"/>
  <line x1="0" y1="248.5" x2="500" y2="248.5" stroke="#eee" stroke-width="0.5"/>
  <line x1="0" y1="242.4" x2="500" y2="242.4" stroke="#eee" stroke-width="0.5"/>
  <line x1="0" y1="236.4" x2="500" y2="236.4" stroke="#eee" stroke-width="0.5"/>
  <line x1="0" y1="230.3" x2="500" y2="230.3" stroke="#eee" stroke-width="0.5"/>
  <line x1="0" y1="224.2" x2="500" y2="224.2" stroke="#eee" stroke-width="0.5"/>
  <line x1="0" y1="218.2" x2="500" y2="218.2" stroke="#eee" stroke-width="0.5"/>
  <line x1="0" y1="212.1" x2="500" y2="212.1" stroke="#eee" stroke-width="0.5"/>
  <line x1="0" y1="206.1" x2="500" y2="206.1" stroke="#eee" stroke-width="0.5"/>
  <line x1="0" y1="200.0" x2="500" y2="200.0" stroke="#eee" stroke-width="0.5"/>
  <line x1="0" y1="193.9" x2="500" y2="193.9" stroke="#eee" stroke-width="0.5"/>
  <line x1="0" y1="187.9" x2="500" y2="187.9" stroke="#eee" stroke-width="0.5"/>
  <line x1="0" y1="181.8" x2="500" y2="181.8" stroke="#eee" stroke-width="0.5"/>
  <line x1="0" y1="175.8" x2="500" y2="175.8" stroke="#eee" stroke-width="0.5"/>
  <line x1="0" y1="169.7" x2="500" y2="169.7" stroke="#eee" stroke-width="0.5"/>
  <line x1="0" y1="163.6" x2="500" y2="163.6" stroke="#eee" stroke-width="0.5"/>
  <line x1="0" y1="157.6" x2="500" y2="157.6" stroke="#eee" stroke-width="0.5"/>
  <line x1="0" y1="151.5" x2="500" y2="151.5" stroke="#eee" stroke-width="0.5"/>
  <line x1="0" y1="145.5" x2="500" y2="145.5" stroke="#eee" stroke-width="0.5"/>
  <line x1="0" y1="139.4" x2="500" y2="139.4" stroke="#eee" stroke-width="0.5"/>
  <line x1="0" y1="133.3" x2="500" y2="133.3" stroke="#eee" stroke-width="0.5"/>
  <line x1="0" y1="127.3" x2="500" y2="127.3" stroke="#eee" stroke-width="0.5"/>
  <line x1="0" y1="121.2" x2="500" y2="121.2" stroke="#eee" stroke-width="0.5"/>
  <line x1="0" y1="115.2" x2="500" y2="115.2" stroke="#eee" stroke-width="0.5"/>
  <line x1="0" y1="109.1" x2="500" y2="109.1" stroke="#eee" stroke-width="0.5"/>
  <line x1="0" y1="103.0" x2="500" y2="103.0" stroke="#eee" stroke-width="0.5"/>
  <line x1="0" y1="97.0" x2="500" y2="97.0" stroke="#eee" stroke-width="0.5"/>
  <line x1="0" y1="90.9" x2="500" y2="90.9" stroke="#eee" stroke-width="0.5"/>
  <line x1="0" y1="84.8" x2="500" y2="84.8" stroke="#eee" stroke-width="0.5"/>
  <line x1="0" y1="78.8" x2="500" y2="78.8" stroke="#eee" stroke-width="0.5"/>
  <line x1="0" y1="72.7" x2="500" y2="72.7" stroke="#eee" stroke-width="0.5"/>
  <line x1="0" y1="66.7" x2="500" y2="66.7" stroke="#eee" stroke-width="0.5"/>
  <line x1="0" y1="60.6" x2="500" y2="60.6" stroke="#eee" stroke-width="0.5"/>
  <line x1="0" y1="54.5" x2="500" y2="54.5" stroke="#eee" stroke-width="0.5"/>
  <line x1="0" y1="48.5" x2="500" y2="48.5" stroke="#eee" stroke-width="0.5"/>
  <line x1="0" y1="42.4" x2="500" y2="42.4" stroke="#eee" stroke-width="0.5"/>
  <line x1="0" y1="36.4" x2="500" y2="36.4" stroke="#eee" stroke-width="0.5"/>
  <line x1="0" y1="30.3" x2="500" y2="30.3" stroke="#eee" stroke-width="0.5"/>
  <line x1="0" y1="24.2" x2="500" y2="24.2" stroke="#eee" stroke-width="0.5"/>
  <line x1="0" y1="18.2" x2="500" y2="18.2" stroke="#eee" stroke-width="0.5"/>
  <line x1="0" y1="12.1" x2="500" y2="12.1" stroke="#eee" stroke-width="0.5"/>
  <line x1="0" y1="6.1" x2="500" y2="6.1" stroke="#eee" stroke-width="0.5"/>
  <line x1="0" y1="0.0" x2="500" y2="0.0" stroke="#eee" stroke-width="0.5"/>
  <line x1="0" y1="393.9" x2="500" y2="393.9" stroke="#555" stroke-width="1" marker-end="url(#ah)"/>
  <line x1="250.0" y1="400" x2="250.0" y2="0" stroke="#555" stroke-width="1" marker-end="url(#ah)"/>
  <text x="22.7" y="407.9" text-anchor="middle" font-size="10" fill="#888">-5</text>
  <text x="68.2" y="407.9" text-anchor="middle" font-size="10" fill="#888">-4</text>
  <text x="113.6" y="407.9" text-anchor="middle" font-size="10" fill="#888">-3</text>
  <text x="159.1" y="407.9" text-anchor="middle" font-size="10" fill="#888">-2</text>
  <text x="204.5" y="407.9" text-anchor="middle" font-size="10" fill="#888">-1</text>
  <text x="295.5" y="407.9" text-anchor="middle" font-size="10" fill="#888">1</text>
  <text x="340.9" y="407.9" text-anchor="middle" font-size="10" fill="#888">2</text>
  <text x="386.4" y="407.9" text-anchor="middle" font-size="10" fill="#888">3</text>
  <text x="431.8" y="407.9" text-anchor="middle" font-size="10" fill="#888">4</text>
  <text x="477.3" y="407.9" text-anchor="middle" font-size="10" fill="#888">5</text>
  <text x="244.0" y="404.0" text-anchor="end" font-size="10" fill="#888">-1</text>
  <text x="244.0" y="391.9" text-anchor="end" font-size="10" fill="#888">1</text>
  <text x="244.0" y="385.8" text-anchor="end" font-size="10" fill="#888">2</text>
  <text x="244.0" y="379.8" text-anchor="end" font-size="10" fill="#888">3</text>
  <text x="244.0" y="373.7" text-anchor="end" font-size="10" fill="#888">4</text>
  <text x="244.0" y="367.6" text-anchor="end" font-size="10" fill="#888">5</text>
  <text x="244.0" y="361.6" text-anchor="end" font-size="10" fill="#888">6</text>
  <text x="244.0" y="355.5" text-anchor="end" font-size="10" fill="#888">7</text>
  <text x="244.0" y="349.5" text-anchor="end" font-size="10" fill="#888">8</text>
  <text x="244.0" y="343.4" text-anchor="end" font-size="10" fill="#888">9</text>
  <text x="244.0" y="337.3" text-anchor="end" font-size="10" fill="#888">10</text>
  <text x="244.0" y="331.3" text-anchor="end" font-size="10" fill="#888">11</text>
  <text x="244.0" y="325.2" text-anchor="end" font-size="10" fill="#888">12</text>
  <text x="244.0" y="319.2" text-anchor="end" font-size="10" fill="#888">13</text>
  <text x="244.0" y="313.1" text-anchor="end" font-size="10" fill="#888">14</text>
  <text x="244.0" y="307.0" text-anchor="end" font-size="10" fill="#888">15</text>
  <text x="244.0" y="301.0" text-anchor="end" font-size="10" fill="#888">16</text>
  <text x="244.0" y="294.9" text-anchor="end" font-size="10" fill="#888">17</text>
  <text x="244.0" y="288.8" text-anchor="end" font-size="10" fill="#888">18</text>
  <text x="244.0" y="282.8" text-anchor="end" font-size="10" fill="#888">19</text>
  <text x="244.0" y="276.7" text-anchor="end" font-size="10" fill="#888">20</text>
  <text x="244.0" y="270.7" text-anchor="end" font-size="10" fill="#888">21</text>
  <text x="244.0" y="264.6" text-anchor="end" font-size="10" fill="#888">22</text>
  <text x="244.0" y="258.5" text-anchor="end" font-size="10" fill="#888">23</text>
  <text x="244.0" y="252.5" text-anchor="end" font-size="10" fill="#888">24</text>
  <text x="244.0" y="246.4" text-anchor="end" font-size="10" fill="#888">25</text>
  <text x="244.0" y="240.4" text-anchor="end" font-size="10" fill="#888">26</text>
  <text x="244.0" y="234.3" text-anchor="end" font-size="10" fill="#888">27</text>
  <text x="244.0" y="228.2" text-anchor="end" font-size="10" fill="#888">28</text>
  <text x="244.0" y="222.2" text-anchor="end" font-size="10" fill="#888">29</text>
  <text x="244.0" y="216.1" text-anchor="end" font-size="10" fill="#888">30</text>
  <text x="244.0" y="210.1" text-anchor="end" font-size="10" fill="#888">31</text>
  <text x="244.0" y="204.0" text-anchor="end" font-size="10" fill="#888">32</text>
  <text x="244.0" y="197.9" text-anchor="end" font-size="10" fill="#888">33</text>
  <text x="244.0" y="191.9" text-anchor="end" font-size="10" fill="#888">34</text>
  <text x="244.0" y="185.8" text-anchor="end" font-size="10" fill="#888">35</text>
  <text x="244.0" y="179.8" text-anchor="end" font-size="10" fill="#888">36</text>
  <text x="244.0" y="173.7" text-anchor="end" font-size="10" fill="#888">37</text>
  <text x="244.0" y="167.6" text-anchor="end" font-size="10" fill="#888">38</text>
  <text x="244.0" y="161.6" text-anchor="end" font-size="10" fill="#888">39</text>
  <text x="244.0" y="155.5" text-anchor="end" font-size="10" fill="#888">40</text>
  <text x="244.0" y="149.5" text-anchor="end" font-size="10" fill="#888">41</text>
  <text x="244.0" y="143.4" text-anchor="end" font-size="10" fill="#888">42</text>
  <text x="244.0" y="137.3" text-anchor="end" font-size="10" fill="#888">43</text>
  <text x="244.0" y="131.3" text-anchor="end" font-size="10" fill="#888">44</text>
  <text x="244.0" y="125.2" text-anchor="end" font-size="10" fill="#888">45</text>
  <text x="244.0" y="119.2" text-anchor="end" font-size="10" fill="#888">46</text>
  <text x="244.0" y="113.1" text-anchor="end" font-size="10" fill="#888">47</text>
  <text x="244.0" y="107.0" text-anchor="end" font-size="10" fill="#888">48</text>
  <text x="244.0" y="101.0" text-anchor="end" font-size="10" fill="#888">49</text>
  <text x="244.0" y="94.9" text-anchor="end" font-size="10" fill="#888">50</text>
  <text x="244.0" y="88.8" text-anchor="end" font-size="10" fill="#888">51</text>
  <text x="244.0" y="82.8" text-anchor="end" font-size="10" fill="#888">52</text>
  <text x="244.0" y="76.7" text-anchor="end" font-size="10" fill="#888">53</text>
  <text x="244.0" y="70.7" text-anchor="end" font-size="10" fill="#888">54</text>
  <text x="244.0" y="64.6" text-anchor="end" font-size="10" fill="#888">55</text>
  <text x="244.0" y="58.5" text-anchor="end" font-size="10" fill="#888">56</text>
  <text x="244.0" y="52.5" text-anchor="end" font-size="10" fill="#888">57</text>
  <text x="244.0" y="46.4" text-anchor="end" font-size="10" fill="#888">58</text>
  <text x="244.0" y="40.4" text-anchor="end" font-size="10" fill="#888">59</text>
  <text x="244.0" y="34.3" text-anchor="end" font-size="10" fill="#888">60</text>
  <text x="244.0" y="28.2" text-anchor="end" font-size="10" fill="#888">61</text>
  <text x="244.0" y="22.2" text-anchor="end" font-size="10" fill="#888">62</text>
  <text x="244.0" y="16.1" text-anchor="end" font-size="10" fill="#888">63</text>
  <text x="244.0" y="10.1" text-anchor="end" font-size="10" fill="#888">64</text>
  <text x="244.0" y="4.0" text-anchor="end" font-size="10" fill="#888">65</text>
  <text x="242.0" y="407.9" font-size="10" fill="#888">0</text>
  <polyline points="22.7,393.6 24.2,393.6 25.8,393.5 27.3,393.5 28.8,393.5 30.3,393.5 31.8,393.5 33.3,393.5 34.8,393.5 36.4,393.5 37.9,393.5 39.4,393.5 40.9,393.4 42.4,393.4 43.9,393.4 45.5,393.4 47.0,393.4 48.5,393.4 50.0,393.4 51.5,393.4 53.0,393.3 54.5,393.3 56.1,393.3 57.6,393.3 59.1,393.3 60.6,393.3 62.1,393.2 63.6,393.2 65.2,393.2 66.7,393.2 68.2,393.2 69.7,393.2 71.2,393.1 72.7,393.1 74.2,393.1 75.8,393.1 77.3,393.1 78.8,393.0 80.3,393.0 81.8,393.0 83.3,393.0 84.8,393.0 86.4,392.9 87.9,392.9 89.4,392.9 90.9,392.9 92.4,392.8 93.9,392.8 95.5,392.8 97.0,392.8 98.5,392.7 100.0,392.7 101.5,392.7 103.0,392.7 104.5,392.6 106.1,392.6 107.6,392.6 109.1,392.5 110.6,392.5 112.1,392.5 113.6,392.4 115.2,392.4 116.7,392.4 118.2,392.3 119.7,392.3 121.2,392.2 122.7,392.2 124.2,392.2 125.8,392.1 127.3,392.1 128.8,392.0 130.3,392.0 131.8,391.9 133.3,391.9 134.8,391.8 136.4,391.8 137.9,391.7 139.4,391.7 140.9,391.6 142.4,391.6 143.9,391.5 145.5,391.5 147.0,391.4 148.5,391.4 150.0,391.3 151.5,391.2 153.0,391.2 154.5,391.1 156.1,391.0 157.6,391.0 159.1,390.9 160.6,390.8 162.1,390.8 163.6,390.7 165.2,390.6 166.7,390.5 168.2,390.5 169.7,390.4 171.2,390.3 172.7,390.2 174.2,390.1 175.8,390.0 177.3,389.9 178.8,389.8 180.3,389.8 181.8,389.7 183.3,389.6 184.8,389.5 186.4,389.3 187.9,389.2 189.4,389.1 190.9,389.0 192.4,388.9 193.9,388.8 195.5,388.7 197.0,388.5 198.5,388.4 200.0,388.3 201.5,388.2 203.0,388.0 204.5,387.9 206.1,387.7 207.6,387.6 209.1,387.4 210.6,387.3 212.1,387.1 213.6,387.0 215.2,386.8 216.7,386.6 218.2,386.5 219.7,386.3 221.2,386.1 222.7,385.9 224.2,385.8 225.8,385.6 227.3,385.4 228.8,385.2 230.3,385.0 231.8,384.8 233.3,384.5 234.8,384.3 236.4,384.1 237.9,383.9 239.4,383.6 240.9,383.4 242.4,383.1 243.9,382.9 245.5,382.6 247.0,382.4 248.5,382.1 250.0,381.8 251.5,381.5 253.0,381.2 254.5,380.9 256.1,380.6 257.6,380.3 259.1,380.0 260.6,379.7 262.1,379.4 263.6,379.0 265.2,378.7 266.7,378.3 268.2,377.9 269.7,377.6 271.2,377.2 272.7,376.8 274.2,376.4 275.8,376.0 277.3,375.6 278.8,375.1 280.3,374.7 281.8,374.2 283.3,373.8 284.8,373.3 286.4,372.8 287.9,372.3 289.4,371.8 290.9,371.3 292.4,370.8 293.9,370.3 295.5,369.7 297.0,369.1 298.5,368.6 300.0,368.0 301.5,367.3 303.0,366.7 304.5,366.1 306.1,365.4 307.6,364.8 309.1,364.1 310.6,363.4 312.1,362.7 313.6,362.0 315.2,361.2 316.7,360.4 318.2,359.7 319.7,358.9 321.2,358.0 322.7,357.2 324.2,356.3 325.8,355.5 327.3,354.6 328.8,353.6 330.3,352.7 331.8,351.7 333.3,350.7 334.8,349.7 336.4,348.7 337.9,347.6 339.4,346.6 340.9,345.5 342.4,344.3 343.9,343.2 345.5,342.0 347.0,340.8 348.5,339.5 350.0,338.2 351.5,336.9 353.0,335.6 354.5,334.2 356.1,332.9 357.6,331.4 359.1,330.0 360.6,328.5 362.1,326.9 363.6,325.4 365.2,323.8 366.7,322.1 368.2,320.5 369.7,318.7 371.2,317.0 372.7,315.2 374.2,313.3 375.8,311.5 377.3,309.5 378.8,307.5 380.3,305.5 381.8,303.5 383.3,301.3 384.8,299.2 386.4,297.0 387.9,294.7 389.4,292.4 390.9,290.0 392.4,287.6 393.9,285.1 395.5,282.6 397.0,279.9 398.5,277.3 400.0,274.6 401.5,271.8 403.0,268.9 404.5,266.0 406.1,263.0 407.6,259.9 409.1,256.8 410.6,253.6 412.1,250.3 413.6,247.0 415.2,243.5 416.7,240.0 418.2,236.4 419.7,232.7 421.2,229.0 422.7,225.1 424.2,221.2 425.8,217.1 427.3,213.0 428.8,208.8 430.3,204.4 431.8,200.0 433.3,195.5 434.8,190.8 436.4,186.1 437.9,181.2 439.4,176.2 440.9,171.2 442.4,166.0 443.9,160.6 445.5,155.2 447.0,149.6 448.5,143.9 450.0,138.0 451.5,132.1 453.0,125.9 454.5,119.7 456.1,113.3 457.6,106.7 459.1,100.0 460.6,93.1 462.1,86.1 463.6,78.9 465.2,71.5 466.7,64.0 468.2,56.3 469.7,48.4 471.2,40.3 472.7,32.0 474.2,23.6 475.8,14.9 477.3,6.1" fill="none" stroke="#2980b9" stroke-width="2.5"/>
  <text x="426.5" y="222.9" font-size="12" fill="#2980b9" font-style="italic">y = 2^(x+1)</text>
  <polyline points="22.7,345.5 24.2,345.5 25.8,345.5 27.3,345.5 28.8,345.5 30.3,345.5 31.8,345.5 33.3,345.5 34.8,345.5 36.4,345.5 37.9,345.5 39.4,345.5 40.9,345.5 42.4,345.5 43.9,345.5 45.5,345.5 47.0,345.5 48.5,345.5 50.0,345.5 51.5,345.5 53.0,345.5 54.5,345.5 56.1,345.5 57.6,345.5 59.1,345.5 60.6,345.5 62.1,345.5 63.6,345.5 65.2,345.5 66.7,345.5 68.2,345.5 69.7,345.5 71.2,345.5 72.7,345.5 74.2,345.5 75.8,345.5 77.3,345.5 78.8,345.5 80.3,345.5 81.8,345.5 83.3,345.5 84.8,345.5 86.4,345.5 87.9,345.5 89.4,345.5 90.9,345.5 92.4,345.5 93.9,345.5 95.5,345.5 97.0,345.5 98.5,345.5 100.0,345.5 101.5,345.5 103.0,345.5 104.5,345.5 106.1,345.5 107.6,345.5 109.1,345.5 110.6,345.5 112.1,345.5 113.6,345.5 115.2,345.5 116.7,345.5 118.2,345.5 119.7,345.5 121.2,345.5 122.7,345.5 124.2,345.5 125.8,345.5 127.3,345.5 128.8,345.5 130.3,345.5 131.8,345.5 133.3,345.5 134.8,345.5 136.4,345.5 137.9,345.5 139.4,345.5 140.9,345.5 142.4,345.5 143.9,345.5 145.5,345.5 147.0,345.5 148.5,345.5 150.0,345.5 151.5,345.5 153.0,345.5 154.5,345.5 156.1,345.5 157.6,345.5 159.1,345.5 160.6,345.5 162.1,345.5 163.6,345.5 165.2,345.5 166.7,345.5 168.2,345.5 169.7,345.5 171.2,345.5 172.7,345.5 174.2,345.5 175.8,345.5 177.3,345.5 178.8,345.5 180.3,345.5 181.8,345.5 183.3,345.5 184.8,345.5 186.4,345.5 187.9,345.5 189.4,345.5 190.9,345.5 192.4,345.5 193.9,345.5 195.5,345.5 197.0,345.5 198.5,345.5 200.0,345.5 201.5,345.5 203.0,345.5 204.5,345.5 206.1,345.5 207.6,345.5 209.1,345.5 210.6,345.5 212.1,345.5 213.6,345.5 215.2,345.5 216.7,345.5 218.2,345.5 219.7,345.5 221.2,345.5 222.7,345.5 224.2,345.5 225.8,345.5 227.3,345.5 228.8,345.5 230.3,345.5 231.8,345.5 233.3,345.5 234.8,345.5 236.4,345.5 237.9,345.5 239.4,345.5 240.9,345.5 242.4,345.5 243.9,345.5 245.5,345.5 247.0,345.5 248.5,345.5 250.0,345.5 251.5,345.5 253.0,345.5 254.5,345.5 256.1,345.5 257.6,345.5 259.1,345.5 260.6,345.5 262.1,345.5 263.6,345.5 265.2,345.5 266.7,345.5 268.2,345.5 269.7,345.5 271.2,345.5 272.7,345.5 274.2,345.5 275.8,345.5 277.3,345.5 278.8,345.5 280.3,345.5 281.8,345.5 283.3,345.5 284.8,345.5 286.4,345.5 287.9,345.5 289.4,345.5 290.9,345.5 292.4,345.5 293.9,345.5 295.5,345.5 297.0,345.5 298.5,345.5 300.0,345.5 301.5,345.5 303.0,345.5 304.5,345.5 306.1,345.5 307.6,345.5 309.1,345.5 310.6,345.5 312.1,345.5 313.6,345.5 315.2,345.5 316.7,345.5 318.2,345.5 319.7,345.5 321.2,345.5 322.7,345.5 324.2,345.5 325.8,345.5 327.3,345.5 328.8,345.5 330.3,345.5 331.8,345.5 333.3,345.5 334.8,345.5 336.4,345.5 337.9,345.5 339.4,345.5 340.9,345.5 342.4,345.5 343.9,345.5 345.5,345.5 347.0,345.5 348.5,345.5 350.0,345.5 351.5,345.5 353.0,345.5 354.5,345.5 356.1,345.5 357.6,345.5 359.1,345.5 360.6,345.5 362.1,345.5 363.6,345.5 365.2,345.5 366.7,345.5 368.2,345.5 369.7,345.5 371.2,345.5 372.7,345.5 374.2,345.5 375.8,345.5 377.3,345.5 378.8,345.5 380.3,345.5 381.8,345.5 383.3,345.5 384.8,345.5 386.4,345.5 387.9,345.5 389.4,345.5 390.9,345.5 392.4,345.5 393.9,345.5 395.5,345.5 397.0,345.5 398.5,345.5 400.0,345.5 401.5,345.5 403.0,345.5 404.5,345.5 406.1,345.5 407.6,345.5 409.1,345.5 410.6,345.5 412.1,345.5 413.6,345.5 415.2,345.5 416.7,345.5 418.2,345.5 419.7,345.5 421.2,345.5 422.7,345.5 424.2,345.5 425.8,345.5 427.3,345.5 428.8,345.5 430.3,345.5 431.8,345.5 433.3,345.5 434.8,345.5 436.4,345.5 437.9,345.5 439.4,345.5 440.9,345.5 442.4,345.5 443.9,345.5 445.5,345.5 447.0,345.5 448.5,345.5 450.0,345.5 451.5,345.5 453.0,345.5 454.5,345.5 456.1,345.5 457.6,345.5 459.1,345.5 460.6,345.5 462.1,345.5 463.6,345.5 465.2,345.5 466.7,345.5 468.2,345.5 469.7,345.5 471.2,345.5 472.7,345.5 474.2,345.5 475.8,345.5 477.3,345.5" fill="none" stroke="#e74c3c" stroke-width="2.5"/>
  <text x="426.5" y="337.5" font-size="12" fill="#e74c3c" font-style="italic">y = 2^3</text>
  <circle cx="340.9" cy="345.5" r="4.5" fill="#e74c3c" stroke="white" stroke-width="1.5"/>
  <text x="348.9" y="337.5" font-size="11" fill="#333">(2,8)</text>
</svg>