<svg xmlns="http://www.w3.org/2000/svg" width="400" height="400" viewBox="0 0 400 400" style="background:white;font-family:sans-serif">
  <defs>
    <marker id="ah" markerWidth="8" markerHeight="6" refX="8" refY="3" orient="auto">
      <path d="M0,0 L8,3 L0,6" fill="#555"/></marker>
  </defs>
  <line x1="14.8" y1="0" x2="14.8" y2="400" stroke="#eee" stroke-width="0.5"/>
  <line x1="44.4" y1="0" x2="44.4" y2="400" stroke="#eee" stroke-width="0.5"/>
  <line x1="74.1" y1="0" x2="74.1" y2="400" stroke="#eee" stroke-width="0.5"/>
  <line x1="103.7" y1="0" x2="103.7" y2="400" stroke="#eee" stroke-width="0.5"/>
  <line x1="133.3" y1="0" x2="133.3" y2="400" stroke="#eee" stroke-width="0.5"/>
  <line x1="163.0" y1="0" x2="163.0" y2="400" stroke="#eee" stroke-width="0.5"/>
  <line x1="192.6" y1="0" x2="192.6" y2="400" stroke="#eee" stroke-width="0.5"/>
  <line x1="222.2" y1="0" x2="222.2" y2="400" stroke="#eee" stroke-width="0.5"/>
  <line x1="251.9" y1="0" x2="251.9" y2="400" stroke="#eee" stroke-width="0.5"/>
  <line x1="281.5" y1="0" x2="281.5" y2="400" stroke="#eee" stroke-width="0.5"/>
  <line x1="311.1" y1="0" x2="311.1" y2="400" stroke="#eee" stroke-width="0.5"/>
  <line x1="340.7" y1="0" x2="340.7" y2="400" stroke="#eee" stroke-width="0.5"/>
  <line x1="370.4" y1="0" x2="370.4" y2="400" stroke="#eee" stroke-width="0.5"/>
  <line x1="400.0" y1="0" x2="400.0" y2="400" stroke="#eee" stroke-width="0.5"/>
  <line x1="0" y1="400.0" x2="400" y2="400.0" stroke="#eee" stroke-width="0.5"/>
  <line x1="0" y1="382.6" x2="400" y2="382.6" stroke="#eee" stroke-width="0.5"/>
  <line x1="0" y1="365.2" x2="400" y2="365.2" stroke="#eee" stroke-width="0.5"/>
  <line x1="0" y1="347.8" x2="400" y2="347.8" stroke="#eee" stroke-width="0.5"/>
  <line x1="0" y1="330.4" x2="400" y2="330.4" stroke="#eee" stroke-width="0.5"/>
  <line x1="0" y1="313.0" x2="400" y2="313.0" stroke="#eee" stroke-width="0.5"/>
  <line x1="0" y1="295.7" x2="400" y2="295.7" stroke="#eee" stroke-width="0.5"/>
  <line x1="0" y1="278.3" x2="400" y2="278.3" stroke="#eee" stroke-width="0.5"/>
  <line x1="0" y1="260.9" x2="400" y2="260.9" stroke="#eee" stroke-width="0.5"/>
  <line x1="0" y1="243.5" x2="400" y2="243.5" stroke="#eee" stroke-width="0.5"/>
  <line x1="0" y1="226.1" x2="400" y2="226.1" stroke="#eee" stroke-width="0.5"/>
  <line x1="0" y1="208.7" x2="400" y2="208.7" stroke="#eee" stroke-width="0.5"/>
  <line x1="0" y1="191.3" x2="400" y2="191.3" stroke="#eee" stroke-width="0.5"/>
  <line x1="0" y1="173.9" x2="400" y2="173.9" stroke="#eee" stroke-width="0.5"/>
  <line x1="0" y1="156.5" x2="400" y2="156.5" stroke="#eee" stroke-width="0.5"/>
  <line x1="0" y1="139.1" x2="400" y2="139.1" stroke="#eee" stroke-width="0.5"/>
  <line x1="0" y1="121.7" x2="400" y2="121.7" stroke="#eee" stroke-width="0.5"/>
  <line x1="0" y1="104.3" x2="400" y2="104.3" stroke="#eee" stroke-width="0.5"/>
  <line x1="0" y1="87.0" x2="400" y2="87.0" stroke="#eee" stroke-width="0.5"/>
  <line x1="0" y1="69.6" x2="400" y2="69.6" stroke="#eee" stroke-width="0.5"/>
  <line x1="0" y1="52.2" x2="400" y2="52.2" stroke="#eee" stroke-width="0.5"/>
  <line x1="0" y1="34.8" x2="400" y2="34.8" stroke="#eee" stroke-width="0.5"/>
  <line x1="0" y1="17.4" x2="400" y2="17.4" stroke="#eee" stroke-width="0.5"/>
  <line x1="0" y1="0.0" x2="400" y2="0.0" stroke="#eee" stroke-width="0.5"/>
  <line x1="0" y1="313.0" x2="400" y2="313.0" stroke="#555" stroke-width="1" marker-end="url(#ah)"/>
  <line x1="74.1" y1="400" x2="74.1" y2="0" stroke="#555" stroke-width="1" marker-end="url(#ah)"/>
  <text x="14.8" y="327.0" text-anchor="middle" font-size="10" fill="#888">-2</text>
  <text x="44.4" y="327.0" text-anchor="middle" font-size="10" fill="#888">-1</text>
  <text x="103.7" y="327.0" text-anchor="middle" font-size="10" fill="#888">1</text>
  <text x="133.3" y="327.0" text-anchor="middle" font-size="10" fill="#888">2</text>
  <text x="163.0" y="327.0" text-anchor="middle" font-size="10" fill="#888">3</text>
  <text x="192.6" y="327.0" text-anchor="middle" font-size="10" fill="#888">4</text>
  <text x="222.2" y="327.0" text-anchor="middle" font-size="10" fill="#888">5</text>
  <text x="251.9" y="327.0" text-anchor="middle" font-size="10" fill="#888">6</text>
  <text x="281.5" y="327.0" text-anchor="middle" font-size="10" fill="#888">7</text>
  <text x="311.1" y="327.0" text-anchor="middle" font-size="10" fill="#888">8</text>
  <text x="340.7" y="327.0" text-anchor="middle" font-size="10" fill="#888">9</text>
  <text x="370.4" y="327.0" text-anchor="middle" font-size="10" fill="#888">10</text>
  <text x="400.0" y="327.0" text-anchor="middle" font-size="10" fill="#888">11</text>
  <text x="68.1" y="404.0" text-anchor="end" font-size="10" fill="#888">-5</text>
  <text x="68.1" y="386.6" text-anchor="end" font-size="10" fill="#888">-4</text>
  <text x="68.1" y="369.2" text-anchor="end" font-size="10" fill="#888">-3</text>
  <text x="68.1" y="351.8" text-anchor="end" font-size="10" fill="#888">-2</text>
  <text x="68.1" y="334.4" text-anchor="end" font-size="10" fill="#888">-1</text>
  <text x="68.1" y="299.7" text-anchor="end" font-size="10" fill="#888">1</text>
  <text x="68.1" y="282.3" text-anchor="end" font-size="10" fill="#888">2</text>
  <text x="68.1" y="264.9" text-anchor="end" font-size="10" fill="#888">3</text>
  <text x="68.1" y="247.5" text-anchor="end" font-size="10" fill="#888">4</text>
  <text x="68.1" y="230.1" text-anchor="end" font-size="10" fill="#888">5</text>
  <text x="68.1" y="212.7" text-anchor="end" font-size="10" fill="#888">6</text>
  <text x="68.1" y="195.3" text-anchor="end" font-size="10" fill="#888">7</text>
  <text x="68.1" y="177.9" text-anchor="end" font-size="10" fill="#888">8</text>
  <text x="68.1" y="160.5" text-anchor="end" font-size="10" fill="#888">9</text>
  <text x="68.1" y="143.1" text-anchor="end" font-size="10" fill="#888">10</text>
  <text x="68.1" y="125.7" text-anchor="end" font-size="10" fill="#888">11</text>
  <text x="68.1" y="108.3" text-anchor="end" font-size="10" fill="#888">12</text>
  <text x="68.1" y="91.0" text-anchor="end" font-size="10" fill="#888">13</text>
  <text x="68.1" y="73.6" text-anchor="end" font-size="10" fill="#888">14</text>
  <text x="68.1" y="56.2" text-anchor="end" font-size="10" fill="#888">15</text>
  <text x="68.1" y="38.8" text-anchor="end" font-size="10" fill="#888">16</text>
  <text x="68.1" y="21.4" text-anchor="end" font-size="10" fill="#888">17</text>
  <text x="68.1" y="4.0" text-anchor="end" font-size="10" fill="#888">18</text>
  <text x="66.1" y="327.0" font-size="10" fill="#888">0</text>
  <polyline points="29.6,340.6 30.8,343.9 31.9,347.8 33.0,352.3 34.2,357.9 35.3,364.9 36.4,373.8 37.6,385.5 38.7,402.0 39.9,426.5 41.0,467.1" fill="none" stroke="#2980b9" stroke-width="2.5"/>
  <polyline points="46.7,48.9 47.8,135.1 48.9,177.7 50.1,203.2 51.2,220.1 52.3,232.2 53.5,241.3 54.6,248.3 55.8,253.9 56.9,258.6 58.0,262.4 59.2,265.7 60.3,268.5 61.4,270.9 62.6,273.0 63.7,274.9 64.8,276.6 66.0,278.1 67.1,279.4 68.2,280.6 69.4,281.8 70.5,282.8 71.7,283.7 72.8,284.6 73.9,285.4 75.1,286.1 76.2,286.8 77.3,287.5 78.5,288.1 79.6,288.6 80.7,289.2 81.9,289.7 83.0,290.1 84.1,290.6 85.3,291.0 86.4,291.4 87.6,291.8 88.7,292.1 89.8,292.5 91.0,292.8 92.1,293.1 93.2,293.4 94.4,293.7 95.5,294.0 96.6,294.2 97.8,294.5 98.9,294.7 100.0,295.0 101.2,295.2 102.3,295.4 103.5,295.6 104.6,295.8 105.7,296.0 106.9,296.2 108.0,296.4 109.1,296.5 110.3,296.7 111.4,296.9 112.5,297.0 113.7,297.2 114.8,297.3 116.0,297.5 117.1,297.6 118.2,297.8 119.4,297.9 120.5,298.0 121.6,298.1 122.8,298.3 123.9,298.4 125.0,298.5 126.2,298.6 127.3,298.7 128.4,298.8 129.6,298.9 130.7,299.0 131.9,299.1 133.0,299.2 134.1,299.3 135.3,299.4 136.4,299.5 137.5,299.6 138.7,299.7 139.8,299.8 140.9,299.9 142.1,299.9 143.2,300.0 144.3,300.1 145.5,300.2 146.6,300.2 147.8,300.3 148.9,300.4 150.0,300.5 151.2,300.5 152.3,300.6 153.4,300.7 154.6,300.7 155.7,300.8 156.8,300.9 158.0,300.9 159.1,301.0 160.2,301.0 161.4,301.1 162.5,301.1 163.7,301.2 164.8,301.3 165.9,301.3 167.1,301.4 168.2,301.4 169.3,301.5 170.5,301.5 171.6,301.6 172.7,301.6 173.9,301.7 175.0,301.7 176.1,301.8 177.3,301.8 178.4,301.9 179.6,301.9 180.7,302.0 181.8,302.0 183.0,302.0 184.1,302.1 185.2,302.1 186.4,302.2 187.5,302.2 188.6,302.2 189.8,302.3 190.9,302.3 192.0,302.4 193.2,302.4 194.3,302.4 195.5,302.5 196.6,302.5 197.7,302.5 198.9,302.6 200.0,302.6 201.1,302.7 202.3,302.7 203.4,302.7 204.5,302.8 205.7,302.8 206.8,302.8 208.0,302.9 209.1,302.9 210.2,302.9 211.4,302.9 212.5,303.0 213.6,303.0 214.8,303.0 215.9,303.1 217.0,303.1 218.2,303.1 219.3,303.2 220.4,303.2 221.6,303.2 222.7,303.2 223.9,303.3 225.0,303.3 226.1,303.3 227.3,303.3 228.4,303.4 229.5,303.4 230.7,303.4 231.8,303.4 232.9,303.5 234.1,303.5 235.2,303.5 236.3,303.5 237.5,303.6 238.6,303.6 239.8,303.6 240.9,303.6 242.0,303.7 243.2,303.7 244.3,303.7 245.4,303.7 246.6,303.8 247.7,303.8 248.8,303.8 250.0,303.8 251.1,303.8 252.2,303.9 253.4,303.9 254.5,303.9 255.7,303.9 256.8,303.9 257.9,304.0 259.1,304.0 260.2,304.0 261.3,304.0 262.5,304.0 263.6,304.1 264.7,304.1 265.9,304.1 267.0,304.1 268.1,304.1 269.3,304.2 270.4,304.2 271.6,304.2 272.7,304.2 273.8,304.2 275.0,304.2 276.1,304.3 277.2,304.3 278.4,304.3 279.5,304.3 280.6,304.3 281.8,304.4 282.9,304.4 284.0,304.4 285.2,304.4 286.3,304.4 287.5,304.4 288.6,304.5 289.7,304.5 290.9,304.5 292.0,304.5 293.1,304.5 294.3,304.5 295.4,304.5 296.5,304.6 297.7,304.6 298.8,304.6 300.0,304.6 301.1,304.6 302.2,304.6 303.4,304.6 304.5,304.7 305.6,304.7 306.8,304.7 307.9,304.7 309.0,304.7 310.2,304.7 311.3,304.7 312.4,304.8 313.6,304.8 314.7,304.8 315.9,304.8 317.0,304.8 318.1,304.8 319.3,304.8 320.4,304.9 321.5,304.9 322.7,304.9 323.8,304.9 324.9,304.9 326.1,304.9 327.2,304.9 328.3,304.9 329.5,305.0 330.6,305.0 331.8,305.0 332.9,305.0 334.0,305.0 335.2,305.0 336.3,305.0 337.4,305.0 338.6,305.1 339.7,305.1 340.8,305.1 342.0,305.1 343.1,305.1 344.2,305.1 345.4,305.1 346.5,305.1 347.7,305.1 348.8,305.2 349.9,305.2 351.1,305.2 352.2,305.2 353.3,305.2 354.5,305.2 355.6,305.2 356.7,305.2 357.9,305.2 359.0,305.3 360.1,305.3 361.3,305.3 362.4,305.3 363.6,305.3 364.7,305.3 365.8,305.3 367.0,305.3 368.1,305.3 369.2,305.3 370.4,305.4" fill="none" stroke="#2980b9" stroke-width="2.5"/>
  <circle cx="281.5" cy="278.3" r="4.5" fill="#e74c3c" stroke="white" stroke-width="1.5"/>
  <text x="289.5" y="270.3" font-size="11" fill="#333">x=7</text>
  <circle cx="281.5" cy="304.3" r="4.5" fill="#e74c3c" stroke="white" stroke-width="1.5"/>
  <text x="290.4" y="295.7" font-size="12" fill="#2c3e50" font-style="italic">y = log(3, x + 2)</text>
</svg>