<svg xmlns="http://www.w3.org/2000/svg" width="500" height="400" viewBox="0 0 500 400" style="background:white;font-family:sans-serif">
  <defs>
    <marker id="ah" markerWidth="8" markerHeight="6" refX="8" refY="3" orient="auto">
      <path d="M0,0 L8,3 L0,6" fill="#555"/></marker>
  </defs>
  <line x1="50.0" y1="0" x2="50.0" y2="400" stroke="#eee" stroke-width="0.5"/>
  <line x1="150.0" y1="0" x2="150.0" y2="400" stroke="#eee" stroke-width="0.5"/>
  <line x1="250.0" y1="0" x2="250.0" y2="400" stroke="#eee" stroke-width="0.5"/>
  <line x1="350.0" y1="0" x2="350.0" y2="400" stroke="#eee" stroke-width="0.5"/>
  <line x1="450.0" y1="0" x2="450.0" y2="400" stroke="#eee" stroke-width="0.5"/>
  <line x1="0" y1="400.0" x2="500" y2="400.0" stroke="#eee" stroke-width="0.5"/>
  <line x1="0" y1="393.9" x2="500" y2="393.9" stroke="#eee" stroke-width="0.5"/>
  <line x1="0" y1="387.9" x2="500" y2="387.9" stroke="#eee" stroke-width="0.5"/>
  <line x1="0" y1="381.8" x2="500" y2="381.8" stroke="#eee" stroke-width="0.5"/>
  <line x1="0" y1="375.8" x2="500" y2="375.8" stroke="#eee" stroke-width="0.5"/>
  <line x1="0" y1="369.7" x2="500" y2="369.7" stroke="#eee" stroke-width="0.5"/>
  <line x1="0" y1="363.6" x2="500" y2="363.6" stroke="#eee" stroke-width="0.5"/>
  <line x1="0" y1="357.6" x2="500" y2="357.6" stroke="#eee" stroke-width="0.5"/>
  <line x1="0" y1="351.5" x2="500" y2="351.5" stroke="#eee" stroke-width="0.5"/>
  <line x1="0" y1="345.5" x2="500" y2="345.5" stroke="#eee" stroke-width="0.5"/>
  <line x1="0" y1="339.4" x2="500" y2="339.4" stroke="#eee" stroke-width="0.5"/>
  <line x1="0" y1="333.3" x2="500" y2="333.3" stroke="#eee" stroke-width="0.5"/>
  <line x1="0" y1="327.3" x2="500" y2="327.3" stroke="#eee" stroke-width="0.5"/>
  <line x1="0" y1="321.2" x2="500" y2="321.2" stroke="#eee" stroke-width="0.5"/>
  <line x1="0" y1="315.2" x2="500" y2="315.2" stroke="#eee" stroke-width="0.5"/>
  <line x1="0" y1="309.1" x2="500" y2="309.1" stroke="#eee" stroke-width="0.5"/>
  <line x1="0" y1="303.0" x2="500" y2="303.0" stroke="#eee" stroke-width="0.5"/>
  <line x1="0" y1="297.0" x2="500" y2="297.0" stroke="#eee" stroke-width="0.5"/>
  <line x1="0" y1="290.9" x2="500" y2="290.9" stroke="#eee" stroke-width="0.5"/>
  <line x1="0" y1="284.8" x2="500" y2="284.8" stroke="#eee" stroke-width="0.5"/>
  <line x1="0" y1="278.8" x2="500" y2="278.8" stroke="#eee" stroke-width="0.5"/>
  <line x1="0" y1="272.7" x2="500" y2="272.7" stroke="#eee" stroke-width="0.5"/>
  <line x1="0" y1="266.7" x2="500" y2="266.7" stroke="#eee" stroke-width="0.5"/>
  <line x1="0" y1="260.6" x2="500" y2="260.6" stroke="#eee" stroke-width="0.5"/>
  <line x1="0" y1="254.5" x2="500" y2="254.5" stroke="#eee" stroke-width="0.5"/>
  <line x1="0" y1="248.5" x2="500" y2="248.5" stroke="#eee" stroke-width="0.5"/>
  <line x1="0" y1="242.4" x2="500" y2="242.4" stroke="#eee" stroke-width="0.5"/>
  <line x1="0" y1="236.4" x2="500" y2="236.4" stroke="#eee" stroke-width="0.5"/>
  <line x1="0" y1="230.3" x2="500" y2="230.3" stroke="#eee" stroke-width="0.5"/>
  <line x1="0" y1="224.2" x2="500" y2="224.2" stroke="#eee" stroke-width="0.5"/>
  <line x1="0" y1="218.2" x2="500" y2="218.2" stroke="#eee" stroke-width="0.5"/>
  <line x1="0" y1="212.1" x2="500" y2="212.1" stroke="#eee" stroke-width="0.5"/>
  <line x1="0" y1="206.1" x2="500" y2="206.1" stroke="#eee" stroke-width="0.5"/>
  <line x1="0" y1="200.0" x2="500" y2="200.0" stroke="#eee" stroke-width="0.5"/>
  <line x1="0" y1="193.9" x2="500" y2="193.9" stroke="#eee" stroke-width="0.5"/>
  <line x1="0" y1="187.9" x2="500" y2="187.9" stroke="#eee" stroke-width="0.5"/>
  <line x1="0" y1="181.8" x2="500" y2="181.8" stroke="#eee" stroke-width="0.5"/>
  <line x1="0" y1="175.8" x2="500" y2="175.8" stroke="#eee" stroke-width="0.5"/>
  <line x1="0" y1="169.7" x2="500" y2="169.7" stroke="#eee" stroke-width="0.5"/>
  <line x1="0" y1="163.6" x2="500" y2="163.6" stroke="#eee" stroke-width="0.5"/>
  <line x1="0" y1="157.6" x2="500" y2="157.6" stroke="#eee" stroke-width="0.5"/>
  <line x1="0" y1="151.5" x2="500" y2="151.5" stroke="#eee" stroke-width="0.5"/>
  <line x1="0" y1="145.5" x2="500" y2="145.5" stroke="#eee" stroke-width="0.5"/>
  <line x1="0" y1="139.4" x2="500" y2="139.4" stroke="#eee" stroke-width="0.5"/>
  <line x1="0" y1="133.3" x2="500" y2="133.3" stroke="#eee" stroke-width="0.5"/>
  <line x1="0" y1="127.3" x2="500" y2="127.3" stroke="#eee" stroke-width="0.5"/>
  <line x1="0" y1="121.2" x2="500" y2="121.2" stroke="#eee" stroke-width="0.5"/>
  <line x1="0" y1="115.2" x2="500" y2="115.2" stroke="#eee" stroke-width="0.5"/>
  <line x1="0" y1="109.1" x2="500" y2="109.1" stroke="#eee" stroke-width="0.5"/>
  <line x1="0" y1="103.0" x2="500" y2="103.0" stroke="#eee" stroke-width="0.5"/>
  <line x1="0" y1="97.0" x2="500" y2="97.0" stroke="#eee" stroke-width="0.5"/>
  <line x1="0" y1="90.9" x2="500" y2="90.9" stroke="#eee" stroke-width="0.5"/>
  <line x1="0" y1="84.8" x2="500" y2="84.8" stroke="#eee" stroke-width="0.5"/>
  <line x1="0" y1="78.8" x2="500" y2="78.8" stroke="#eee" stroke-width="0.5"/>
  <line x1="0" y1="72.7" x2="500" y2="72.7" stroke="#eee" stroke-width="0.5"/>
  <line x1="0" y1="66.7" x2="500" y2="66.7" stroke="#eee" stroke-width="0.5"/>
  <line x1="0" y1="60.6" x2="500" y2="60.6" stroke="#eee" stroke-width="0.5"/>
  <line x1="0" y1="54.5" x2="500" y2="54.5" stroke="#eee" stroke-width="0.5"/>
  <line x1="0" y1="48.5" x2="500" y2="48.5" stroke="#eee" stroke-width="0.5"/>
  <line x1="0" y1="42.4" x2="500" y2="42.4" stroke="#eee" stroke-width="0.5"/>
  <line x1="0" y1="36.4" x2="500" y2="36.4" stroke="#eee" stroke-width="0.5"/>
  <line x1="0" y1="30.3" x2="500" y2="30.3" stroke="#eee" stroke-width="0.5"/>
  <line x1="0" y1="24.2" x2="500" y2="24.2" stroke="#eee" stroke-width="0.5"/>
  <line x1="0" y1="18.2" x2="500" y2="18.2" stroke="#eee" stroke-width="0.5"/>
  <line x1="0" y1="12.1" x2="500" y2="12.1" stroke="#eee" stroke-width="0.5"/>
  <line x1="0" y1="6.1" x2="500" y2="6.1" stroke="#eee" stroke-width="0.5"/>
  <line x1="0" y1="0.0" x2="500" y2="0.0" stroke="#eee" stroke-width="0.5"/>
  <line x1="0" y1="393.9" x2="500" y2="393.9" stroke="#555" stroke-width="1" marker-end="url(#ah)"/>
  <line x1="250.0" y1="400" x2="250.0" y2="0" stroke="#555" stroke-width="1" marker-end="url(#ah)"/>
  <text x="50.0" y="407.9" text-anchor="middle" font-size="10" fill="#888">-2</text>
  <text x="150.0" y="407.9" text-anchor="middle" font-size="10" fill="#888">-1</text>
  <text x="350.0" y="407.9" text-anchor="middle" font-size="10" fill="#888">1</text>
  <text x="450.0" y="407.9" text-anchor="middle" font-size="10" fill="#888">2</text>
  <text x="244.0" y="404.0" text-anchor="end" font-size="10" fill="#888">-1</text>
  <text x="244.0" y="391.9" text-anchor="end" font-size="10" fill="#888">1</text>
  <text x="244.0" y="385.8" text-anchor="end" font-size="10" fill="#888">2</text>
  <text x="244.0" y="379.8" text-anchor="end" font-size="10" fill="#888">3</text>
  <text x="244.0" y="373.7" text-anchor="end" font-size="10" fill="#888">4</text>
  <text x="244.0" y="367.6" text-anchor="end" font-size="10" fill="#888">5</text>
  <text x="244.0" y="361.6" text-anchor="end" font-size="10" fill="#888">6</text>
  <text x="244.0" y="355.5" text-anchor="end" font-size="10" fill="#888">7</text>
  <text x="244.0" y="349.5" text-anchor="end" font-size="10" fill="#888">8</text>
  <text x="244.0" y="343.4" text-anchor="end" font-size="10" fill="#888">9</text>
  <text x="244.0" y="337.3" text-anchor="end" font-size="10" fill="#888">10</text>
  <text x="244.0" y="331.3" text-anchor="end" font-size="10" fill="#888">11</text>
  <text x="244.0" y="325.2" text-anchor="end" font-size="10" fill="#888">12</text>
  <text x="244.0" y="319.2" text-anchor="end" font-size="10" fill="#888">13</text>
  <text x="244.0" y="313.1" text-anchor="end" font-size="10" fill="#888">14</text>
  <text x="244.0" y="307.0" text-anchor="end" font-size="10" fill="#888">15</text>
  <text x="244.0" y="301.0" text-anchor="end" font-size="10" fill="#888">16</text>
  <text x="244.0" y="294.9" text-anchor="end" font-size="10" fill="#888">17</text>
  <text x="244.0" y="288.8" text-anchor="end" font-size="10" fill="#888">18</text>
  <text x="244.0" y="282.8" text-anchor="end" font-size="10" fill="#888">19</text>
  <text x="244.0" y="276.7" text-anchor="end" font-size="10" fill="#888">20</text>
  <text x="244.0" y="270.7" text-anchor="end" font-size="10" fill="#888">21</text>
  <text x="244.0" y="264.6" text-anchor="end" font-size="10" fill="#888">22</text>
  <text x="244.0" y="258.5" text-anchor="end" font-size="10" fill="#888">23</text>
  <text x="244.0" y="252.5" text-anchor="end" font-size="10" fill="#888">24</text>
  <text x="244.0" y="246.4" text-anchor="end" font-size="10" fill="#888">25</text>
  <text x="244.0" y="240.4" text-anchor="end" font-size="10" fill="#888">26</text>
  <text x="244.0" y="234.3" text-anchor="end" font-size="10" fill="#888">27</text>
  <text x="244.0" y="228.2" text-anchor="end" font-size="10" fill="#888">28</text>
  <text x="244.0" y="222.2" text-anchor="end" font-size="10" fill="#888">29</text>
  <text x="244.0" y="216.1" text-anchor="end" font-size="10" fill="#888">30</text>
  <text x="244.0" y="210.1" text-anchor="end" font-size="10" fill="#888">31</text>
  <text x="244.0" y="204.0" text-anchor="end" font-size="10" fill="#888">32</text>
  <text x="244.0" y="197.9" text-anchor="end" font-size="10" fill="#888">33</text>
  <text x="244.0" y="191.9" text-anchor="end" font-size="10" fill="#888">34</text>
  <text x="244.0" y="185.8" text-anchor="end" font-size="10" fill="#888">35</text>
  <text x="244.0" y="179.8" text-anchor="end" font-size="10" fill="#888">36</text>
  <text x="244.0" y="173.7" text-anchor="end" font-size="10" fill="#888">37</text>
  <text x="244.0" y="167.6" text-anchor="end" font-size="10" fill="#888">38</text>
  <text x="244.0" y="161.6" text-anchor="end" font-size="10" fill="#888">39</text>
  <text x="244.0" y="155.5" text-anchor="end" font-size="10" fill="#888">40</text>
  <text x="244.0" y="149.5" text-anchor="end" font-size="10" fill="#888">41</text>
  <text x="244.0" y="143.4" text-anchor="end" font-size="10" fill="#888">42</text>
  <text x="244.0" y="137.3" text-anchor="end" font-size="10" fill="#888">43</text>
  <text x="244.0" y="131.3" text-anchor="end" font-size="10" fill="#888">44</text>
  <text x="244.0" y="125.2" text-anchor="end" font-size="10" fill="#888">45</text>
  <text x="244.0" y="119.2" text-anchor="end" font-size="10" fill="#888">46</text>
  <text x="244.0" y="113.1" text-anchor="end" font-size="10" fill="#888">47</text>
  <text x="244.0" y="107.0" text-anchor="end" font-size="10" fill="#888">48</text>
  <text x="244.0" y="101.0" text-anchor="end" font-size="10" fill="#888">49</text>
  <text x="244.0" y="94.9" text-anchor="end" font-size="10" fill="#888">50</text>
  <text x="244.0" y="88.8" text-anchor="end" font-size="10" fill="#888">51</text>
  <text x="244.0" y="82.8" text-anchor="end" font-size="10" fill="#888">52</text>
  <text x="244.0" y="76.7" text-anchor="end" font-size="10" fill="#888">53</text>
  <text x="244.0" y="70.7" text-anchor="end" font-size="10" fill="#888">54</text>
  <text x="244.0" y="64.6" text-anchor="end" font-size="10" fill="#888">55</text>
  <text x="244.0" y="58.5" text-anchor="end" font-size="10" fill="#888">56</text>
  <text x="244.0" y="52.5" text-anchor="end" font-size="10" fill="#888">57</text>
  <text x="244.0" y="46.4" text-anchor="end" font-size="10" fill="#888">58</text>
  <text x="244.0" y="40.4" text-anchor="end" font-size="10" fill="#888">59</text>
  <text x="244.0" y="34.3" text-anchor="end" font-size="10" fill="#888">60</text>
  <text x="244.0" y="28.2" text-anchor="end" font-size="10" fill="#888">61</text>
  <text x="244.0" y="22.2" text-anchor="end" font-size="10" fill="#888">62</text>
  <text x="244.0" y="16.1" text-anchor="end" font-size="10" fill="#888">63</text>
  <text x="244.0" y="10.1" text-anchor="end" font-size="10" fill="#888">64</text>
  <text x="244.0" y="4.0" text-anchor="end" font-size="10" fill="#888">65</text>
  <text x="242.0" y="407.9" font-size="10" fill="#888">0</text>
  <polyline points="50.0,392.4 51.3,392.4 52.7,392.4 54.0,392.3 55.3,392.3 56.7,392.3 58.0,392.2 59.3,392.2 60.7,392.2 62.0,392.2 63.3,392.1 64.7,392.1 66.0,392.0 67.3,392.0 68.7,392.0 70.0,391.9 71.3,391.9 72.7,391.9 74.0,391.8 75.3,391.8 76.7,391.7 78.0,391.7 79.3,391.7 80.7,391.6 82.0,391.6 83.3,391.5 84.7,391.5 86.0,391.4 87.3,391.4 88.7,391.3 90.0,391.3 91.3,391.3 92.7,391.2 94.0,391.2 95.3,391.1 96.7,391.0 98.0,391.0 99.3,390.9 100.7,390.9 102.0,390.8 103.3,390.8 104.7,390.7 106.0,390.6 107.3,390.6 108.7,390.5 110.0,390.5 111.3,390.4 112.7,390.3 114.0,390.3 115.3,390.2 116.7,390.1 118.0,390.1 119.3,390.0 120.7,389.9 122.0,389.8 123.3,389.8 124.7,389.7 126.0,389.6 127.3,389.5 128.7,389.4 130.0,389.3 131.3,389.3 132.7,389.2 134.0,389.1 135.3,389.0 136.7,388.9 138.0,388.8 139.3,388.7 140.7,388.6 142.0,388.5 143.3,388.4 144.7,388.3 146.0,388.2 147.3,388.1 148.7,388.0 150.0,387.9 151.3,387.8 152.7,387.7 154.0,387.5 155.3,387.4 156.7,387.3 158.0,387.2 159.3,387.0 160.7,386.9 162.0,386.8 163.3,386.6 164.7,386.5 166.0,386.4 167.3,386.2 168.7,386.1 170.0,385.9 171.3,385.8 172.7,385.6 174.0,385.5 175.3,385.3 176.7,385.2 178.0,385.0 179.3,384.8 180.7,384.7 182.0,384.5 183.3,384.3 184.7,384.1 186.0,384.0 187.3,383.8 188.7,383.6 190.0,383.4 191.3,383.2 192.7,383.0 194.0,382.8 195.3,382.6 196.7,382.4 198.0,382.1 199.3,381.9 200.7,381.7 202.0,381.5 203.3,381.2 204.7,381.0 206.0,380.8 207.3,380.5 208.7,380.3 210.0,380.0 211.3,379.8 212.7,379.5 214.0,379.2 215.3,378.9 216.7,378.7 218.0,378.4 219.3,378.1 220.7,377.8 222.0,377.5 223.3,377.2 224.7,376.9 226.0,376.6 227.3,376.2 228.7,375.9 230.0,375.6 231.3,375.2 232.7,374.9 234.0,374.5 235.3,374.2 236.7,373.8 238.0,373.4 239.3,373.0 240.7,372.6 242.0,372.2 243.3,371.8 244.7,371.4 246.0,371.0 247.3,370.6 248.7,370.1 250.0,369.7 251.3,369.2 252.7,368.8 254.0,368.3 255.3,367.8 256.7,367.3 258.0,366.9 259.3,366.3 260.7,365.8 262.0,365.3 263.3,364.8 264.7,364.2 266.0,363.7 267.3,363.1 268.7,362.5 270.0,362.0 271.3,361.4 272.7,360.7 274.0,360.1 275.3,359.5 276.7,358.9 278.0,358.2 279.3,357.5 280.7,356.9 282.0,356.2 283.3,355.5 284.7,354.7 286.0,354.0 287.3,353.3 288.7,352.5 290.0,351.7 291.3,350.9 292.7,350.1 294.0,349.3 295.3,348.5 296.7,347.6 298.0,346.8 299.3,345.9 300.7,345.0 302.0,344.1 303.3,343.2 304.7,342.2 306.0,341.2 307.3,340.3 308.7,339.3 310.0,338.2 311.3,337.2 312.7,336.1 314.0,335.1 315.3,334.0 316.7,332.9 318.0,331.7 319.3,330.6 320.7,329.4 322.0,328.2 323.3,326.9 324.7,325.7 326.0,324.4 327.3,323.1 328.7,321.8 330.0,320.5 331.3,319.1 332.7,317.7 334.0,316.3 335.3,314.8 336.7,313.3 338.0,311.8 339.3,310.3 340.7,308.7 342.0,307.1 343.3,305.5 344.7,303.9 346.0,302.2 347.3,300.5 348.7,298.7 350.0,297.0 351.3,295.2 352.7,293.3 354.0,291.4 355.3,289.5 356.7,287.6 358.0,285.6 359.3,283.6 360.7,281.5 362.0,279.4 363.3,277.3 364.7,275.1 366.0,272.9 367.3,270.6 368.7,268.3 370.0,266.0 371.3,263.6 372.7,261.2 374.0,258.7 375.3,256.2 376.7,253.6 378.0,251.0 379.3,248.3 380.7,245.6 382.0,242.8 383.3,240.0 384.7,237.1 386.0,234.2 387.3,231.2 388.7,228.2 390.0,225.1 391.3,222.0 392.7,218.7 394.0,215.5 395.3,212.1 396.7,208.8 398.0,205.3 399.3,201.8 400.7,198.2 402.0,194.5 403.3,190.8 404.7,187.0 406.0,183.2 407.3,179.2 408.7,175.2 410.0,171.2 411.3,167.0 412.7,162.8 414.0,158.5 415.3,154.1 416.7,149.6 418.0,145.0 419.3,140.4 420.7,135.7 422.0,130.8 423.3,125.9 424.7,120.9 426.0,115.8 427.3,110.7 428.7,105.4 430.0,100.0 431.3,94.5 432.7,88.9 434.0,83.2 435.3,77.4 436.7,71.5 438.0,65.5 439.3,59.4 440.7,53.1 442.0,46.8 443.3,40.3 444.7,33.7 446.0,27.0 447.3,20.1 448.7,13.2 450.0,6.1" fill="none" stroke="#2980b9" stroke-width="2.5"/>
  <text x="406.0" y="192.0" font-size="12" fill="#2980b9" font-style="italic">y = 4^(x+1)</text>
  <polyline points="50.0,345.5 51.3,345.5 52.7,345.5 54.0,345.5 55.3,345.5 56.7,345.5 58.0,345.5 59.3,345.5 60.7,345.5 62.0,345.5 63.3,345.5 64.7,345.5 66.0,345.5 67.3,345.5 68.7,345.5 70.0,345.5 71.3,345.5 72.7,345.5 74.0,345.5 75.3,345.5 76.7,345.5 78.0,345.5 79.3,345.5 80.7,345.5 82.0,345.5 83.3,345.5 84.7,345.5 86.0,345.5 87.3,345.5 88.7,345.5 90.0,345.5 91.3,345.5 92.7,345.5 94.0,345.5 95.3,345.5 96.7,345.5 98.0,345.5 99.3,345.5 100.7,345.5 102.0,345.5 103.3,345.5 104.7,345.5 106.0,345.5 107.3,345.5 108.7,345.5 110.0,345.5 111.3,345.5 112.7,345.5 114.0,345.5 115.3,345.5 116.7,345.5 118.0,345.5 119.3,345.5 120.7,345.5 122.0,345.5 123.3,345.5 124.7,345.5 126.0,345.5 127.3,345.5 128.7,345.5 130.0,345.5 131.3,345.5 132.7,345.5 134.0,345.5 135.3,345.5 136.7,345.5 138.0,345.5 139.3,345.5 140.7,345.5 142.0,345.5 143.3,345.5 144.7,345.5 146.0,345.5 147.3,345.5 148.7,345.5 150.0,345.5 151.3,345.5 152.7,345.5 154.0,345.5 155.3,345.5 156.7,345.5 158.0,345.5 159.3,345.5 160.7,345.5 162.0,345.5 163.3,345.5 164.7,345.5 166.0,345.5 167.3,345.5 168.7,345.5 170.0,345.5 171.3,345.5 172.7,345.5 174.0,345.5 175.3,345.5 176.7,345.5 178.0,345.5 179.3,345.5 180.7,345.5 182.0,345.5 183.3,345.5 184.7,345.5 186.0,345.5 187.3,345.5 188.7,345.5 190.0,345.5 191.3,345.5 192.7,345.5 194.0,345.5 195.3,345.5 196.7,345.5 198.0,345.5 199.3,345.5 200.7,345.5 202.0,345.5 203.3,345.5 204.7,345.5 206.0,345.5 207.3,345.5 208.7,345.5 210.0,345.5 211.3,345.5 212.7,345.5 214.0,345.5 215.3,345.5 216.7,345.5 218.0,345.5 219.3,345.5 220.7,345.5 222.0,345.5 223.3,345.5 224.7,345.5 226.0,345.5 227.3,345.5 228.7,345.5 230.0,345.5 231.3,345.5 232.7,345.5 234.0,345.5 235.3,345.5 236.7,345.5 238.0,345.5 239.3,345.5 240.7,345.5 242.0,345.5 243.3,345.5 244.7,345.5 246.0,345.5 247.3,345.5 248.7,345.5 250.0,345.5 251.3,345.5 252.7,345.5 254.0,345.5 255.3,345.5 256.7,345.5 258.0,345.5 259.3,345.5 260.7,345.5 262.0,345.5 263.3,345.5 264.7,345.5 266.0,345.5 267.3,345.5 268.7,345.5 270.0,345.5 271.3,345.5 272.7,345.5 274.0,345.5 275.3,345.5 276.7,345.5 278.0,345.5 279.3,345.5 280.7,345.5 282.0,345.5 283.3,345.5 284.7,345.5 286.0,345.5 287.3,345.5 288.7,345.5 290.0,345.5 291.3,345.5 292.7,345.5 294.0,345.5 295.3,345.5 296.7,345.5 298.0,345.5 299.3,345.5 300.7,345.5 302.0,345.5 303.3,345.5 304.7,345.5 306.0,345.5 307.3,345.5 308.7,345.5 310.0,345.5 311.3,345.5 312.7,345.5 314.0,345.5 315.3,345.5 316.7,345.5 318.0,345.5 319.3,345.5 320.7,345.5 322.0,345.5 323.3,345.5 324.7,345.5 326.0,345.5 327.3,345.5 328.7,345.5 330.0,345.5 331.3,345.5 332.7,345.5 334.0,345.5 335.3,345.5 336.7,345.5 338.0,345.5 339.3,345.5 340.7,345.5 342.0,345.5 343.3,345.5 344.7,345.5 346.0,345.5 347.3,345.5 348.7,345.5 350.0,345.5 351.3,345.5 352.7,345.5 354.0,345.5 355.3,345.5 356.7,345.5 358.0,345.5 359.3,345.5 360.7,345.5 362.0,345.5 363.3,345.5 364.7,345.5 366.0,345.5 367.3,345.5 368.7,345.5 370.0,345.5 371.3,345.5 372.7,345.5 374.0,345.5 375.3,345.5 376.7,345.5 378.0,345.5 379.3,345.5 380.7,345.5 382.0,345.5 383.3,345.5 384.7,345.5 386.0,345.5 387.3,345.5 388.7,345.5 390.0,345.5 391.3,345.5 392.7,345.5 394.0,345.5 395.3,345.5 396.7,345.5 398.0,345.5 399.3,345.5 400.7,345.5 402.0,345.5 403.3,345.5 404.7,345.5 406.0,345.5 407.3,345.5 408.7,345.5 410.0,345.5 411.3,345.5 412.7,345.5 414.0,345.5 415.3,345.5 416.7,345.5 418.0,345.5 419.3,345.5 420.7,345.5 422.0,345.5 423.3,345.5 424.7,345.5 426.0,345.5 427.3,345.5 428.7,345.5 430.0,345.5 431.3,345.5 432.7,345.5 434.0,345.5 435.3,345.5 436.7,345.5 438.0,345.5 439.3,345.5 440.7,345.5 442.0,345.5 443.3,345.5 444.7,345.5 446.0,345.5 447.3,345.5 448.7,345.5 450.0,345.5" fill="none" stroke="#e74c3c" stroke-width="2.5"/>
  <text x="406.0" y="337.5" font-size="12" fill="#e74c3c" font-style="italic">y = 8</text>
  <circle cx="300.0" cy="345.5" r="4.5" fill="#e74c3c" stroke="white" stroke-width="1.5"/>
  <text x="308.0" y="337.5" font-size="11" fill="#333">x = 0.5</text>
</svg>