<svg xmlns="http://www.w3.org/2000/svg" width="500" height="400" viewBox="0 0 500 400" style="background:white;font-family:sans-serif">
  <defs>
    <marker id="ah" markerWidth="8" markerHeight="6" refX="8" refY="3" orient="auto">
      <path d="M0,0 L8,3 L0,6" fill="#555"/></marker>
  </defs>
  <line x1="51.3" y1="0" x2="51.3" y2="400" stroke="#eee" stroke-width="0.5"/>
  <line x1="179.5" y1="0" x2="179.5" y2="400" stroke="#eee" stroke-width="0.5"/>
  <line x1="307.7" y1="0" x2="307.7" y2="400" stroke="#eee" stroke-width="0.5"/>
  <line x1="435.9" y1="0" x2="435.9" y2="400" stroke="#eee" stroke-width="0.5"/>
  <line x1="0" y1="400.0" x2="500" y2="400.0" stroke="#eee" stroke-width="0.5"/>
  <line x1="0" y1="363.6" x2="500" y2="363.6" stroke="#eee" stroke-width="0.5"/>
  <line x1="0" y1="327.3" x2="500" y2="327.3" stroke="#eee" stroke-width="0.5"/>
  <line x1="0" y1="290.9" x2="500" y2="290.9" stroke="#eee" stroke-width="0.5"/>
  <line x1="0" y1="254.5" x2="500" y2="254.5" stroke="#eee" stroke-width="0.5"/>
  <line x1="0" y1="218.2" x2="500" y2="218.2" stroke="#eee" stroke-width="0.5"/>
  <line x1="0" y1="181.8" x2="500" y2="181.8" stroke="#eee" stroke-width="0.5"/>
  <line x1="0" y1="145.5" x2="500" y2="145.5" stroke="#eee" stroke-width="0.5"/>
  <line x1="0" y1="109.1" x2="500" y2="109.1" stroke="#eee" stroke-width="0.5"/>
  <line x1="0" y1="72.7" x2="500" y2="72.7" stroke="#eee" stroke-width="0.5"/>
  <line x1="0" y1="36.4" x2="500" y2="36.4" stroke="#eee" stroke-width="0.5"/>
  <line x1="0" y1="0.0" x2="500" y2="0.0" stroke="#eee" stroke-width="0.5"/>
  <line x1="0" y1="327.3" x2="500" y2="327.3" stroke="#555" stroke-width="1" marker-end="url(#ah)"/>
  <line x1="51.3" y1="400" x2="51.3" y2="0" stroke="#555" stroke-width="1" marker-end="url(#ah)"/>
  <text x="179.5" y="341.3" text-anchor="middle" font-size="10" fill="#888">1</text>
  <text x="307.7" y="341.3" text-anchor="middle" font-size="10" fill="#888">2</text>
  <text x="435.9" y="341.3" text-anchor="middle" font-size="10" fill="#888">3</text>
  <text x="45.3" y="404.0" text-anchor="end" font-size="10" fill="#888">-2</text>
  <text x="45.3" y="367.6" text-anchor="end" font-size="10" fill="#888">-1</text>
  <text x="45.3" y="294.9" text-anchor="end" font-size="10" fill="#888">1</text>
  <text x="45.3" y="258.5" text-anchor="end" font-size="10" fill="#888">2</text>
  <text x="45.3" y="222.2" text-anchor="end" font-size="10" fill="#888">3</text>
  <text x="45.3" y="185.8" text-anchor="end" font-size="10" fill="#888">4</text>
  <text x="45.3" y="149.5" text-anchor="end" font-size="10" fill="#888">5</text>
  <text x="45.3" y="113.1" text-anchor="end" font-size="10" fill="#888">6</text>
  <text x="45.3" y="76.7" text-anchor="end" font-size="10" fill="#888">7</text>
  <text x="45.3" y="40.4" text-anchor="end" font-size="10" fill="#888">8</text>
  <text x="45.3" y="4.0" text-anchor="end" font-size="10" fill="#888">9</text>
  <text x="43.3" y="341.3" font-size="10" fill="#888">0</text>
  <polyline points="64.1,323.6 65.3,323.3 66.6,322.9 67.8,322.6 69.1,322.2 70.3,321.9 71.5,321.5 72.8,321.2 74.0,320.8 75.3,320.5 76.5,320.1 77.7,319.8 79.0,319.4 80.2,319.1 81.5,318.7 82.7,318.4 83.9,318.0 85.2,317.7 86.4,317.3 87.6,317.0 88.9,316.6 90.1,316.3 91.4,315.9 92.6,315.6 93.8,315.2 95.1,314.8 96.3,314.5 97.6,314.1 98.8,313.8 100.0,313.4 101.3,313.1 102.5,312.7 103.8,312.4 105.0,312.0 106.2,311.7 107.5,311.3 108.7,311.0 110.0,310.6 111.2,310.3 112.4,309.9 113.7,309.6 114.9,309.2 116.2,308.9 117.4,308.5 118.6,308.2 119.9,307.8 121.1,307.5 122.4,307.1 123.6,306.8 124.8,306.4 126.1,306.1 127.3,305.7 128.5,305.4 129.8,305.0 131.0,304.7 132.3,304.3 133.5,304.0 134.7,303.6 136.0,303.2 137.2,302.9 138.5,302.5 139.7,302.2 140.9,301.8 142.2,301.5 143.4,301.1 144.7,300.8 145.9,300.4 147.1,300.1 148.4,299.7 149.6,299.4 150.9,299.0 152.1,298.7 153.3,298.3 154.6,298.0 155.8,297.6 157.1,297.3 158.3,296.9 159.5,296.6 160.8,296.2 162.0,295.9 163.2,295.5 164.5,295.2 165.7,294.8 167.0,294.5 168.2,294.1 169.4,293.8 170.7,293.4 171.9,293.1 173.2,292.7 174.4,292.4 175.6,292.0 176.9,291.6 178.1,291.3 179.4,290.9 180.6,290.6 181.8,290.2 183.1,289.9 184.3,289.5 185.6,289.2 186.8,288.8 188.0,288.5 189.3,288.1 190.5,287.8 191.8,287.4 193.0,287.1 194.2,286.7 195.5,286.4 196.7,286.0 197.9,285.7 199.2,285.3 200.4,285.0 201.7,284.6 202.9,284.3 204.1,283.9 205.4,283.6 206.6,283.2 207.9,282.9 209.1,282.5 210.3,282.2 211.6,281.8 212.8,281.5 214.1,281.1 215.3,280.8 216.5,280.4 217.8,280.0 219.0,279.7 220.3,279.3 221.5,279.0 222.7,278.6 224.0,278.3 225.2,277.9 226.5,277.6 227.7,277.2 228.9,276.9 230.2,276.5 231.4,276.2 232.6,275.8 233.9,275.5 235.1,275.1 236.4,274.8 237.6,274.4 238.8,274.1 240.1,273.7 241.3,273.4 242.6,273.0 243.8,272.7 245.0,272.3 246.3,272.0 247.5,271.6 248.8,271.3 250.0,270.9 251.2,270.6 252.5,270.2 253.7,269.9 255.0,269.5 256.2,269.2 257.4,268.8 258.7,268.4 259.9,268.1 261.2,267.7 262.4,267.4 263.6,267.0 264.9,266.7 266.1,266.3 267.4,266.0 268.6,265.6 269.8,265.3 271.1,264.9 272.3,264.6 273.5,264.2 274.8,263.9 276.0,263.5 277.3,263.2 278.5,262.8 279.7,262.5 281.0,262.1 282.2,261.8 283.5,261.4 284.7,261.1 285.9,260.7 287.2,260.4 288.4,260.0 289.7,259.7 290.9,259.3 292.1,259.0 293.4,258.6 294.6,258.3 295.9,257.9 297.1,257.6 298.3,257.2 299.6,256.8 300.8,256.5 302.1,256.1 303.3,255.8 304.5,255.4 305.8,255.1 307.0,254.7 308.2,254.4 309.5,254.0 310.7,253.7 312.0,253.3 313.2,253.0 314.4,252.6 315.7,252.3 316.9,251.9 318.2,251.6 319.4,251.2 320.6,250.9 321.9,250.5 323.1,250.2 324.4,249.8 325.6,249.5 326.8,249.1 328.1,248.8 329.3,248.4 330.6,248.1 331.8,247.7 333.0,247.4 334.3,247.0 335.5,246.7 336.8,246.3 338.0,246.0 339.2,245.6 340.5,245.2 341.7,244.9 342.9,244.5 344.2,244.2 345.4,243.8 346.7,243.5 347.9,243.1 349.1,242.8 350.4,242.4 351.6,242.1 352.9,241.7 354.1,241.4 355.3,241.0 356.6,240.7 357.8,240.3 359.1,240.0 360.3,239.6 361.5,239.3 362.8,238.9 364.0,238.6 365.3,238.2 366.5,237.9 367.7,237.5 369.0,237.2 370.2,236.8 371.5,236.5 372.7,236.1 373.9,235.8 375.2,235.4 376.4,235.1 377.6,234.7 378.9,234.4 380.1,234.0 381.4,233.6 382.6,233.3 383.8,232.9 385.1,232.6 386.3,232.2 387.6,231.9 388.8,231.5 390.0,231.2 391.3,230.8 392.5,230.5 393.8,230.1 395.0,229.8 396.2,229.4 397.5,229.1 398.7,228.7 400.0,228.4 401.2,228.0 402.4,227.7 403.7,227.3 404.9,227.0 406.2,226.6 407.4,226.3 408.6,225.9 409.9,225.6 411.1,225.2 412.4,224.9 413.6,224.5 414.8,224.2 416.1,223.8 417.3,223.5 418.5,223.1 419.8,222.8 421.0,222.4 422.3,222.0 423.5,221.7 424.7,221.3 426.0,221.0 427.2,220.6 428.5,220.3 429.7,219.9 430.9,219.6 432.2,219.2 433.4,218.9 434.7,218.5 435.9,218.2" fill="none" stroke="#2980b9" stroke-width="2.5"/>
  <text x="345.7" y="237.5" font-size="12" fill="#2980b9" font-style="italic">f(x)</text>
  <polyline points="64.1,363.3 65.3,363.2 66.6,363.1 67.8,363.0 69.1,362.9 70.3,362.8 71.5,362.7 72.8,362.6 74.0,362.5 75.3,362.4 76.5,362.2 77.7,362.1 79.0,361.9 80.2,361.8 81.5,361.6 82.7,361.5 83.9,361.3 85.2,361.1 86.4,360.9 87.6,360.7 88.9,360.5 90.1,360.3 91.4,360.1 92.6,359.9 93.8,359.6 95.1,359.4 96.3,359.1 97.6,358.9 98.8,358.6 100.0,358.4 101.3,358.1 102.5,357.8 103.8,357.5 105.0,357.3 106.2,357.0 107.5,356.6 108.7,356.3 110.0,356.0 111.2,355.7 112.4,355.4 113.7,355.0 114.9,354.7 116.2,354.3 117.4,354.0 118.6,353.6 119.9,353.2 121.1,352.8 122.4,352.5 123.6,352.1 124.8,351.7 126.1,351.3 127.3,350.8 128.5,350.4 129.8,350.0 131.0,349.6 132.3,349.1 133.5,348.7 134.7,348.2 136.0,347.8 137.2,347.3 138.5,346.8 139.7,346.3 140.9,345.9 142.2,345.4 143.4,344.9 144.7,344.3 145.9,343.8 147.1,343.3 148.4,342.8 149.6,342.2 150.9,341.7 152.1,341.2 153.3,340.6 154.6,340.0 155.8,339.5 157.1,338.9 158.3,338.3 159.5,337.7 160.8,337.1 162.0,336.5 163.2,335.9 164.5,335.3 165.7,334.7 167.0,334.0 168.2,333.4 169.4,332.7 170.7,332.1 171.9,331.4 173.2,330.8 174.4,330.1 175.6,329.4 176.9,328.7 178.1,328.0 179.4,327.3 180.6,326.6 181.8,325.9 183.1,325.2 184.3,324.5 185.6,323.7 186.8,323.0 188.0,322.3 189.3,321.5 190.5,320.7 191.8,320.0 193.0,319.2 194.2,318.4 195.5,317.6 196.7,316.8 197.9,316.0 199.2,315.2 200.4,314.4 201.7,313.6 202.9,312.8 204.1,311.9 205.4,311.1 206.6,310.2 207.9,309.4 209.1,308.5 210.3,307.7 211.6,306.8 212.8,305.9 214.1,305.0 215.3,304.1 216.5,303.2 217.8,302.3 219.0,301.4 220.3,300.5 221.5,299.5 222.7,298.6 224.0,297.7 225.2,296.7 226.5,295.8 227.7,294.8 228.9,293.8 230.2,292.8 231.4,291.9 232.6,290.9 233.9,289.9 235.1,288.9 236.4,287.8 237.6,286.8 238.8,285.8 240.1,284.8 241.3,283.7 242.6,282.7 243.8,281.6 245.0,280.6 246.3,279.5 247.5,278.4 248.8,277.4 250.0,276.3 251.2,275.2 252.5,274.1 253.7,273.0 255.0,271.9 256.2,270.7 257.4,269.6 258.7,268.5 259.9,267.3 261.2,266.2 262.4,265.0 263.6,263.9 264.9,262.7 266.1,261.5 267.4,260.4 268.6,259.2 269.8,258.0 271.1,256.8 272.3,255.6 273.5,254.3 274.8,253.1 276.0,251.9 277.3,250.7 278.5,249.4 279.7,248.2 281.0,246.9 282.2,245.6 283.5,244.4 284.7,243.1 285.9,241.8 287.2,240.5 288.4,239.2 289.7,237.9 290.9,236.6 292.1,235.3 293.4,234.0 294.6,232.6 295.9,231.3 297.1,230.0 298.3,228.6 299.6,227.2 300.8,225.9 302.1,224.5 303.3,223.1 304.5,221.7 305.8,220.4 307.0,219.0 308.2,217.6 309.5,216.1 310.7,214.7 312.0,213.3 313.2,211.9 314.4,210.4 315.7,209.0 316.9,207.5 318.2,206.1 319.4,204.6 320.6,203.1 321.9,201.6 323.1,200.2 324.4,198.7 325.6,197.2 326.8,195.6 328.1,194.1 329.3,192.6 330.6,191.1 331.8,189.6 333.0,188.0 334.3,186.5 335.5,184.9 336.8,183.3 338.0,181.8 339.2,180.2 340.5,178.6 341.7,177.0 342.9,175.4 344.2,173.8 345.4,172.2 346.7,170.6 347.9,169.0 349.1,167.3 350.4,165.7 351.6,164.1 352.9,162.4 354.1,160.8 355.3,159.1 356.6,157.4 357.8,155.7 359.1,154.1 360.3,152.4 361.5,150.7 362.8,149.0 364.0,147.3 365.3,145.5 366.5,143.8 367.7,142.1 369.0,140.3 370.2,138.6 371.5,136.8 372.7,135.1 373.9,133.3 375.2,131.6 376.4,129.8 377.6,128.0 378.9,126.2 380.1,124.4 381.4,122.6 382.6,120.8 383.8,119.0 385.1,117.1 386.3,115.3 387.6,113.4 388.8,111.6 390.0,109.7 391.3,107.9 392.5,106.0 393.8,104.1 395.0,102.3 396.2,100.4 397.5,98.5 398.7,96.6 400.0,94.7 401.2,92.8 402.4,90.8 403.7,88.9 404.9,87.0 406.2,85.0 407.4,83.1 408.6,81.1 409.9,79.2 411.1,77.2 412.4,75.2 413.6,73.2 414.8,71.2 416.1,69.2 417.3,67.2 418.5,65.2 419.8,63.2 421.0,61.2 422.3,59.2 423.5,57.1 424.7,55.1 426.0,53.0 427.2,51.0 428.5,48.9 429.7,46.8 430.9,44.7 432.2,42.7 433.4,40.6 434.7,38.5 435.9,36.4" fill="none" stroke="#e74c3c" stroke-width="2.5"/>
  <text x="345.7" y="171.5" font-size="12" fill="#e74c3c" font-style="italic">g(x)</text>
  <circle cx="179.5" cy="290.9" r="4.5" fill="#e74c3c" stroke="white" stroke-width="1.5"/>
  <text x="187.5" y="282.9" font-size="11" fill="#333">Пересечение f(x) и g(x)</text>
</svg>