<svg xmlns="http://www.w3.org/2000/svg" width="500" height="1050">
  <defs>
    <marker id="arrowhead" markerWidth="10" markerHeight="7" refX="10" refY="3.5" orient="auto">
      <polygon points="0 0, 10 3.5, 0 7" fill="#333"/>
    </marker>
  </defs>
  <rect width="500" height="1050" fill="white"/>
  <text x="250" y="44" text-anchor="middle" font-size="17" font-weight="bold" fill="#333">Построение вероятности пошагово</text>
  <line x1="250.0" y1="214.0" x2="250.0" y2="284.0" stroke="#333" stroke-width="1.5" marker-end="url(#arrowhead)"/>
  <line x1="250.0" y1="408.0" x2="250.0" y2="478.0" stroke="#333" stroke-width="1.5" marker-end="url(#arrowhead)"/>
  <line x1="250.0" y1="582.0" x2="250.0" y2="652.0" stroke="#333" stroke-width="1.5" marker-end="url(#arrowhead)"/>
  <line x1="250.0" y1="736.0" x2="250.0" y2="806.0" stroke="#333" stroke-width="1.5" marker-end="url(#arrowhead)"/>
  <rect x="120.0" y="70.0" width="260" height="144.0" rx="6" fill="#f5f5f5" stroke="#333333" stroke-width="1.5"/>
  <text x="250.0" y="135.5" text-anchor="middle" font-size="13" fill="#333">Определи, что такое &quot;один исход&quot;.</text>
  <text x="250.0" y="152.5" text-anchor="middle" font-size="13" fill="#333">Пример: один бросок монеты — исхо…</text>
  <rect x="120.0" y="284.0" width="260" height="124.0" rx="6" fill="#f5f5f5" stroke="#333333" stroke-width="1.5"/>
  <text x="250.0" y="339.5" text-anchor="middle" font-size="13" fill="#333">Найди $n$ — число всех возможных …</text>
  <text x="250.0" y="356.5" text-anchor="middle" font-size="13" fill="#333">Перечисли их всё, если их меньше …</text>
  <rect x="120.0" y="478.0" width="260" height="104.0" rx="6" fill="#f5f5f5" stroke="#333333" stroke-width="1.5"/>
  <text x="250.0" y="523.5" text-anchor="middle" font-size="13" fill="#333">Найди $m$ — число благоприятных и…</text>
  <text x="250.0" y="540.5" text-anchor="middle" font-size="13" fill="#333">Посчитай, сколько из перечисленны…</text>
  <rect x="120.0" y="652.0" width="260" height="84.0" rx="6" fill="#f5f5f5" stroke="#333333" stroke-width="1.5"/>
  <text x="250.0" y="687.5" text-anchor="middle" font-size="13" fill="#333">Подставь в формулу: $P = rac{m}{…</text>
  <text x="250.0" y="704.5" text-anchor="middle" font-size="13" fill="#333">Выполни деление. Пример: $P = ra…</text>
  <rect x="120.0" y="806.0" width="260" height="144.0" rx="6" fill="#f5f5f5" stroke="#333333" stroke-width="1.5"/>
  <text x="250.0" y="871.5" text-anchor="middle" font-size="13" fill="#333">Округли, если нужно.</text>
  <text x="250.0" y="888.5" text-anchor="middle" font-size="13" fill="#333">В ЕГЭ ответ — десятичная дробь (н…</text>
</svg>